<svg version="1.1" id="Layer_1" xmlns="http://www.w3.org/2000/svg" x="0" y="0" viewBox="0 0 1200 150" xml:space="preserve">
  <style>
    .st1{fill:#ac8039}
  </style>
  <g opacity=".4">
    <path class="st1" d="M339 101.8c1.2 1 2.3 2.1 3.4 3.1.3.3.8.7.2 1.4-1.3-1.1-2.6-2.1-4-3.2-.1.6-.1 1.1.1 1.6.2.7.4 1.5.5 2.2.1.5 0 1-.8 1-.9-1.4-.7-3.3-1.7-5-.5 1.1-.9 2-1.4 2.9-.5.8-.5 2-2 2.4.2-.8.3-1.4.5-2 .6-1.5 1.2-2.9 1.9-4.3.6-1.2.5-2.2-.1-3.2-1.9-.5-3.7-.9-5.4-1.3-1.2 1.3-1.4 1.6-1.4 3.1v5c0 .6 0 1.2-.8 1.9-1-1.8-.3-3.6-.8-5.4-1.4 1.1-1.7 3.1-3.7 3.8-.3-2.1 1.6-3.1 1.8-5-1 .3-1.8.7-2.6.9-.7.2-1.5.9-2.4-.1.6-.3 1-.7 1.5-.9 1.4-.6 2.8-1.2 4.3-1.8 1.2-.4 1.9-1.3 2.1-1.9-.9-1.6-1.7-2.9-2.4-4.1-1.3 0-2.1.5-2.8 1.3-1.1 1.3-2.3 2.6-3.4 3.9-.4.4-.8 1-1.7.7.4-1.9 2.2-2.8 3.1-4.6-.6.1-1 .2-1.4.2l-2.4.6c-.5.1-1.1.2-1.4-.6 1.1-1.3 3.1-1 4.5-2-1.4-1.1-3.3-.9-4.4-2.4.7-.7 1.3-.4 1.8-.2 1.4.4 2.8.9 4.2 1.5 1.1.5 2.1.4 3.1-.2.3-1.6.6-3.1.9-4.6-1-.9-2.1-1.1-3.2-.9-1.7.3-3.3.4-5 .6-.6.1-1.2.2-1.8-.6 1.6-1.1 3.5-.6 5.4-1.5-1-.5-1.8-.9-2.5-1.3s-1.7-.5-1.7-1.8c1.8-.4 3.1 1.2 4.8 1.4-.4-1.7-1.8-2.9-1.8-4.6.9-.2 1.2.4 1.4.9.8 1.4 1.6 2.7 2.3 4.1.5 1 1.2 1.6 2.4 1.8 1.6-1.3 3.3-2.7 4.9-4 0-1.1-.4-1.7-1-2.2-1.3-1.2-2.6-2.4-3.9-3.7-.4-.4-.9-.7-.6-1.6 1.8.7 2.8 2.5 4.6 3.5-.1-1.9-1-3.5-.5-5.4 1.5 1.2 1.2 3.3 2.2 4.8 1-1.5 1.2-3.4 2.7-4.5.1.5.1 1 0 1.5-.6 1.6-1.2 3.1-1.8 4.7-.3.6-.5 1.3.1 2.1 1.7.5 3.6 1 5.4 1.5 1.1-.9 1.4-1.8 1.3-2.9v-4.9c0-.5-.1-1.1.8-1.3 1 1.4.2 3.3.9 4.8 1.3-.9 1.5-2.7 2.9-3.3.7.3.7.7.5 1.2l-.9 1.5c-.4.6-.7 1.3-1.1 1.9.6.1 1.1 0 1.5-.1l2.7-.9c.5-.1 1-.3 1.4.6-.6.3-1.1.7-1.7.9-1.4.5-2.9 1.1-4.4 1.5-1 .3-1.8.9-2.1 2.1.7 1.3 1.5 2.7 2.3 4 2.5-.4 2.5-.4 3.8-2 .9-1.1 1.9-2.2 2.9-3.2.3-.3.8-.5 1.2-.8l.3.3c-.2 1.7-2 2.6-2.6 4.2 1.6.2 3-1.2 4.7-.4-1.1 1.9-3.3 1.2-4.6 2.4 1.5 1.2 3.7 1.1 5 2.9-1.1.3-1.3.3-2.3-.1-1.4-.5-2.8-1-4.1-1.7-1.3-.6-2.4-.4-3.6.3-.1 1.5-.2 3-.4 4.5 1.3 1 2.5 1.4 4 1.1 1.4-.3 2.8-.4 4.3-.6.5-.1 1.2-.2 1.6.6-1.4 1.1-3.2.6-4.8 1.4 1.1 1.2 3 1.1 3.7 2.5-.4.8-.9.7-1.4.5-.7-.3-1.3-.7-2-.9-.5-.2-.9-.6-1.7-.4.4.9.9 1.8 1.2 2.7.3.8 1.1 1.6.3 2.8-.5-.6-.9-1-1.2-1.5-.7-1.3-1.4-2.6-2-4-.6-1.5-1.7-2.1-3.1-2.5-1.5 1.4-2.9 2.7-4.5 4.1.2 1.2.8 2.3 1.9 3.2zm-7.3-19.9c-1.4 1.2-2.7 2.2-4.1 3.4 1.8 1 3.5 1.8 5.5 2.7-.5-2.2-.9-4-1.4-6.1zm6.2.3c-1.7-.5-3.1-.9-4.9-1.4.5 2.2 1 4.1 1.4 6 .1 0 .2.1.4.1 1-1.6 2-3.1 3.1-4.7zm-7.1 14c1.6.6 2.9.9 4.7 1.3-.5-2.1-.9-3.9-1.4-5.7-.1 0-.2-.1-.4-.1-.9 1.4-1.9 2.9-2.9 4.5zm9.8-2.7c-1.7-.8-3.2-1.6-5-2.4.4 2.1.8 3.8 1.3 5.8 1.4-1.2 2.4-2.2 3.7-3.4zm-4.2-5.9c.1.1.1.2.2.3 1.4-.2 2.8-.7 4.4-1.2-.5-1.1-1-2.2-1.7-3.6-1.2 1.7-2 3.1-2.9 4.5zm-9.3-.6c-.2 1.3-.3 2.4-.5 3.8 1.7-.5 3.2-.9 4.6-1.3 0-.1.1-.3.1-.4-1.4-.7-2.7-1.4-4.2-2.1zm.1 5.4c.7 1.1 1.3 2 2 3.1 1-1.5 1.8-2.8 2.6-4.1-.1-.1-.1-.2-.2-.3-1.4.4-2.8.8-4.4 1.3zm13.9-.5c.2-1.2.4-2.2.6-3.3-1.1-.2-3.5.4-4.7 1.3 1.4.7 2.7 1.3 4.1 2zM1066.2 120.3c1.2 1 2.3 2.1 3.4 3.1.3.3.8.7.2 1.4-1.3-1.1-2.6-2.1-4-3.2-.1.6-.1 1.1.1 1.6.2.7.4 1.5.5 2.2.1.5 0 1-.8 1-.9-1.4-.7-3.3-1.7-5-.5 1.1-.9 2-1.4 2.9-.5.8-.5 2-2 2.4.2-.8.3-1.4.5-2 .6-1.5 1.2-2.9 1.9-4.3.6-1.2.5-2.2-.1-3.2-1.9-.5-3.7-.9-5.4-1.3-1.2 1.3-1.4 1.6-1.4 3.1v5c0 .6 0 1.2-.8 1.9-1-1.8-.3-3.6-.8-5.4-1.4 1.1-1.7 3.1-3.7 3.8-.3-2.1 1.6-3.1 1.8-5-1 .3-1.8.7-2.6.9-.7.2-1.5.9-2.4-.1.6-.3 1-.7 1.5-.9 1.4-.6 2.8-1.2 4.3-1.8 1.2-.4 1.9-1.3 2.1-1.9-.9-1.6-1.7-2.9-2.4-4.1-1.3 0-2.1.5-2.8 1.3-1.1 1.3-2.3 2.6-3.4 3.9-.4.4-.8 1-1.7.7.4-1.9 2.2-2.8 3.1-4.6-.6.1-1 .2-1.4.2l-2.4.6c-.5.1-1.1.2-1.4-.6 1.1-1.3 3.1-1 4.5-2-1.4-1.1-3.3-.9-4.4-2.4.7-.7 1.3-.4 1.8-.2 1.4.4 2.8.9 4.2 1.5 1.1.5 2.1.4 3.1-.2.3-1.6.6-3.1.9-4.6-1-.9-2.1-1.1-3.2-.9-1.7.3-3.3.4-5 .6-.6.1-1.2.2-1.8-.6 1.6-1.1 3.5-.6 5.4-1.5-1-.5-1.8-.9-2.5-1.3s-1.7-.5-1.7-1.8c1.8-.4 3.1 1.2 4.8 1.4-.4-1.7-1.8-2.9-1.8-4.6.9-.2 1.2.4 1.4.9.8 1.4 1.6 2.7 2.3 4.1.5 1 1.2 1.6 2.4 1.8 1.6-1.3 3.3-2.7 4.9-4 0-1.1-.4-1.7-1-2.2-1.3-1.2-2.6-2.4-3.9-3.7-.4-.4-.9-.7-.6-1.6 1.8.7 2.8 2.5 4.6 3.5-.1-1.9-1-3.5-.5-5.4 1.5 1.2 1.2 3.3 2.2 4.8 1-1.5 1.2-3.4 2.7-4.5.1.5.1 1 0 1.5-.6 1.6-1.2 3.1-1.8 4.7-.3.6-.5 1.3.1 2.1 1.7.5 3.6 1 5.4 1.5 1.1-.9 1.4-1.8 1.3-2.9V92c0-.5-.1-1.1.8-1.3 1 1.4.2 3.3.9 4.8 1.3-.9 1.5-2.7 2.9-3.3.7.3.7.7.5 1.2l-.9 1.5c-.4.6-.7 1.3-1.1 1.9.6.1 1.1 0 1.5-.1l2.7-.9c.5-.1 1-.3 1.4.6-.6.3-1.1.7-1.7.9-1.4.5-2.9 1.1-4.4 1.5-1 .3-1.8.9-2.1 2.1.7 1.3 1.5 2.7 2.3 4 2.5-.4 2.5-.4 3.8-2 .9-1.1 1.9-2.2 2.9-3.2.3-.3.8-.5 1.2-.8l.3.3c-.2 1.7-2 2.6-2.6 4.2 1.6.2 3-1.2 4.7-.4-1.1 1.9-3.3 1.2-4.6 2.4 1.5 1.2 3.7 1.1 5 2.9-1.1.3-1.3.3-2.3-.1-1.4-.5-2.8-1-4.1-1.7-1.3-.6-2.4-.4-3.6.3-.1 1.5-.2 3-.4 4.5 1.3 1 2.5 1.4 4 1.1 1.4-.3 2.8-.4 4.3-.6.5-.1 1.2-.2 1.6.6-1.4 1.1-3.2.6-4.8 1.4 1.1 1.2 3 1.1 3.7 2.5-.4.8-.9.7-1.4.5-.7-.3-1.3-.7-2-.9-.5-.2-.9-.6-1.7-.4.4.9.9 1.8 1.2 2.7.3.8 1.1 1.6.3 2.8-.5-.6-.9-1-1.2-1.5-.7-1.3-1.4-2.6-2-4-.6-1.5-1.7-2.1-3.1-2.5-1.5 1.4-2.9 2.7-4.5 4.1.3 1.2.8 2.3 1.9 3.2zm-7.2-19.9c-1.4 1.2-2.7 2.2-4.1 3.4 1.8 1 3.5 1.8 5.5 2.7-.5-2.2-.9-4-1.4-6.1zm6.1.3c-1.7-.5-3.1-.9-4.9-1.4.5 2.2 1 4.1 1.4 6 .1 0 .2.1.4.1 1-1.5 2-3 3.1-4.7zm-7.1 14.1c1.6.6 2.9.9 4.7 1.3-.5-2.1-.9-3.9-1.4-5.7-.1 0-.2-.1-.4-.1-.9 1.4-1.8 2.8-2.9 4.5zm9.8-2.7c-1.7-.8-3.2-1.6-5-2.4.4 2.1.8 3.8 1.3 5.8 1.4-1.3 2.5-2.2 3.7-3.4zm-4.2-6c.1.1.1.2.2.3 1.4-.2 2.8-.7 4.4-1.2-.5-1.1-1-2.2-1.7-3.6-1.1 1.8-2 3.2-2.9 4.5zm-9.3-.6c-.2 1.3-.3 2.4-.5 3.8 1.7-.5 3.2-.9 4.6-1.3 0-.1.1-.3.1-.4-1.3-.7-2.6-1.3-4.2-2.1zm.1 5.4c.7 1.1 1.3 2 2 3.1 1-1.5 1.8-2.8 2.6-4.1-.1-.1-.1-.2-.2-.3-1.4.4-2.8.8-4.4 1.3zm14-.4c.2-1.2.4-2.2.6-3.3-1.1-.2-3.5.4-4.7 1.3 1.3.6 2.6 1.3 4.1 2zM872.2 51.9c.4-.7-.1-1.3 0-2 .2.1.4.1.5.2.4.3.8.5 1.2.8.3.2.6.3.8-.2-.4-.8-1.4-1-2-1.8.6-.4 1.4-.1 1.9-.6 0-.5-.3-.5-.6-.5-.6.1-1.2.1-1.9.2-.5.1-.9 0-1.3-.3-.9-.6-1.8-1.2-2.6-1.8-.2-.1-.4-.3-.7-.5.3-.1.4-.1.5-.1 1.2-.1 2.4-.2 3.6-.4.6-.1 1.1 0 1.5.4.4.3.8.6 1.2 1 .3.2.5.3.9 0-.1-.8-.9-.9-1.3-1.6.7-.1 1.3-.1 1.9-.2.4-.1.4-.1.6-.5-.2-.4-.5-.3-.8-.3-.6 0-1.2.1-1.9.2.2-.8 1.1-1.1 1.1-1.8-.4-.3-.6 0-.9.2-.4.5-.9 1-1.3 1.4-.2.2-.5.4-.8.4-1.3.2-2.6.3-3.9.4-.1 0-.2 0-.5-.1.4-.4.7-.7 1-1.1l2.1-2.1c.3-.3.6-.4 1-.4h1.7c.3 0 .6 0 .7-.5-.5-.6-1.3-.1-1.9-.4.3-.6.8-.9 1.2-1.4.3-.3.3-.3.2-.8-.3-.2-.5-.1-.8.1l-1 1c-.1.1-.3.2-.5.4-.3-.7.2-1.5-.6-2.2-.1.3-.3.6-.3.8-.1.7-.1 1.4-.1 2 0 .3-.1.6-.3.8-1 1.1-2.1 2.2-3.2 3.3 0 0-.1.1-.3.2-.1-.2-.1-.4-.1-.6-.1-1.3-.2-2.6-.3-4 0-.4.1-.7.3-.9.4-.5.7-.9 1-1.4.2-.2.4-.5.2-.9-.8 0-.9 1-1.6 1.3-.2-.9 0-1.9-.5-2.8-.7.4-.4.9-.4 1.3 0 .5.1.9.1 1.5-.7-.2-1.1-1.1-1.9-1-.2.4.1.6.2.7.4.4.9.7 1.3 1.1.2.2.4.5.5.8.1 1.4.2 2.8.3 4.3v.6c-.2-.1-.4-.2-.5-.3-1.1-.7-2.1-1.4-3.2-2.2-.3-.2-.5-.5-.6-.9-.1-.6-.3-1.1-.5-1.7-.1-.4-.2-.4-.7-.5-.4.6.1 1.2.1 1.8-.9-.2-1.4-1.2-2.3-1.2-.3.4-.1.6.1.8.3.3.7.5 1 .7.2.1.4.3.6.4-.5.5-1.5.1-1.8.9.2.4.6.3.9.3.5-.1 1.1-.2 1.6-.3.3 0 .6 0 .8.2 1.1.7 2.2 1.5 3.2 2.2.1.1.2.2.5.3-.3.1-.4.1-.6.2-1.2.1-2.4.2-3.5.4-.4 0-.8 0-1.1-.3-.5-.4-1-.7-1.5-1-.3-.2-.6-.3-.8.1.1.7.9.8 1.2 1.4-.4.1-.9.1-1.3.2-.3 0-.6 0-.9.1-.2.1-.3.3-.6.5 1 .6 1.9 0 2.7.2-.1.7-1 1-.8 1.8.4.2.6 0 .8-.3.4-.4.7-.9 1.1-1.3.2-.2.5-.4.8-.4 1.3-.2 2.6-.3 3.9-.4h.4c0 .1 0 .2-.1.2-.9.9-1.8 1.9-2.7 2.8-.2.2-.5.3-.8.4-.6.1-1.2.1-1.8.2-.3 0-.6.1-.7.5.5.6 1.2.1 1.8.3-.1.1-.1.3-.2.4-.3.3-.6.7-.9 1-.2.2-.3.4-.4.6.3.4.5.3.8.1l.9-.9.5-.5c.5.6-.1 1.5.6 1.9.4-.2.4-.5.4-.7v-1.7c0-.3.1-.6.3-.8 1-1.1 2-2.1 3-3.1 0 0 .1-.1.2-.1.1.1.1.3.2.4.1 1.4.2 2.7.3 4.1 0 .4-.1.7-.4 1.1-.4.4-.8.9-1.1 1.3-.2.2-.4.5-.1.8.7-.1.9-1 1.7-1.4.1.7.1 1.3.2 2 0 .3 0 .6.5.7.4-.9 0-1.9.1-2.9.6.5 1.1.9 1.7 1.3.4-.3.3-.6 0-.8l-1.5-1.5c-.2-.2-.4-.5-.4-.8-.1-1.3-.2-2.7-.3-4v-.6c.2.1.4.1.5.2 1.2.8 2.3 1.6 3.5 2.4.4.2.6.6.6 1 .1.5.2 1.1.3 1.6.5.5.5.5 1.1.6zM438.1 115.1c.4-.7-.1-1.3 0-2 .2.1.4.1.5.2.4.3.8.5 1.2.8.3.2.6.3.8-.2-.4-.8-1.4-1-2-1.8.6-.4 1.4-.1 1.9-.6 0-.5-.3-.5-.6-.5-.6.1-1.2.1-1.9.2-.5.1-.9 0-1.3-.3-.9-.6-1.8-1.2-2.6-1.8-.2-.1-.4-.3-.7-.5.3-.1.4-.1.5-.1 1.2-.1 2.4-.2 3.6-.4.6-.1 1.1 0 1.5.4.4.3.8.6 1.2 1 .3.2.5.3.9 0-.1-.8-.9-.9-1.3-1.6.7-.1 1.3-.1 1.9-.2.4-.1.4-.1.6-.5-.2-.4-.5-.3-.8-.3-.6 0-1.2.1-1.9.2.2-.8 1.1-1.1 1.1-1.8-.4-.3-.6 0-.9.2-.4.5-.9 1-1.3 1.4-.2.2-.5.4-.8.4-1.3.2-2.6.3-3.9.4-.1 0-.2 0-.5-.1.4-.4.7-.7 1-1.1l2.1-2.1c.3-.3.6-.4 1-.4h1.7c.3 0 .6 0 .7-.5-.5-.6-1.3-.1-1.9-.4.3-.6.8-.9 1.2-1.4.3-.3.3-.3.2-.8-.3-.2-.5-.1-.8.1l-1 1c-.1.1-.3.2-.5.4-.3-.7.2-1.5-.6-2.2-.1.3-.3.6-.3.8-.1.7-.1 1.4-.1 2 0 .3-.1.6-.3.8-1 1.1-2.1 2.2-3.2 3.3 0 0-.1.1-.3.2-.1-.2-.1-.4-.1-.6-.1-1.3-.2-2.6-.3-4 0-.4.1-.7.3-.9.4-.5.7-.9 1-1.4.2-.2.4-.5.2-.9-.8 0-.9 1-1.6 1.3-.2-.9 0-1.9-.5-2.8-.7.4-.4.9-.4 1.3 0 .5.1.9.1 1.5-.7-.2-1.1-1.1-1.9-1-.2.4.1.6.2.7.4.4.9.7 1.3 1.1.2.2.4.5.5.8.1 1.4.2 2.8.3 4.3v.6c-.2-.1-.4-.2-.5-.3-1.1-.7-2.1-1.4-3.2-2.2-.3-.2-.5-.5-.6-.9-.1-.6-.3-1.1-.5-1.7-.1-.4-.2-.4-.7-.5-.4.6.1 1.2.1 1.8-.9-.2-1.4-1.2-2.3-1.2-.3.4-.1.6.1.8.3.3.7.5 1 .7.2.1.4.3.6.4-.5.5-1.5.1-1.8.9.2.4.6.3.9.3.5-.1 1.1-.2 1.6-.3.3 0 .6 0 .8.2 1.1.7 2.2 1.5 3.2 2.2.1.1.2.2.5.3-.3.1-.4.1-.6.2-1.2.1-2.4.2-3.5.4-.4 0-.8 0-1.1-.3-.5-.4-1-.7-1.5-1-.3-.2-.6-.3-.8.1.1.7.9.8 1.2 1.4-.4.1-.9.1-1.3.2-.3 0-.6 0-.9.1-.2.1-.3.3-.6.5 1 .6 1.9 0 2.7.2-.1.7-1 1-.8 1.8.4.2.6 0 .8-.3.4-.4.7-.9 1.1-1.3.2-.2.5-.4.8-.4 1.3-.2 2.6-.3 3.9-.4h.4c0 .1 0 .2-.1.2-.9.9-1.8 1.9-2.7 2.8-.2.2-.5.3-.8.4-.6.1-1.2.1-1.8.2-.3 0-.6.1-.7.5.5.6 1.2.1 1.8.3-.1.1-.1.3-.2.4-.3.3-.6.7-.9 1-.2.2-.3.4-.4.6.3.4.5.3.8.1l.9-.9.5-.5c.5.6-.1 1.5.6 1.9.4-.2.4-.5.4-.7v-1.7c0-.3.1-.6.3-.8 1-1.1 2-2.1 3-3.1 0 0 .1-.1.2-.1.1.1.1.3.2.4.1 1.4.2 2.7.3 4.1 0 .4-.1.7-.4 1.1-.4.4-.8.9-1.1 1.3-.2.2-.4.5-.1.8.7-.1.9-1 1.7-1.4.1.7.1 1.3.2 2 0 .3 0 .6.5.7.4-.9 0-1.9.1-2.9.6.5 1.1.9 1.7 1.3.4-.3.3-.6 0-.8l-1.5-1.5c-.2-.2-.4-.5-.4-.8-.1-1.3-.2-2.7-.3-4v-.6c.2.1.4.1.5.2 1.2.8 2.3 1.6 3.5 2.4.4.2.6.6.6 1 .1.5.2 1.1.3 1.6.5.5.5.5 1.1.6zM986.1 106.1c.4-.7-.1-1.3 0-2 .2.1.4.1.5.2.4.3.8.5 1.2.8.3.2.6.3.8-.2-.4-.8-1.4-1-2-1.8.6-.4 1.4-.1 1.9-.6 0-.5-.3-.5-.6-.5-.6.1-1.2.1-1.9.2-.5.1-.9 0-1.3-.3-.9-.6-1.8-1.2-2.6-1.8-.2-.1-.4-.3-.7-.5.3-.1.4-.1.5-.1 1.2-.1 2.4-.2 3.6-.4.6-.1 1.1 0 1.5.4.4.3.8.6 1.2 1 .3.2.5.3.9 0-.1-.8-.9-.9-1.3-1.6.7-.1 1.3-.1 1.9-.2.4-.1.4-.1.6-.5-.2-.4-.5-.3-.8-.3-.6 0-1.2.1-1.9.2.2-.8 1.1-1.1 1.1-1.8-.4-.3-.6 0-.9.2-.4.5-.9 1-1.3 1.4-.2.2-.5.4-.8.4-1.3.2-2.6.3-3.9.4-.1 0-.2 0-.5-.1.4-.4.7-.7 1-1.1l2.1-2.1c.3-.3.6-.4 1-.4h1.7c.3 0 .6 0 .7-.5-.5-.6-1.3-.1-1.9-.4.3-.6.8-.9 1.2-1.4.3-.3.3-.3.2-.8-.3-.2-.5-.1-.8.1l-1 1c-.1.1-.3.2-.5.4-.3-.7.2-1.5-.6-2.2-.1.3-.3.6-.3.8-.1.7-.1 1.4-.1 2 0 .3-.1.6-.3.8-1 1.1-2.1 2.2-3.2 3.3 0 0-.1.1-.3.2-.1-.2-.1-.4-.1-.6-.1-1.3-.2-2.6-.3-4 0-.4.1-.7.3-.9.4-.5.7-.9 1-1.4.2-.2.4-.5.2-.9-.8 0-.9 1-1.6 1.3-.2-.9 0-1.9-.5-2.8-.7.4-.4.9-.4 1.3 0 .5.1.9.1 1.5-.7-.2-1.1-1.1-1.9-1-.2.4.1.6.2.7.4.4.9.7 1.3 1.1.2.2.4.5.5.8.1 1.4.2 2.8.3 4.3v.6c-.2-.1-.4-.2-.5-.3-1.1-.7-2.1-1.4-3.2-2.2-.3-.2-.5-.5-.6-.9-.1-.6-.3-1.1-.5-1.7-.1-.4-.2-.4-.7-.5-.4.6.1 1.2.1 1.8-.9-.2-1.4-1.2-2.3-1.2-.3.4-.1.6.1.8.3.3.7.5 1 .7.2.1.4.3.6.4-.5.5-1.5.1-1.8.9.2.4.6.3.9.3.5-.1 1.1-.2 1.6-.3.3 0 .6 0 .8.2 1.1.7 2.2 1.5 3.2 2.2.1.1.2.2.5.3-.3.1-.4.1-.6.2-1.2.1-2.4.2-3.5.4-.4 0-.8 0-1.1-.3-.5-.4-1-.7-1.5-1-.3-.2-.6-.3-.8.1.1.7.9.8 1.2 1.4-.4.1-.9.1-1.3.2-.3 0-.6 0-.9.1-.2.1-.3.3-.6.5 1 .6 1.9 0 2.7.2-.1.7-1 1-.8 1.8.4.2.6 0 .8-.3.4-.4.7-.9 1.1-1.3.2-.2.5-.4.8-.4 1.3-.2 2.6-.3 3.9-.4h.4c0 .1 0 .2-.1.2-.9.9-1.8 1.9-2.7 2.8-.2.2-.5.3-.8.4-.6.1-1.2.1-1.8.2-.3 0-.6.1-.7.5.5.6 1.2.1 1.8.3-.1.1-.1.3-.2.4-.3.3-.6.7-.9 1-.2.2-.3.4-.4.6.3.4.5.3.8.1l.9-.9.5-.5c.5.6-.1 1.5.6 1.9.4-.2.4-.5.4-.7v-1.7c0-.3.1-.6.3-.8 1-1.1 2-2.1 3-3.1 0 0 .1-.1.2-.1.1.1.1.3.2.4.1 1.4.2 2.7.3 4.1 0 .4-.1.7-.4 1.1-.4.4-.8.9-1.1 1.3-.2.2-.4.5-.1.8.7-.1.9-1 1.7-1.4.1.7.1 1.3.2 2 0 .3 0 .6.5.7.4-.9 0-1.9.1-2.9.6.5 1.1.9 1.7 1.3.4-.3.3-.6 0-.8l-1.5-1.5c-.2-.2-.4-.5-.4-.8-.1-1.3-.2-2.7-.3-4v-.6c.2.1.4.1.5.2 1.2.8 2.3 1.6 3.5 2.4.4.2.6.6.6 1 .1.5.2 1.1.3 1.6.5.5.5.5 1.1.6zM64.3 69.2c1.1-1.9-.3-3.7.1-5.7.6.2 1.1.4 1.5.6 1.2.8 2.3 1.6 3.5 2.4.9.6 1.7.7 2.4-.6-1.2-2.4-4.1-3-5.9-5.1 1.8-1.1 4.2-.2 5.6-1.9-.1-1.3-.9-1.4-1.8-1.4-1.8.2-3.6.4-5.4.7-1.5.3-2.7 0-3.9-.9-2.5-1.8-5.1-3.5-7.6-5.2-.6-.4-1.1-.8-1.9-1.5.7-.2 1.1-.4 1.5-.4 3.5-.4 7-.7 10.5-1.1 1.7-.2 3.2.1 4.4 1.3 1.1 1 2.3 1.9 3.4 2.8.8.6 1.5 1 2.5 0-.2-2.2-2.8-2.6-3.7-4.7 2-.2 3.8-.4 5.5-.7 1.3-.2 1.3-.2 1.8-1.6-.5-1.1-1.4-.9-2.3-.9-1.8.1-3.6.3-5.6.5.6-2.2 3.2-3.1 3.1-5.4-1.2-.8-1.9-.1-2.5.5-1.3 1.4-2.5 2.8-3.9 4.1-.6.6-1.5 1.2-2.3 1.3-3.8.5-7.5.8-11.3 1.2-.3 0-.6-.1-1.3-.2 1.1-1.2 2-2.1 2.9-3.1 2-2.1 4-4.1 6-6.2.8-.8 1.7-1.2 2.8-1.2 1.7 0 3.4-.1 5.1-.1.8 0 1.7 0 2.1-1.4-1.4-1.8-3.8-.4-5.6-1.2.8-1.7 2.2-2.7 3.4-4 .9-1 .9-1 .7-2.4-.9-.7-1.6-.2-2.2.4l-3 3c-.4.4-.8.7-1.3 1.2-1-2 .6-4.5-1.6-6.5-.4 1-.8 1.6-.9 2.3-.2 2-.2 3.9-.4 5.9-.1.8-.3 1.7-.8 2.3-3 3.2-6.2 6.4-9.3 9.5-.1.1-.4.2-.8.4-.2-.7-.4-1.2-.4-1.8-.3-3.9-.6-7.7-.9-11.6-.1-1 .2-1.9.8-2.7 1-1.3 2-2.7 3-4.1.5-.7 1-1.4.5-2.5-2.4.1-2.6 3-4.5 3.9-.7-2.6 0-5.5-1.5-8.1-1.9 1.1-1.2 2.7-1.2 3.9 0 1.4.2 2.8.3 4.3-2.2-.5-3.1-3.2-5.4-2.9-.6 1.1.2 1.6.7 2.1 1.3 1.1 2.6 2.1 3.8 3.3.6.6 1.2 1.5 1.3 2.2.4 4.1.7 8.3 1 12.4 0 .5-.1 1-.1 1.7-.6-.3-1.2-.5-1.6-.8-3.1-2.1-6.2-4.2-9.2-6.3-1-.7-1.6-1.5-1.9-2.7-.4-1.6-.8-3.3-1.3-4.9-.4-1.3-.4-1.3-1.9-1.6-1.3 1.8.4 3.5.2 5.4-2.6-.6-4.1-3.4-6.8-3.4-.9 1.1-.4 1.7.3 2.3.9.7 1.9 1.4 2.9 2.1.6.4 1.1.8 1.8 1.3-1.5 1.5-4.3.4-5.1 2.7.7 1.2 1.7.9 2.6.8 1.6-.2 3.2-.7 4.8-.8.8-.1 1.7.1 2.4.5 3.2 2.1 6.3 4.2 9.4 6.4.3.2.7.5 1.4.9-.9.2-1.3.4-1.6.4-3.4.4-6.9.7-10.3 1.1-1.2.1-2.2-.1-3.2-.8-1.4-1.1-2.9-2-4.3-3-.8-.5-1.6-1-2.4.1.2 2.1 2.6 2.3 3.6 4.1-1.3.4-2.5.4-3.7.6-.8.1-1.7.1-2.5.4-.5.2-1 .7-1.7 1.3 2.8 1.8 5.4.1 8 .7-.2 2-3 2.9-2.3 5.2 1.1.6 1.7-.1 2.2-.8 1.1-1.3 2.1-2.7 3.2-3.9.6-.6 1.5-1.2 2.3-1.3 3.8-.5 7.5-.8 11.3-1.2.4 0 .8.1 1.3.1-.1.3-.1.6-.2.7-2.6 2.7-5.2 5.5-7.9 8.2-.6.6-1.6.9-2.4 1.1-1.7.3-3.5.3-5.2.5-.9.1-1.8.3-2 1.6 1.5 1.6 3.5.2 5.3.9-.3.4-.4.8-.7 1.1-.9 1-1.9 1.9-2.7 2.9-.5.6-.8 1.2-1.1 1.8.8 1.3 1.6 1 2.3.4 1-.8 1.8-1.7 2.7-2.6l1.5-1.5c1.3 1.7-.4 4.3 1.8 5.5 1.2-.5 1.2-1.4 1.2-2.2 0-1.6-.1-3.2 0-4.8 0-.8.2-1.8.7-2.3 2.9-3.1 5.9-6.1 8.8-9.1.1-.1.3-.2.7-.4.2.4.4.7.4 1.1l.9 12c.1 1.2-.2 2.2-1 3.1-1.1 1.2-2.2 2.6-3.3 3.9-.5.6-1.1 1.3-.2 2.4 2.2-.4 2.7-3 4.8-4 .2 2 .4 3.9.5 5.8.1.9 0 1.9 1.6 2.1 1.3-2.6-.1-5.4.4-8.4 1.7 1.4 3.3 2.6 4.9 3.9 1.2-1 .8-1.7.1-2.3-1.4-1.4-3-2.8-4.4-4.3-.6-.6-1.1-1.5-1.2-2.3-.4-3.9-.7-7.8-.9-11.8 0-.5 0-1 .1-1.7.6.3 1.1.4 1.6.7 3.4 2.3 6.7 4.6 10.1 6.9 1.1.7 1.7 1.6 1.8 2.9.2 1.6.6 3.2.9 4.8-.4 1-.3 1 1.3 1.4zM771.1 122c1.1-1.9-.3-3.7.1-5.7.6.2 1.1.4 1.5.6 1.2.8 2.3 1.6 3.5 2.4.9.6 1.7.7 2.4-.6-1.2-2.4-4.1-3-5.9-5.1 1.8-1.1 4.2-.2 5.6-1.9-.1-1.3-.9-1.4-1.8-1.4-1.8.2-3.6.4-5.4.7-1.5.3-2.7 0-3.9-.9-2.5-1.8-5.1-3.5-7.6-5.2-.6-.4-1.1-.8-1.9-1.5.7-.2 1.1-.4 1.5-.4 3.5-.4 7-.7 10.5-1.1 1.7-.2 3.2.1 4.4 1.3 1.1 1 2.3 1.9 3.4 2.8.8.6 1.5 1 2.5 0-.2-2.2-2.8-2.6-3.7-4.7 2-.2 3.8-.4 5.5-.7 1.3-.2 1.3-.2 1.8-1.6-.5-1.1-1.4-.9-2.3-.9-1.8.1-3.6.3-5.6.5.6-2.2 3.2-3.1 3.1-5.4-1.2-.8-1.9-.1-2.5.5-1.3 1.4-2.5 2.8-3.9 4.1-.6.6-1.5 1.2-2.3 1.3-3.8.5-7.5.8-11.3 1.2-.3 0-.6-.1-1.3-.2 1.1-1.2 2-2.1 2.9-3.1 2-2.1 4-4.1 6-6.2.8-.8 1.7-1.2 2.8-1.2 1.7 0 3.4-.1 5.1-.1.8 0 1.7 0 2.1-1.4-1.4-1.8-3.8-.4-5.6-1.2.8-1.7 2.2-2.7 3.4-4 .9-1 .9-1 .7-2.4-.9-.7-1.6-.2-2.2.4l-3 3c-.4.4-.8.7-1.3 1.2-1-2 .6-4.5-1.6-6.5-.4 1-.8 1.6-.9 2.3-.2 2-.2 3.9-.4 5.9-.1.8-.3 1.7-.8 2.3-3 3.2-6.2 6.4-9.3 9.5-.1.1-.4.2-.8.4-.2-.7-.4-1.2-.4-1.8-.3-3.9-.6-7.7-.9-11.6-.1-1 .2-1.9.8-2.7 1-1.3 2-2.7 3-4.1.5-.7 1-1.4.5-2.5-2.4.1-2.6 3-4.5 3.9-.7-2.6 0-5.5-1.5-8.1-1.9 1.1-1.2 2.7-1.2 3.9 0 1.4.2 2.8.3 4.3-2.2-.5-3.1-3.2-5.4-2.9-.6 1.1.2 1.6.7 2.1 1.3 1.1 2.6 2.1 3.8 3.3.6.6 1.2 1.5 1.3 2.2.4 4.1.7 8.3 1 12.4 0 .5-.1 1-.1 1.7-.6-.3-1.2-.5-1.6-.8-3.1-2.1-6.2-4.2-9.2-6.3-1-.7-1.6-1.5-1.9-2.7-.4-1.6-.8-3.3-1.3-4.9-.4-1.3-.4-1.3-1.9-1.6-1.3 1.8.4 3.5.2 5.4-2.6-.6-4.1-3.4-6.8-3.4-.9 1.1-.4 1.7.3 2.3.9.7 1.9 1.4 2.9 2.1.6.4 1.1.8 1.8 1.3-1.5 1.5-4.3.4-5.1 2.7.7 1.2 1.7.9 2.6.8 1.6-.2 3.2-.7 4.8-.8.8-.1 1.7.1 2.4.5 3.2 2.1 6.3 4.2 9.4 6.4.3.2.7.5 1.4.9-.9.2-1.3.4-1.6.4-3.4.4-6.9.7-10.3 1.1-1.2.1-2.2-.1-3.2-.8-1.4-1.1-2.9-2-4.3-3-.8-.5-1.6-1-2.4.1.2 2.1 2.6 2.3 3.6 4.1-1.3.4-2.5.4-3.7.6-.8.1-1.7.1-2.5.4-.5.2-1 .7-1.7 1.3 2.8 1.8 5.4.1 8 .7-.2 2-3 2.9-2.3 5.2 1.1.6 1.7-.1 2.2-.8 1.1-1.3 2.1-2.7 3.2-3.9.6-.6 1.5-1.2 2.3-1.3 3.8-.5 7.5-.8 11.3-1.2.4 0 .8.1 1.3.1-.1.3-.1.6-.2.7-2.6 2.7-5.2 5.5-7.9 8.2-.6.6-1.6.9-2.4 1.1-1.7.3-3.5.3-5.2.5-.9.1-1.8.3-2 1.6 1.5 1.6 3.5.2 5.3.9-.3.4-.4.8-.7 1.1-.9 1-1.9 1.9-2.7 2.9-.5.6-.8 1.2-1.1 1.8.8 1.3 1.6 1 2.3.4 1-.8 1.8-1.7 2.7-2.6l1.5-1.5c1.3 1.7-.4 4.3 1.8 5.5 1.2-.5 1.2-1.4 1.2-2.2 0-1.6-.1-3.2 0-4.8 0-.8.2-1.8.7-2.3 2.9-3.1 5.9-6.1 8.8-9.1.1-.1.3-.2.7-.4.2.4.4.7.4 1.1l.9 12c.1 1.2-.2 2.2-1 3.1-1.1 1.2-2.2 2.6-3.3 3.9-.5.6-1.1 1.3-.2 2.4 2.2-.4 2.7-3 4.8-4 .2 2 .4 3.9.5 5.8.1.9 0 1.9 1.6 2.1 1.3-2.6-.1-5.4.4-8.4 1.7 1.4 3.3 2.6 4.9 3.9 1.2-1 .8-1.7.1-2.3-1.4-1.4-3-2.8-4.4-4.3-.6-.6-1.1-1.5-1.2-2.3-.4-3.9-.7-7.8-.9-11.8 0-.5 0-1 .1-1.7.6.3 1.1.4 1.6.7 3.4 2.3 6.7 4.6 10.1 6.9 1.1.7 1.7 1.6 1.8 2.9.2 1.6.6 3.2.9 4.8-.3 1-.2 1 1.3 1.4zM586.3 58.3c1.2 1.2 2.8.5 4.2 1.2-.3.4-.5.7-.8 1l-2.4 2.1c-.6.5-.9 1.1 0 1.9 2-.4 3-2.5 4.9-3.4.5 1.5-.6 3.1.3 4.5 1 .2 1.2-.4 1.3-1.1.2-1.4.4-2.8.5-4.1.1-1.2.5-2 1.5-2.7 1.8-1.5 3.6-3.1 5.3-4.6.4-.3.8-.6 1.5-1.1 0 .6.1.9 0 1.2-.4 2.6-.8 5.3-1.2 7.9-.2 1.3-.7 2.3-1.8 3-1 .6-1.8 1.3-2.7 2-.6.4-1.1.9-.5 1.8 1.7.3 2.5-1.5 4.2-1.8-.2 1.5-.4 2.9-.6 4.2-.1 1-.1 1 .8 1.6.9-.1 1-.9 1.1-1.6.2-1.4.5-2.7.7-4.2 1.5.9 1.6 3 3.4 3.3.8-.7.4-1.4.1-1.9-.8-1.2-1.6-2.4-2.3-3.7-.3-.6-.6-1.3-.5-1.9.4-2.9.9-5.7 1.3-8.6 0-.2.2-.5.4-.9.7 1.1 1.2 1.9 1.7 2.8 1.1 1.9 2.3 3.8 3.4 5.6.5.7.6 1.5.4 2.3-.3 1.2-.6 2.5-.9 3.8-.1.6-.3 1.3.6 1.8 1.6-.7 1-2.7 2-3.9 1.1.9 1.6 2.2 2.3 3.3.5.9.5.9 1.6 1 .7-.5.5-1.1.1-1.7-.5-.9-1.1-1.8-1.6-2.8-.2-.4-.4-.7-.6-1.2 1.7-.3 3.2 1.3 5.1 0-.7-.5-1-.9-1.5-1.1-1.4-.5-2.9-.9-4.3-1.4-.6-.2-1.2-.6-1.5-1.1-1.8-2.9-3.5-5.8-5.2-8.7-.1-.1-.1-.3-.2-.6h1.4l8.7 1.5c.8.1 1.4.5 1.9 1.1l2.4 3c.4.5.8 1 1.8.8.4-1.8-1.7-2.5-2-4.1 2.1 0 4.1 1 6.3.5-.5-1.6-1.7-1.4-2.7-1.7-1-.3-2.1-.4-3.2-.6.8-1.5 2.9-1.7 3.2-3.5-.7-.6-1.2-.2-1.7.1-1.1.7-2.1 1.5-3.2 2.2-.6.3-1.3.6-1.9.5-3.1-.5-6.2-1.1-9.3-1.7-.4-.1-.7-.2-1.2-.4.3-.4.6-.8.9-1 2.1-1.9 4.3-3.7 6.4-5.6.7-.6 1.4-.9 2.3-.9 1.3.1 2.6 0 3.9 0 1 0 1-.1 1.5-1.1-1.1-1.3-2.6-.4-4-.9.9-1.8 3.3-2.4 3.8-4.4-.6-.9-1.2-.6-1.8-.2-.7.5-1.4 1.1-2.1 1.7-.4.3-.8.7-1.3 1.1-.8-1.4.5-3.2-1-4.3-1 .3-1 1.1-1 1.7-.1 1.2-.1 2.5-.3 3.7-.1.6-.4 1.3-.8 1.6-2.1 2-4.3 3.8-6.5 5.7-.2.2-.5.4-1 .8 0-.7-.1-1 0-1.3l1.2-7.8c.1-.9.5-1.6 1.2-2.2 1-.8 2.1-1.7 3.1-2.6.5-.5 1.1-1 .4-1.8-1.6-.3-2.2 1.5-3.7 1.9 0-1 .2-1.9.3-2.8.1-.6.3-1.3.2-1.9 0-.4-.4-.9-.7-1.5-1.9 1.7-1.1 4-2 5.8-1.4-.5-1.5-2.8-3.4-2.7-.7.7-.2 1.3.1 1.8.7 1.1 1.6 2 2.2 3.1.3.5.6 1.3.5 1.9-.4 2.9-.9 5.7-1.3 8.6 0 .3-.2.6-.3.9-.2-.1-.4-.2-.5-.3-1.5-2.5-3-4.9-4.5-7.4-.3-.5-.4-1.3-.3-2 .1-1.3.4-2.6.6-4 .1-.7.2-1.4-.8-1.8-1.5.8-.8 2.5-1.7 3.7-.2-.3-.5-.5-.7-.7-.6-.8-1.1-1.7-1.6-2.6-.3-.4-.8-.8-1.1-1.1-1.1.3-1 1-.7 1.6.4.9.9 1.7 1.4 2.5.3.5.5.9.8 1.4-1.5.7-3.1-1.1-4.4.2.1 1 .8 1.1 1.4 1.3 1.2.3 2.4.5 3.6.9.6.2 1.2.5 1.5 1 1.7 2.7 3.3 5.5 5 8.3.1.1.1.3.2.6-.3 0-.6.2-.9.1-3-.5-6-1.1-9-1.6-.9-.2-1.6-.6-2.1-1.4-.7-1.1-1.5-2.1-2.2-3.2-.4-.5-.8-1.1-1.7-.6-.1 1.7 1.7 2.6 2 4.3-1.5-.3-2.9-.5-4.3-.7-.7-.1-1.4-.3-1.8.8 1.7 1.5 4 1 6.1 1.9-1.4 1-2.6 1.9-3.8 2.8.5 1 1.1.9 1.7.5 1.3-.8 2.6-1.7 4-2.4.6-.3 1.3-.5 1.9-.4 3 .5 5.9 1 8.9 1.6.4.1.7.2 1.3.4-.3.4-.5.8-.8 1-2.3 2.1-4.7 4.1-7 6.1-.7.7-1.5.9-2.5.8-1.2-.1-2.5-.2-3.7-.2-1.1.3-1.2.4-1.7 1.4zM956.9 47.2c1.2 1.2 2.8.5 4.2 1.2-.3.4-.5.7-.8 1l-2.4 2.1c-.6.5-.9 1.1 0 1.9 2-.4 3-2.5 4.9-3.4.5 1.5-.6 3.1.3 4.5 1 .2 1.2-.4 1.3-1.1.2-1.4.4-2.8.5-4.1.1-1.2.5-2 1.5-2.7 1.8-1.5 3.6-3.1 5.3-4.6.4-.3.8-.6 1.5-1.1 0 .6.1.9 0 1.2-.4 2.6-.8 5.3-1.2 7.9-.2 1.3-.7 2.3-1.8 3-1 .6-1.8 1.3-2.7 2-.6.4-1.1.9-.5 1.8 1.7.3 2.5-1.5 4.2-1.8-.2 1.5-.4 2.9-.6 4.2-.1 1-.1 1 .8 1.6.9-.1 1-.9 1.1-1.6.2-1.4.5-2.7.7-4.2 1.5.9 1.6 3 3.4 3.3.8-.7.4-1.4.1-1.9-.8-1.2-1.6-2.4-2.3-3.7-.3-.6-.6-1.3-.5-1.9.4-2.9.9-5.7 1.3-8.6 0-.2.2-.5.4-.9.7 1.1 1.2 1.9 1.7 2.8 1.1 1.9 2.3 3.8 3.4 5.6.5.7.6 1.5.4 2.3-.3 1.2-.6 2.5-.9 3.8-.1.6-.3 1.3.6 1.8 1.6-.7 1-2.7 2-3.9 1.1.9 1.6 2.2 2.3 3.3.5.9.5.9 1.6 1 .7-.5.5-1.1.1-1.7-.5-.9-1.1-1.8-1.6-2.8-.2-.4-.4-.7-.6-1.2 1.7-.3 3.2 1.3 5.1 0-.7-.5-1-.9-1.5-1.1-1.4-.5-2.9-.9-4.3-1.4-.6-.2-1.2-.6-1.5-1.1-1.8-2.9-3.5-5.8-5.2-8.7-.1-.1-.1-.3-.2-.6h1.4l8.7 1.5c.8.1 1.4.5 1.9 1.1l2.4 3c.4.5.8 1 1.8.8.4-1.8-1.7-2.5-2-4.1 2.1 0 4.1 1 6.3.5-.5-1.6-1.7-1.4-2.7-1.7-1-.3-2.1-.4-3.2-.6.8-1.5 2.9-1.7 3.2-3.5-.7-.6-1.2-.2-1.7.1-1.1.7-2.1 1.5-3.2 2.2-.6.3-1.3.6-1.9.5-3.1-.5-6.2-1.1-9.3-1.7-.4-.1-.7-.2-1.2-.4.3-.4.6-.8.9-1 2.1-1.9 4.3-3.7 6.4-5.6.7-.6 1.4-.9 2.3-.9 1.3.1 2.6 0 3.9 0 1 0 1-.1 1.5-1.1-1.1-1.3-2.6-.4-4-.9.9-1.8 3.3-2.4 3.8-4.4-.6-.9-1.2-.6-1.8-.2-.7.5-1.4 1.1-2.1 1.7-.4.3-.8.7-1.3 1.1-.8-1.4.5-3.2-1-4.3-1 .3-1 1.1-1 1.7-.1 1.2-.1 2.5-.3 3.7-.1.6-.4 1.3-.8 1.6-2.1 2-4.3 3.8-6.5 5.7-.2.2-.5.4-1 .8 0-.7-.1-1 0-1.3l1.2-7.8c.1-.9.5-1.6 1.2-2.2 1-.8 2.1-1.7 3.1-2.6.5-.5 1.1-1 .4-1.8-1.6-.3-2.2 1.5-3.7 1.9 0-1 .2-1.9.3-2.8.1-.6.3-1.3.2-1.9 0-.4-.4-.9-.7-1.5-1.9 1.7-1.1 4-2 5.8-1.4-.5-1.5-2.8-3.4-2.7-.7.7-.2 1.3.1 1.8.7 1.1 1.6 2 2.2 3.1.3.5.6 1.3.5 1.9-.4 2.9-.9 5.7-1.3 8.6 0 .3-.2.6-.3.9-.2-.1-.4-.2-.5-.3-1.5-2.5-3-4.9-4.5-7.4-.3-.5-.4-1.3-.3-2 .1-1.3.4-2.6.6-4 .1-.7.2-1.4-.8-1.8-1.5.8-.8 2.5-1.7 3.7-.2-.3-.5-.5-.7-.7-.6-.8-1.1-1.7-1.6-2.6-.3-.4-.8-.8-1.1-1.1-1.1.3-1 1-.7 1.6.4.9.9 1.7 1.4 2.5.3.5.5.9.8 1.4-1.5.7-3.1-1.1-4.4.2.1 1 .8 1.1 1.4 1.3 1.2.3 2.4.5 3.6.9.6.2 1.2.5 1.5 1 1.7 2.7 3.3 5.5 5 8.3.1.1.1.3.2.6-.3 0-.6.2-.9.1-3-.5-6-1.1-9-1.6-.9-.2-1.6-.6-2.1-1.4-.7-1.1-1.5-2.1-2.2-3.2-.4-.5-.8-1.1-1.7-.6-.1 1.7 1.7 2.6 2 4.3-1.5-.3-2.9-.5-4.3-.7-.7-.1-1.4-.3-1.8.8 1.7 1.5 4 1 6.1 1.9-1.4 1-2.6 1.9-3.8 2.8.5 1 1.1.9 1.7.5 1.3-.8 2.6-1.7 4-2.4.6-.3 1.3-.5 1.9-.4 3 .5 5.9 1 8.9 1.6.4.1.7.2 1.3.4-.3.4-.5.8-.8 1-2.3 2.1-4.7 4.1-7 6.1-.7.7-1.5.9-2.5.8-1.2-.1-2.5-.2-3.7-.2-1.1.2-1.2.3-1.7 1.4zM234.5 66.2c-2.1.9-4.3 1.7-6.4 2.6-.6.3-1.2.6-2.1 1 2.1 2.1 3.3 5 7 4 .4-.1.8-.1 1.2 0 .2.1.4.3.7.5-1.3 1.3-3 .8-4.5 1.8-.2.7-.5 1.6-.8 2.5.7.4 1.2.7 1.8 1 1.3.6 2.6 1.2 3.8 1.8.5.2.9.7 1.3 1-.2.3-.3.6-.4.6-2.6.2-4.6-1.9-7.1-2.2-1.1 1.5-1.3 2.9-.3 4.5.3.4.5.9.7 1.4.1.3 0 .7.1 1.3-2-.4-1.9-2.5-3.2-3.3-2.2-.2-4.9.2-6 .9.8 3.3 2.7 6.3 3.2 9.8-1.2.2-1.5-.5-1.7-1.1-.9-2.2-1.8-4.5-2.7-6.7-.2-.6-.5-1.1-.9-2-1.1.9-1.9 1.6-2.8 2.2-1.9 1.2-3 2.8-2.5 5.2.1.5.2 1.3-.8 1.8-.3-1.5-.6-3-1-4.5-.8-.3-1.7-.7-2.7-1.1-.4.7-.7 1.1-.9 1.7-.7 1.5-1.3 3-2 4.5-.3.7-.7 1.4-2 .8.4-2.7 2.3-5 2.8-7.7-1.4-1.1-2.7-1.6-4.4-.7-.7.4-1.6 1.1-2.7.5.7-1.6 2.5-1.5 3.6-2.9-.1-1.9-.2-4-.2-6.1-.1-.2-.3-.3-.4-.5-.3.2-.7.5-1 .7-2.5 1-5 2-7.6 3-.8.3-1.6.8-2.5.3-.4-1.1.4-1.3 1.1-1.6 2.7-1.1 5.4-2.2 8-3.3.6-.2 1.1-.5 2-.9-.9-1-1.7-1.8-2.3-2.7-1.1-1.5-2.4-2.3-4.4-1.9-.7.2-1.6.3-2.4-.6 1.3-1.3 3.2-.8 4.7-1.7.3-.8.6-1.7.9-2.7-2.1-1.4-4.7-1.7-6.4-3.5.2-.3.3-.6.4-.6 2.5-.2 4.3 1.8 6.8 2 .3-.8.7-1.7.9-2.3-.4-1.7-1.6-2.9-1.5-4.5.4-.1.6-.2.7-.1.9 1.1 1.8 2.2 2.8 3.5 2-.1 4.1-.3 6.5-.5-.5-1.5-1-2.7-1.4-3.9-.6-1.7-1.3-3.3-1.8-5-.2-.6-.5-1.3.6-1.8.3.5.8.9 1 1.5 1 2.3 1.9 4.6 2.8 6.9.2.5.5 1 .8 1.7 1.8-1.4 3.4-2.7 4.9-3.8.4-1.8-.2-3.5.8-5.2 1.2 1.6.6 3.4 1.3 4.9.7.3 1.5.6 2.4 1 .5-.9.9-1.6 1.2-2.3l1.5-3c.3-.5.7-.8 1.5-.2-.2 2.2-1.8 4.1-2.2 6.4 1.4 1.1 2.9 1.8 4.7.9.7-.4 1.6-1 2.6-.5-.1 1.1-.9 1.2-1.6 1.5-.7.4-1.4.7-2.2 1.1 0 2 0 3.9.1 5.9 3.6-.9 6.6-2.9 10.2-3.4-.2 1.7-1 1.9-1.6 2.1zm-19.9 10.2h-.5c-1.7 3.8-3.4 7.5-5.1 11.5 1 .5 1.8.9 2.7 1.3 2-1.7 3.9-3.3 5.9-5-1.1-2.8-2-5.3-3-7.8zm-10.3 9.4c.9.4 1.7.8 2.8 1.3 2-3.8 3.5-7.6 5.2-11.4l-.3-.3c-2.5 1-5.1 2.1-7.7 3.1v7.3zm12.6-27.5c-1.8 1.5-3.6 2.9-5.5 4.4.8 2.7 1.8 5.2 2.9 7.7h.4c1.6-3.5 3.1-7 4.8-10.6-1-.7-1.8-1.1-2.6-1.5zm-17.6 12.9c1.6 1.7 3.1 3.5 4.9 5.3 2.5-1 4.9-2 7.4-2.9v-.4c-3.5-1.7-7.2-3.2-11.1-4.8-.5 1.1-.8 1.9-1.2 2.8zm20 12.3c2.3-.2 4.5-.4 6.9-.5.4-1 .7-1.8 1.1-2.9-3.6-1.6-7.1-3.1-10.6-4.6-.1.1-.2.2-.4.3 1 2.5 2 5 3 7.7zm-17.8-17.9c-.1.3-.1.6-.1 1.1 3.6 1.6 7.2 3.1 10.8 4.7l.3-.3c-.7-2.5-1.9-4.9-2.8-7.4-2.5.1-4.9.2-7.4.3-.4.7-.6 1.1-.8 1.6zm22.6-3.9c-.9-.4-1.8-.8-2.8-1.3-2 3.5-3.2 7.2-5 10.8 1.5.1 5.8-1.6 7.6-3 .1-2.1.1-4.2.2-6.5zm-6.5 11.5v.4c3.2 1.7 6.7 3 10.2 4.5.4-.9.7-1.7 1.1-2.6-1.6-1.7-3.2-3.2-4.9-5-2.2 1-4.3 1.8-6.4 2.7zM401.7 26.9c-.4 1.1-.9 2.2-1.3 3.3-.1.3-.2.7-.4 1.1 1.5 0 3.1.5 4-1.2.1-.2.3-.3.4-.4.1-.1.3 0 .5-.1 0 .9-.8 1.4-.9 2.3.2.3.4.7.6 1.2.4-.1.7-.2 1-.3.7-.3 1.4-.5 2-.8.3-.1.6-.1.8-.1 0 .2.1.3.1.4-.9 1.1-2.3 1-3.4 1.9.2.9.6 1.5 1.6 1.7.3 0 .5.1.8.3.2.1.3.2.5.4-.9.6-1.6-.2-2.4 0-.8.8-1.7 1.9-1.8 2.5 1.5.9 3.3 1.2 4.8 2.3-.4.5-.7.4-1 .3-1.2-.5-2.3-.9-3.5-1.4-.3-.1-.6-.2-1.1-.4-.1.7 0 1.3-.1 1.8-.2 1.1 0 2.1 1 2.8.2.2.5.4.4.9-.7-.4-1.3-.8-2-1.2-.4.2-.9.4-1.3.6.1.4.2.7.3.9.3.8.7 1.6 1 2.4.2.4.2.8-.4 1-.9-1.1-1-2.6-1.9-3.8-.9.1-1.6.4-1.8 1.4-.1.4-.2 1-.8 1.2-.3-.8.3-1.5.2-2.4-.7-.6-1.5-1.4-2.3-2.1h-.3c0 .2 0 .4-.1.6-.5 1.3-1 2.6-1.6 3.9-.2.4-.3.9-.8 1.1-.5-.3-.3-.6-.2-1 .5-1.4 1.1-2.8 1.6-4.2.1-.3.2-.6.4-1.1-.7 0-1.3 0-1.8-.1-1-.1-1.7.1-2.3 1-.2.3-.5.7-1.1.7-.1-1 .8-1.5 1-2.4-.2-.4-.4-.8-.7-1.3-1.3.3-2.3 1.1-3.6 1.1 0-.2-.1-.3-.1-.4.8-1 2.2-1 3.2-1.8-.2-.4-.4-.9-.5-1.2-.8-.5-1.6-.5-2.2-1 .1-.2.2-.3.2-.3.7.1 1.5.1 2.3.2.7-.8 1.4-1.6 2.1-2.6-.7-.3-1.3-.6-2-.9-.8-.4-1.7-.7-2.5-1.1-.3-.1-.7-.3-.5-.8.3 0 .6 0 .9.1 1.2.4 2.4.9 3.6 1.4.3.1.5.2.9.3.1-1.2.2-2.2.3-3.2-.5-.8-1.4-1.1-1.6-2.1 1 .1 1.5 1 2.3 1.3.4-.2.8-.4 1.2-.5-.2-.5-.3-.9-.4-1.3-.2-.5-.4-1.1-.6-1.6-.1-.3-.1-.5.4-.6.8.8.9 2.1 1.6 3.1.9-.1 1.7-.4 2-1.4.1-.4.2-1 .8-1.2.4.4.1.8 0 1.1-.1.4-.2.8-.4 1.2.8.7 1.5 1.4 2.2 2.1 1-1.7 1.2-3.5 2.4-5 .6.7.4 1.1.3 1.4zm-3.3 11-.2.2c.8 2 1.6 3.9 2.5 6 .6-.2 1-.4 1.5-.5.1-1.3.2-2.6.2-4-1.5-.6-2.8-1.2-4-1.7zm-.2 7.2c.5-.2.9-.4 1.5-.6-.7-2.1-1.6-4-2.4-6h-.2c-.5 1.3-1 2.6-1.6 4 .9.9 1.8 1.7 2.7 2.6zm-5.8-14.5-.3 3.6c1.3.7 2.6 1.2 3.9 1.6.1 0 .1-.1.2-.1-.7-1.8-1.5-3.7-2.3-5.6-.6.2-1 .4-1.5.5zM391 41.8c1.2 0 2.4.1 3.7.1.5-1.3 1-2.5 1.5-3.8 0-.1-.1-.1-.1-.2-1.9.7-3.8 1.5-5.7 2.4.2.6.4 1 .6 1.5zm11.7-3.1c.8-.9 1.5-1.8 2.2-2.8-.2-.5-.4-.9-.7-1.5-1.9.8-3.7 1.6-5.5 2.3v.3c1.3.6 2.6 1.1 4 1.7zm-13 .3c.1.1.2.2.3.4 1.9-.8 3.7-1.6 5.6-2.4v-.2c-1.2-.6-2.5-1-3.8-1.6-.9 1-1.7 1.9-2.5 2.9.2.4.3.6.4.9zm6.6-9.8c-.5.2-.9.4-1.4.6.6 2 1.6 3.8 2.2 5.7.6-.5 1.4-2.7 1.6-3.9l-2.4-2.4zm1.9 6.5.2.2c1.8-.6 3.5-1.4 5.3-2.2-.2-.5-.4-.9-.6-1.3h-3.6c-.4 1.1-.9 2.2-1.3 3.3zM697.2 14.8c-.4 1.1-.9 2.2-1.3 3.3-.1.3-.2.7-.4 1.1 1.5 0 3.1.5 4-1.2.1-.2.3-.3.4-.4.1-.1.3 0 .5-.1 0 .9-.8 1.4-.9 2.3.2.3.4.7.6 1.2.4-.1.7-.2 1-.3.7-.3 1.4-.5 2-.8.3-.1.6-.1.8-.1 0 .2.1.3.1.4-.9 1.1-2.3 1-3.4 1.9.2.9.6 1.5 1.6 1.7.3 0 .5.1.8.3.2.1.3.2.5.4-.9.6-1.6-.2-2.4 0-.8.8-1.7 1.9-1.8 2.5 1.5.9 3.3 1.2 4.8 2.3-.4.5-.7.4-1 .3-1.2-.5-2.3-.9-3.5-1.4-.3-.1-.6-.2-1.1-.4-.1.7 0 1.3-.1 1.8-.2 1.1 0 2.1 1 2.8.2.2.5.4.4.9-.7-.4-1.3-.8-2-1.2-.4.2-.9.4-1.3.6.1.4.2.7.3.9.3.8.7 1.6 1 2.4.2.4.2.8-.4 1-.9-1.1-1-2.6-1.9-3.8-.9.1-1.6.4-1.8 1.4-.1.4-.2 1-.8 1.2-.3-.8.3-1.5.2-2.4-.7-.6-1.5-1.4-2.3-2.1h-.3c0 .2 0 .4-.1.6-.5 1.3-1 2.6-1.6 3.9-.2.4-.3.9-.8 1.1-.5-.3-.3-.6-.2-1 .5-1.4 1.1-2.8 1.6-4.2.1-.3.2-.6.4-1.1-.7 0-1.3 0-1.8-.1-1-.1-1.7.1-2.3 1-.2.3-.5.7-1.1.7-.1-1 .8-1.5 1-2.4-.2-.4-.4-.8-.7-1.3-1.3.3-2.3 1.1-3.6 1.1 0-.2-.1-.3-.1-.4.8-1 2.2-1 3.2-1.8-.2-.4-.4-.9-.5-1.2-.8-.5-1.6-.5-2.2-1 .1-.2.2-.3.2-.3.7.1 1.5.1 2.3.2.7-.8 1.4-1.6 2.1-2.6-.7-.3-1.3-.6-2-.9-.8-.4-1.7-.7-2.5-1.1-.3-.1-.7-.3-.5-.8.3 0 .6 0 .9.1 1.2.4 2.4.9 3.6 1.4.3.1.5.2.9.3.1-1.2.2-2.2.3-3.2-.5-.8-1.4-1.1-1.6-2.1 1 .1 1.5 1 2.3 1.3.4-.2.8-.4 1.2-.5-.2-.5-.3-.9-.4-1.3-.2-.5-.4-1.1-.6-1.6-.1-.3-.1-.5.4-.6.8.8.9 2.1 1.6 3.1.9-.1 1.7-.4 2-1.4.1-.4.2-1 .8-1.2.4.4.1.8 0 1.1-.1.4-.2.8-.4 1.2.8.7 1.5 1.4 2.2 2.1 1-1.7 1.2-3.5 2.4-5 .6.7.4 1.1.3 1.4zm-3.3 11.1-.2.2c.8 2 1.6 3.9 2.5 6 .6-.2 1-.4 1.5-.5.1-1.3.2-2.6.2-4-1.5-.7-2.7-1.2-4-1.7zm-.2 7.1c.5-.2.9-.4 1.5-.6-.7-2.1-1.6-4-2.4-6h-.2c-.5 1.3-1 2.6-1.6 4 .9.9 1.8 1.8 2.7 2.6zM688 18.6l-.3 3.6c1.3.7 2.6 1.2 3.9 1.6.1 0 .1-.1.2-.1-.7-1.8-1.5-3.7-2.3-5.6-.7.2-1.1.3-1.5.5zm-1.5 11.1c1.2 0 2.4.1 3.7.1.5-1.3 1-2.5 1.5-3.8 0-.1-.1-.1-.1-.2-1.9.7-3.8 1.5-5.7 2.4.2.6.4 1 .6 1.5zm11.7-3.1c.8-.9 1.5-1.8 2.2-2.8-.2-.5-.4-.9-.7-1.5-1.9.8-3.7 1.6-5.5 2.3v.3c1.3.6 2.6 1.1 4 1.7zm-13 .3c.1.1.2.2.3.4 1.9-.8 3.7-1.6 5.6-2.4v-.2c-1.2-.6-2.5-1-3.8-1.6-.9 1-1.7 1.9-2.5 2.9.2.4.3.7.4.9zm6.6-9.8c-.5.2-.9.4-1.4.6.6 2 1.6 3.8 2.2 5.7.6-.5 1.4-2.7 1.6-3.9l-2.4-2.4zm1.9 6.5.2.2c1.8-.6 3.5-1.4 5.3-2.2-.2-.5-.4-.9-.6-1.3H695c-.4 1.1-.8 2.2-1.3 3.3zM1041.1 48.1c.4-.7-.1-1.3 0-2 .2.1.4.1.5.2.4.3.8.5 1.2.8.3.2.6.3.8-.2-.4-.8-1.4-1-2-1.8.6-.4 1.4-.1 1.9-.6 0-.5-.3-.5-.6-.5-.6.1-1.2.1-1.9.2-.5.1-.9 0-1.3-.3-.9-.6-1.8-1.2-2.6-1.8-.2-.1-.4-.3-.7-.5.3-.1.4-.1.5-.1 1.2-.1 2.4-.2 3.6-.4.6-.1 1.1 0 1.5.4.4.3.8.6 1.2 1 .3.2.5.3.9 0-.1-.8-.9-.9-1.3-1.6.7-.1 1.3-.1 1.9-.2.4-.1.4-.1.6-.5-.2-.4-.5-.3-.8-.3-.6 0-1.2.1-1.9.2.2-.8 1.1-1.1 1.1-1.8-.4-.3-.6 0-.9.2-.4.5-.9 1-1.3 1.4-.2.2-.5.4-.8.4-1.3.2-2.6.3-3.9.4-.1 0-.2 0-.5-.1.4-.4.7-.7 1-1.1l2.1-2.1c.3-.3.6-.4 1-.4h1.7c.3 0 .6 0 .7-.5-.5-.6-1.3-.1-1.9-.4.3-.6.8-.9 1.2-1.4.3-.3.3-.3.2-.8-.3-.2-.5-.1-.8.1l-1 1c-.1.1-.3.2-.5.4-.3-.7.2-1.5-.6-2.2-.1.3-.3.6-.3.8-.1.7-.1 1.4-.1 2 0 .3-.1.6-.3.8-1 1.1-2.1 2.2-3.2 3.3 0 0-.1.1-.3.2-.1-.2-.1-.4-.1-.6-.1-1.3-.2-2.6-.3-4 0-.4.1-.7.3-.9.4-.5.7-.9 1-1.4.2-.2.4-.5.2-.9-.8 0-.9 1-1.6 1.3-.2-.9 0-1.9-.5-2.8-.7.4-.4.9-.4 1.3 0 .5.1.9.1 1.5-.7-.2-1.1-1.1-1.9-1-.2.4.1.6.2.7.4.4.9.7 1.3 1.1.2.2.4.5.5.8.1 1.4.2 2.8.3 4.3v.6c-.2-.1-.4-.2-.5-.3-1.1-.7-2.1-1.4-3.2-2.2-.3-.2-.5-.5-.6-.9-.1-.6-.3-1.1-.5-1.7-.1-.4-.2-.4-.7-.5-.4.6.1 1.2.1 1.8-.9-.2-1.4-1.2-2.3-1.2-.3.4-.1.6.1.8.3.3.7.5 1 .7.2.1.4.3.6.4-.5.5-1.5.1-1.8.9.2.4.6.3.9.3.5-.1 1.1-.2 1.6-.3.3 0 .6 0 .8.2 1.1.7 2.2 1.5 3.2 2.2.1.1.2.2.5.3-.3.1-.4.1-.6.2-1.2.1-2.4.2-3.5.4-.4 0-.8 0-1.1-.3-.5-.4-1-.7-1.5-1-.3-.2-.6-.3-.8.1.1.7.9.8 1.2 1.4-.4.1-.9.1-1.3.2-.3 0-.6 0-.9.1-.2.1-.3.3-.6.5 1 .6 1.9 0 2.7.2-.1.7-1 1-.8 1.8.4.2.6 0 .8-.3.4-.4.7-.9 1.1-1.3.2-.2.5-.4.8-.4 1.3-.2 2.6-.3 3.9-.4h.4c0 .1 0 .2-.1.2-.9.9-1.8 1.9-2.7 2.8-.2.2-.5.3-.8.4-.6.1-1.2.1-1.8.2-.3 0-.6.1-.7.5.5.6 1.2.1 1.8.3-.1.1-.1.3-.2.4-.3.3-.6.7-.9 1-.2.2-.3.4-.4.6.3.4.5.3.8.1l.9-.9.5-.5c.5.6-.1 1.5.6 1.9.4-.2.4-.5.4-.7v-1.7c0-.3.1-.6.3-.8 1-1.1 2-2.1 3-3.1 0 0 .1-.1.2-.1.1.1.1.3.2.4.1 1.4.2 2.7.3 4.1 0 .4-.1.7-.4 1.1-.4.4-.8.9-1.1 1.3-.2.2-.4.5-.1.8.7-.1.9-1 1.7-1.4.1.7.1 1.3.2 2 0 .3 0 .6.5.7.4-.9 0-1.9.1-2.9.6.5 1.1.9 1.7 1.3.4-.3.3-.6 0-.8l-1.5-1.5c-.2-.2-.4-.5-.4-.8-.1-1.3-.2-2.7-.3-4v-.6c.2.1.4.1.5.2 1.2.8 2.3 1.6 3.5 2.4.4.2.6.6.6 1 .1.5.2 1.1.3 1.6.6.5.6.5 1.1.6zM553.8 47.8c.4-.7-.1-1.3 0-2 .2.1.4.1.5.2.4.3.8.5 1.2.8.3.2.6.3.8-.2-.4-.8-1.4-1-2-1.8.6-.4 1.4-.1 1.9-.6 0-.5-.3-.5-.6-.5-.6.1-1.2.1-1.9.2-.5.1-.9 0-1.3-.3-.9-.6-1.8-1.2-2.6-1.8-.2-.1-.4-.3-.7-.5.3-.1.4-.1.5-.1 1.2-.1 2.4-.2 3.6-.4.6-.1 1.1 0 1.5.4.4.3.8.6 1.2 1 .3.2.5.3.9 0-.1-.8-.9-.9-1.3-1.6.7-.1 1.3-.1 1.9-.2.4-.1.4-.1.6-.5-.2-.4-.5-.3-.8-.3-.6 0-1.2.1-1.9.2.2-.8 1.1-1.1 1.1-1.8-.4-.3-.6 0-.9.2-.4.5-.9 1-1.3 1.4-.2.2-.5.4-.8.4-1.3.2-2.6.3-3.9.4-.1 0-.2 0-.5-.1.4-.4.7-.7 1-1.1l2.1-2.1c.3-.3.6-.4 1-.4h1.7c.3 0 .6 0 .7-.5-.5-.6-1.3-.1-1.9-.4.3-.6.8-.9 1.2-1.4.3-.3.3-.3.2-.8-.3-.2-.5-.1-.8.1l-1 1c-.1.1-.3.2-.5.4-.3-.7.2-1.5-.6-2.2-.1.3-.3.6-.3.8-.1.7-.1 1.4-.1 2 0 .3-.1.6-.3.8-1 1.1-2.1 2.2-3.2 3.3 0 0-.1.1-.3.2-.1-.2-.1-.4-.1-.6-.1-1.3-.2-2.6-.3-4 0-.4.1-.7.3-.9.4-.5.7-.9 1-1.4.2-.2.4-.5.2-.9-.8 0-.9 1-1.6 1.3-.2-.9 0-1.9-.5-2.8-.7.4-.4.9-.4 1.3 0 .5.1.9.1 1.5-.7-.2-1.1-1.1-1.9-1-.2.4.1.6.2.7.4.4.9.7 1.3 1.1.2.2.4.5.5.8.1 1.4.2 2.8.3 4.3v.6c-.2-.1-.4-.2-.5-.3-1.1-.7-2.1-1.4-3.2-2.2-.3-.2-.5-.5-.6-.9-.1-.6-.3-1.1-.5-1.7-.1-.4-.2-.4-.7-.5-.4.6.1 1.2.1 1.8-.9-.2-1.4-1.2-2.3-1.2-.3.4-.1.6.1.8.3.3.7.5 1 .7.2.1.4.3.6.4-.5.5-1.5.1-1.8.9.2.4.6.3.9.3.5-.1 1.1-.2 1.6-.3.3 0 .6 0 .8.2 1.1.7 2.2 1.5 3.2 2.2.1.1.2.2.5.3-.3.1-.4.1-.6.2-1.2.1-2.4.2-3.5.4-.4 0-.8 0-1.1-.3-.5-.4-1-.7-1.5-1-.3-.2-.6-.3-.8.1.1.7.9.8 1.2 1.4-.4.1-.9.1-1.3.2-.3 0-.6 0-.9.1-.2.1-.3.3-.6.5 1 .6 1.9 0 2.7.2-.1.7-1 1-.8 1.8.4.2.6 0 .8-.3.4-.4.7-.9 1.1-1.3.2-.2.5-.4.8-.4 1.3-.2 2.6-.3 3.9-.4h.4c0 .1 0 .2-.1.2-.9.9-1.8 1.9-2.7 2.8-.2.2-.5.3-.8.4-.6.1-1.2.1-1.8.2-.3 0-.6.1-.7.5.5.6 1.2.1 1.8.3-.1.1-.1.3-.2.4-.3.3-.6.7-.9 1-.2.2-.3.4-.4.6.3.4.5.3.8.1l.9-.9.5-.5c.5.6-.1 1.5.6 1.9.4-.2.4-.5.4-.7v-1.7c0-.3.1-.6.3-.8 1-1.1 2-2.1 3-3.1 0 0 .1-.1.2-.1.1.1.1.3.2.4.1 1.4.2 2.7.3 4.1 0 .4-.1.7-.4 1.1-.4.4-.8.9-1.1 1.3-.2.2-.4.5-.1.8.7-.1.9-1 1.7-1.4.1.7.1 1.3.2 2 0 .3 0 .6.5.7.4-.9 0-1.9.1-2.9.6.5 1.1.9 1.7 1.3.4-.3.3-.6 0-.8l-1.5-1.5c-.2-.2-.4-.5-.4-.8-.1-1.3-.2-2.7-.3-4V42c.2.1.4.1.5.2 1.2.8 2.3 1.6 3.5 2.4.4.2.6.6.6 1 .1.5.2 1.1.3 1.6.5.5.6.5 1.1.6zM136.4 131.2c1.2 1 2.3 2.1 3.4 3.1.3.3.8.7.2 1.4-1.3-1.1-2.6-2.1-4-3.2-.1.6-.1 1.1.1 1.6.2.7.4 1.5.5 2.2.1.5 0 1-.8 1-.9-1.4-.7-3.3-1.7-5-.5 1.1-.9 2-1.4 2.9-.5.8-.5 2-2 2.4.2-.8.3-1.4.5-2 .6-1.5 1.2-2.9 1.9-4.3.6-1.2.5-2.2-.1-3.2-1.9-.5-3.7-.9-5.4-1.3-1.2 1.3-1.4 1.6-1.4 3.1v5c0 .6 0 1.2-.8 1.9-1-1.8-.3-3.6-.8-5.4-1.4 1.1-1.7 3.1-3.7 3.8-.3-2.1 1.6-3.1 1.8-5-1 .3-1.8.7-2.6.9-.7.2-1.5.9-2.4-.1.6-.3 1-.7 1.5-.9 1.4-.6 2.8-1.2 4.3-1.8 1.2-.4 1.9-1.3 2.1-1.9-.9-1.6-1.7-2.9-2.4-4.1-1.3 0-2.1.5-2.8 1.3-1.1 1.3-2.3 2.6-3.4 3.9-.4.4-.8 1-1.7.7.4-1.9 2.2-2.8 3.1-4.6-.6.1-1 .2-1.4.2l-2.4.6c-.5.1-1.1.2-1.4-.6 1.1-1.3 3.1-1 4.5-2-1.4-1.1-3.3-.9-4.4-2.4.7-.7 1.3-.4 1.8-.2 1.4.4 2.8.9 4.2 1.5 1.1.5 2.1.4 3.1-.2.3-1.6.6-3.1.9-4.6-1-.9-2.1-1.1-3.2-.9-1.7.3-3.3.4-5 .6-.6.1-1.2.2-1.8-.6 1.6-1.1 3.5-.6 5.4-1.5-1-.5-1.8-.9-2.5-1.3s-1.7-.5-1.7-1.8c1.8-.4 3.1 1.2 4.8 1.4-.4-1.7-1.8-2.9-1.8-4.6.9-.2 1.2.4 1.4.9.8 1.4 1.6 2.7 2.3 4.1.5 1 1.2 1.6 2.4 1.8 1.6-1.3 3.3-2.7 4.9-4 0-1.1-.4-1.7-1-2.2-1.3-1.2-2.6-2.4-3.9-3.7-.4-.4-.9-.7-.6-1.6 1.8.7 2.8 2.5 4.6 3.5-.1-1.9-1-3.5-.5-5.4 1.5 1.2 1.2 3.3 2.2 4.8 1-1.5 1.2-3.4 2.7-4.5.1.5.1 1 0 1.5-.6 1.6-1.2 3.1-1.8 4.7-.3.6-.5 1.3.1 2.1 1.7.5 3.6 1 5.4 1.5 1.1-.9 1.4-1.8 1.3-2.9v-4.9c0-.5-.1-1.1.8-1.3 1 1.4.2 3.3.9 4.8 1.3-.9 1.5-2.7 2.9-3.3.7.3.7.7.5 1.2l-.9 1.5c-.4.6-.7 1.3-1.1 1.9.6.1 1.1 0 1.5-.1l2.7-.9c.5-.1 1-.3 1.4.6-.6.3-1.1.7-1.7.9-1.4.5-2.9 1.1-4.4 1.5-1 .3-1.8.9-2.1 2.1.7 1.3 1.5 2.7 2.3 4 2.5-.4 2.5-.4 3.8-2 .9-1.1 1.9-2.2 2.9-3.2.3-.3.8-.5 1.2-.8l.3.3c-.2 1.7-2 2.6-2.6 4.2 1.6.2 3-1.2 4.7-.4-1.1 1.9-3.3 1.2-4.6 2.4 1.5 1.2 3.7 1.1 5 2.9-1.1.3-1.3.3-2.3-.1-1.4-.5-2.8-1-4.1-1.7-1.3-.6-2.4-.4-3.6.3-.1 1.5-.2 3-.4 4.5 1.3 1 2.5 1.4 4 1.1 1.4-.3 2.8-.4 4.3-.6.5-.1 1.2-.2 1.6.6-1.4 1.1-3.2.6-4.8 1.4 1.1 1.2 3 1.1 3.7 2.5-.4.8-.9.7-1.4.5-.7-.3-1.3-.7-2-.9-.5-.2-.9-.6-1.7-.4.4.9.9 1.8 1.2 2.7.3.8 1.1 1.6.3 2.8-.5-.6-.9-1-1.2-1.5-.7-1.3-1.4-2.6-2-4-.6-1.5-1.7-2.1-3.1-2.5-1.5 1.4-2.9 2.7-4.5 4.1.2 1.2.8 2.3 1.9 3.2zm-7.3-19.9c-1.4 1.2-2.7 2.2-4.1 3.4 1.8 1 3.5 1.8 5.5 2.7-.4-2.2-.9-4-1.4-6.1zm6.2.3c-1.7-.5-3.1-.9-4.9-1.4.5 2.2 1 4.1 1.4 6 .1 0 .2.1.4.1 1-1.5 2-3 3.1-4.7zm-7.1 14c1.6.6 2.9.9 4.7 1.3-.5-2.1-.9-3.9-1.4-5.7-.1 0-.2-.1-.4-.1-.9 1.4-1.8 2.9-2.9 4.5zm9.8-2.6c-1.7-.8-3.2-1.6-5-2.4.4 2.1.8 3.8 1.3 5.8 1.4-1.3 2.5-2.3 3.7-3.4zm-4.2-6c.1.1.1.2.2.3 1.4-.2 2.8-.7 4.4-1.2-.5-1.1-1-2.2-1.7-3.6-1.1 1.8-2 3.1-2.9 4.5zm-9.3-.6c-.2 1.3-.3 2.4-.5 3.8 1.7-.5 3.2-.9 4.6-1.3 0-.1.1-.3.1-.4-1.3-.7-2.6-1.3-4.2-2.1zm.1 5.4c.7 1.1 1.3 2 2 3.1 1-1.5 1.8-2.8 2.6-4.1-.1-.1-.1-.2-.2-.3-1.4.4-2.8.8-4.4 1.3zm13.9-.5c.2-1.2.4-2.2.6-3.3-1.1-.2-3.5.4-4.7 1.3 1.4.7 2.7 1.3 4.1 2zM1169.2 110.7c.4-.7-.1-1.3 0-2 .2.1.4.1.5.2.4.3.8.5 1.2.8.3.2.6.3.8-.2-.4-.8-1.4-1-2-1.8.6-.4 1.4-.1 1.9-.6 0-.5-.3-.5-.6-.5-.6.1-1.2.1-1.9.2-.5.1-.9 0-1.3-.3-.9-.6-1.8-1.2-2.6-1.8-.2-.1-.4-.3-.7-.5.3-.1.4-.1.5-.1 1.2-.1 2.4-.2 3.6-.4.6-.1 1.1 0 1.5.4.4.3.8.6 1.2 1 .3.2.5.3.9 0-.1-.8-.9-.9-1.3-1.6.7-.1 1.3-.1 1.9-.2.4-.1.4-.1.6-.5-.2-.4-.5-.3-.8-.3-.6 0-1.2.1-1.9.2.2-.8 1.1-1.1 1.1-1.8-.4-.3-.6 0-.9.2-.4.5-.9 1-1.3 1.4-.2.2-.5.4-.8.4-1.3.2-2.6.3-3.9.4-.1 0-.2 0-.5-.1.4-.4.7-.7 1-1.1l2.1-2.1c.3-.3.6-.4 1-.4h1.7c.3 0 .6 0 .7-.5-.5-.6-1.3-.1-1.9-.4.3-.6.8-.9 1.2-1.4.3-.3.3-.3.2-.8-.3-.2-.5-.1-.8.1l-1 1c-.1.1-.3.2-.5.4-.3-.7.2-1.5-.6-2.2-.1.3-.3.6-.3.8-.1.7-.1 1.4-.1 2 0 .3-.1.6-.3.8-1 1.1-2.1 2.2-3.2 3.3 0 0-.1.1-.3.2-.1-.2-.1-.4-.1-.6-.1-1.3-.2-2.6-.3-4 0-.4.1-.7.3-.9.4-.5.7-.9 1-1.4.2-.2.4-.5.2-.9-.8 0-.9 1-1.6 1.3-.2-.9 0-1.9-.5-2.8-.7.4-.4.9-.4 1.3 0 .5.1.9.1 1.5-.7-.2-1.1-1.1-1.9-1-.2.4.1.6.2.7.4.4.9.7 1.3 1.1.2.2.4.5.5.8.1 1.4.2 2.8.3 4.3v.6c-.2-.1-.4-.2-.5-.3-1.1-.7-2.1-1.4-3.2-2.2-.3-.2-.5-.5-.6-.9-.1-.6-.3-1.1-.5-1.7-.1-.4-.2-.4-.7-.5-.4.6.1 1.2.1 1.8-.9-.2-1.4-1.2-2.3-1.2-.3.4-.1.6.1.8.3.3.7.5 1 .7.2.1.4.3.6.4-.5.5-1.5.1-1.8.9.2.4.6.3.9.3.5-.1 1.1-.2 1.6-.3.3 0 .6 0 .8.2 1.1.7 2.2 1.5 3.2 2.2.1.1.2.2.5.3-.3.1-.4.1-.6.2-1.2.1-2.4.2-3.5.4-.4 0-.8 0-1.1-.3-.5-.4-1-.7-1.5-1-.3-.2-.6-.3-.8.1.1.7.9.8 1.2 1.4-.4.1-.9.1-1.3.2-.3 0-.6 0-.9.1-.2.1-.3.3-.6.5 1 .6 1.9 0 2.7.2-.1.7-1 1-.8 1.8.4.2.6 0 .8-.3.4-.4.7-.9 1.1-1.3.2-.2.5-.4.8-.4 1.3-.2 2.6-.3 3.9-.4h.4c0 .1 0 .2-.1.2-.9.9-1.8 1.9-2.7 2.8-.2.2-.5.3-.8.4-.6.1-1.2.1-1.8.2-.3 0-.6.1-.7.5.5.6 1.2.1 1.8.3-.1.1-.1.3-.2.4-.3.3-.6.7-.9 1-.2.2-.3.4-.4.6.3.4.5.3.8.1l.9-.9.5-.5c.5.6-.1 1.5.6 1.9.4-.2.4-.5.4-.7v-1.7c0-.3.1-.6.3-.8 1-1.1 2-2.1 3-3.1 0 0 .1-.1.2-.1.1.1.1.3.2.4.1 1.4.2 2.7.3 4.1 0 .4-.1.7-.4 1.1-.4.4-.8.9-1.1 1.3-.2.2-.4.5-.1.8.7-.1.9-1 1.7-1.4.1.7.1 1.3.2 2 0 .3 0 .6.5.7.4-.9 0-1.9.1-2.9.6.5 1.1.9 1.7 1.3.4-.3.3-.6 0-.8l-1.5-1.5c-.2-.2-.4-.5-.4-.8-.1-1.3-.2-2.7-.3-4v-.6c.2.1.4.1.5.2 1.2.8 2.3 1.6 3.5 2.4.4.2.6.6.6 1 .1.5.2 1.1.3 1.6.6.5.6.5 1.1.6zM833.7 36.5c-1.9.5-3.9.9-5.8 1.4-.6.1-1.1.3-1.9.6 1.5 2.1 2.2 4.7 5.4 4.4.3 0 .7.1 1 .2.2.1.3.3.6.6-1.2.9-2.7.3-4.1.9-.3.6-.6 1.3-1 2 .5.4 1 .8 1.4 1.1 1 .7 2 1.3 3 2.1.4.3.7.7 1 1-.3.2-.4.4-.5.4-2.3-.2-3.7-2.2-5.8-2.8-1.1 1.1-1.5 2.3-.8 3.8.2.4.3.9.4 1.3 0 .3-.1.6-.1 1.1-1.6-.6-1.3-2.4-2.3-3.2-1.9-.4-4.2-.5-5.2-.1.3 2.9 1.5 5.7 1.4 8.8-1.1 0-1.2-.6-1.3-1.2-.5-2-1-4.1-1.4-6.1-.1-.5-.3-1-.5-1.8-1 .6-1.8 1.2-2.7 1.5-1.8.8-2.9 2-2.8 4.1 0 .5 0 1.1-1 1.4-.1-1.4-.1-2.6-.2-4-.7-.4-1.4-.8-2.1-1.3-.4.5-.7.9-1 1.3-.8 1.2-1.5 2.4-2.3 3.6-.4.6-.8 1.1-1.8.4.7-2.3 2.6-3.9 3.4-6.2-1-1.1-2.1-1.7-3.7-1.2-.7.2-1.5.7-2.4.1.8-1.3 2.4-1 3.5-2 .2-1.6.4-3.4.6-5.2-.1-.1-.2-.3-.3-.4-.3.1-.6.4-1 .4-2.3.5-4.6 1.1-6.9 1.6-.7.2-1.5.5-2.2 0-.2-1 .6-1.1 1.2-1.2 2.4-.6 4.9-1.1 7.3-1.7.5-.1 1-.3 1.8-.5-.6-1-1.2-1.8-1.6-2.6-.7-1.5-1.8-2.3-3.5-2.2-.7 0-1.4 0-2-.9 1.3-1 2.8-.2 4.2-.8l1.1-2.2c-1.6-1.5-3.8-2.1-5-3.8.2-.2.3-.4.4-.4 2.1.1 3.4 2.1 5.6 2.6.4-.7.8-1.4 1.1-1.9-.1-1.5-1-2.7-.7-4.1.3 0 .6-.1.6 0 .6 1.1 1.2 2.2 1.9 3.4 1.7.1 3.6.3 5.6.5-.3-1.3-.5-2.4-.7-3.5l-.9-4.5c-.1-.5-.3-1.2.7-1.4.2.4.5.9.7 1.4l1.5 6.3c.1.5.3.9.5 1.6 1.8-1 3.3-1.8 4.7-2.6.6-1.5.3-3 1.4-4.3.8 1.5 0 3 .4 4.4.6.4 1.2.7 1.9 1.1.5-.7 1-1.2 1.4-1.8.6-.8 1.1-1.6 1.7-2.4.3-.4.7-.6 1.3 0-.4 1.9-2.1 3.3-2.7 5.1 1.1 1.2 2.2 1.9 3.9 1.4.7-.2 1.5-.7 2.3-.1-.2.9-1 .9-1.5 1.1-.7.2-1.3.4-2 .7-.3 1.7-.5 3.4-.7 5.1 3.2-.3 6-1.6 9.2-1.5-.4.9-1.1 1-1.7 1.1zm-18.4 6c-.1 0-.3-.1-.4-.1-1.9 3-3.9 6-5.9 9.1.8.6 1.4 1 2.1 1.5 1.9-1.2 3.8-2.3 5.7-3.5-.5-2.5-1-4.7-1.5-7zm-10 6.7c.7.5 1.4.9 2.2 1.5 2.2-3 4-6.1 6-9.1-.1-.1-.2-.2-.2-.3-2.3.5-4.6 1.1-7 1.6-.4 2.2-.7 4.2-1 6.3zm14.4-21.8c-1.8 1-3.5 2-5.3 3 .3 2.4.8 4.7 1.5 6.9.1 0 .2.1.4.1 1.8-2.8 3.6-5.6 5.5-8.5-.8-.6-1.4-1-2.1-1.5zm-16.8 8.7c1.1 1.7 2.2 3.4 3.4 5.2 2.3-.5 4.5-1 6.7-1.5 0-.1 0-.2.1-.4-2.8-2-5.7-3.7-8.8-5.6-.5.9-.9 1.5-1.4 2.3zm15.5 13.1c2 .2 3.9.3 6 .5.4-.8.8-1.5 1.3-2.4-2.9-1.8-5.7-3.6-8.4-5.3-.1.1-.2.2-.4.2.5 2.3 1 4.6 1.5 7zm-12.8-17.6c-.1.2-.1.5-.3.9 2.9 1.8 5.7 3.6 8.6 5.4.1-.1.2-.1.3-.2-.3-2.2-.9-4.4-1.4-6.7-2.2-.2-4.2-.5-6.4-.7-.3.5-.6.9-.8 1.3zm19.8-.3c-.7-.5-1.4-.9-2.2-1.4-2.2 2.7-3.7 5.8-5.7 8.6 1.3.3 5.2-.6 6.9-1.5.3-2 .7-3.8 1-5.7zm-7.1 8.9v.4c2.5 1.9 5.3 3.4 8.1 5.2.5-.7.8-1.4 1.3-2.1-1.2-1.6-2.3-3.2-3.5-4.9-2.1.5-4 .9-5.9 1.4zM512.2 62c-1.9.5-3.9.9-5.8 1.4-.6.1-1.1.3-1.9.6 1.5 2.1 2.2 4.7 5.4 4.4.3 0 .7.1 1 .2.2.1.3.3.6.6-1.2.9-2.7.3-4.1.9-.3.6-.6 1.3-1 2 .5.4 1 .8 1.4 1.1 1 .7 2 1.3 3 2.1.4.3.7.7 1 1-.3.2-.4.4-.5.4-2.3-.2-3.7-2.2-5.8-2.8-1.1 1.1-1.5 2.3-.8 3.8.2.4.3.9.4 1.3 0 .3-.1.6-.1 1.1-1.6-.6-1.3-2.4-2.3-3.2-1.9-.4-4.2-.5-5.2-.1.3 2.9 1.5 5.7 1.4 8.8-1.1 0-1.2-.6-1.3-1.2-.5-2-1-4.1-1.4-6.1-.1-.5-.3-1-.5-1.8-1 .6-1.8 1.2-2.7 1.5-1.8.8-2.9 2-2.8 4.1 0 .5 0 1.1-1 1.4-.1-1.4-.1-2.6-.2-4-.7-.4-1.4-.8-2.1-1.3-.4.5-.7.9-1 1.3-.8 1.2-1.5 2.4-2.3 3.6-.4.6-.8 1.1-1.8.4.7-2.3 2.6-3.9 3.4-6.2-1-1.1-2.1-1.7-3.7-1.2-.7.2-1.5.7-2.4.1.8-1.3 2.4-1 3.5-2 .2-1.6.4-3.4.6-5.2-.1-.1-.2-.3-.3-.4-.3.1-.6.4-1 .4-2.3.5-4.6 1.1-6.9 1.6-.7.2-1.5.5-2.2 0-.2-1 .6-1.1 1.2-1.2 2.4-.6 4.9-1.1 7.3-1.7.5-.1 1-.3 1.8-.5-.6-1-1.2-1.8-1.6-2.6-.7-1.5-1.8-2.3-3.5-2.2-.7 0-1.4 0-2-.9 1.3-1 2.8-.2 4.2-.8l1.1-2.2c-1.6-1.5-3.8-2.1-5-3.8.2-.2.3-.4.4-.4 2.1.1 3.4 2.1 5.6 2.6.4-.7.8-1.4 1.1-1.9-.1-1.5-1-2.7-.7-4.1.3 0 .6-.1.6 0 .6 1.1 1.2 2.2 1.9 3.4 1.7.1 3.6.3 5.6.5-.3-1.3-.5-2.4-.7-3.5l-.9-4.5c-.1-.5-.3-1.2.7-1.4.2.4.5.9.7 1.4l1.5 6.3c.1.5.3.9.5 1.6 1.8-1 3.3-1.8 4.7-2.6.6-1.5.3-3 1.4-4.3.8 1.5 0 3 .4 4.4.6.4 1.2.7 1.9 1.1.5-.7 1-1.2 1.4-1.8.6-.8 1.1-1.6 1.7-2.4.3-.4.7-.6 1.3 0-.4 1.9-2.1 3.3-2.7 5.1 1.1 1.2 2.2 1.9 3.9 1.4.7-.2 1.5-.7 2.3-.1-.2.9-1 .9-1.5 1.1-.7.2-1.3.4-2 .7-.3 1.7-.5 3.4-.7 5.1 3.2-.3 6-1.6 9.2-1.5-.5.9-1.2.9-1.7 1.1zm-18.4 6c-.1 0-.3-.1-.4-.1-1.9 3-3.9 6-5.9 9.1.8.6 1.4 1 2.1 1.5 1.9-1.2 3.8-2.3 5.7-3.5-.5-2.5-1-4.8-1.5-7zm-10 6.7c.7.5 1.4.9 2.2 1.5 2.2-3 4-6.1 6-9.1-.1-.1-.2-.2-.2-.3-2.3.5-4.6 1.1-7 1.6-.4 2.1-.7 4.1-1 6.3zm14.4-21.9c-1.8 1-3.5 2-5.3 3 .3 2.4.8 4.7 1.5 6.9.1 0 .2.1.4.1 1.8-2.8 3.6-5.6 5.5-8.5-.9-.5-1.5-1-2.1-1.5zm-16.8 8.7c1.1 1.7 2.2 3.4 3.4 5.2 2.3-.5 4.5-1 6.7-1.5 0-.1 0-.2.1-.4-2.8-2-5.7-3.7-8.8-5.6-.6.9-1 1.5-1.4 2.3zm15.5 13.1c2 .2 3.9.3 6 .5.4-.8.8-1.5 1.3-2.4-2.9-1.8-5.7-3.6-8.4-5.3-.1.1-.2.2-.4.2.5 2.3.9 4.6 1.5 7zM484 57c-.1.2-.1.5-.3.9 2.9 1.8 5.7 3.6 8.6 5.4.1-.1.2-.1.3-.2-.3-2.2-.9-4.4-1.4-6.7-2.2-.2-4.2-.5-6.4-.7-.3.6-.6.9-.8 1.3zm19.9-.3c-.7-.5-1.4-.9-2.2-1.4-2.2 2.7-3.7 5.8-5.7 8.6 1.3.3 5.2-.6 6.9-1.5.3-1.9.6-3.8 1-5.7zm-7.1 8.9v.4c2.5 1.9 5.3 3.4 8.1 5.2.5-.7.8-1.4 1.3-2.1-1.2-1.6-2.3-3.2-3.5-4.9-2.1.5-4 1-5.9 1.4zM1151 38.6c-1.9.5-3.9.9-5.8 1.4-.6.1-1.1.3-1.9.6 1.5 2.1 2.2 4.7 5.4 4.4.3 0 .7.1 1 .2.2.1.3.3.6.6-1.2.9-2.7.3-4.1.9-.3.6-.6 1.3-1 2 .5.4 1 .8 1.4 1.1 1 .7 2 1.3 3 2.1.4.3.7.7 1 1-.3.2-.4.4-.5.4-2.3-.2-3.7-2.2-5.8-2.8-1.1 1.1-1.5 2.3-.8 3.8.2.4.3.9.4 1.3 0 .3-.1.6-.1 1.1-1.6-.6-1.3-2.4-2.3-3.2-1.9-.4-4.2-.5-5.2-.1.3 2.9 1.5 5.7 1.4 8.8-1.1 0-1.2-.6-1.3-1.2-.5-2-1-4.1-1.4-6.1-.1-.5-.3-1-.5-1.8-1 .6-1.8 1.2-2.7 1.5-1.8.8-2.9 2-2.8 4.1 0 .5 0 1.1-1 1.4-.1-1.4-.1-2.6-.2-4-.7-.4-1.4-.8-2.1-1.3-.4.5-.7.9-1 1.3-.8 1.2-1.5 2.4-2.3 3.6-.4.6-.8 1.1-1.8.4.7-2.3 2.6-3.9 3.4-6.2-1-1.1-2.1-1.7-3.7-1.2-.7.2-1.5.7-2.4.1.8-1.3 2.4-1 3.5-2 .2-1.6.4-3.4.6-5.2-.1-.1-.2-.3-.3-.4-.3.1-.6.4-1 .4-2.3.5-4.6 1.1-6.9 1.6-.7.2-1.5.5-2.2 0-.2-1 .6-1.1 1.2-1.2 2.4-.6 4.9-1.1 7.3-1.7.5-.1 1-.3 1.8-.5-.6-1-1.2-1.8-1.6-2.6-.7-1.5-1.8-2.3-3.5-2.2-.7 0-1.4 0-2-.9 1.3-1 2.8-.2 4.2-.8l1.1-2.2c-1.6-1.5-3.8-2.1-5-3.8.2-.2.3-.4.4-.4 2.1.1 3.4 2.1 5.6 2.6.4-.7.8-1.4 1.1-1.9-.1-1.5-1-2.7-.7-4.1.3 0 .6-.1.6 0 .6 1.1 1.2 2.2 1.9 3.4 1.7.1 3.6.3 5.6.5-.3-1.3-.5-2.4-.7-3.5l-.9-4.5c-.1-.5-.3-1.2.7-1.4.2.4.5.9.7 1.4l1.5 6.3c.1.5.3.9.5 1.6 1.8-1 3.3-1.8 4.7-2.6.6-1.5.3-3 1.4-4.3.8 1.5 0 3 .4 4.4.6.4 1.2.7 1.9 1.1.5-.7 1-1.2 1.4-1.8.6-.8 1.1-1.6 1.7-2.4.3-.4.7-.6 1.3 0-.4 1.9-2.1 3.3-2.7 5.1 1.1 1.2 2.2 1.9 3.9 1.4.7-.2 1.5-.7 2.3-.1-.2.9-1 .9-1.5 1.1-.7.2-1.3.4-2 .7-.3 1.7-.5 3.4-.7 5.1 3.2-.3 6-1.6 9.2-1.5-.5.9-1.2 1-1.7 1.1zm-18.4 6c-.1 0-.3-.1-.4-.1-1.9 3-3.9 6-5.9 9.1.8.6 1.4 1 2.1 1.5 1.9-1.2 3.8-2.3 5.7-3.5-.5-2.5-1-4.7-1.5-7zm-10 6.7c.7.5 1.4.9 2.2 1.5 2.2-3 4-6.1 6-9.1-.1-.1-.2-.2-.2-.3-2.3.5-4.6 1.1-7 1.6-.4 2.2-.7 4.2-1 6.3zm14.4-21.9c-1.8 1-3.5 2-5.3 3 .3 2.4.8 4.7 1.5 6.9.1 0 .2.1.4.1 1.8-2.8 3.6-5.6 5.5-8.5-.9-.5-1.5-1-2.1-1.5zm-16.8 8.8c1.1 1.7 2.2 3.4 3.4 5.2 2.3-.5 4.5-1 6.7-1.5 0-.1 0-.2.1-.4-2.8-2-5.7-3.7-8.8-5.6-.6.9-1 1.5-1.4 2.3zm15.5 13.1c2 .2 3.9.3 6 .5.4-.8.8-1.5 1.3-2.4-2.9-1.8-5.7-3.6-8.4-5.3-.1.1-.2.2-.4.2.5 2.3.9 4.5 1.5 7zm-12.9-17.6c-.1.2-.1.5-.3.9 2.9 1.8 5.7 3.6 8.6 5.4.1-.1.2-.1.3-.2-.3-2.2-.9-4.4-1.4-6.7-2.2-.2-4.2-.5-6.4-.7-.3.5-.6.9-.8 1.3zm19.9-.4c-.7-.5-1.4-.9-2.2-1.4-2.2 2.7-3.7 5.8-5.7 8.6 1.3.3 5.2-.6 6.9-1.5.3-1.9.6-3.7 1-5.7zm-7.1 9v.4c2.5 1.9 5.3 3.4 8.1 5.2.5-.7.8-1.4 1.3-2.1-1.2-1.6-2.3-3.2-3.5-4.9-2.1.5-4 .9-5.9 1.4zM1165.3 53.9c.7 1.2 1.5 2.3 2.2 3.5 0 .1.3 0 .5 0-.2-1.7-1.5-2.8-2-4.3h.7c.8.1 1.5.3 2.3.4.3 0 .6 0 .9-.1-1.1-.9-2.6-.7-3.8-1.5.7-.6 1.4-1.3 2.3-2-1.2-.2-1.6.8-2.5.9 0-1.4.5-2.7.4-4-.7.4-.8 1.1-.9 1.8-.2.7-.3 1.4-.5 2.4-.8-1.2-1.4-2.1-2-3.1-.1 0-.2.1-.3.1.3 1.2 1 2.2 1.6 3.5-1.4-.3-2.7-.5-3.9-.7-.3.5-.1.7.3.8.7.2 1.4.3 2.1.5.3.1.5.1.9.2-.2.2-.3.4-.5.5-.7.5-1.5 1.1-2.2 1.6-.3.2-.5.5-.7.8.4.6.8.3 1.1.1.7-.5 1.3-.9 2-1.4.3-.2.5-.5.8-.7.2 1.5-.8 2.8-.4 4.4.9-.5.9-1.3 1.1-1.9.2-.7.3-1.3.5-2-.2.2-.1.2 0 .2zM1189.3 42.6c-.2.9-1 1.5-1.9 1.3-.9-.2-1.5-1-1.3-1.9.2-.9 1-1.5 1.9-1.3s1.5 1 1.3 1.9zM1117.6 89.5c.7 1.2 1.5 2.3 2.2 3.5 0 .1.3 0 .5 0-.2-1.7-1.5-2.8-2-4.3h.7c.8.1 1.5.3 2.3.4.3 0 .6 0 .9-.1-1.1-.9-2.6-.7-3.8-1.5.7-.6 1.4-1.3 2.3-2-1.2-.2-1.6.8-2.5.9 0-1.4.5-2.7.4-4-.7.4-.8 1.1-.9 1.8-.2.7-.3 1.4-.5 2.4-.8-1.2-1.4-2.1-2-3.1-.1 0-.2.1-.3.1.3 1.2 1 2.2 1.6 3.5-1.4-.3-2.7-.5-3.9-.7-.3.5-.1.7.3.8.7.2 1.4.3 2.1.5.3.1.5.1.9.2-.2.2-.3.4-.5.6-.7.5-1.5 1.1-2.2 1.6-.3.2-.5.5-.7.8.4.6.8.3 1.1.1.7-.5 1.3-.9 2-1.4.3-.2.5-.5.8-.7.2 1.5-.8 2.8-.4 4.4.9-.5.9-1.3 1.1-1.9.2-.7.3-1.3.5-2-.1.1 0 .1 0 .1zM1141.7 78.2c-.2.9-1 1.5-1.9 1.3-.9-.2-1.5-1-1.3-1.9.2-.9 1-1.5 1.9-1.3s1.4 1.1 1.3 1.9zM836.8 90.6c.7 1.2 1.5 2.3 2.2 3.5 0 .1.3 0 .5 0-.2-1.7-1.5-2.8-2-4.3h.7c.8.1 1.5.3 2.3.4.3 0 .6 0 .9-.1-1.1-.9-2.6-.7-3.8-1.5.7-.6 1.4-1.3 2.3-2-1.2-.2-1.6.8-2.5.9 0-1.4.5-2.7.4-4-.7.4-.8 1.1-.9 1.8-.2.7-.3 1.4-.5 2.4-.8-1.2-1.4-2.1-2-3.1-.1 0-.2.1-.3.1.3 1.2 1 2.2 1.6 3.5-1.4-.3-2.7-.5-3.9-.7-.3.5-.1.7.3.8.7.2 1.4.3 2.1.5.3.1.5.1.9.2-.2.2-.3.4-.5.5-.7.5-1.5 1.1-2.2 1.6-.3.2-.5.5-.7.8.4.6.8.3 1.1.1.7-.5 1.3-.9 2-1.4.3-.2.5-.5.8-.7.2 1.5-.8 2.8-.4 4.4.9-.5.9-1.3 1.1-1.9.2-.7.3-1.3.5-2-.1.2-.1.2 0 .2zM860.8 79.4c-.2.9-1 1.5-1.9 1.3-.9-.2-1.5-1-1.3-1.9.2-.9 1-1.5 1.9-1.3s1.5 1 1.3 1.9z"/>
    <circle class="st1" cx="803.9" cy="107.2" r="1.6"/>
    <path class="st1" d="M812.1 87.3c-.1.7-.8 1.1-1.4 1-.7-.1-1.1-.8-1-1.4.1-.7.8-1.1 1.4-1s1.1.7 1 1.4zM743 31.2c-1.4.9-2.7 1.7-3.9 2.4l-.2-.2c.3-.4.7-.6 1.1-.9l1.2-.9c.4-.3.8-.6 1.3-1-1.1-.6-2.3-.5-3.3-1.2 1.1-.4 2.2.2 3.4.1-.4-.9-.8-1.7-1.2-2.5 1 .3 1.1 1.3 1.9 1.9.3-1.2.5-2.4.8-3.8.7.8.2 1.5.2 2.1 0 .6-.1 1.2-.2 2 1.4-.5 2.2-1.7 3.6-1.9-.5 1.3-1.9 1.6-2.8 2.7.7.1 1.3.2 1.9.4.6.1 1.3.1 1.7.6-.1.5-.4.4-.7.4-.9-.1-1.7-.2-2.6-.4-.2 0-.5 0-.8-.1.5 1.4 1.6 2.4 1.8 3.8-1.4-.5-1.4-2.1-2.4-2.9-.2.9-.3 1.7-.5 2.6-.2.8.1 1.7-.9 2.2-.1-1.8.4-3.5.6-5.4z"/>
    <circle class="st1" cx="781.7" cy="57.2" r="1.6"/>
    <path class="st1" d="M789.9 37.3c-.1.7-.8 1.1-1.4 1-.7-.1-1.1-.8-1-1.4s.8-1.1 1.4-1 1.1.8 1 1.4zM761.8 42.1c-.1.7-.8 1.1-1.4 1-.7-.1-1.1-.8-1-1.4.1-.7.8-1.1 1.4-1s1.1.7 1 1.4zM170.4 63.7c.7 1.2 1.5 2.3 2.2 3.5 0 .1.3 0 .5 0-.2-1.7-1.5-2.8-2-4.3h.7c.8.1 1.5.3 2.3.4.3 0 .6 0 .9-.1-1.1-.9-2.6-.7-3.8-1.5.7-.6 1.4-1.3 2.3-2-1.2-.2-1.6.8-2.5.9 0-1.4.5-2.7.4-4-.7.4-.8 1.1-.9 1.8-.2.7-.3 1.4-.5 2.4-.8-1.2-1.4-2.1-2-3.1-.1 0-.2.1-.3.1.3 1.2 1 2.2 1.6 3.5-1.4-.3-2.7-.5-3.9-.7-.3.5-.1.7.3.8.7.2 1.4.3 2.1.5.3.1.5.1.9.2-.2.2-.3.4-.5.5-.7.5-1.5 1.1-2.2 1.6-.3.2-.5.5-.7.8.4.6.8.3 1.1.1.7-.5 1.3-.9 2-1.4.3-.2.5-.5.8-.7.2 1.5-.8 2.8-.4 4.4.9-.5.9-1.3 1.1-1.9.2-.7.3-1.3.5-2-.1.2 0 .2 0 .2zM90.1 21.6c-1.4.9-2.7 1.7-3.9 2.4l-.2-.2c.3-.4.7-.6 1.1-.9l1.2-.9c.4-.3.8-.6 1.3-1-1.1-.6-2.3-.5-3.3-1.2 1.1-.4 2.2.2 3.4.1-.4-.9-.8-1.7-1.2-2.5 1 .3 1.1 1.3 1.9 1.9.3-1.2.5-2.4.8-3.8.7.8.2 1.5.2 2.1 0 .6-.1 1.2-.2 2 1.4-.5 2.2-1.7 3.6-1.9-.5 1.3-1.9 1.6-2.8 2.7.7.1 1.3.2 1.9.4.6.1 1.3.1 1.7.6-.1.5-.4.4-.7.4-.9-.1-1.7-.2-2.6-.4-.2 0-.5 0-.8-.1.5 1.4 1.6 2.4 1.8 3.8-1.2-.5-1.3-2.1-2.3-2.9-.2.9-.3 1.7-.5 2.6-.2.8.1 1.7-.9 2.2-.2-1.8.3-3.4.5-5.4zM90.1 89.5c-1.4.9-2.7 1.7-3.9 2.4l-.2-.2c.3-.4.7-.6 1.1-.9l1.2-.9c.4-.3.8-.6 1.3-1-1.1-.6-2.3-.5-3.3-1.2 1.1-.4 2.2.2 3.4.1-.4-.9-.8-1.7-1.2-2.5 1 .3 1.1 1.3 1.9 1.9.3-1.2.5-2.4.8-3.8.7.8.2 1.5.2 2.1 0 .6-.1 1.2-.2 2 1.4-.5 2.2-1.7 3.6-1.9-.5 1.3-1.9 1.6-2.8 2.7.7.1 1.3.2 1.9.4.6.1 1.3.1 1.7.6-.1.5-.4.4-.7.4-.9-.1-1.7-.2-2.6-.4-.2 0-.5 0-.8-.1.5 1.4 1.6 2.4 1.8 3.8-1.4-.5-1.4-2.1-2.4-2.9-.2.9-.3 1.7-.5 2.6-.2.8.1 1.7-.9 2.2-.1-1.8.4-3.5.6-5.4zM192.6 27.3c-.2.9-1 1.5-1.9 1.3-.9-.2-1.5-1-1.3-1.9s1-1.5 1.9-1.3c.8.1 1.4 1 1.3 1.9z"/>
    <circle class="st1" cx="128.2" cy="60.9" r="1.6"/>
    <path class="st1" d="M140.4 31.3c-.1.7-.8 1.1-1.4 1-.7-.1-1.1-.8-1-1.4s.8-1.1 1.4-1c.6.1 1.1.7 1 1.4zM113.1 37.6c-.1.7-.8 1.1-1.4 1-.7-.1-1.1-.8-1-1.4.1-.7.8-1.1 1.4-1 .7.1 1.2.8 1 1.4zM264.7 75.4c-1.3-.4-2.6-.8-4-1.2-.1 0-.2.2-.4.4 1.3 1.1 3 1.1 4.4 1.9-.2.2-.3.3-.5.4-.7.4-1.3.7-2 1.1-.3.2-.5.4-.6.7 1.4 0 2.4-1.2 3.8-1.4-.1 1-.3 1.9-.4 3 1-.6.7-1.7 1.3-2.3.9 1.1 1.3 2.4 2.3 3.3.2-.8-.2-1.4-.5-2-.3-.6-.7-1.3-1.2-2.2 1.4.4 2.5.7 3.6 1 0-.1.1-.2.1-.3-1-.7-2.3-1-3.5-1.6 1.2-.7 2.3-1.4 3.4-2.1-.1-.6-.4-.6-.8-.4-.7.3-1.3.7-2 1-.2.1-.5.2-.9.4v-.7l.6-2.7c.1-.4 0-.7.1-1.1-.7-.2-.8.3-.9.6-.2.8-.4 1.6-.6 2.3-.1.3 0 .7-.2 1-1.2-1-1.3-2.7-2.6-3.6-.4 1 .2 1.6.4 2.2.3.6.6 1.2 1 1.8.2.4.2.4.1.5zM325 35.6c.5-1.6.9-3 1.4-4.4h.3c0 .5-.1.9-.2 1.4-.1.5-.2 1-.3 1.4-.1.5-.2 1-.4 1.6 1.2-.3 2.1-1.2 3.3-1.3-.6 1-1.8 1.3-2.7 2.2.9.4 1.7.7 2.5 1.1-.9.5-1.7-.2-2.7-.1.6 1.1 1.2 2.1 1.9 3.4-1.1-.2-1.1-1-1.5-1.4-.4-.5-.7-1-1.2-1.6-.7 1.3-.6 2.8-1.5 3.8-.5-1.3.4-2.4.4-3.8-.6.3-1.1.7-1.7.9-.5.3-1 .8-1.7.7-.3-.4 0-.6.3-.8.7-.5 1.5-.9 2.2-1.4.2-.1.4-.3.7-.5-1.3-.8-2.8-.8-3.9-1.7 1.3-.6 2.4.6 3.7.6-.5-.8-.9-1.5-1.3-2.2-.4-.7-1.2-1.2-.8-2.2 1.3 1.2 2 2.8 3.2 4.3zM253.9 99.6c-.5-.8-.2-1.8.6-2.2.8-.5 1.8-.2 2.2.6.5.8.2 1.8-.6 2.2-.7.5-1.7.2-2.2-.6z"/>
    <circle class="st1" cx="278.7" cy="41.3" r="1.6"/>
    <path class="st1" d="M285.5 61.7c-.3-.6-.2-1.3.4-1.7.6-.3 1.3-.2 1.7.4.3.6.2 1.3-.4 1.7-.6.4-1.3.2-1.7-.4zM303.6 39.8c-.3-.6-.2-1.3.4-1.7.6-.3 1.3-.2 1.7.4.3.6.2 1.3-.4 1.7-.6.3-1.3.2-1.7-.4zM472.1 99.4c-.8 1.1-1.6 2.3-2.4 3.4 0 .1.1.2.2.5 1.4-.9 1.9-2.5 3.2-3.6l.3.6c.2.7.3 1.5.5 2.3.1.3.3.6.5.8.4-1.4-.4-2.7-.2-4.1.9.4 1.7.8 2.7 1.3-.2-1.2-1.4-1.2-1.8-2 1.3-.5 2.7-.6 3.9-1.2-.7-.4-1.3-.2-2-.1s-1.4.3-2.4.4c.8-1.2 1.4-2.1 2-3.1l-.2-.2c-1 .8-1.6 1.8-2.6 2.9-.3-1.4-.6-2.7-.9-3.9-.6-.1-.7.2-.6.6.1.7.2 1.4.4 2.2 0 .3.1.5.1.9-.3-.1-.5-.1-.7-.2-.8-.4-1.6-.9-2.4-1.4-.3-.2-.7-.3-1-.4-.4.6 0 .8.3 1 .7.4 1.4.9 2.1 1.2.3.2.6.2.9.5-1.3.8-2.9.4-4.2 1.3.8.7 1.5.3 2.2.2.7-.1 1.4-.2 2-.4 0 .3.1.4.1.5zM452.6 29.9c-1.4-1-2.6-1.8-3.8-2.6 0-.1.1-.2.1-.3.5.1.9.4 1.3.6.4.2.9.5 1.3.7.4.3.9.5 1.4.8.1-1.3-.5-2.3-.2-3.5.8.9.7 2.1 1.3 3.2l1.8-2.1c.2 1-.7 1.5-1 2.5 1.3-.3 2.4-.5 3.8-.8-.5 1-1.3.8-1.8 1-.6.2-1.2.4-1.9.6 1 1.1 2.5 1.4 3.2 2.6-1.4.1-2.2-1.1-3.6-1.5.1.7.3 1.3.4 1.9.1.6.4 1.2.2 1.8-.5.2-.6-.2-.7-.5-.2-.8-.5-1.7-.7-2.5-.1-.2-.1-.5-.3-.8-1.1 1-1.6 2.4-2.8 3.2-.1-1.4 1.3-2.1 1.7-3.4-.9.2-1.7.4-2.5.6-.8.1-1.5.8-2.4.1 1.6-.8 3.4-1 5.2-1.6zM491.9 117c-.9.2-1.8-.3-2-1.2-.2-.9.3-1.8 1.2-2 .9-.2 1.8.3 2 1.2.2.9-.3 1.8-1.2 2z"/>
    <circle class="st1" cx="443.9" cy="75.7" r="1.6"/>
    <path class="st1" d="M465.4 75.4c-.7.2-1.3-.3-1.5-.9-.2-.7.3-1.3.9-1.5.7-.2 1.3.3 1.5.9.2.6-.2 1.3-.9 1.5zM355.6 49c-.7.2-1.3-.3-1.5-.9-.2-.7.3-1.3.9-1.5.7-.2 1.3.3 1.5.9.1.7-.3 1.4-.9 1.5z"/>
    <circle class="st1" cx="389.7" cy="92.1" r="1.6"/>
    <path class="st1" d="M404 108.1c-.5-.4-.7-1.2-.3-1.7.4-.5 1.2-.7 1.7-.3.5.4.7 1.2.3 1.7-.3.6-1.1.7-1.7.3zM450 51.5c-.7.2-1.3-.3-1.5-.9-.2-.7.3-1.3.9-1.5.7-.2 1.3.3 1.5.9.2.6-.2 1.3-.9 1.5zM632.9 90.7c-1.1-.8-2.2-1.7-3.3-2.5-.1 0-.2.1-.5.2.8 1.5 2.4 2.1 3.4 3.3-.2.1-.4.2-.7.2-.8.1-1.5.2-2.3.4-.3.1-.6.2-.8.4 1.4.5 2.7-.2 4.1.1-.5.9-.9 1.7-1.4 2.6 1.2-.2 1.3-1.3 2.1-1.7.5 1.3.4 2.7 1 3.9.5-.6.3-1.3.2-2-.1-.7-.2-1.4-.3-2.4 1.1.8 2.1 1.5 3 2.2l.2-.2c-.7-1-1.8-1.7-2.7-2.8 1.4-.3 2.7-.5 3.9-.7.1-.6-.2-.7-.6-.7-.7.1-1.5.2-2.2.2-.3 0-.6 0-.9.1.1-.3.2-.5.3-.7.5-.8 1-1.5 1.5-2.3.2-.3.3-.7.4-1-.6-.4-.8 0-1 .3-.5.7-.9 1.3-1.4 2-.2.3-.3.6-.6.9-.7-1.4-.2-2.9-1.1-4.3-.7.8-.4 1.5-.4 2.2 0 .7.2 1.4.2 2 .1.3 0 .3-.1.3zM703.4 75.1c1-1.3 1.9-2.5 2.8-3.6.1 0 .2.1.3.1-.2.5-.4.8-.7 1.3-.3.4-.5.8-.8 1.2-.3.4-.6.9-.9 1.4 1.3.2 2.4-.4 3.5 0-.9.7-2.2.6-3.3 1.1.7.7 1.3 1.3 2 1.9-1 .1-1.5-.8-2.4-1.1.2 1.3.4 2.4.6 3.8-.9-.5-.7-1.3-.9-1.9-.2-.6-.3-1.2-.5-1.9-1.1 1-1.5 2.4-2.8 3 0-1.4 1.3-2.1 1.7-3.5-.7.1-1.3.2-1.9.3-.6.1-1.2.4-1.8.1-.1-.5.2-.6.5-.6.9-.2 1.7-.4 2.6-.5.2 0 .5-.1.8-.2-.9-1.2-2.3-1.7-3.1-3 1.5 0 2 1.5 3.3 1.9-.2-.9-.4-1.7-.4-2.6-.1-.8-.7-1.6 0-2.4.8 1.6.9 3.3 1.4 5.2zM614.2 109.6c-.2-.9.4-1.7 1.3-1.9.9-.2 1.7.4 1.9 1.3s-.4 1.7-1.3 1.9c-.9.1-1.7-.5-1.9-1.3z"/>
    <circle class="st1" cx="658.1" cy="63.9" r="1.6"/>
    <path class="st1" d="M657.3 85.4c-.1-.7.3-1.3 1-1.4.7-.1 1.3.3 1.4 1s-.3 1.3-1 1.4c-.7.1-1.3-.3-1.4-1zM682 71.3c-.1-.7.3-1.3 1-1.4.7-.1 1.3.3 1.4 1 .1.7-.3 1.3-1 1.4s-1.3-.3-1.4-1z"/>
    <g>
      <path class="st1" d="M1041 72c-1.1-.8-2.2-1.7-3.3-2.5-.1 0-.2.1-.5.2.8 1.5 2.4 2.1 3.4 3.3-.2.1-.4.2-.7.2-.8.1-1.5.2-2.3.4-.3.1-.6.2-.8.4 1.4.5 2.7-.2 4.1.1-.5.9-.9 1.7-1.4 2.6 1.2-.2 1.3-1.3 2.1-1.7.5 1.3.4 2.7 1 3.9.5-.6.3-1.3.2-2-.1-.7-.2-1.4-.3-2.4 1.1.8 2.1 1.5 3 2.2l.2-.2c-.7-1-1.8-1.7-2.7-2.8 1.4-.3 2.7-.5 3.9-.7.1-.6-.2-.7-.6-.7-.7.1-1.5.2-2.2.2-.3 0-.6 0-.9.1.1-.3.2-.5.3-.7.5-.8 1-1.5 1.5-2.3.2-.3.3-.7.4-1-.6-.4-.8 0-1 .3-.5.7-.9 1.3-1.4 2-.2.3-.3.6-.6.9-.7-1.4-.2-2.9-1.1-4.3-.7.8-.4 1.5-.4 2.2 0 .7.2 1.4.2 2 .1.3 0 .3-.1.3zM1111.5 56.4c1-1.3 1.9-2.5 2.8-3.6.1 0 .2.1.3.1-.2.5-.4.8-.7 1.3-.3.4-.5.8-.8 1.2-.3.4-.6.9-.9 1.4 1.3.2 2.4-.4 3.5 0-.9.7-2.2.6-3.3 1.1.7.7 1.3 1.3 2 1.9-1 .1-1.5-.8-2.4-1.1.2 1.3.4 2.4.6 3.8-.9-.5-.7-1.3-.9-1.9-.2-.6-.3-1.2-.5-1.9-1.1 1-1.5 2.4-2.8 3 0-1.4 1.3-2.1 1.7-3.5-.7.1-1.3.2-1.9.3-.6.1-1.2.4-1.8.1-.1-.5.2-.6.5-.6.9-.2 1.7-.4 2.6-.5.2 0 .5-.1.8-.2-.9-1.2-2.3-1.7-3.1-3 1.5 0 2 1.5 3.3 1.9-.2-.9-.4-1.7-.4-2.6-.1-.8-.7-1.6 0-2.4.8 1.6.9 3.3 1.4 5.2zM1022.3 90.9c-.2-.9.4-1.7 1.3-1.9.9-.2 1.7.4 1.9 1.3s-.4 1.7-1.3 1.9c-.9.1-1.7-.5-1.9-1.3z"/>
      <circle class="st1" cx="1066.2" cy="45.2" r="1.6"/>
      <path class="st1" d="M1065.4 66.7c-.1-.7.3-1.3 1-1.4.7-.1 1.3.3 1.4 1 .1.7-.3 1.3-1 1.4-.7.1-1.3-.3-1.4-1zM1090.1 52.6c-.1-.7.3-1.3 1-1.4.7-.1 1.3.3 1.4 1 .1.7-.3 1.3-1 1.4-.7.1-1.3-.3-1.4-1z"/>
    </g>
    <g>
      <path class="st1" d="M920.6 41.9c1.4-.2 2.7-.5 4.1-.7.1 0 .1-.2.2-.5-1.6-.4-3.1.4-4.8.3.1-.2.2-.5.3-.6.4-.6.9-1.3 1.3-1.9.2-.3.2-.6.2-.9-1.3.7-1.6 2.1-2.8 3-.3-.9-.6-1.8-1-2.8-.7 1 .1 1.8-.1 2.7-1.3-.5-2.3-1.5-3.6-1.9.2.8.8 1.1 1.3 1.5.6.4 1.2.8 2 1.4-1.4.3-2.5.5-3.6.7v.3c1.2.2 2.5-.1 3.9-.2-.8 1.2-1.5 2.3-2.1 3.4.4.5.6.3.9 0 .4-.6.9-1.2 1.3-1.8.2-.2.3-.4.6-.8.1.3.3.5.3.7.2.9.4 1.8.7 2.6.1.3.3.7.4 1 .7-.2.6-.6.5-1-.2-.8-.4-1.6-.6-2.3-.1-.3-.3-.6-.3-1 1.5.4 2.3 1.8 3.9 2.1-.1-1-.9-1.3-1.4-1.7-.5-.4-1.1-.8-1.7-1.2 0-.3.1-.4.1-.4zM884.9 104.6c.3 1.7.5 3.1.8 4.5-.1 0-.2.1-.3.1-.2-.4-.3-.9-.5-1.4-.1-.5-.3-.9-.4-1.4-.1-.5-.3-1-.4-1.6-1 .8-1.3 2-2.3 2.6.1-1.2 1-2 1.4-3.2-1 .1-1.9.1-2.7.2.6-.8 1.6-.6 2.5-1.1-1.1-.7-2-1.4-3.2-2.1 1-.3 1.4.3 2 .6.6.2 1.1.6 1.8.9 0-1.5-.8-2.7-.4-4.1 1 .9.7 2.4 1.4 3.6.4-.6.7-1.1 1.1-1.6.4-.5.5-1.1 1.2-1.4.5.3.2.6.1.8-.4.8-.9 1.5-1.3 2.3-.1.2-.2.4-.4.7 1.5.1 2.8-.6 4.3-.3-.9 1.1-2.4.5-3.6 1.2.8.5 1.5.9 2.2 1.4.6.5 1.6.6 1.7 1.6-1.9-.4-3.3-1.4-5-2.3zM919.2 15.4c.8.5 1 1.5.5 2.2-.5.8-1.5 1-2.2.5-.8-.5-1-1.5-.5-2.2.4-.8 1.4-1 2.2-.5z"/>
      <circle class="st1" cx="923.5" cy="78.5" r="1.6"/>
      <path class="st1" d="M908.2 63.5c.6.4.7 1.1.4 1.7-.4.6-1.1.7-1.7.4-.6-.4-.7-1.1-.4-1.7s1.1-.8 1.7-.4zM902 91.2c.6.4.7 1.1.4 1.7-.4.6-1.1.7-1.7.4-.6-.4-.7-1.1-.4-1.7.4-.6 1.1-.7 1.7-.4z"/>
    </g>
    <circle class="st1" cx="173.2" cy="124.2" r="1.6"/>
    <path class="st1" d="M185.4 94.6c-.1.7-.8 1.1-1.4 1-.7-.1-1.1-.8-1-1.4.1-.7.8-1.1 1.4-1 .7.1 1.1.7 1 1.4z"/>
    <circle class="st1" cx="47.3" cy="120.7" r="1.6"/>
    <path class="st1" d="M68.8 120.4c-.7.2-1.3-.3-1.5-.9-.2-.7.3-1.3.9-1.5.7-.2 1.3.3 1.5.9s-.2 1.3-.9 1.5zM71.4 96.5c-.7.2-1.3-.3-1.5-.9-.2-.7.3-1.3.9-1.5.7-.2 1.3.3 1.5.9.2.7-.3 1.3-.9 1.5z"/>
  </g>
</svg>
