<svg id="Layer_1" data-name="Layer 1" xmlns="http://www.w3.org/2000/svg" viewBox="0 0 273.64 79.66"><defs><style>.cls-1{fill:#fff;}</style></defs><title>Artboard 1</title><path class="cls-1" d="M4.07,29.24a10.84,10.84,0,0,0-.31,16.67h0a11,11,0,0,0,4.36-8.31,7.56,7.56,0,0,0-.6-3.92c-.6-.93-2.51-2.78-3.46-4.44m-.29,2.62c.69,1,1.95,1.71,2.3,2.72a7.81,7.81,0,0,1,.39,3,9.28,9.28,0,0,1-2.63,6.08,9.28,9.28,0,0,1-2.18-6.25,9.09,9.09,0,0,1,2.11-5.5"/><path class="cls-1" d="M45.49,23a5.59,5.59,0,0,1-1.61-2.48c-.21-1,.09-2.39,0-3.59A9.11,9.11,0,0,1,49,19.77,9.29,9.29,0,0,1,51.44,26,9.17,9.17,0,0,1,45.49,23m4.77-4.37a10.42,10.42,0,0,0-8.16-3.5h-.17a48,48,0,0,1,.26,5.65c.11,1.25,1.16,2.34,2.08,3.34a11,11,0,0,0,8.16,3.51H53a11,11,0,0,0-2.73-9"/><path class="cls-1" d="M33.49,12.42a20.14,20.14,0,0,1-6.31-5.67L27,6.46,27,6.11a16.79,16.79,0,0,0,.35-3.45A17.29,17.29,0,0,1,38.23,14.23a15.84,15.84,0,0,1-4.73-1.81M16.09,20.78a34,34,0,0,1-9.62,6.29A17.2,17.2,0,0,1,25.75,2.17C26,7.88,22.35,15,16.09,20.78M40,14.53A18.89,18.89,0,1,0,4.92,27.69h0l.09.15.14.24.63,1a18.78,18.78,0,0,0,20.75,8V35.43a17.19,17.19,0,0,1-19.2-6.94A35.76,35.76,0,0,0,17.19,22,33.9,33.9,0,0,0,25.94,9.78l.49-1.24.89,1a21.94,21.94,0,0,0,5.36,4.32,17.21,17.21,0,0,0,5.93,2.1,17.07,17.07,0,0,1-7.29,17.21l.24.22,1,.92a18.61,18.61,0,0,0,7.73-18.17Z"/><path class="cls-1" d="M28.07,36.66V32.27l.88.8L30,34l.2.19,1.08,1L56.82,58.4,44.47,61l6.91,13.46-5.71,3.12L38.72,63.36l-10.65,9ZM26.53,34V75.61L38.2,65.8,45,79.66l8.48-4.6L46.8,62l13.27-2.77-27.48-25-1-.92-.24-.22-.94-.86-3.86-3.51Z"/><path class="cls-1" d="M87,35.93h-.24a4.91,4.91,0,0,0-2.58-2,12.29,12.29,0,0,0-4.59-.76,7.1,7.1,0,0,0-5.06,2.06,6.62,6.62,0,0,0-2.16,5,8.49,8.49,0,0,0,2,5.86,6.76,6.76,0,0,0,5.33,2.24q5.11,0,7-2.46h.25v3a4.68,4.68,0,0,1-2.16,4,9.58,9.58,0,0,1-5.69,1.55,13.39,13.39,0,0,1-9.55-3.8,12.47,12.47,0,0,1-4-9.4,13.9,13.9,0,0,1,3.88-10q3.88-4.07,10.41-4.08A8,8,0,0,1,85,28.78a5,5,0,0,1,2,4.05Z"/><path class="cls-1" d="M111,50.8a2.84,2.84,0,0,1-1.06,2.13,3.4,3.4,0,0,1-2.33,1H94.68A5.22,5.22,0,0,1,91.31,53a3.1,3.1,0,0,1-1.15-2.55q0-2.94,4-7.26l6.68-7.27a18,18,0,0,0,2.26-3h-13v-2a3.16,3.16,0,0,1,1.13-2.5,4.79,4.79,0,0,1,3.24-1h12a4.2,4.2,0,0,1,3.12,1,3.29,3.29,0,0,1,1,2.36q0,3.34-3.39,7L100.62,45a19.45,19.45,0,0,0-2.5,3.29H111Z"/><path class="cls-1" d="M130.85,36.27a3.5,3.5,0,0,0-1.33-3,6,6,0,0,0-3.68-1,5.13,5.13,0,0,0-3.9,1.64,6,6,0,0,0-1.65,4l0,.88h2.95a21.2,21.2,0,0,0,6.11-.56,2,2,0,0,0,1.55-2m6.18.79a5.11,5.11,0,0,1-2.87,5q-2.87,1.42-9.55,1.42h-4.32a5.7,5.7,0,0,0,2.41,4,8.29,8.29,0,0,0,5,1.5q5.4,0,8.1-2.5h.25v2.06q0,6-9.57,6a12.79,12.79,0,0,1-9.08-3.73,12.62,12.62,0,0,1-3.93-9.57q0-6.53,3.61-10.46a12.13,12.13,0,0,1,9.35-3.92,10.73,10.73,0,0,1,7.46,2.85A9.54,9.54,0,0,1,137,37.06"/><path class="cls-1" d="M161.45,35.93h-.24a4.91,4.91,0,0,0-2.58-2,12.32,12.32,0,0,0-4.59-.76A7.11,7.11,0,0,0,149,35.24a6.63,6.63,0,0,0-2.16,5,8.49,8.49,0,0,0,2,5.86,6.76,6.76,0,0,0,5.33,2.24q5.1,0,7-2.46h.25v3a4.68,4.68,0,0,1-2.16,4,9.57,9.57,0,0,1-5.7,1.55,13.38,13.38,0,0,1-9.54-3.8,12.47,12.47,0,0,1-4-9.4,13.91,13.91,0,0,1,3.88-10q3.88-4.07,10.41-4.08a8,8,0,0,1,5.18,1.64,5,5,0,0,1,2,4.05Z"/><path class="cls-1" d="M189.38,53.89h-2.16A4.52,4.52,0,0,1,184,52.74a4.31,4.31,0,0,1-1.2-3.27V38.68a6.29,6.29,0,0,0-1.45-4.57,5.09,5.09,0,0,0-3.8-1.47,4.46,4.46,0,0,0-3.32,1.52,6.63,6.63,0,0,0-1.45,4.71v15h-2.16q-4.51,0-4.52-4.42V18.55h2.06a4.82,4.82,0,0,1,3.46,1.15,4.06,4.06,0,0,1,1.21,3.07v7.56a8,8,0,0,1,2.43-2.45,5.8,5.8,0,0,1,3.31-1.08q5.15,0,8,3t2.85,8.59Z"/><path class="cls-1" d="M206.92,50.16a4.26,4.26,0,0,1-.91,3,4.09,4.09,0,0,1-3,.93A7.79,7.79,0,0,1,197.12,52a8.5,8.5,0,0,1-2-6.14V28H197q4.71,0,4.71,4.91V45.26a3.41,3.41,0,0,0,.9,2.72,4.91,4.91,0,0,0,3.12.76h1.23Zm-5.87-31.22a3.64,3.64,0,0,1,1.15,2.7,3.94,3.94,0,0,1-3.88,3.88,3.63,3.63,0,0,1-2.7-1.15,3.74,3.74,0,0,1-1.13-2.73,3.86,3.86,0,0,1,3.83-3.83,3.76,3.76,0,0,1,2.73,1.13"/><path class="cls-1" d="M209.71,28.47a8.46,8.46,0,0,1,.39-2.9,8.52,8.52,0,0,1,1.52-2.36,4.29,4.29,0,0,1,3.09-1.81h1.52v6h9.18v2.7a2.93,2.93,0,0,1-1,2.16,4,4,0,0,1-2.9,1h-5.25V43.59q0,4.76,4.17,4.76a9.37,9.37,0,0,0,4.76-.94h.25v2.36a3.9,3.9,0,0,1-1.5,3.24,6.84,6.84,0,0,1-4.3,1.18q-4.91,0-7.41-2.55t-2.5-7.26Z"/><path class="cls-1" d="M243.46,44.91V42.36h-2.36a10.9,10.9,0,0,0-5,.81,2.7,2.7,0,0,0-1.42,2.53,2.8,2.8,0,0,0,1.2,2.43,5.7,5.7,0,0,0,3.37.86q4.22,0,4.22-4.07m6.43,0a9,9,0,0,1-2.8,6.82,10.06,10.06,0,0,1-7.22,2.65h-1.32A11.9,11.9,0,0,1,230.92,52a7.37,7.37,0,0,1-3-6,7.07,7.07,0,0,1,3.12-6.06q3.11-2.24,10-2.23h2.31V37.3q0-2.75-1.33-3.81a7.06,7.06,0,0,0-4.37-1.05,13.34,13.34,0,0,0-5.33.93,7.87,7.87,0,0,0-3.07,2.11h-.25V33.38a5.73,5.73,0,0,1,2.41-4.51q2.41-2,7.22-2a14.45,14.45,0,0,1,4.27.59,10.32,10.32,0,0,1,3.51,1.89A8.57,8.57,0,0,1,249,33.08a16.16,16.16,0,0,1,.91,5.69Z"/><path class="cls-1" d="M273.64,45.55a8,8,0,0,1-2.87,6.58q-2.87,2.36-8.17,2.36a11,11,0,0,1-6-1.57q-2.45-1.57-2.45-3.63v-3h.25a8.8,8.8,0,0,0,3.36,1.77,14.83,14.83,0,0,0,4.59.73q4.81,0,4.81-2.9a2,2,0,0,0-1.1-1.82A14,14,0,0,0,261.62,43a12.29,12.29,0,0,1-6.26-2.31,5.83,5.83,0,0,1-2-4.71,8.24,8.24,0,0,1,3.14-6.5,12.06,12.06,0,0,1,8.1-2.68q4.13,0,6.29,1.72A5,5,0,0,1,273,32.44v2.5h-.25a7.5,7.5,0,0,0-3.14-1.77,14.14,14.14,0,0,0-4.42-.69q-5.31,0-5.3,2.95a1.65,1.65,0,0,0,1,1.55A17.71,17.71,0,0,0,265.2,38q8.44,1.37,8.44,7.51"/></svg>