<svg version="1.1" id="Layer_1" xmlns="http://www.w3.org/2000/svg" x="0" y="0" viewBox="0 0 200.5 150.5" xml:space="preserve">
  <style>
    .st0{fill:#ac8039}.st1{fill:#fff}
  </style>
  <path class="st0" d="M129.3 73.6c-1.8-.1-3.9-.6-5.8-1.6-1.5-.8-2.7-2.1-3.5-3.6-1.1-2.1-1.6-4.3-1.4-6.6.3-2.6 1.2-5.1 3-7.1 2.3-2.5 5.3-3.3 8.6-3 1.9.2 3.6.9 5.1 2.1 1.3 1.1 2.4 2.3 3.4 3.8 1.5 2.3 1.9 4.7 1.2 7.3-.8 3-2.5 5.3-5 7.1-1.5 1.2-3.4 1.6-5.6 1.6zm-.2-21.2c-3.2 0-6 1.3-7.6 3.7-2.2 3.4-3 7-1.4 11 .7 1.8 1.8 3.2 3.5 4.2 1.3.8 2.8 1.2 4.3 1.5 2.3.4 4.6 0 6.6-1.3 2.1-1.4 3.5-3.2 4.4-5.5 1.2-3 .9-5.8-1.1-8.5-.9-1.2-1.8-2.2-2.9-3.1-1.7-1.3-3.6-2-5.8-2z"/>
  <path class="st0" d="M130.7 61.6c-.1.5-.3 1-.8 1.4-.4.3-.9.4-1.3.2-.5-.3-.8-.7-.7-1.2.1-.5.3-1 .6-1.4.3-.4.8-.7 1.3-.5.4.2.9.9.9 1.5zM134.9 69.5c-1.2 1.3-2.7 1.9-4.2 2.1-3.3.4-7.1-1.6-8.7-4.6.2.2.3.4.5.5 1.3 1.5 2.9 2.7 4.8 3.3 2.4.8 4.8.6 6.9-1 .2-.1.3-.2.5-.3h.2zM136.5 62.6c-.9 0-1.3-.5-1.3-1.3 0-.7.7-1.3 1.4-1.3.6 0 1.3.7 1.3 1.4-.1.7-.7 1.3-1.4 1.2zM123.9 63.4c0 .6-.6 1.1-1.2 1.1-.5 0-1-.4-1.1-1-.2-.6-.1-1.2.3-1.5.3-.3.7-.3 1-.1.6.2 1 1 1 1.5z"/>
  <path class="st0" d="M131.2 69.2c-.9 0-1.3-.3-1.3-1s.7-1.5 1.4-1.5 1.1.5 1.1 1.3-.4 1.2-1.2 1.2zM128 56.4c-.2-.1-.7-.1-1.1-.3-.4-.2-.5-.5-.4-.9.4-.8 1.5-1.2 2.2-.7.5.4.7.8.5 1.2 0 .5-.5.8-1.2.7zM128.9 72.8c0 .1.1.2.2.5-.6-.2-1.1-.4-1.5-.6-2.2-1.2-3.9-2.8-5-5-.8-1.6-1.5-3.3-1.8-5.1-.1-.7-.1-1.3.1-2 .1 3.2 1.5 5.9 3.3 8.5 1.2 1.7 2.9 2.8 4.7 3.7z"/>
  <path class="st0" d="M128.9 72.8c-.4-.3-.8-.7-1.1-1-2.7-2.2-4.4-5.1-5.2-8.5-.1-.3-.1-.6-.1-.9 1.2 4.9 4.1 8.5 8.5 11-.8.2-1.4-.4-2.1-.6zM119.9 62.7c.5 4.5 2.9 7.8 7 10.1-3.3-.4-7.5-6.1-7-10.1z"/>
  <path class="st0" d="M132.8 72.8c-.8.2-1.6-.1-2.3-.4-.9-.4-1.7-1-2.4-1.7-.9-.9-1.7-2-2.4-3.2-.1-.2-.2-.5-.3-.8 1.8 2.9 3.9 5.3 7.4 6.1z"/>
  <path class="st0" d="M133.1 72.4c-2.5-.4-3.9-2.2-5.4-4 1.5 1.6 3.2 3.1 5.4 4zM131.6 68.5c1.4 1.1 2.9 1.9 4.8 1.7-1.1.9-3.5 0-4.8-1.7zM135 71.5c-1.7.3-3.9-.8-4.7-2.2 1.4 1.1 2.9 1.9 4.7 2.2zM137.8 68.9c-.9.9-3 .5-4.5-.8.8.3 1.5.7 2.3.8.7.1 1.4 0 2.2 0zM135.1 67.8c1 .2 2 .2 3.1-.3-.6 1-2 1.1-3.1.3zM136.8 67.1c.8-.3 1.6-.6 2.4-.8-.6.7-1.4.9-2.4.8zM77.4 66.2c-3.2.1-5.8-1-8.2-3-1.8-1.6-2.8-3.5-3.5-5.7-.3-.9-.3-2-.2-3 .1-1.9.5-3.8 1.2-5.7.5-1.3 1.3-2.3 2.4-3.1 2.7-1.9 5.6-2.7 8.9-2.7 1.3 0 2.4.3 3.5 1 1.2.8 2.4 1.7 3.6 2.6 1.8 1.4 2.9 3.2 3.5 5.4.7 2.8.7 5.5-.4 8.2-.6 1.4-1.4 2.5-2.7 3.4-2.3 1.9-5.1 2.7-8.1 2.6zm-.2-.9c1.7 0 3.3-.3 4.9-.9 3.1-1 5.2-3.1 5.9-6.4.4-2 .3-4-.2-5.9-.5-2-1.5-3.6-3.2-4.8-1.1-.8-2.3-1.7-3.4-2.4-.9-.6-2-.9-3.1-.9-2.8 0-5.4.7-7.8 2.3-1.4.9-2.3 2.1-2.7 3.7-.3 1.4-.7 2.8-.9 4.3-.2 1.3-.1 2.6.3 3.9.9 2.3 2.3 4 4.3 5.5 1.2.8 2.4 1.4 3.8 1.6h2.1z"/>
  <path class="st0" d="M67.9 54.5c.6 1 1.1 1.9 1.7 2.7 1.1 1.7 2.7 3 4.4 4 .8.5 1.6.9 2.5 1.2 2 .7 4 .8 6 .1.3-.1.6-.2 1-.3 0 .1.1.2.1.2-.2.1-.4.3-.6.4-.6.2-1.3.4-1.9.4-3.9.3-7.3-.9-10.2-3.6-1.6-1.3-2.4-3-3-5.1z"/>
  <path class="st0" d="M79.6 58.8c0 .5-.3 1-.8 1.3-.5.3-1 0-1.4-.3-.7-.6-1-1.3-.5-2 .2-.3.5-.5.8-.6.8-.3 1.9.7 1.9 1.6zM78.1 52.2c0 .9-.4 1.4-1 1.4-.9 0-1.7-.7-1.8-1.3 0-.8.7-1.6 1.4-1.6.8-.1 1.4.6 1.4 1.5zM83.4 52.5c-.7 0-1.2-.4-1.2-1 0-.8.6-1.6 1.2-1.6.8 0 1.6.6 1.6 1.3-.1.8-.7 1.3-1.6 1.3zM69.7 53c-.1-.1-.3-.4-.5-.6-.3-.4-.3-1.1 0-1.6s.8-.7 1.4-.5c.5.1.8.6.9 1.2.1.9-.5 1.5-1.8 1.5zM78.8 47.2c0 .6-.4 1-1 1-.9 0-1.5-.6-1.5-1.2s.5-1.1 1.2-1c.7 0 1.4.6 1.3 1.2zM86.2 57.7c.1.8-.2 1.4-.8 1.9-.2.2-.6.2-.9.1-.2-.1-.3-.5-.4-.7 0-.2 0-.4.1-.6.2-1.3.8-1.5 2-.7zM68.3 51.6v2.3c.1 4.2 1.4 7.9 4.7 10.7l.1.1c-.8 0-1.4-.2-2.1-.8-1.2-1.1-2.2-2.4-2.8-4-.4-1.2-.7-2.5-1-3.8-.1-.4 0-.9.1-1.4.3 2.7 1 5.1 2.6 7.3-1.8-3.3-2.3-6.7-1.6-10.4z"/>
  <path class="st0" d="M69.1 53.7c.5 4.7 2 8.9 6 11.8-.6 0-1.1-.2-1.7-.8-.8-.9-1.6-1.8-2.2-2.8-1.4-2.2-1.9-4.7-2.1-7.3V53.7z"/>
  <path class="st0" d="M71.2 56c.3 2 .9 3.7 1.7 5.4.8 1.7 2 3.1 3.6 4.2-.2-.1-.4-.1-.6-.2-1-.4-1.8-1.2-2.4-2.1-1.5-2.1-2.2-4.5-2.4-7-.1 0 0-.1.1-.3z"/>
  <path class="st0" d="M78.8 65.9c-1.2-.1-2.2-.6-2.9-1.5-1.3-1.4-2.1-3-2.7-4.8-.1-.4-.2-.7-.2-1.1 1.1 3.1 2.6 5.9 5.8 7.4z"/>
  <path class="st0" d="M80 65.5c-2 .2-4.1-2-5-4.8 1.2 2.1 2.5 4 5 4.8z"/>
  <path class="st0" d="M77 61.2c1 1.9 2.2 3.4 4.3 4-1.7.3-3.9-1.8-4.3-4z"/>
  <path class="st0" d="M82.7 65c-1.7-.4-3.2-1.1-3.9-2.9.9 1.5 2.5 2.1 3.9 2.9zM82.3 61.6c.8 1.1 2 1.2 3.3 1.2-1.4.7-2.7.2-3.3-1.2zM80.7 62.3c.9.9 2 1.5 3.3 1.5-1 .6-2.3 0-3.3-1.5zM84.1 61.8c.8.6 1.7.1 2.7.1-1.2.7-2.1.7-2.7-.1z"/>
  <g>
    <path class="st0" d="M109.3 47c-2.9 1-5.6.8-8.3-.4-2.1-.9-3.6-2.4-4.8-4.2-.5-.8-.8-1.8-1-2.7-.4-1.8-.6-3.7-.5-5.5.1-1.3.5-2.5 1.4-3.5 1.9-2.5 4.4-4.1 7.3-5 1.1-.3 2.3-.4 3.5 0 1.4.4 2.7.9 4.1 1.3 2.1.7 3.6 2.1 4.7 3.9 1.4 2.3 2.2 4.8 2 7.6-.1 1.4-.6 2.7-1.5 3.9-1.8 2.3-4.1 3.9-6.9 4.6zm-.4-.7c1.6-.5 3-1.3 4.3-2.2 2.6-1.8 3.9-4.3 3.5-7.5-.2-1.9-.9-3.7-1.9-5.4-1-1.6-2.4-2.9-4.3-3.5-1.3-.4-2.5-.9-3.8-1.2-1-.3-2.1-.3-3.1 0-2.6.8-4.7 2.2-6.5 4.3-1 1.2-1.5 2.6-1.4 4.2.1 1.4.2 2.8.4 4.2.2 1.3.6 2.4 1.4 3.4 1.4 1.8 3.3 3 5.5 3.8 1.3.4 2.6.6 4 .4.6-.2 1.2-.3 1.9-.5z"/>
    <path class="st0" d="M97.3 39.1c.8.7 1.6 1.4 2.3 2 1.5 1.3 3.3 2 5.2 2.4.9.2 1.7.4 2.6.4 2 .1 3.8-.4 5.5-1.6.3-.2.5-.3.8-.5l.2.2c-.1.2-.3.4-.5.5-.5.3-1.1.7-1.6.9-3.5 1.4-6.9 1.2-10.3-.4-1.8-.8-3.1-2.2-4.2-3.9z"/>
    <path class="st0" d="M109.2 39.7c.1.5 0 1-.4 1.4-.4.4-.9.3-1.3.1-.8-.3-1.3-.9-1.1-1.7.1-.3.3-.6.6-.8.6-.4 1.9.1 2.2 1zM106 34.1c.3.8.1 1.3-.6 1.5-.8.2-1.8-.1-2-.7-.2-.7.2-1.7.8-1.9.8-.2 1.5.3 1.8 1.1zM110.9 32.9c-.7.2-1.2 0-1.4-.6-.3-.7.1-1.6.6-1.8.7-.2 1.6.1 1.8.7.2.7-.2 1.4-1 1.7zM98.5 37.2c-.1-.1-.4-.3-.6-.5-.4-.3-.6-.9-.5-1.4.1-.5.6-.9 1.1-.9.5 0 .9.3 1.1.8.5.9.1 1.6-1.1 2zM105.2 29.4c.2.5-.1 1-.7 1.2-.8.2-1.5-.1-1.7-.7-.2-.6.2-1.1.8-1.3.7-.2 1.5.1 1.6.8zM114.9 36.8c.3.7.2 1.4-.2 1.9-.1.2-.5.4-.8.3-.2 0-.4-.3-.5-.6-.1-.2-.1-.4-.1-.6-.2-1 .3-1.4 1.6-1zM96.8 36.3c.2.7.4 1.4.7 2.1 1.3 3.8 3.5 6.8 7.3 8.5l.1.1c-.7.2-1.4.2-2.1-.2-1.4-.7-2.7-1.6-3.7-2.9-.7-1-1.4-2.1-2-3.2-.2-.4-.3-.8-.3-1.3 1 2.4 2.4 4.4 4.4 5.9-2.5-2.4-3.9-5.5-4.4-9z"/>
    <path class="st0" d="M98.2 38c1.8 4.2 4.4 7.6 8.8 9.1-.5.2-1.1.2-1.8-.3-1-.6-2-1.2-2.8-1.9-1.9-1.6-3.1-3.8-4-6.1-.1-.2-.1-.4-.2-.6V38z"/>
    <path class="st0" d="M100.8 39.5c.9 1.7 1.9 3.1 3.1 4.4 1.2 1.3 2.7 2.3 4.5 2.8h-.6c-1-.1-2-.6-2.8-1.2-1.9-1.5-3.2-3.5-4.2-5.7-.1 0-.1-.1 0-.3z"/>
    <path class="st0" d="M110.5 46.4c-1.1.3-2.1 0-3.1-.5-1.6-.9-2.8-2.1-3.8-3.6-.2-.3-.4-.6-.5-1 1.9 2.5 4.1 4.6 7.4 5.1z"/>
    <path class="st0" d="M111.5 45.7c-1.8.8-4.3-.7-5.9-3 1.6 1.6 3.4 3 5.9 3z"/>
    <path class="st0" d="M107.5 42.6c1.5 1.4 3 2.5 5.1 2.4-1.4.8-4-.5-5.1-2.4z"/>
    <path class="st0" d="M113.8 44.4c-1.7.2-3.2-.1-4.4-1.5 1.3 1.1 2.9 1.3 4.4 1.5zM112.5 41.5c1.1.8 2.2.6 3.3.2-1 1-2.4.9-3.3-.2zM111.2 42.6c1.1.5 2.2.8 3.5.5-.8.7-2.2.6-3.5-.5zM114.1 41.1c.9.3 1.6-.4 2.5-.7-.8 1-1.6 1.3-2.5.7z"/>
  </g>
  <g>
    <path class="st0" d="M185.6 28.9c-.7 3-2.3 5.1-4.7 6.8-1.9 1.3-3.9 1.8-6.1 1.8-.9 0-1.9-.2-2.8-.6-1.8-.6-3.4-1.4-4.9-2.5-1.1-.8-1.8-1.8-2.3-3-1.1-2.9-1.1-5.9-.4-8.8.3-1.2.9-2.2 1.8-3l3.3-2.7c1.7-1.4 3.7-1.9 5.8-1.9 2.7 0 5.2.7 7.5 2.3 1.2.9 2 1.9 2.5 3.3 1 2.8 1.1 5.6.3 8.3zm-.8 0c.4-1.6.5-3.2.4-4.8-.2-3.1-1.6-5.5-4.5-7-1.8-.9-3.6-1.2-5.6-1.2-1.9 0-3.7.5-5.2 1.8-1 .9-2.1 1.7-3.1 2.6-.8.7-1.3 1.6-1.6 2.7-.6 2.6-.6 5.2.2 7.8.5 1.5 1.4 2.7 2.8 3.4 1.2.6 2.5 1.3 3.7 1.9 1.2.5 2.4.7 3.7.6 2.3-.2 4.3-1.2 6.1-2.7 1.1-.9 1.9-1.9 2.4-3.2.3-.6.4-1.2.7-1.9z"/>
    <path class="st0" d="M172.5 34.9c1.1-.3 2-.6 2.9-.9 1.9-.6 3.4-1.8 4.7-3.1.6-.6 1.2-1.3 1.7-2 1.1-1.7 1.6-3.5 1.5-5.5v-.9h.2c.1.2.2.4.2.7 0 .6 0 1.3-.1 1.9-.7 3.7-2.6 6.5-5.8 8.5-1.4.9-3.2 1.3-5.3 1.3z"/>
    <path class="st0" d="M179.3 25.2c.5.1.9.5 1 1.1.2.6-.2.9-.6 1.2-.7.6-1.5.6-2 0-.2-.2-.4-.6-.4-.9 0-.8 1.1-1.6 2-1.4zM172.9 25c.8.2 1.2.7 1 1.3-.2.8-1 1.4-1.7 1.3-.7-.2-1.3-1-1.2-1.7.2-.7 1-1.1 1.9-.9zM174.4 20.2c-.2.7-.6 1-1.2.9-.7-.2-1.4-.9-1.2-1.5.2-.8.9-1.3 1.6-1.1.7.1 1 .8.8 1.7zM171.5 32.9c-.1.1-.4.2-.7.3-.5.2-1.1 0-1.5-.4-.4-.4-.4-.9-.2-1.4.2-.4.7-.6 1.3-.5 1.1.2 1.5.8 1.1 2zM168.4 23.1c.5.2.8.7.6 1.2-.2.8-.9 1.2-1.5 1.1-.6-.2-.9-.7-.7-1.4.3-.6 1-1.1 1.6-.9zM179.9 18.8c.8.1 1.3.5 1.6 1.2.1.2 0 .6-.1.8-.1.2-.5.2-.8.2-.2 0-.4-.1-.5-.2-1.2-.5-1.3-1.1-.2-2zM169.9 33.9c.7.2 1.4.4 2.2.6 3.9.9 7.6.6 11-1.7 0 0 .1 0 .2-.1-.2.7-.6 1.3-1.3 1.7-1.3.9-2.8 1.5-4.4 1.6-1.2.1-2.5.1-3.7 0-.4 0-.9-.2-1.3-.4 2.5.4 5 .3 7.4-.7-3.5.9-6.9.5-10.1-1z"/>
    <path class="st0" d="M172 33.6c4.5.7 8.7.3 12.3-2.7-.1.5-.4 1-1.2 1.4-1 .5-2 1.1-3.1 1.4-2.4.8-4.8.6-7.3.2-.2 0-.4-.1-.6-.2.1 0 0 0-.1-.1z"/>
    <path class="st0" d="M174.7 32.3c1.9.2 3.6.1 5.4-.3 1.8-.4 3.3-1.1 4.7-2.3-.1.2-.2.4-.3.5-.7.8-1.5 1.4-2.5 1.7-2.3.9-4.7.9-7.1.6 0 0 0-.1-.2-.2z"/>
    <path class="st0" d="M185.7 27.6c-.4 1.1-1.1 1.8-2.1 2.4-1.6.9-3.3 1.3-5.1 1.3-.4 0-.7 0-1.1-.1 3.2-.3 6.1-1 8.3-3.6z"/>
    <path class="st0" d="M185.6 26.4c-.3 1.9-2.9 3.3-5.7 3.5 2.3-.6 4.4-1.4 5.7-3.5z"/>
    <path class="st0" d="M180.9 28.2c2-.5 3.7-1.2 4.7-3.1-.1 1.6-2.5 3.2-4.7 3.1z"/>
    <path class="st0" d="M185.8 23.8c-.8 1.5-1.8 2.7-3.6 2.9 1.6-.5 2.5-1.8 3.6-2.9zM182.6 23.3c1.3-.5 1.6-1.6 1.9-2.7.3 1.4-.5 2.5-1.9 2.7zM182.8 25c1-.7 1.9-1.5 2.2-2.7.3 1.1-.6 2.2-2.2 2.7zM183.1 21.8c.7-.6.5-1.6.8-2.5.3 1.2.1 2-.8 2.5z"/>
  </g>
  <g>
    <path class="st1" d="M54.2 46.8c-.1.1-.2.1-.3.2-.3-.3-.5-.6-.8-.9-1.3-1-3.3-.5-3.6 1.1-.1.7-.5 1.2-1 1.6-1.2.9-1.5 2.3-.9 3.6.4.9.3 1.1-.5 1.6-.1.1-.2.1-.3.2-1.4.9-1.8 2.2-1 3.6.1.3.2.6.4.9-.3.2-.6.4-.8.6-.4.5-.9.9-1.2 1.4-.7 1.4-.2 2.3 1.3 2.5h.4c.5 0 .8.2 1.1.6.6.8 1.4 1.3 2.4 1.3.3 0 .6.1.9.1.9 1.3 1.7 1.9 2.9 1.9.7 0 1.1.3 1.5.7.7.8 1.6 1.3 2.8 1.2.3 0 .6 0 1 .1.9 1.9 2.4 2.3 4.3 2 .2.3.4.6.6.8.5.6 1.2 1.1 2 1.2.6 0 1.1.3 1.6.7 1.3 1.1 2.7 2 4.6 1.5.5-.1.9.1 1.2.6.9 1.5 1.9 1.9 3.6 1.5h.4l.4.4c.5.7 1.2.9 2 .9.7 0 1.2-.4 1.2-1.2v-.7c2.2-.8 2.5-2.8 2.9-4.6l.2-.2c.1-.1.2-.1.3-.2 1.5-.5 2.2-1.8 2.1-3.1-.1-1.4.1-2.5 1-3.7.9-1.1.5-1.8-.8-2.4-.1 0-.1-.1-.2-.2-.4-.9-1-1.8-2-2.2-1-.4-2-.6-3.1-1 0 0-.1-.2-.2-.3-.7-1.4-1.9-2.2-3.4-2.3h-1.1c-.5 0-.9-.2-1.2-.6-.4-.5-.7-.9-1.1-1.4-.6-.6-1.3-.9-2.2-.7-.3.1-.6.1-.9.1-.1-.2-.2-.2-.3-.3-1.1-2-2.4-2.7-4.7-2.4h-.8c.2 0 .1-.2.1-.3-.8-2.1-2.1-2.9-4.4-2.7h-.3c-.6.1-1-.1-1.4-.5-.5-.5-1.1-.9-1.7-1.3-.8-.6-1.6-.7-2.5 0-.1.2-.3.2-.5.3z"/>
    <path class="st0" d="M44.1 64c-1.4-1-1.6-2.5-.6-4 .4-.6.9-1 1.4-1.6-.8-2.8-.6-3.4 1.9-5.4-.4-.9-.6-2-.2-3 .4-1 1-1.8 2-2.3.3-1.8.3-1.8 2.1-3.1-.1-.4-.2-.9-.3-1.3-.2-1.3-.1-2.6.1-3.8.2-.8.1-1.6-.2-2.4-.3-.8-.6-1.5-1-2.3-.1-.3-.3-.7-.5-1-.9-1.7-1.3-3.4-.8-5.3.6-2.2 1.7-4.1 3.5-5.5 3.3-2.4 6.7-1.1 8.7 1.1.3.3.6.7.8 1.1 1.3 2.8 2 5.8 1.4 8.8-.4 2.5-1.9 4.2-4.3 5.1-1.3.5-2.6.9-3.9 1.5-1.7.7-2.3 2.1-1.9 3.9.6.4 1.2.7 1.8 1.1h.1c1.3-.8 2.4-.6 3.6.3.6.5 1.3 1 2 1.6 1.2-.1 2.4-.4 3.6.3 1.1.6 1.8 1.7 2.2 2.8 3.4 0 4 .3 5.8 2.7 2.2-.6 3.4 1 4.6 2.6 2.4-.3 4.4.4 5.5 2.8 2.4.2 4.3 1.1 5.3 3.5.9.2 1.6.7 1.5 1.7 0 .7-.3 1.3-.6 2-.2.5-.6.8-.9 1.2.4 3-.3 4.5-2.7 5.8-.3 1.9-.9 3.6-2.6 4.7-.6 1.7-1 2.2-3.4 2-.5.9-1 1.8-1.4 2.7-2.3 5.2-4.8 10.3-7.6 15.3-.9 1.5-1.6 3.2-2.2 4.9-.9 2.7-.6 5.2 1.1 7.5.8 1.1 1.7 2.2 2.6 3.3 1.3 1.5 2.5 3 3.4 4.7 1 1.7 1.3 3.5 1.3 5.4-.1 2-.4 3.9-1.1 5.7-1.8 4.5-5.2 7.1-9.9 7.7-3.2.4-6.2-.2-9-1.8s-5.4-3.5-7.7-5.7c-3.3-3.2-7-5.6-11.3-7.4-3.5-1.5-6.7-3.4-9.5-6-3.2-3-4.9-6.7-5-11.1-.2-4.2.9-8 3.7-11.2 1.3-1.4 2.6-2.8 4-4.1 4.2-4 7.7-8.5 10.2-13.6 1-1.9 1.7-4 2.5-6 .7-2 1.3-3.9 1.9-5.9zm.8.1c-.1.1-.1.1-.1.2-.4 1.5-.9 2.9-1.3 4.4-2.3 8.1-6.6 14.9-12.5 20.8-1.6 1.6-3.2 3.2-4.7 4.8-1.9 2.1-3 4.7-3.3 7.5-.1.8-.2 1.6-.2 2.4 0 3.2.7 6.2 2.7 8.7 1.7 2.3 3.8 4.2 6.4 5.6 1.7.9 3.4 1.8 5.2 2.6 4.2 1.8 7.9 4.1 11.1 7.3 2 2 4.2 3.6 6.6 5.1 1.6 1 3.4 1.8 5.3 2.1 4.7.8 8.7-.4 11.7-4.1 2-2.6 2.7-5.7 2.6-8.9-.1-2.2-.9-4-2.1-5.8-.7-1.1-1.6-2-2.4-3-.9-1.2-1.9-2.4-2.8-3.6-1.6-2.4-1.8-5-1.1-7.7.5-1.7 1.2-3.4 2.1-4.9 3-5.2 5.6-10.6 8.2-16 .4-.8.7-1.6 1.1-2.4l-.7-.7c-.9.2-1.8.3-2.6-.3-.7-.6-1.4-1.2-2.2-1.8-2.7.1-3.4-.1-5.5-1.9-1-.3-1.6-.5-2.2-.8-.6-.3-1.1-.8-1.9-1.3-1.7.2-3.2-.5-4.3-2.2-1.8.3-3.1-.7-4.2-1.9-1.7 0-3-.7-4-2-1.5-.1-2.8-.7-3.7-1.9-.4-.2-.9-.3-1.2-.3zm9.3-17.3c-.1.1-.2.1-.3.2-.3-.3-.5-.6-.8-.9-1.3-1-3.3-.5-3.6 1.1-.1.7-.5 1.2-1 1.6-1.2.9-1.5 2.3-.9 3.6.4.9.3 1.1-.5 1.6-.1.1-.2.1-.3.2-1.4.9-1.8 2.2-1 3.6.1.3.2.6.4.9-.3.2-.6.4-.8.6-.4.5-.9.9-1.2 1.4-.7 1.4-.2 2.3 1.3 2.5h.4c.5 0 .8.2 1.1.6.6.8 1.4 1.3 2.4 1.3.3 0 .6.1.9.1.9 1.3 1.7 1.9 2.9 1.9.7 0 1.1.3 1.5.7.7.8 1.6 1.3 2.8 1.2.3 0 .6 0 1 .1.9 1.9 2.4 2.3 4.3 2 .2.3.4.6.6.8.5.6 1.2 1.1 2 1.2.6 0 1.1.3 1.6.7 1.3 1.1 2.7 2 4.6 1.5.5-.1.9.1 1.2.6.9 1.5 1.9 1.9 3.6 1.5h.4l.4.4c.5.7 1.2.9 2 .9.7 0 1.2-.4 1.2-1.2v-.7c2.2-.8 2.5-2.8 2.9-4.6l.2-.2c.1-.1.2-.1.3-.2 1.5-.5 2.2-1.8 2.1-3.1-.1-1.4.1-2.5 1-3.7.9-1.1.5-1.8-.8-2.4-.1 0-.1-.1-.2-.2-.4-.9-1-1.8-2-2.2-1-.4-2-.6-3.1-1 0 0-.1-.2-.2-.3-.7-1.4-1.9-2.2-3.4-2.3h-1.1c-.5 0-.9-.2-1.2-.6-.4-.5-.7-.9-1.1-1.4-.6-.6-1.3-.9-2.2-.7-.3.1-.6.1-.9.1-.1-.2-.2-.2-.3-.3-1.1-2-2.4-2.7-4.7-2.4h-.8c.2 0 .1-.2.1-.3-.8-2.1-2.1-2.9-4.4-2.7h-.3c-.6.1-1-.1-1.4-.5-.5-.5-1.1-.9-1.7-1.3-.8-.6-1.6-.7-2.5 0-.1.2-.3.2-.5.3zm.2-7.3c1.8-.3 3.2-1 4-2.6 1.9-3.5 2.1-7.1.5-10.8-.5-1.1-1.3-2.1-2.3-2.8-1.3-.8-2.8-.6-3.8.6l-.6.9c-1 1.8-1 3.7-.4 5.7.5 1.6 1.4 2.9 2.2 4.3 1 1.4 1.5 2.9.4 4.7zm-3.3 3.3h.2c.5-.8.9-1.5 1.4-2.3.3-.5.7-1 1.1-1.5.6-.8.6-1.6.3-2.5-.2-.4-.4-.8-.6-1.1-.5-.9-1.1-1.7-1.6-2.6-1.2-2.6-1.8-5.2-.4-7.9.1-.1.1-.2.1-.5-.2.1-.3.2-.4.3-2.4 2.4-3 5.8-1.5 8.9.5 1 1 2.1 1.5 3.1s.6 2.1.3 3.2c-.3.8-.3 1.8-.4 2.9zm7.3-19.1c3 4.6 3.2 9.3.4 14.2 1.9-1.1 2.7-2.7 2.9-4.6.3-2.5-.2-5-1.2-7.3-.4-.9-1.1-1.8-2.1-2.3z"/>
    <path class="st0" d="M53.8 115.6c.4-.9 1.1-.5 1.6-.9.4-.5.3-1.2.4-1.8.1-.5.1-1 .2-1.5 0-.2.2-.3.4-.6.1.4.2.6.3.8 0 .4 0 .8.1 1.2.1 1.6.1 1.6 1.7 2 .5.1.5.1 1 .8-.4.1-.7.2-1 .2-.6.1-.9.4-.9 1 0 .8-.1 1.6-.1 2.4 0 .4 0 .8-.1 1.1-.1 0-.2 0-.2.1-.1-.2-.3-.4-.3-.6-.2-.9-.3-1.7-.5-2.6-.2-1-.3-1.1-1.4-1.2-.4-.3-.8-.4-1.2-.4zM50.6 75.9c.1.4.2.9.4 1.3.1.3.1.6.2.9.2.8.6 1.2 1.4 1.2.5 0 .5 0 .9.6-.6.2-1.2.4-1.7.5-.8 1.2.1 2.5-.4 3.8-.8-.3-.6-1.1-.8-1.6-.2-.6-.3-1.2-.4-2l-1.8-.6c.1-.6.5-.6.9-.7.7-.2.9-.6.9-1.2 0-.5 0-1.1.1-1.6 0-.2.1-.3.2-.5 0-.1.1-.1.1-.1zM38.4 93.2c.2.8.4 1.4.5 1.9.7.7 1.6.1 2 1-.4.1-.7.2-1 .3-.3.1-.6.2-.8.2-.3 1 .4 2.1-.3 3.1-.8-.7-.5-1.8-1.1-2.7-.5-.1-1.1-.1-1.7-.2.2-.9 1.1-.7 1.5-1.1.6-.6-.2-1.8.9-2.5zM46.6 107.3c-.7-.7-.6-1.6-.9-2.5-.5.2-1 .4-1.4.5 0-.1-.1-.1-.1-.2.3-.3.7-.6 1-.9l-1-1 .1-.1c.2.1.4.1.6.2.2.1.4.2.7.3 0-.5.1-.9.1-1.3h.2c.2.4.3.9.5 1.4.9-.4 1.7-.9 2.5-1.3 0 .1.1.1.1.2-.6.7-1.6 1.1-2.4 1.7.4.5.8.9 1.2 1.3 0 .1-.1.1-.1.2-.3-.1-.6-.2-1-.3 0 .6-.1 1.2-.1 1.8zM64.8 79.9c-.1.5-.3 1.1-.4 1.6.6.1 1.1.1 1.6.2v.2c-.2.1-.4.1-.6.2-.2 0-.5.1-.7.1 0 .8 1 1.2.7 2.2-.5-.6-1-1.1-1.4-1.7-.3.6-.6 1.1-1 1.8-.4-.9.2-1.4.2-2.2-.4-.1-.9-.1-1.3-.2v-.2c.4-.1.8-.2 1.3-.4-.3-.6-.7-1.1-1-1.8.9.1 1 .9 1.7 1.1.2-.4.5-.8.7-1.3 0 .3.1.3.2.4zM60.7 92c.1.9-.6 1.7-1.4 1.7-.8.1-1.7-.7-1.8-1.5-.1-.9.7-1.7 1.5-1.7.9-.1 1.6.6 1.7 1.5zm-.8 0c-.1-.4-.5-.8-.9-.7-.5 0-.8.5-.8 1 .1.4.5.7.9.6.6-.1.9-.5.8-.9zM65.4 125c.1.7-.5 1.4-1.1 1.5-.7.1-1.4-.5-1.4-1.2-.1-.8.4-1.4 1.1-1.5.7 0 1.3.5 1.4 1.2zm-.6.2c-.1-.4-.4-.7-.8-.5-.2.1-.4.4-.4.6 0 .2.2.4.4.5.4 0 .7-.2.8-.6zM34.8 107.9c.1.7-.4 1.4-1.1 1.5-.7.1-1.3-.4-1.4-1.2-.1-.7.3-1.3 1.1-1.4.7-.1 1.4.4 1.4 1.1zm-1.1 1c.2-.4.5-.6.5-.8.1-.3-.4-.7-.7-.5-.2.1-.4.4-.4.6 0 .2.3.3.6.7zM65.9 96.9c-.2-1 .6-2.5 1.4-2.9.3.7-.3 2.2-1.4 2.9zM28 112c-1-.1-2-1.6-2-2.8 1 .8 1.5 1.8 2 2.8zM73.1 82.8c0-1 .2-1.9 1-2.9.1.4.3.6.3.7 0 .6-.7 1.8-1.3 2.2zM67.7 115.1c-.9-.4-1.6-1.6-1.4-2.5.8.3 1.6 1.6 1.4 2.5zM71.6 121.7c.9 1.1.9 2.3.1 3.3-.1-.9-.3-1.7-.3-2.4 0-.3.1-.5.2-.9zM58.6 133.2c-1 .4-2.4-.2-3-1.3 1.2.3 2.1.7 3 1.3zM63.7 108.6c.7.8 1 1.6 1.3 2.6-1-.2-1.2-.9-1.5-1.5-.1-.3-.4-.7.2-1.1zM71.1 119.2c-1-.7-1.6-1.6-1.5-2.3.9.2 1.6 1.3 1.5 2.3zM48.6 126.4c-1-.3-1.6-1-2.2-1.8.9-.1 2 .8 2.2 1.8zM69.8 89.8c-.2 1.1-.7 1.9-1.4 2.7-.3-1 .4-2.4 1.4-2.7zM70 129.6c.1-.9.4-1.8.9-2.6.5.2.5.5.4.8-.3.8-.4 1.6-1.3 1.8zM34.4 88.2c-.2 1.2-1.1 2.1-2 2 .5-.9 1.2-1.5 2-2zM65.2 99c-.2 1-.6 1.8-1.2 2.6-.3-1.4.2-2.5 1.2-2.6zM27.6 95.6c-.4.8-.6 1.8-1.5 2.4-.2-1 .5-2.2 1.5-2.4zM44.4 123.3c-1-.1-2.2-1-2.1-1.7.9.2 1.7.8 2.1 1.7zM52.9 130.1c-1-.3-1.7-.9-2.2-1.8.8-.1 2 .8 2.2 1.8zM32.8 116.3c.8.4 1.5.8 2.3 1.2v.3c-.2 0-.4.2-.5.1-.9-.1-1.7-.8-1.8-1.6zM40.2 80.6c0 1.2-.7 2.2-1.6 2.3.2-1 .8-1.6 1.6-2.3zM63.3 103.6c.3 1 0 1.8-.1 2.6-.8-.6-.8-1.8.1-2.6zM25 102.2c-.6-.9-.3-2.1.6-2.8-.1 1-.1 1.9-.6 2.8zM35.7 86.7c.4-.9 1-1.5 1.7-2.2.1 1-.8 2.2-1.7 2.2zM63.9 133.4c-.7.8-2 1-2.9.4 1-.4 2-.4 2.9-.4zM68 131.7c-.3 1-1 1.5-1.8 1.4.5-1.1 1.1-1.6 1.8-1.4zM31.2 115.5c-.9-.2-1.6-.9-1.7-1.8.9.2 1.8 1.1 1.7 1.8zM28.9 93.8c.5-.9 1-1.5 2-1.9-.3 1.2-1 1.9-2 1.9zM71 87.2c-.2-1 .1-1.8.8-2.2.3.7.1 1.4-.8 2.2zM44.4 72c.3 1.2-.1 1.9-.9 2.1 0-.9.4-1.5.9-2.1zM39.6 120.5c-1-.1-1.7-.5-1.8-1.3.9 0 1.7.6 1.8 1.3zM45.3 70c-.3-.7-.1-1.6.6-2.1.3.6 0 1.6-.6 2.1zM41.5 78.3c-.1-.9.3-1.6 1-2 .2.9-.2 1.6-1 2zM25.3 106.8c-.9-.6-1-1.3-.5-2.4.3.8.6 1.5.5 2.4zM47.2 62.1c-.5-1.3-.3-2.1.7-2.5.1.9-.2 1.6-.7 2.5zM76.4 71.2c-.1.9-.3 1.5-.9 2.1-.4-.9-.1-1.5.9-2.1zM56.6 51c.2.8 0 1.5-.7 2-.3-1 0-1.6.7-2zM48.8 60.6c-.3-1-.2-1.4.4-1.9.4.7.3 1.1-.4 1.9zM64.9 64.3c.3 1.1.2 1.5-.5 2-.2-.8-.2-1.1.5-2zM57.8 52.9c.2.9.1 1.4-.5 1.9-.3-.7-.2-1.2.5-1.9zM81.7 62c0 .7 0 1.4-.7 1.9-.3-.9-.1-1.4.7-1.9zM81.8 65.8c-.3-.7-.1-1.2.4-1.8.4.8.3 1.3-.4 1.8zM81.8 72.2c.2.7.1 1.1-.4 1.5-.4-.5-.3-.8.4-1.5z"/>
    <path class="st0" d="M54.6 134c-1.1-.7-2.2-1.4-3.2-2.2-.9-.7-1.6-1.6-2.3-2.4-.2-.2-.5-.4-.7-.6-.2-.2-.5-.4-.7-.6-2.8-3.3-5.1-6.9-6.5-11 0-.1-.1-.3-.1-.4v-.3c.8 1.6 1.5 3.3 2.3 4.9.8 1.6 1.8 3.1 3.1 4.4-.9-2.2-1.9-4.3-2.3-6.7 1.6 4.1 3.4 8.1 6.6 11.3-1.8-2.8-3.1-5.9-3.9-9.2 1.7 4.8 4.2 9.1 7.8 12.7l-.1.1zM29.3 102.3c.8 4.6 2 9.2 4 13.5 1 2.2 2.1 4.3 3.9 5.9.2.2.3.4.4.6-2-.5-3.2-1.9-4.2-3.4-2.3-3.4-3.9-7-4.7-11-.6-3.1-1.2-6.2-1-9.4 0 .5.1.9.1 1.4 0 .5.1.9.1 1.4.6 4.3 1.4 8.7 3.3 12.7.7 1.4 1.4 2.7 2.2 4.1.2.3.4.6.7.8-2.7-5.3-4.2-10.8-4.8-16.6zM62.7 71.8c0 .1-.1.2-.2.5-.8-.5-1.5-1-2.2-1.5-.2-.2-.4-.4-.6-.5-1.2-.4-1.9-1.3-2.7-2.3-1.8-2.4-2.8-5.1-3.4-8 1 2.7 2 5.4 3.9 7.6-.5-1.4-1.3-2.7-1.5-4.2 1.5 3.4 3.5 6.4 6.7 8.4zM52 42.3c.2-1.4.5-2.6.4-3.8-.1-1.2-.6-2.3-.8-3.5.2.4.5.7.8 1.1 0 0 .1 0 .1-.1-.1-.2-.1-.5-.3-.7-.5-.9-1-1.7-1.5-2.6-.6-1.1-1-2.2-1-3.5v-.4c0-.1.1-.1.2-.3.1.6.2 1 .3 1.5.3 1.3.9 2.5 1.6 3.6.6.9 1.1 1.9 1.6 2.9.3.6.4 1.3.5 2 0 .5-.1 1.1-.4 1.6-.5.8-1 1.4-1.5 2.2z"/>
    <path class="st0" d="m33.5 120-.8-.8c-2.5-2.7-3.9-6-5-9.5-.8-2.8-1.3-5.7-1.7-8.5-.1-1.2-.1-2.3-.2-3.7.4 2.8.8 5.5 1.3 8.1.5 2.6 1.3 5.1 2.3 7.5 1.1 2.5 2.6 4.6 4.2 6.7 0 .1 0 .2-.1.2z"/>
    <path class="st0" d="M31 118.1c-.9-.5-1.5-1.3-2-2.1-1.4-2.2-2.3-4.5-3-7-.9-3.1-1.3-6.3-1.4-9.5 0-.4 0-.7.2-1.1.1 1.7.2 3.4.5 5.1.3 1.8.7 3.5 1.2 5.2.5 1.7 1.1 3.3 1.8 4.9.8 1.6 1.8 3 2.7 4.5zM48 116.9c.8 3.3 1.8 6.6 3.3 9.8 1.5 3.1 3.5 5.8 5.7 8.5-5.4-4.9-8-11.2-9-18.3zM48.7 54c.7 2.4 1.3 4.8 2 7.3.7 2.4 2 4.5 3.6 6.5-.6-.1-1-.5-1.3-.8-1.3-1.5-2.2-3.2-2.8-5.1-.6-2.1-1-4.2-1.5-6.3-.1-.6-.1-1.1 0-1.6-.1 0 0 0 0 0zM40.9 123.2c0 .1 0 .2-.1.3-3.3-1.9-7.9-11.7-7.7-17.6.1.6.2 1.1.3 1.7 1.1 5.6 3.2 10.7 6.9 15.1.1.2.4.3.6.5z"/>
    <path class="st0" d="M39.3 122.9c-3.5-2-8.5-13.3-8.1-17.9 1.2 6.5 3.5 12.7 8.1 17.9zM63.5 71.4c-.1-.3-.2-.6-.4-.9-.8-1.6-1.7-3.1-2.5-4.7.1 0 .1-.1.2-.1.7 1.2 1.3 2.3 2 3.5.7 1.2 1.5 2.3 2.6 3.2-.5-1.2-1-2.4-1.5-3.5.1 0 .1-.1.2-.1.5 1 1 2 1.6 2.9.6.9 1.3 1.7 1.9 2.6-.6.3-.9 0-1.3-.3-.7-.5-1.3-1.1-2-1.6-.2-.3-.5-.6-.8-1zM28.8 116.9c-.3-.2-.5-.4-.8-.7-1.4-1.4-2.2-3.1-2.7-5-.6-2.2-1.1-4.3-1.5-6.5-.2-1-.1-2.1 0-3.2.5 5.5 1.6 10.8 5.2 15.3-.1 0-.1 0-.2.1zM57.7 69.8c-.4-.2-.7-.4-1.1-.6-1.1-.8-1.9-1.8-2.6-2.9-1.4-2.3-2.4-4.8-3.1-7.5 0-.1 0-.2.1-.4.5 1.1.9 2.3 1.4 3.4.7 1.4 1.3 2.8 2.2 4 .7 1.1 1.7 2 2.6 3l.8.8c-.2.1-.3.2-.3.2zM40.9 123.2c-.2-.3-.3-.6-.5-.9-2-2.7-3.8-5.6-4.7-8.9-.3-1.1-.6-2.3-.8-3.5 1.4 5.4 4 10.1 7.4 14.5-.5-.5-.9-.9-1.4-1.2zM51.7 66.5c-.3-.3-.7-.5-1-.8-1.5-1.5-2.2-3.3-2.8-5.3-.5-1.5-.8-3.1-.6-4.8.7 3.9 1.9 7.7 4.7 10.7-.1.1-.2.2-.3.2z"/>
    <path class="st0" d="M37 112c1.6 4.9 3.9 9.4 7.5 13.2-3.8-3.7-6.5-8-7.5-13.2zM62.2 136.2c-2.9-.7-7.3-6.3-8-9.9 1.7 4 4.4 7.3 8 9.9z"/>
    <path class="st0" d="M59.9 135.7c-.2-.1-.4-.1-.6-.2-.8-.6-1.7-1.1-2.4-1.7-2.1-2.1-3.5-4.7-4.4-7.4 1.8 3.6 3.9 7.1 7.6 9.2-.1 0-.2 0-.2.1zM46.6 58.2c.3 1.3.4 2.8 1 4 .5 1.3 1.4 2.4 2.2 3.5-2.2-.7-4-5-3.2-7.5zM63.9 136.4c-.5-.3-1.1-.6-1.6-1-2.3-1.9-4.1-4.3-5.4-7v-.3c1.8 3.3 4.2 5.9 7.1 8 .1.2 0 .3-.1.3zM63.5 71.4c.3.4.6.7.8 1.1-.1.5-.4.2-.6.1-.4-.2-.7-.5-1.1-.8-.2-.3-.4-.6-.6-.8-1.2-1.3-2.2-2.7-3-4.4-.1-.1-.1-.3-.2-.5v-.4c1.4 2.2 2.7 4.2 4.7 5.7zM59.4 128.4c1.6 2.9 3.8 5.3 6.6 7.4-2.1-.3-6-4.8-6.6-7.4zM61.3 31.8c.5 2.8-.9 5.8-3.4 7 .2-.6.7-.9 1-1.3.3-.4.7-.7.9-1.2.3-.4.6-.9.8-1.4.2-.5.3-.9.4-1.4.1-.4.2-1 .3-1.7zM61.9 130.2c1.7 2.1 3.7 3.7 5.8 5.4-.1 0-.3.1-.4 0-2.3-1.3-4-3.2-5.4-5.4zM68.6 134.5c-1.7-.3-3.7-2.1-4.7-4.5 1.4 1.8 2.9 3.4 4.7 4.5zM66.4 130.7c1.4 1.2 2.7 2.2 4 3.2-1.1.2-2.8-1.1-4-3.2zM68.7 131c.9.6 1.7 1.1 2.5 1.6-.8.2-1.7-.4-2.5-1.6zM44.5 61.1c.4.8.8 1.7 1.2 2.6-.8-.6-1.3-1.7-1.2-2.6zM45.8 61.2c.4.8.8 1.9 1.2 2.8-.8-.5-1.2-1.4-1.2-2.8z"/>
  </g>
  <path class="st0" d="M135.5 41.4c.9 1 1.7 1.9 2.6 2.9 0 0 .2 0 .5-.1-.5-1.5-1.9-2.3-2.6-3.7.2 0 .4-.1.6-.1.7 0 1.5.1 2.2 0 .3 0 .6-.1.8-.3-1.2-.7-2.5-.2-3.8-.7.6-.7 1.1-1.4 1.8-2.2-1.1 0-1.4 1-2.2 1.2-.2-1.3.1-2.6-.3-3.8-.5.5-.5 1.2-.5 1.8 0 .7-.1 1.4-.1 2.3-.9-1-1.7-1.8-2.4-2.6l-.2.2c.5 1.1 1.3 1.9 2.1 3h-3.8c-.2.5 0 .7.4.7.7.1 1.4.1 2.1.1.3 0 .5 0 .9.1-.2.2-.2.4-.4.6-.6.6-1.2 1.2-1.8 1.9-.2.3-.4.6-.6.8.5.5.8.2 1-.1l1.6-1.6c.2-.2.4-.5.7-.7.5 1.4-.3 2.8.3 4.2.8-.6.6-1.4.7-2 .1-.6.1-1.3.1-1.9h.3zM18.5 67.9c.9 1 1.7 1.9 2.6 2.9 0 0 .2 0 .5-.1-.5-1.5-1.9-2.3-2.6-3.7.2 0 .4-.1.6-.1.7 0 1.5.1 2.2 0 .3 0 .6-.1.8-.3-1.2-.7-2.5-.2-3.8-.7.6-.7 1.1-1.4 1.8-2.2-1.1 0-1.4 1-2.2 1.2-.2-1.3.1-2.6-.3-3.8-.5.5-.5 1.2-.5 1.8 0 .7-.1 1.4-.1 2.3-.9-1-1.7-1.8-2.4-2.6l-.2.2c.5 1.1 1.3 1.9 2.1 3h-3.8c-.2.5 0 .7.4.7.7.1 1.4.1 2.1.1.3 0 .5 0 .9.1-.2.2-.2.4-.4.6-.6.6-1.2 1.2-1.8 1.9-.2.3-.4.6-.6.8.5.5.8.2 1-.1l1.6-1.6c.2-.2.4-.5.7-.7.5 1.4-.3 2.8.3 4.2.8-.6.6-1.4.7-2 .1-.6.1-1.3.1-1.9.2.1.2 0 .3 0zM77.8 28.3c-1.2 1.1-2.2 2-3.2 2.9l-.2-.2c.2-.4.6-.7.9-1 .3-.3.6-.7.9-1 .3-.4.7-.7 1.1-1.1-1.1-.4-2.3-.1-3.3-.5 1-.5 2.1-.2 3.2-.5-.5-.8-1-1.4-1.5-2.1 1 .1 1.3 1 2.1 1.4 0-1.2.1-2.3.1-3.6.8.7.5 1.3.6 1.9.1.6.1 1.2.2 1.9 1.2-.7 1.8-2 3.1-2.4-.2 1.3-1.5 1.8-2.2 2.9h1.8c.6 0 1.2-.2 1.7.2 0 .5-.3.5-.6.5-.8 0-1.6.1-2.5.1-.2 0-.4 0-.8.1.7 1.2 1.9 2 2.4 3.3-1.4-.2-1.6-1.7-2.7-2.3v2.5c-.1.7.4 1.6-.4 2.2-.7-1.7-.5-3.4-.7-5.2zM174 128.8c-1.2 1.1-2.2 2-3.2 2.9l-.2-.2c.2-.4.6-.7.9-1.1.3-.3.6-.7.9-1 .3-.4.7-.7 1.1-1.1-1.1-.4-2.3-.1-3.3-.5 1-.5 2.1-.2 3.2-.5-.5-.8-1-1.4-1.5-2.1 1 .1 1.3 1 2.1 1.4 0-1.2.1-2.3.1-3.6.8.7.5 1.3.6 1.9.1.6.1 1.2.2 1.9 1.2-.7 1.8-2 3.1-2.4-.2 1.3-1.5 1.8-2.2 2.9h1.8c.6 0 1.2-.2 1.7.2 0 .5-.3.5-.6.5-.8 0-1.6.1-2.5.1-.2 0-.4 0-.8.1.7 1.2 1.9 2 2.4 3.3-1.4-.2-1.6-1.7-2.7-2.3v2.5c-.1.7.4 1.6-.4 2.2-.7-1.7-.5-3.3-.7-5.1zM145.3 24.8c0 .9-.7 1.5-1.5 1.5-.9 0-1.5-.7-1.5-1.5 0-.9.7-1.5 1.5-1.5s1.5.7 1.5 1.5zM13.5 136.2c0 .9-.7 1.5-1.5 1.5s-1.5-.7-1.5-1.5c0-.9.7-1.5 1.5-1.5s1.5.6 1.5 1.5zM96.3 116.8c0 .9-.7 1.5-1.5 1.5s-1.5-.7-1.5-1.5.7-1.5 1.5-1.5 1.5.6 1.5 1.5zM192.8 104c0 .9-.7 1.5-1.5 1.5-.9 0-1.5-.7-1.5-1.5 0-.9.7-1.5 1.5-1.5s1.5.7 1.5 1.5zM102.7 58.8c0 .9-.7 1.5-1.5 1.5-.9 0-1.5-.7-1.5-1.5s.7-1.5 1.5-1.5c.8-.1 1.5.6 1.5 1.5zM123.1 30c0 .6-.5 1.2-1.2 1.2-.6 0-1.2-.5-1.2-1.2 0-.6.5-1.2 1.2-1.2.7.1 1.2.6 1.2 1.2zM68.6 15.1c0 .6-.5 1.2-1.2 1.2-.6 0-1.2-.5-1.2-1.2 0-.6.5-1.2 1.2-1.2.6.1 1.2.6 1.2 1.2zM87.8 37c0 .6-.5 1.2-1.2 1.2-.6 0-1.2-.5-1.2-1.2 0-.6.5-1.2 1.2-1.2s1.2.5 1.2 1.2zM14.3 36.7c0 .6-.5 1.2-1.2 1.2-.6 0-1.2-.5-1.2-1.2 0-.6.5-1.2 1.2-1.2s1.2.5 1.2 1.2zM137.4 91.8c.7-.8 1.4-1.5 2.2-2.3.3 1.2 0 2.3.2 3.3.9.4 2 .5 3 1-1.1.6-2.2.8-3.2 1.2-.3.9-.2 1.9-.6 3-.8-.8-1-1.7-1.6-2.5-1.1 0-2.2.4-3.4.2.3-.9 1-1.4 1.4-2.1-.3-.9-1-1.7-1.3-2.8 1.3.1 2.2.8 3.3 1zM149.6 137.3c-.1-1-.2-2-.1-3.2 1.1.6 1.7 1.5 2.6 2.2.9-.4 1.7-1.1 2.8-1.5-.3 1.2-.9 2.1-1.3 3.2.5.8 1.2 1.5 1.8 2.5-1.1.1-2-.4-3-.5-.7.8-1.2 1.8-2.1 2.6-.4-.8-.3-1.7-.5-2.5-.9-.4-1.9-.5-2.9-1 .7-.9 1.8-1.1 2.7-1.8zM168.4 61.5c-.7-.8-1.4-1.5-2.2-2.3-.3 1.2 0 2.3-.2 3.3-.9.4-2 .5-3 1 1.1.6 2.2.8 3.2 1.2.3.9.2 1.9.6 3 .8-.8 1-1.7 1.6-2.5 1.1 0 2.2.4 3.4.2-.3-.9-1-1.4-1.4-2.1.3-.9 1-1.7 1.3-2.8-1.2.2-2.2.8-3.3 1zM9.7 47.7c-.7-.8-1.4-1.5-2.2-2.3-.3 1.2 0 2.3-.2 3.3-.9.4-2 .5-3 1 1.1.6 2.2.8 3.2 1.2.3.9.2 1.9.6 3 .8-.8 1-1.7 1.6-2.5 1.1 0 2.2.4 3.4.2-.3-.9-1-1.4-1.4-2.1.3-.9 1-1.7 1.3-2.8-1.2.1-2.2.8-3.3 1zM95.7 9.7c-.7-.8-1.4-1.5-2.2-2.3-.3 1.2 0 2.3-.2 3.3-.9.4-2 .5-3 1 1.1.6 2.2.8 3.2 1.2.3.9.2 1.9.6 3 .8-.8 1-1.7 1.6-2.5 1.1 0 2.2.4 3.4.2-.3-.9-1-1.4-1.4-2.1.3-.9 1-1.7 1.3-2.8-1.3.1-2.2.8-3.3 1zM126.1 85.2c.5-.4 1.1-.1 1.6-.4.1-.4.2-.9.4-1.3 0 0 .1-.1.2-.1.3.4.6.8 1 1.2.5-.1.9-.7 1.5-.5 0 .6-.5 1-.7 1.6.1.6.8 1.1.6 1.9-.6-.3-1.1-.5-1.6-.8-.6.4-.7 1.3-1.6 1.4-.1-.7.2-1.3.1-2-.4-.3-1.1-.4-1.5-1zM101.7 126.4c.5-.4 1.1-.1 1.6-.4.1-.4.2-.9.4-1.3 0 0 .1-.1.2-.1.3.4.6.8 1 1.2.5-.1.9-.7 1.5-.5 0 .6-.5 1-.7 1.6.1.6.8 1.1.6 1.9-.6-.3-1.1-.5-1.6-.8-.6.4-.7 1.3-1.6 1.4-.1-.7.2-1.3.1-2-.4-.3-1.1-.4-1.5-1zM138 125.8c.5-.4 1.1-.1 1.6-.4.1-.4.2-.9.4-1.3 0 0 .1-.1.2-.1.3.4.6.8 1 1.2.5-.1.9-.7 1.5-.5 0 .6-.5 1-.7 1.6.1.6.8 1.1.6 1.9-.6-.3-1.1-.5-1.6-.8-.6.4-.7 1.3-1.6 1.4-.1-.7.2-1.3.1-2-.4-.4-1.1-.4-1.5-1zM146.8 87.1c0 .6-.4 1-1 1s-1-.4-1-1 .4-1 1-1c.5-.1 1 .4 1 1z"/>
  <g>
    <path class="st1" d="M122.3 108.3c-2.6-1.6-4.8-.6-6.8 1.2-.2-.2-.5-.3-.7-.4-.9-.4-1.9-.9-2.9-1.3-.9-.3-1.7-.1-2.3.7l-.3.3c-.3-.3-.6-.5-.9-.8-.8-.8-1.6-1.5-2.6-2-.7-.4-1.1-.4-1.8-.3-.3.3-.6.6-.9 1-.3-.3-.5-.6-.7-.9-.9-1.4-1.9-2.9-3.3-3.9-.6-.4-1.2-.8-1.9-1.1-1-.4-2.1-.2-3 .4-.2.1-.4.3-.8.5-.2-.4-.3-.7-.4-1-.4-1.6-1.1-3.1-2.2-4.3-.7-.8-1.6-1.3-2.6-1.4-.3 0-.6-.2-1.1-.3 1.1-1.5 1.5-3.1 1.1-4.8-.3-1.4-.8-2.5-1.8-3.6-.9.6-1.9 1-3 .9-.5 3.9-4.6 5-7.4 3.1-.2 2.6.6 4.7 3 6.2-.4.3-.6.5-.9.7-.9.5-1.5 1.3-1.9 2.3-.6 1.6-.6 3.2-.4 4.8v1c-.3 0-.5 0-.7-.1-1.6-.4-2.9.2-3.7 1.4-.6.9-1.1 2-1.5 3-.3.9-.5 2-.7 3-.1.3-.1.5-.2 1-.5-.2-.9-.4-1.3-.6-.5 0-.8.4-1.2.7-.8.8-1.4 1.9-1.8 2.9l-.6 1.2c-.3-.1-.4-.1-.6-.2-.7-.4-1.4-.3-2.1.1-.9.6-1.7 1.4-2.3 2.3-.1.2-.2.5-.4.7-.5-.1-.9-.2-1.3-.3-1.3-.3-2.6-.5-3.8.3-.7.4-1.2 1-1.9 1.5 0-.3-.1-.5 0-.7.1-1-.1-1.9-.5-2.8-.4-.9-1-1.6-2.2-1.6-.2 0-.4-.1-.7-.2.2-.5.5-.8.6-1.2.3-.9.6-1.8.7-2.7.1-.7-.1-1.4-.9-1.7-.1-.1-.3-.1-.5-.2.2-.4.3-.6.4-.9.6-1.2 1.3-2.3 1.8-3.5.3-.8.5-1.7.6-2.5.1-1-.2-1.8-1.2-2.3-.2-.1-.4-.3-.7-.6l1.2-1.2c.7-.8 1.5-1.5 2.2-2.4.3-.4.6-1 .7-1.5.2-.8 0-1.1-.7-1.4-.3-.1-.6-.2-1-.4.4-.3.7-.5.9-.7 1.1-.9 2.3-1.7 3.2-2.9.8-1.1 1.2-2.3.8-3.7v-.4s.1-.1.1-.2c.2 0 .4.1.6.1.6.1 1.3.2 1.9.3 1.3.1 2.3-.4 3-1.4.3-.4.5-.8.8-1.2.2-.2.3-.4.6-.7 1.5 1.9 3.4 2.6 5.7 2.4.1-2.4.8-3.5 3.3-4-1-1.8-1-3.6.4-5.2 1.3-1.5 3-1.8 4.9-1.1.8-1.4 1.9-2.3 3.5-2.4 1.6-.1 2.8.6 3.7 2 1-.5 2.1-.7 3.2-.1.7.3 1.2.9 1.5 1.5.7 1.6.2 3.1-1.6 4.4.5.1.9.1 1.3.1 1.3 0 2.6.1 3.9-.4 1.7-.7 2.9-1.9 3.4-3.7 0-.1.1-.2.2-.3.2 0 .3 0 .4.1.2.1.3.2.5.4 2.3 1.8 3.6 1.6 5.9 0 .2-.2.5-.3.8-.5.1.4.2.7.3.9.3 1.1.8 1.9 1.7 2.5 1 .7 2.1 1.2 3.3 1.4.7.2 1.4.4 2.3.6l-.8.8c-.6.6-.6 1-.1 1.6.3.4.7.8 1.2 1 .9.5 1.8.9 2.8 1.3.6.2 1.1.4 1.8.7-.2.3-.2.6-.4.8-.7.8-.7 1.8-.2 2.6.4.8.9 1.5 1.5 2.1.9.9 1.9 1.7 2.9 2.5.2.2.5.4.7.6-.1.2-.2.4-.3.5-.6.6-.5 1.3-.2 2 .5.9 1.1 1.6 1.9 2.3.2.2.5.4.8.7-.2.2-.4.4-.6.5-1 .5-1.3 1.3-1.4 2.3 0 1 .2 1.9.6 2.8.1.2.2.4.2.6 0 .3-.1.4-.1.4z"/>
    <path class="st0" d="M122.3 108.3c-2.6-1.6-4.8-.6-6.8 1.2-.2-.2-.5-.3-.7-.4-.9-.4-1.9-.9-2.9-1.3-.9-.3-1.7-.1-2.3.7l-.3.3c-.3-.3-.6-.5-.9-.8-.8-.8-1.6-1.5-2.6-2-.7-.4-1.1-.4-1.8-.3-.3.3-.6.6-.9 1-.3-.3-.5-.6-.7-.9-.9-1.4-1.9-2.9-3.3-3.9-.6-.4-1.2-.8-1.9-1.1-1-.4-2.1-.2-3 .4-.2.1-.4.3-.8.5-.2-.4-.3-.7-.4-1-.4-1.6-1.1-3.1-2.2-4.3-.7-.8-1.6-1.3-2.6-1.4-.3 0-.6-.2-1.1-.3 1.1-1.5 1.5-3.1 1.1-4.8-.3-1.4-.8-2.5-1.8-3.6-.9.6-1.9 1-3 .9-.5 3.9-4.6 5-7.4 3.1-.2 2.6.6 4.7 3 6.2-.4.3-.6.5-.9.7-.9.5-1.5 1.3-1.9 2.3-.6 1.6-.6 3.2-.4 4.8v1c-.3 0-.5 0-.7-.1-1.6-.4-2.9.2-3.7 1.4-.6.9-1.1 2-1.5 3-.3.9-.5 2-.7 3-.1.3-.1.5-.2 1-.5-.2-.9-.4-1.3-.6-.5 0-.8.4-1.2.7-.8.8-1.4 1.9-1.8 2.9l-.6 1.2c-.3-.1-.4-.1-.6-.2-.7-.4-1.4-.3-2.1.1-.9.6-1.7 1.4-2.3 2.3-.1.2-.2.5-.4.7-.5-.1-.9-.2-1.3-.3-1.3-.3-2.6-.5-3.8.3-.7.4-1.2 1-1.9 1.5 0-.3-.1-.5 0-.7.1-1-.1-1.9-.5-2.8-.4-.9-1-1.6-2.2-1.6-.2 0-.4-.1-.7-.2.2-.5.5-.8.6-1.2.3-.9.6-1.8.7-2.7.1-.7-.1-1.4-.9-1.7-.1-.1-.3-.1-.5-.2.2-.4.3-.6.4-.9.6-1.2 1.3-2.3 1.8-3.5.3-.8.5-1.7.6-2.5.1-1-.2-1.8-1.2-2.3-.2-.1-.4-.3-.7-.6l1.2-1.2c.7-.8 1.5-1.5 2.2-2.4.3-.4.6-1 .7-1.5.2-.8 0-1.1-.7-1.4-.3-.1-.6-.2-1-.4.4-.3.7-.5.9-.7 1.1-.9 2.3-1.7 3.2-2.9.8-1.1 1.2-2.3.8-3.7v-.4s.1-.1.1-.2c.2 0 .4.1.6.1.6.1 1.3.2 1.9.3 1.3.1 2.3-.4 3-1.4.3-.4.5-.8.8-1.2.2-.2.3-.4.6-.7 1.5 1.9 3.4 2.6 5.7 2.4.1-2.4.8-3.5 3.3-4-1-1.8-1-3.6.4-5.2 1.3-1.5 3-1.8 4.9-1.1.8-1.4 1.9-2.3 3.5-2.4 1.6-.1 2.8.6 3.7 2 1-.5 2.1-.7 3.2-.1.7.3 1.2.9 1.5 1.5.7 1.6.2 3.1-1.6 4.4.5.1.9.1 1.3.1 1.3 0 2.6.1 3.9-.4 1.7-.7 2.9-1.9 3.4-3.7 0-.1.1-.2.2-.3.2 0 .3 0 .4.1.2.1.3.2.5.4 2.3 1.8 3.6 1.6 5.9 0 .2-.2.5-.3.8-.5.1.4.2.7.3.9.3 1.1.8 1.9 1.7 2.5 1 .7 2.1 1.2 3.3 1.4.7.2 1.4.4 2.3.6l-.8.8c-.6.6-.6 1-.1 1.6.3.4.7.8 1.2 1 .9.5 1.8.9 2.8 1.3.6.2 1.1.4 1.8.7-.2.3-.2.6-.4.8-.7.8-.7 1.8-.2 2.6.4.8.9 1.5 1.5 2.1.9.9 1.9 1.7 2.9 2.5.2.2.5.4.7.6-.1.2-.2.4-.3.5-.6.6-.5 1.3-.2 2 .5.9 1.1 1.6 1.9 2.3.2.2.5.4.8.7-.2.2-.4.4-.6.5-1 .5-1.3 1.3-1.4 2.3 0 1 .2 1.9.6 2.8.1.2.2.4.2.6 0 .3-.1.4-.1.4zM87.7 82c0 .8.1 1.5.1 2.3.5.3.9.1 1.4-.1 2.6-1.2 5.4-2 8.3-2.3h.9c-2.9.9-5.9 1.6-8.8 3 .5.2.9.3 1.2.4.4.1.7.2 1.1.4 1 .4 2 .5 3.1.2 3.4-.8 6.9-1.2 10.5-1.3 1.1 0 2.3 0 3.4.3-1.2.1-2.4.1-3.5.2-1.2.1-2.4.3-3.6.4-1.2.1-2.4.3-3.5.5-1.2.2-2.3.3-3.5.6 2.1 1 4 2 6 2.9.3.1.7.2 1 .2 4.2.1 8.4.7 12.4 2 .2.1.3.1.5.2.1.1.2.1.4.2-4.1-.9-8.2-1.5-12.4-1.6.1.2.3.2.5.3 2.5 1.6 4.9 3.2 7.4 4.8.4.2.8.4 1.3.5 2 .6 4.1 1.2 6.1 1.8.4.1.8.4 1.1.5-2.2-.6-4.3-1.1-6.5-1.5l2.7 2.4c1.4 1.3 2.8 2.6 4 4.2.2.2.4.5.4 1-2.3-2.9-5-5.1-7.9-7.2 1.9 3.1 3.2 6.5 3.8 10.1-.2-.4-.4-.8-.5-1.3-.9-3.3-2.4-6.4-4.3-9.3-.3-.5-.7-.9-1.2-1.2-1.9-1.3-3.9-2.5-5.8-3.7l-.6-.3c1.4 2.1 2.4 4.2 3.3 6.5.8 2.3 1.7 4.5 2 7-.1 0-.2-.1-.2-.2-.6-1.8-1.2-3.6-1.9-5.4-.9-2.6-2.1-5.1-3.8-7.3-.5-.7-1-1.4-1.7-1.9-2-1.3-4.1-2.2-6.5-3.2 3 3.5 4.3 7.6 5.2 11.8-.2-.2-.3-.4-.4-.6-.3-1-.6-2-1-3-1-2.6-2.3-5.1-4-7.4-1.1-1.5-2.6-1.8-4.3-2.2 1.7 2.6 2.5 5.4 3 8.3-.5-1.2-.9-2.4-1.4-3.7-.7-1.6-1.4-3.3-2.6-4.6-.4-.5-.9-.8-1.5-.8-.1.2-.2.3-.3.5-.1.1-.2.3-.2.4 2.1 2.6 2.7 5.3 1.3 8.4 3.4.8 4.6 3.4 5.4 6.5.2-.1.3-.2.5-.2 1.1-.6 2.2-.7 3.3-.3.8.3 1.6.8 2.2 1.3 1.2 1 2.1 2.2 2.9 3.5.1.2.2.4.4.6.8-.8 1.2-.9 2.3-.5 1.3.5 2.4 1.3 3.3 2.3l.6.6c.6-1 1.5-1.2 2.5-1 .5.1 1 .3 1.4.5.7.3 1.5.7 2.2 1.1 1.7-1.4 3.5-2.2 5.8-1.5-.5-2-1-3.8.9-5.2-.6-.8-1.3-1.5-1.9-2.3-.7-1-1-2.1 0-3.1-.3-.2-.5-.4-.8-.5-1.4-1.1-2.9-2.2-3.8-3.8-.8-1.3-1.2-2.7 0-4.2-.6-.2-1.1-.3-1.6-.5-1.3-.5-2.6-1-3.5-2-.8-.9-.9-1.7-.3-2.7 0 0 0-.1-.1-.2-1.3-.2-2.6-.5-3.9-1.2-1.3-.7-2.2-1.7-2.7-3.2-2.3 1.8-4.5 1.7-6.6-.1-.1.1-.2.2-.2.3-1 2-2.6 3.1-4.8 3.6-1 .2-2.5.2-4 0zm-30.5 26.5c-1.8 3-3.4 6.2-4.5 9.5-.1-.2-.1-.4 0-.5.7-3.2 2.2-6.1 3.7-9-1.9 1.2-3.6 2.5-5.4 3.9.3-.4.5-.8.9-1.1 1.6-1.3 3.3-2.6 4.9-4 .4-.3.7-.6.9-1 1.6-2.3 3.2-4.7 4.9-7 .1-.2.3-.4.5-.6l-.2-.2c-3.7 1.8-7.3 3.9-10.7 6.3.2-.3.5-.6.8-.8 3.2-2.7 6.8-4.8 10.6-6.6.4-.2.7-.5 1-.8 1.3-1.5 2.7-2.9 4-4.4.1-.1.2-.3.3-.4 0-.1-.1-.1-.1-.2-2.3.6-4.5 1.2-6.8 1.8-2.3.6-4.6 1.3-6.8 2.2.5-.4 1-.7 1.6-1 2-.9 4-1.7 6.2-2.2 2.1-.5 4.3-1 6.5-1.5.2 0 .4-.1.6-.2.9-.7 1.7-1.5 2.7-2.4-1.2-.1-2.1-.2-3.1-.2s-2 .2-2.9.3c-1 .1-2 .2-3 .4 2-.9 4.1-1.2 6.2-1.5-.1-.2-.2-.4-.3-.5-.1-.1-.2-.3-.3-.4-2.2.4-4.2-.1-5.9-1.7-1.3 2.6-3.3 3.4-6.1 2.7.1 1.6-.3 2.8-1.2 3.9-.9 1.1-2 2-3.2 2.7 1.2 1 1.4 1.8.7 3.2-.2.4-.5.9-.8 1.3-.7.8-1.5 1.5-2.3 2.3l-.5.5c1.3.6 1.6 1.7 1.6 2.8 0 .9-.2 1.8-.5 2.6-.5 1.2-1.2 2.4-1.8 3.6-.1.2-.2.4-.4.6 1.1.5 1.4 1.4 1.3 2.4-.1.7-.3 1.4-.5 2-.1.4-.4.8-.6 1.3 1.1.1 1.9.7 2.2 1.6.4.9.6 1.8.8 2.7.8-.7 1.7-1.2 2.8-1.2 1 0 2.1.2 3.1.3.6-.7 1.3-1.5 2-2.2 1-.9 2.1-1.4 3.4-.6.1-.4.2-.7.4-1 .4-1.2 1.1-2.3 2-3.1.7-.6 1.4-1.1 2.4-.5.1-.4.1-.6.2-.9.3-1.9.8-3.7 2-5.3.8-1.2 1.9-1.9 3.3-2H75v-.1c0-.3-.1-.6-.1-.9-.2-2.7.1-5.2 2.6-6.9 0 0 0-.1.1-.2-2.1-1.8-2.7-4.1-2.3-6.6-.3-.6-.6-1.1-.9-1.6-.6.1-.8.6-.8 1-.2 1.6-.3 3.3-.4 4.9v2c0 .6.1 1.2.1 1.9-.6-2.9-1-5.8-.4-9-.7.6-1.2 1-1.8 1.5-.7.6-1.1 1.3-1.3 2.1-1 3.3-1.1 6.6-.9 9.9 0 .9.1 1.8.2 2.7-.6-1.6-.7-3.2-.8-4.8-.1-2.7-.1-5.3.9-7.9-.3.2-.5.3-.6.6-1 1.1-2 2.3-3.1 3.4-1 1-1.5 2.2-1.8 3.5-.2.9-.4 1.7-.5 2.6-.4 3.6-.2 7.3.1 10.9 0 .3 0 .5.1.8h-.2c-.7-4.8-1.2-9.6 0-14.6-.2.2-.4.3-.4.4-1.4 2-2.8 4.1-4.2 6.1-.2.3-.4.7-.4 1.1-.6 3-.9 5.9-.6 8.9.1 1 .1 2 .2 2.9-1-3.3-1.1-6.9-.6-10.5zm22.7-17.9c2.2-.3 3.6-3.1 2.1-5.2-1.3-1.8-4.2-2.1-5.8-.5-1.3 1.3-1.4 3.2-.2 4.5 1 1.1 2.2 1.5 3.9 1.2zm-2.5-13.9c-2-1-4 0-4.7 1.6-.8 1.9.2 4 2.2 4.7 1.8.6 3.8-.4 4.3-2.2-1.4-1-2-2.4-1.8-4.1zm4.6 3.8c1.7-.2 2.9-2 2.6-3.7-.4-1.8-2.1-3-3.9-2.6-1.7.3-2.8 2-2.5 3.7.3 1.8 2 2.9 3.8 2.6zm-1.5 2.8c1.8 1.1 1.8 1.2 2.9 3.2 1.8.2 3.4-1 3.6-2.8.2-1.8-1-3.3-2.8-3.5-.8.7-1.8 1.2-3 1.2-.3.6-.5 1.2-.7 1.9zm-7.7 4.5c1.2-.3 2.2-1.7 1.9-2.8-.3-1.3-1.6-2.2-3-1.9-1.3.3-2.2 1.5-1.9 2.9.4 1.2 1.7 2.1 3 1.8zM85 79.5c.3.2.8.4 1.3.8.4.3.8.3 1.2.1.7-.3 1.2-.8 1.4-1.6.3-1-.1-2.1-1-2.6s-1.9-.5-2.5.1c-.1 1.1-.3 2.2-.4 3.2z"/>
    <path class="st0" d="M79.5 89.6c-.2-.5.1-.7.4-.8.3-.1.7-.2.9.3-.3.4-.8.5-1.3.5zM82.8 78.9c-.3.1-.7.3-1.1.4-.2-.6.1-.9.5-1 .4-.1.6 0 .6.6zM85.1 84.7c.2-.8.3-.9.9-1-.2.9-.3 1-.9 1zM72.7 86.8c-.8.4-1.2.2-1.3-.5.7-.2.9-.2 1.3.5zM74.2 87.4c-.1.2-.2.5-.2.7.1 2.2.2 4.5.8 6.7.1.5.3 1 .4 1.6-.9-1.5-1-3.3-1.6-4.9.1.5.1 1 .2 1.5s.2 1.1.3 1.6c.1.5.3 1 .3 1.6-1.1-2.5-1.2-5.1-1.3-7.8-.5 1.9-.3 3.9-.1 6-.5-1.1-.6-2.4-.5-4.5 0-1.5.4-2.8.7-4.2 0 .4.1.8.1 1.2h.2c.1-.7.1-1.4.2-2.1.1.3.2.5.2.8h.1c0-.3.1-.7.1-1.2.1.4.2.7.3.9h.1v-1c.5.6.4 1.2.3 1.8-.1.9-.1 1.7.2 2.6.2.6.3 1.3.4 2 .2.9.4 1.8.5 2.7-.7-1.2-.7-2.6-1.2-3.8.1 1.1.1 2.1.2 3.2-.6-1.7-.6-3.4-.5-5.2-.1-.1-.2-.1-.2-.2zM87.9 82.5c.6 3.1 2.3 5.6 3.9 8.3-1.4-1.2-2.1-2.8-3.1-4.3.5 1.8 1.6 3.2 2.5 4.9-1.6-1.4-4-6.3-3.7-7.7.1.1.2.2.3.5-.2-.9-.3-1.6-.5-2.3.2-.1.4-.3.6-.4 1.2 2.3 2.3 4.7 3.5 7.1-1.6-1.8-2.6-4-3.5-6.1zM77.5 83.5V83c.3-1.5.3-3 0-4.6.4.6 1 1.2 1.2 1.9.4.9.2 1.9-.5 2.8v-1.3h-.1c-.1.3-.1.6-.2.9-.1.3-.3.5-.4.8z"/>
    <path class="st0" d="M77.5 84.2c-.8.4-.9 1.3-1.1 2.1-.1.4 0 .8 0 1.1-.5-.5-.5-.5.1-2.8-.8.8-.9 1.3-.7 3.8-.6-1-.6-2.1-.2-3.1.3-.7.7-1.4 1.7-1.4.1-.1.1-.2.2-.4l.4.4c-.1.1-.2.2-.4.3zM90.2 84.4c.3.7.6 1.4 1 2 .6 1 1.4 2 2.1 3-1.4-.9-4.4-5.7-4.5-7.3.2.3.3.5.5.8.2.3.4.7.7 1 0 .2.1.3.2.5z"/>
    <path class="st0" d="M90.2 84.4c-.1-.1-.1-.3-.2-.4-.3-.7-.6-1.5-.8-2.2h.1c1.2 2.2 2.5 4.3 3.7 6.5-.3-.3-.6-.6-.9-1l-.9-1.2c-.3-.6-.7-1.2-1-1.7zM72.3 95.7c-.7-2.4-.7-4.6-.3-6.9.1 2.2.2 4.5.3 6.9zM70.7 87.4c-.1 2.3-.2 4.4-.3 6.5-.4-1.4-.3-5.1.3-6.5zM103.2 106.1c-.6-1.8-1.3-3.5-2.4-5.1 1.4 1.4 2.3 3.1 2.4 5.1zM115.8 87.9c-2.3.2-4.3-.3-6-1.7 1.9 1 3.9 1.5 6 1.7zM71.3 93.6c-.5-1.9-.5-3.7 0-5.6v5.6zM76.9 79.1c.5 1.6.8 3.1-.4 4.5.5-1.4.6-2.9.4-4.5zM90.3 82c.7 1.3 1.5 2.6 2.2 4-1.1-1.1-1.9-2.4-2.4-3.9.1-.1.2-.1.2-.1zM115.6 108.9c-1.4-1.3-2.6-2.4-3.7-3.5 1 .4 3 2.1 3.7 3.5zM69.6 91.3c-.3-1.5-.1-3.1.5-4.6-.2 1.5-.3 3-.5 4.6zM82.8 84.7c-.8-1.4-.9-3.3-.4-4.1.1 1.3.2 2.7.4 4.1z"/>
    <path class="st0" d="M76.3 80c.6 1.2.3 2.6-.9 3.5.6-1.1 1-2.2.9-3.5zM48.4 111.1c1.1-.9 2.1-1.9 3.2-2.8-.6 1.4-1.9 2.1-3.2 2.8zM86.2 79.5v-1.3c-.1-.5-.2-1.1-.3-1.7.4.4.4.4.6 1.7.1.6.1 1.3.2 1.9-.1 0-.1.1-.3.1-.1-.2-.2-.5-.2-.7z"/>
    <path class="st0" d="M86.2 79.5c-.1.2-.1.5-.3.8-.2-1.2-.5-2.3-.7-3.4.7.8.7 1.7 1 2.6zM68.7 113a7.5 7.5 0 0 1 0-4.2v4.2zM69.5 85.9c-.2 1.4-.5 2.7-.7 4.1-.2-.8.1-2.8.7-4.1zM77.5 84.2c.1-.1.3-.2.4-.3.3-.1.5-.3.8-.4l.1.1-.7.7c-.2.3-.5.6-.6.9-.2.3-.3.7-.4 1.2-.3-.9.2-1.5.4-2.2zM93.1 85.1c-.9-.8-1.6-1.8-1.8-3l1.8 3zM81.9 84.2c-.6-1.2-.7-2.2-.2-3.2 0 1 .1 2 .2 3.2zM89.7 90.9c-.6-.9-1.2-1.9-1.7-2.8.5.3 1.5 1.9 1.7 2.8zM93.5 84.1c-.8-.6-1.3-1.4-1.7-2.3.1 0 .1-.1.2-.1l1.5 2.4zM86.6 80.1c.1-.8.2-1.6.2-2.2.4.6.3 1.8-.2 2.9.1-.3.1-.5 0-.7zM83 83.2c-.4-.9-.2-1.8.2-2.8-.1 1-.2 1.9-.2 2.8zM109 108.2c-1.3-1.3-3.2-7.3-3-9.2 1 3.1 2 6.1 3 9.2zM106.9 98.3c1.1 3.2 2.2 6.4 3.4 9.7-.2-.2-.4-.3-.4-.4-.6-1.6-1.3-3.2-1.9-4.9-.5-1.4-.8-2.9-1.2-4.4h.1zM111.1 107.2c-1.1-1.3-2.2-5-2-6.1.6 2 1.3 4.1 2 6.1zM105.5 101.1l2.1 6c-.9-.8-2.2-4.6-2.1-6zM58.3 114.1c.4 1.8.7 3.7 1.1 5.5-1-1.7-.9-3.7-1.3-5.5h.2zM54.6 101.7c-.5-.8-1.1-2.9-1.1-4.2.4.5 1.2 3.4 1.1 4.2zM54.1 95.6c.3 1.3.7 2.6 1 3.9-.1 0-.1 0-.2.1-.5-1.3-.9-2.6-1-3.9 0-.1.1-.1.2-.1zM112.2 107.1c-.8-.9-1.5-2.7-1.8-4.8.6 1.7 1.2 3.3 1.8 4.8zM52.9 98.2l.9 4.5c-.3-.4-.3-.4-.5-1.4l-.3-1.5c-.1-.5-.3-1-.1-1.6zM59 114.8c.3 1.3.5 2.6.8 4-.7-1.2-.7-2.6-1-3.9.1-.1.2-.1.2-.1zM52.2 99.4c.5.8.6 1.7.6 2.6-.4-.8-.6-1.7-.6-2.6zM117.5 94.3c.6.9.7 1.9.8 2.9-.4-.9-.9-1.8-.8-2.9zM118.4 95.2c.2 1.1.4 2.2.7 3.3-.6-1-.6-2.2-.9-3.3h.2zM106.2 105.6c-.7-.6-1-1.5-.9-2.8.3.9.6 1.9.9 2.8zM112.1 104.3c.4 1 .8 1.9 1.2 2.9-.5-.3-1-1.3-1.2-2.9zM60 115c.2 1 .4 1.9.6 2.9-.6-.4-.9-1.7-.6-2.9zM116.7 93.3c.4.8.5 1.7.6 2.6-.4-.8-.5-1.7-.6-2.6zM51.9 102.1c-.1-.7-.3-1.5-.4-2.2.5.7.5 1.5.6 2.2h-.2zM60.7 115.5c.2.8.4 1.5.6 2.3-.6-.7-.8-1.4-.6-2.3zM119.6 98.4c-.2-.8-.3-1.6-.5-2.4.3.8.7 1.5.6 2.3 0 .1-.1.1-.1.1z"/>
  </g>
</svg>
