<svg version="1.1" id="Layer_1" xmlns="http://www.w3.org/2000/svg" x="0" y="0" viewBox="0 0 200.5 150.5" xml:space="preserve">
  <style>
    .st0{fill:#ac8039}.st1{fill:#fff}
  </style>
  <path class="st0" d="M49 36.8c-.9 1-1.7 1.9-2.6 2.9 0 0-.2 0-.5-.1.5-1.5 1.9-2.3 2.6-3.7-.2 0-.4-.1-.6-.1-.7 0-1.5.1-2.2 0-.3 0-.6-.1-.8-.3 1.2-.7 2.5-.2 3.8-.7-.6-.7-1.1-1.4-1.8-2.2 1.1 0 1.4 1 2.2 1.2.2-1.3-.1-2.6.3-3.8.5.5.5 1.2.5 1.8 0 .7.1 1.4.1 2.3.9-1 1.7-1.8 2.4-2.6l.2.2c-.5 1.1-1.3 1.9-2.1 3h3.8c.2.5 0 .7-.4.7-.7.1-1.4.1-2.1.1-.3 0-.5 0-.9.1.2.2.2.4.4.6.6.6 1.2 1.2 1.8 1.9.2.3.4.6.6.8-.5.5-.8.2-1-.1l-1.6-1.6c-.2-.2-.4-.5-.7-.7-.5 1.4.3 2.8-.3 4.2-.8-.6-.6-1.4-.7-2-.1-.6-.1-1.3-.1-1.9-.2.1-.3 0-.3 0zM178.9 90.8c-.9 1-1.7 1.9-2.6 2.9 0 0-.2 0-.5-.1.5-1.5 1.9-2.3 2.6-3.7-.2 0-.4-.1-.6-.1-.7 0-1.5.1-2.2 0-.3 0-.6-.1-.8-.3 1.2-.7 2.5-.2 3.8-.7-.6-.7-1.1-1.4-1.8-2.2 1.1 0 1.4 1 2.2 1.2.2-1.3-.1-2.6.3-3.8.5.5.5 1.2.5 1.8 0 .7.1 1.4.1 2.3.9-1 1.7-1.8 2.4-2.6l.2.2c-.5 1.1-1.3 1.9-2.1 3h3.8c.2.5 0 .7-.4.7-.7.1-1.4.1-2.1.1-.3 0-.5 0-.9.1.2.2.2.4.4.6.6.6 1.2 1.2 1.8 1.9.2.3.4.6.6.8-.5.5-.8.2-1-.1l-1.6-1.6c-.2-.2-.4-.5-.7-.7-.5 1.4.3 2.8-.3 4.2-.8-.6-.6-1.4-.7-2-.1-.6-.1-1.3-.1-1.9h-.3zM115.6 29.7c1.2 1.1 2.2 2 3.2 2.9l.2-.2c-.2-.4-.6-.7-.9-1.1-.3-.3-.6-.7-.9-1-.3-.4-.7-.7-1.1-1.1 1.1-.4 2.3-.1 3.3-.5-1-.5-2.1-.2-3.2-.5.5-.8 1-1.4 1.5-2.1-1 .1-1.3 1-2.1 1.4 0-1.2-.1-2.3-.1-3.6-.8.7-.5 1.3-.6 1.9-.1.6-.1 1.2-.2 1.9-1.2-.7-1.8-2-3.1-2.4.2 1.3 1.5 1.8 2.2 2.9H112c-.6 0-1.2-.2-1.7.2 0 .5.3.5.6.5.8 0 1.6.1 2.5.1.2 0 .4 0 .8.1-.7 1.2-1.9 2-2.4 3.3 1.4-.2 1.6-1.7 2.7-2.3v2.5c.1.7-.4 1.6.4 2.2.7-1.6.5-3.3.7-5.1zM20.5 121.1c1.2 1.1 2.2 2 3.2 2.9l.2-.2c-.2-.4-.6-.7-.9-1.1-.3-.3-.6-.7-.9-1-.3-.4-.7-.7-1.1-1.1 1.1-.4 2.3-.1 3.3-.5-1-.5-2.1-.2-3.2-.5.5-.8 1-1.4 1.5-2.1-1 .1-1.3 1-2.1 1.4 0-1.2-.1-2.3-.1-3.6-.8.7-.5 1.3-.6 1.9-.1.6-.1 1.2-.2 1.9-1.2-.7-1.8-2-3.1-2.4.2 1.3 1.5 1.8 2.2 2.9h-1.8c-.6 0-1.2-.2-1.7.2 0 .5.3.5.6.5.8 0 1.6.1 2.5.1.2 0 .4 0 .8.1-.7 1.2-1.9 2-2.4 3.3 1.4-.2 1.6-1.7 2.7-2.3v2.5c.1.7-.4 1.6.4 2.2.7-1.7.5-3.3.7-5.1zM39.1 20.2c0 .9.7 1.5 1.5 1.5.9 0 1.5-.7 1.5-1.5 0-.9-.7-1.5-1.5-1.5s-1.5.7-1.5 1.5zM183.9 137.6c0 .9.7 1.5 1.5 1.5.9 0 1.5-.7 1.5-1.5 0-.9-.7-1.5-1.5-1.5-.8-.1-1.5.6-1.5 1.5zM112.1 131.7c0 .9.7 1.5 1.5 1.5.9 0 1.5-.7 1.5-1.5 0-.9-.7-1.5-1.5-1.5s-1.5.7-1.5 1.5zM3.1 102.4c0 .9.7 1.5 1.5 1.5s1.5-.7 1.5-1.5c0-.9-.7-1.5-1.5-1.5s-1.5.6-1.5 1.5zM175.9 12.7c0 .9.7 1.5 1.5 1.5.9 0 1.5-.7 1.5-1.5s-.7-1.5-1.5-1.5c-.8-.1-1.5.6-1.5 1.5zM22.8 142.9c0 .9.7 1.5 1.5 1.5.9 0 1.5-.7 1.5-1.5 0-.9-.7-1.5-1.5-1.5-.8-.1-1.5.6-1.5 1.5zM66.3 30.4c0 .6.5 1.2 1.2 1.2.6 0 1.2-.5 1.2-1.2 0-.6-.5-1.2-1.2-1.2-.7.1-1.2.6-1.2 1.2zM124.8 16.5c0 .6.5 1.2 1.2 1.2s1.2-.5 1.2-1.2c0-.6-.5-1.2-1.2-1.2s-1.2.6-1.2 1.2zM105.6 38.4c0 .6.5 1.2 1.2 1.2.6 0 1.2-.5 1.2-1.2s-.5-1.2-1.2-1.2-1.2.5-1.2 1.2z"/>
  <circle class="st0" cx="182.3" cy="33.1" r="1.2"/>
  <path class="st0" d="M40.8 135.7c.1-1 .2-2 .1-3.2-1.1.6-1.7 1.5-2.6 2.2-.9-.4-1.7-1.1-2.8-1.5.3 1.2.9 2.1 1.3 3.2-.5.8-1.2 1.5-1.8 2.5 1.1.1 2-.4 3-.5.7.8 1.2 1.8 2.1 2.6.4-.8.3-1.7.5-2.5.9-.4 1.9-.5 2.9-1-.7-.9-1.8-1.1-2.7-1.8zM25 59.9c.7-.8 1.4-1.5 2.2-2.3.3 1.2 0 2.3.2 3.3.9.4 2 .5 3 1-1.1.6-2.2.8-3.2 1.2-.3.9-.2 1.9-.6 3-.8-.8-1-1.7-1.6-2.5-1.1 0-2.2.4-3.4.2.3-.9 1-1.4 1.4-2.1-.3-.9-1-1.7-1.3-2.8 1.2.2 2.2.9 3.3 1zM187.7 44.1c.7-.8 1.4-1.5 2.2-2.3.3 1.2 0 2.3.2 3.3.9.4 2 .5 3 1-1.1.6-2.2.8-3.2 1.2-.3.9-.2 1.9-.6 3-.8-.8-1-1.7-1.6-2.5-1.1 0-2.2.4-3.4.2.3-.9 1-1.4 1.4-2.1-.3-.9-1-1.7-1.3-2.8 1.2.2 2.2.8 3.3 1zM97.7 11.1c.7-.8 1.4-1.5 2.2-2.3.3 1.2 0 2.3.2 3.3.9.4 2 .5 3 1-1.1.6-2.2.8-3.2 1.2-.3.9-.2 1.9-.6 3-.8-.8-1-1.7-1.6-2.5-1.1 0-2.2.4-3.4.2.3-.9 1-1.4 1.4-2.1-.3-.9-1-1.7-1.3-2.8 1.3.2 2.2.8 3.3 1zM105.7 137.7c-.5-.4-1.1-.1-1.6-.4-.1-.4-.2-.9-.4-1.3 0 0-.1-.1-.2-.1-.3.4-.6.8-1 1.2-.5-.1-.9-.7-1.5-.5 0 .6.5 1 .7 1.6-.1.6-.8 1.1-.6 1.9.6-.3 1.1-.5 1.6-.8.6.4.7 1.3 1.6 1.4.1-.7-.2-1.3-.1-2 .4-.4 1.1-.4 1.5-1zM51.6 104.3c-.5-.4-1.1-.1-1.6-.4-.1-.4-.2-.9-.4-1.3 0 0-.1-.1-.2-.1-.3.4-.6.8-1 1.2-.5-.1-.9-.7-1.5-.5 0 .6.5 1 .7 1.6-.1.6-.8 1.1-.6 1.9.6-.3 1.1-.5 1.6-.8.6.4.7 1.3 1.6 1.4.1-.7-.2-1.3-.1-2 .4-.4 1.1-.4 1.5-1z"/>
  <path class="st1" d="M106.5 72c.6.1.9.1 1.2.1 2.6-.1 5.2-.1 7.8-.3 2.5-.1 4.9-.4 7.4-.6.9-.1 1.5-.4 2.1-1 3.2-3.4 6.5-6.8 9.7-10.3.2-.2.3-.4.5-.7-5.2-.2-10.2-.7-15-2.1-4.6 5-9.1 9.9-13.7 14.9zM93.6 85.8c-3.7 4-7.5 8.1-11.4 12.2.4.1.5.2.7.2 5.1.4 10.1.4 15.2-.2.4 0 .9-.3 1.2-.6 3.5-3.7 6.9-7.3 10.4-11 .1-.2.2-.4.4-.6-2.8.2-5.5.4-8.1.4-2.8.1-5.5-.2-8.4-.4zM159.3 45.6c-2.9-2.7-6.3-3.8-10-4.3-3-.4-6 0-9.1.8 4.8 3.3 7.8 7.6 8.7 13.2 1.3.6 2.4 1.5 3 2.8.6 1.2 1 2.6 1.6 4.1 3.4-5.1 5.5-10.5 5.8-16.6zM69.5 111.8c-1 1-1.8 1.9-2.8 2.8-2.8 2.6-3.3 5.7-1.6 9.1.9 1.8 3.6 3.2 5.9 2.4 1.5-.5 2.7-1.4 3.7-2.5 3.2-3.4 6.3-6.8 9.5-10.2.2-.2.4-.5.6-.7 0-.1-.1-.1-.1-.2-5 .5-10.1.3-15.2-.7zM164.9 69.5c-.1 0-.1-.1-.2-.1-4.8 2.7-9.8 5-15.4 4.1-.9 1.9-1.6 3.7-1.6 5.7-.1 3.1 2.4 5.4 5.5 5.1 1.9-.1 3.4-.9 4.7-2.3 3.2-3.4 5.4-7.3 6.8-11.7.1-.2.1-.5.2-.8z"/>
  <path class="st0" d="M142.7 40.7c3.4-.6 6.8-.4 10.1.6 6.2 1.8 10.3 5.9 12.5 11.9 2.7 7.3 1.8 14.5-1.4 21.4-1.5 3.3-3.6 6.2-6.2 8.7-1.6 1.5-3.5 2.1-5.7 1.8-2.6-.4-4.6-2.5-4.9-5.1-.1-1.1 0-2.3.3-3.4.8-2.6 2-5.1 3.2-7.6.9-1.9 1.6-3.8 1.8-5.9.5-3.9-2.5-7.5-6.4-7.7-1.5-.1-3 .3-4.4.9-2.7 1.1-5 2.8-7 4.9-9 9.5-18 19.1-26.9 28.7-9.5 10.1-19 20.2-28.6 30.3-1.1 1.2-2.3 2.4-3.4 3.7-1.3 1.3-2.7 2.4-4.5 2.9-2 .6-4.5-.1-5.9-1.7-2.8-3.1-2.2-8 .2-10.4 3.4-3.6 6.7-7.3 10.1-10.9 15.3-16.5 30.7-32.9 46-49.4 1.9-2 3.7-4 5.6-6 3.4-3.4 7.5-5.7 12.1-7 1.1-.2 2.2-.4 3.4-.7zM106.5 72c.6.1.9.1 1.2.1 2.6-.1 5.2-.1 7.8-.3 2.5-.1 4.9-.4 7.4-.6.9-.1 1.5-.4 2.1-1 3.2-3.4 6.5-6.8 9.7-10.3.2-.2.3-.4.5-.7-5.2-.2-10.2-.7-15-2.1-4.6 5-9.1 9.9-13.7 14.9zM93.6 85.8c-3.7 4-7.5 8.1-11.4 12.2.4.1.5.2.7.2 5.1.4 10.1.4 15.2-.2.4 0 .9-.3 1.2-.6 3.5-3.7 6.9-7.3 10.4-11 .1-.2.2-.4.4-.6-2.8.2-5.5.4-8.1.4-2.8.1-5.5-.2-8.4-.4zm65.7-40.2c-2.9-2.7-6.3-3.8-10-4.3-3-.4-6 0-9.1.8 4.8 3.3 7.8 7.6 8.7 13.2 1.3.6 2.4 1.5 3 2.8.6 1.2 1 2.6 1.6 4.1 3.4-5.1 5.5-10.5 5.8-16.6zm-89.8 66.2c-1 1-1.8 1.9-2.8 2.8-2.8 2.6-3.3 5.7-1.6 9.1.9 1.8 3.6 3.2 5.9 2.4 1.5-.5 2.7-1.4 3.7-2.5 3.2-3.4 6.3-6.8 9.5-10.2.2-.2.4-.5.6-.7 0-.1-.1-.1-.1-.2-5 .5-10.1.3-15.2-.7zm95.4-42.3c-.1 0-.1-.1-.2-.1-4.8 2.7-9.8 5-15.4 4.1-.9 1.9-1.6 3.7-1.6 5.7-.1 3.1 2.4 5.4 5.5 5.1 1.9-.1 3.4-.9 4.7-2.3 3.2-3.4 5.4-7.3 6.8-11.7.1-.2.1-.5.2-.8z"/>
  <g>
    <path class="st0" d="M126.4 52.4c-.7 1.4-39.3 43.3-40.9 44.4.7-1.4 39.3-43.4 40.9-44.4zM75.2 122.3c-.5-.4-.2-.6 0-.8 1-1 1.9-2.1 2.9-3.1 7.3-7.8 14.7-15.7 22-23.5.8-.9 1.7-1.7 2.5-2.6.2-.2.3-.3.6-.4-9.1 10.4-18.6 20.3-28 30.4zM71.7 123.8c8.6-9.5 17.4-18.8 26.4-28.1.1.7-.3.9-.5 1.1l-11.4 12.3c-4.4 4.7-8.8 9.3-13.2 13.9l-1 1c-.1-.1-.2-.1-.3-.2zM124.1 57c-.1.1-.1.3-.2.4-2.8 3.4-32.2 35.2-33.2 35.7 11-12.1 22.1-24.2 33.1-36.3.1.1.2.2.3.2zM140.8 54.1c2.7-1.3 5.5-1.6 8.3-.4 2.4 1 4 2.8 4.4 5.5-.1-.2-.2-.5-.3-.7-1.1-2.7-3.2-4.2-6-4.6-2-.3-3.9-.2-5.7.6-.2.1-.4.1-.6.1-.1-.2-.1-.3-.1-.5z"/>
    <path class="st0" d="M149.7 52.8c4.9 1.1 7.1 8.2 4.6 12 1.4-5.2.1-9.2-4.6-12zM151.1 72.6c-.2.7-.5 1.3-.7 2-.3 1.2-.6 2.5-.8 3.7-.2 1.2.2 2.2.9 3.2.2.3.4.6.8 1.1-1.4-.7-2-1.7-2.2-2.9-.4-2.7.6-5 1.9-7.2 0 .1 0 .1.1.1z"/>
    <path class="st0" d="M151.8 81.2c-1.8-1.4-1.9-4.6-.1-6.6-.9 2.4-1.1 4.5.1 6.6zM149.4 51.6c1.6-.4 4 1 5.2 3.1-1.4-1.6-3.3-2.4-5.2-3.1zM70.4 124.9c-.8.7-1.9.6-2.9 0-1.1-.7-1.6-1.8-1.3-2.8.5 2.1 2 3 4.2 2.8z"/>
  </g>
  <g>
    <path class="st1" d="M139.9 47.6c-2.1 1.5-4 2.7-5.9 4.2-1.8 1.5-3.6 3.1-5.2 4.6.8-2.1 8.9-8.8 11.1-8.8zM159.7 55c1.9 2.3 2.4 9.3.8 11.4v-1.2c.1-1.5.2-3 .2-4.5.1-1.8-.3-3.5-1-5.2V55zM110 83.9c.3-1 5.9-7.5 7.7-8.8-.6 1.1-1.5 2.1-2.3 3-.9 1-1.7 2-2.6 3.1-.9 1-1.7 1.9-2.6 2.9 0-.1-.1-.1-.2-.2zM74.5 111.3c.4-1 7.4-8.6 8.6-9.3-.2.3-.3.5-.4.7-2.6 2.8-5.2 5.7-7.8 8.5-.2.2-.3.1-.4.1zM112.7 78.9c-2 2.3-3.9 4.5-5.9 6.6-.1 0-.1-.1-.2-.1.1-.2.1-.4.2-.6 1.8-2 3.6-3.9 5.4-5.9h.5zM163.8 58.9c.9 2.7.9 5.3-.2 7.9-.2-1.3.3-2.6.3-3.9 0-1.4-.1-2.7-.1-4zM138.8 49.6c-2.7 2.1-5.4 4.1-7.8 6 .8-1.4 6-5.5 7.8-6zM143 48.6c-2.8 1.3-5.4 2.9-7.8 4.7 2.3-2 4.8-3.9 7.8-4.7zM161.5 69.5c.5-2.3.9-4.5 1.4-6.8.1 2.4-.2 4.7-1.1 6.8-.2.1-.3 0-.3 0zM79.2 104.7l-3.6 3.9c0-.7 0-.7 1.4-2.3.6-.7 1.3-1.3 1.9-1.9.1.2.2.3.3.3zM85.7 105.4c-.8 1.2-1.8 2.3-3.1 3.1.8-1.3 1.9-2.2 3.1-3.1z"/>
  </g>
  <g>
    <path class="st1" d="M108 57.6c-4.9 1.3-9.9 1.7-15.1 1.9.2.3.3.5.5.7 3.2 3.5 6.4 6.9 9.6 10.4.6.6 1.2 1 2.1 1 2.5.2 4.9.5 7.4.7 2.6.2 5.2.3 7.8.4.3 0 .6 0 1.2-.1-4.6-5.2-9-10-13.5-15zM125.9 86.9c-2.7 0-5.4-.3-8.1-.5.1.2.2.4.4.6l10.2 11.1c.3.3.8.6 1.2.6 5.1.6 10.1.7 15.2.4.2 0 .3-.1.7-.2-3.8-4.2-7.6-8.3-11.2-12.4-3 .2-5.7.4-8.4.4zM74.8 62.1c.6-1.5 1-2.8 1.6-4 .6-1.3 1.7-2.1 3-2.7 1-5.7 4-9.8 8.9-13.1-3.1-.9-6.1-1.3-9.1-.9-3.7.4-7.1 1.5-10.1 4.2.2 6 2.2 11.4 5.7 16.5zM142.6 113.3c0 .1-.1.1-.1.2.2.2.3.5.6.7 3.1 3.4 6.2 6.9 9.4 10.3 1 1.1 2.2 2 3.7 2.6 2.3.9 5-.5 5.9-2.3 1.8-3.4 1.3-6.4-1.4-9.1-.9-.9-1.8-1.8-2.7-2.8-5.2.9-10.3 1-15.4.4zM63.3 70.1c1.3 4.4 3.5 8.4 6.6 11.8 1.3 1.4 2.8 2.2 4.7 2.4 3.1.3 5.6-2 5.6-5.1 0-2-.6-3.8-1.5-5.7-5.7.7-10.6-1.5-15.4-4.3-.1 0-.1.1-.2.1.1.3.1.5.2.8z"/>
    <path class="st0" d="M89.1 41.7c4.6 1.4 8.7 3.7 12 7.2 1.9 2 3.7 4 5.6 6 15.1 16.7 30.2 33.3 45.3 50 3.3 3.7 6.6 7.4 9.9 11 2.3 2.5 2.9 7.3 0 10.4-1.4 1.6-3.9 2.3-5.9 1.6-1.8-.6-3.2-1.6-4.4-3-1.1-1.2-2.2-2.5-3.4-3.7-9.4-10.2-18.8-20.5-28.2-30.7-8.9-9.7-17.7-19.4-26.5-29-2-2.1-4.2-3.9-6.9-5-1.4-.6-2.8-1-4.3-.9-3.9.1-6.9 3.7-6.5 7.6.2 2.1.8 4 1.7 5.9 1.2 2.5 2.3 4.9 3.1 7.6.3 1.1.4 2.2.3 3.4-.3 2.7-2.3 4.8-5 5.1-2.2.3-4.1-.4-5.7-1.9-2.6-2.5-4.7-5.5-6.1-8.8-3.1-7-3.9-14.2-1.1-21.4 2.3-5.9 6.4-10 12.6-11.7 3.3-.9 6.7-1.1 10.1-.5 1.1.2 2.3.4 3.4.8zM108 57.6c-4.9 1.3-9.9 1.7-15.1 1.9.2.3.3.5.5.7 3.2 3.5 6.4 6.9 9.6 10.4.6.6 1.2 1 2.1 1 2.5.2 4.9.5 7.4.7 2.6.2 5.2.3 7.8.4.3 0 .6 0 1.2-.1-4.6-5.2-9-10-13.5-15zm17.9 29.3c-2.7 0-5.4-.3-8.1-.5.1.2.2.4.4.6l10.2 11.1c.3.3.8.6 1.2.6 5.1.6 10.1.7 15.2.4.2 0 .3-.1.7-.2-3.8-4.2-7.6-8.3-11.2-12.4-3 .2-5.7.4-8.4.4zM74.8 62.1c.6-1.5 1-2.8 1.6-4 .6-1.3 1.7-2.1 3-2.7 1-5.7 4-9.8 8.9-13.1-3.1-.9-6.1-1.3-9.1-.9-3.7.4-7.1 1.5-10.1 4.2.2 6 2.2 11.4 5.7 16.5zm67.8 51.2c0 .1-.1.1-.1.2.2.2.3.5.6.7 3.1 3.4 6.2 6.9 9.4 10.3 1 1.1 2.2 2 3.7 2.6 2.3.9 5-.5 5.9-2.3 1.8-3.4 1.3-6.4-1.4-9.1-.9-.9-1.8-1.8-2.7-2.8-5.2.9-10.3 1-15.4.4zM63.3 70.1c1.3 4.4 3.5 8.4 6.6 11.8 1.3 1.4 2.8 2.2 4.7 2.4 3.1.3 5.6-2 5.6-5.1 0-2-.6-3.8-1.5-5.7-5.7.7-10.6-1.5-15.4-4.3-.1 0-.1.1-.2.1.1.3.1.5.2.8z"/>
    <g>
      <path class="st0" d="M101.8 52.6c.6 1.4 38.8 43.9 40.3 44.9-.6-1.3-38.7-43.8-40.3-44.9zM152.1 123.3c.5-.4.2-.6 0-.8-1-1.1-1.9-2.1-2.9-3.1-7.2-7.9-14.4-15.9-21.7-23.8-.8-.9-1.7-1.8-2.5-2.6-.2-.2-.3-.3-.6-.4 9 10.4 18.5 20.4 27.7 30.7zM155.5 124.8c-8.5-9.6-17.1-19-26-28.5-.1.7.3.9.5 1.1 3.8 4.2 7.5 8.3 11.3 12.5 4.3 4.7 8.7 9.4 13 14.1l1 1 .2-.2zM104.1 57.3c.1.1.1.3.2.4C107 61.2 136 93.4 137 93.9c-10.9-12.3-21.8-24.5-32.6-36.8-.1.1-.2.2-.3.2zM87.5 54.2c-2.7-1.4-5.5-1.6-8.3-.5-2.5 1-4.1 2.7-4.5 5.4.1-.2.2-.5.3-.7 1.2-2.7 3.3-4.1 6.1-4.6 2-.3 3.9-.1 5.7.6.2.1.4.1.6.1 0 0 0-.2.1-.3z"/>
      <path class="st0" d="M78.5 52.7c-4.9 1.1-7.2 8.1-4.8 11.9-1.3-5.1.1-9.1 4.8-11.9zM76.9 72.6c.2.7.5 1.3.6 2 .3 1.2.6 2.5.8 3.7.2 1.2-.2 2.2-.9 3.2-.2.3-.4.6-.8 1.1 1.4-.7 2-1.7 2.2-2.9.4-2.6-.5-5-1.8-7.2 0 0-.1 0-.1.1z"/>
      <path class="st0" d="M76.1 81.2c1.8-1.4 1.9-4.6.2-6.6.8 2.3.9 4.5-.2 6.6zM78.9 51.6c-1.6-.5-4.1 1-5.2 3 1.3-1.6 3.2-2.4 5.2-3zM156.8 126c.8.7 1.9.6 2.9 0 1.1-.7 1.7-1.7 1.4-2.8-.5 2.1-2 3-4.3 2.8z"/>
    </g>
    <g>
      <path class="st1" d="M88.4 47.7c2 1.5 4 2.8 5.8 4.3 1.8 1.5 3.5 3.2 5.1 4.7-.7-2.2-8.7-8.9-10.9-9zM68.5 54.8c-1.9 2.2-2.5 9.3-1 11.3v-1.2c-.1-1.5-.1-3-.2-4.5-.1-1.8.4-3.5 1-5.2.2 0 .2-.1.2-.4zM117.8 84.4c-.3-1-5.8-7.6-7.6-8.9.6 1.1 1.5 2.1 2.3 3.1.8 1 1.7 2.1 2.6 3.1.8 1 1.7 2 2.5 3 .1-.2.1-.2.2-.3zM153 112.3c-.4-1-7.3-8.7-8.5-9.4.2.3.3.5.4.7 2.6 2.9 5.1 5.8 7.7 8.6.1.1.3.1.4.1zM115.1 79.3c2 2.4 3.8 4.6 5.8 6.7.1 0 .1-.1.2-.1-.1-.2-.1-.4-.2-.6-1.8-2-3.5-4-5.3-5.9 0-.1-.1-.1-.5-.1zM64.3 58.6c-.9 2.7-.9 5.3.1 7.9.2-1.3-.2-2.6-.2-3.9 0-1.3.1-2.6.1-4zM89.5 49.7c2.7 2.1 5.3 4.2 7.7 6.1-.8-1.4-5.9-5.5-7.7-6.1zM85.3 48.7c2.8 1.3 5.3 3 7.8 4.8-2.4-2.1-4.8-4-7.8-4.8zM66.5 69.3c-.4-2.3-.9-4.5-1.3-6.8-.1 2.4.1 4.7 1.1 6.8h.2zM148.3 105.6c1.2 1.3 2.3 2.6 3.6 4 0-.7 0-.7-1.4-2.3-.6-.7-1.3-1.3-1.9-2-.1.2-.2.3-.3.3zM141.9 106.2c.8 1.2 1.8 2.3 3 3.2-.8-1.4-1.9-2.3-3-3.2z"/>
    </g>
  </g>
  <g>
    <path class="st1" d="M63.7 97.5c.1-.2.2-.4.4-.6.7-.9 1.1-1.9 1.3-3 .2-1.1 0-2.2-1.1-2.9-.2-.1-.3-.4-.5-.7.4-.3.7-.4 1.1-.6 1-.6 1.9-1.3 2.5-2.2.5-.7.8-1.5.2-2.3-.1-.2-.1-.4-.2-.6.3-.2.6-.4.9-.5 1.3-.7 2.6-1.4 3.7-2.2.8-.6 1.5-1.3 2.1-2 .7-.9.9-1.9.3-3-.1-.3-.2-.6-.3-1 .8-.2 1.5-.3 2.1-.4 1.1-.3 2.2-.5 3.3-.9.5-.2 1.1-.6 1.5-.9.7-.6.7-1.1.2-1.8-.2-.3-.4-.6-.7-1 1.1-.1 1.9-.2 2.7-.2 1.4-.1 2.7-.4 3.9-.9 1.1-.5 1.9-1.4 2.4-2.5.1-.3.3-.6.5-1 .4.3.6.6.8.8 2.3 2.2 3.6 2.7 6.6 1.2l.6-.3h.5c0 .2.1.3.1.4.2 2.1 1.4 3.7 3.1 4.8 1.3.9 2.8 1 4.2 1.2.4.1.9.1 1.5.1-1.8-1.9-2.1-3.7-.9-5.3.5-.7 1.2-1.2 2-1.4 1.3-.4 2.5 0 3.5.8 1.3-1.4 2.8-1.9 4.6-1.5 1.8.4 2.8 1.7 3.4 3.4 2.3-.4 4.1.3 5.3 2.2 1.3 2 .9 4-.6 5.9 2.7 1.1 3.3 2.4 2.9 5.1 2.5.7 4.8.3 6.9-1.6.2.3.4.6.5.9.2.5.4 1 .7 1.5.6 1.3 1.6 2.1 3.1 2.2.7.1 1.4 0 2.2.1h.7c.1.1.1.2.1.3 0 .2-.1.3-.1.5-.6 1.5-.5 2.9.2 4.3.7 1.5 1.9 2.6 3 3.8.3.3.5.6.9 1-.5.1-.9.2-1.2.2-.9.2-1.2.5-1.1 1.4.1.6.2 1.3.5 1.8.6 1.1 1.3 2.1 2 3.1.3.5.7 1 1.1 1.6-.4.2-.6.4-.9.5-1.2.4-1.7 1.3-1.8 2.4-.1 1 0 2 .2 2.9.3 1.4.8 2.9 1.3 4.3.1.3.2.7.3 1.1-.3.1-.4.1-.6.2-.9.2-1.4.9-1.4 1.7 0 1 .1 2.1.3 3.1.1.5.3.9.4 1.5-.3 0-.6.1-.8.1-1.3-.2-2.1.4-2.7 1.4-.6.9-1 1.9-1.1 3 0 .3-.1.5-.2.8-.7-.8-1.2-1.5-1.8-2.1-1.2-1-2.7-1.2-4.2-1.1-.5 0-.9.1-1.5.1-.1-.3-.1-.6-.3-.9-.5-1.2-1.2-2.2-2.1-3.1-.7-.6-1.4-.9-2.3-.6-.2.1-.4.1-.7.1-.1-.5-.3-1-.4-1.5-.3-1.3-.7-2.6-1.5-3.7-.3-.5-.7-1-1.2-1.1-.6.1-1 .3-1.6.4 0-.5-.1-.8-.1-1.1-.1-1.2 0-2.3-.2-3.5-.2-1.3-.5-2.5-1.1-3.7-.7-1.6-2.1-2.5-3.9-2.3-.2 0-.4 0-.8-.1.1-.4.1-.8.2-1.2.6-1.8.9-3.6.5-5.5-.2-1.2-.7-2.2-1.7-3-.3-.2-.5-.6-.9-.9 2.9-1.2 4.3-3.3 4.6-6.3-3.6 1.6-7.9-.4-7.7-4.9-1.3-.1-2.2-.8-3.2-1.6-1.3 1-2.2 2.2-2.7 3.6-.7 1.9-.6 3.7.3 5.6-.5 0-.9.1-1.3.1-1.2-.1-2.3.3-3.2 1-1.5 1.1-2.6 2.6-3.3 4.4-.2.3-.4.6-.6 1.1-.3-.3-.5-.5-.8-.7-.9-.9-2-1.3-3.3-1.1-.8.2-1.6.4-2.3.8-1.8.9-3.1 2.3-4.5 3.7-.3.3-.6.5-1 .8-.3-.5-.6-.9-.8-1.3-.8-.2-1.1-.2-2 0-1.2.4-2.3 1-3.3 1.7-.4.3-.8.4-1.2.7-.2-.2-.3-.3-.3-.4-.5-1.1-1.4-1.5-2.4-1.3-1.2.2-2.3.5-3.5.8-.3.1-.5.2-.8.3-1.9-2.4-4.1-4-7.4-2.7 0 .4-.1.3-.1.2z"/>
    <path class="st0" d="M63.7 97.5c.1-.2.2-.4.4-.6.7-.9 1.1-1.9 1.3-3 .2-1.1 0-2.2-1.1-2.9-.2-.1-.3-.4-.5-.7.4-.3.7-.4 1.1-.6 1-.6 1.9-1.3 2.5-2.2.5-.7.8-1.5.2-2.3-.1-.2-.1-.4-.2-.6.3-.2.6-.4.9-.5 1.3-.7 2.6-1.4 3.7-2.2.8-.6 1.5-1.3 2.1-2 .7-.9.9-1.9.3-3-.1-.3-.2-.6-.3-1 .8-.2 1.5-.3 2.1-.4 1.1-.3 2.2-.5 3.3-.9.5-.2 1.1-.6 1.5-.9.7-.6.7-1.1.2-1.8-.2-.3-.4-.6-.7-1 1.1-.1 1.9-.2 2.7-.2 1.4-.1 2.7-.4 3.9-.9 1.1-.5 1.9-1.4 2.4-2.5.1-.3.3-.6.5-1 .4.3.6.6.8.8 2.3 2.2 3.6 2.7 6.6 1.2l.6-.3h.5c0 .2.1.3.1.4.2 2.1 1.4 3.7 3.1 4.8 1.3.9 2.8 1 4.2 1.2.4.1.9.1 1.5.1-1.8-1.9-2.1-3.7-.9-5.3.5-.7 1.2-1.2 2-1.4 1.3-.4 2.5 0 3.5.8 1.3-1.4 2.8-1.9 4.6-1.5 1.8.4 2.8 1.7 3.4 3.4 2.3-.4 4.1.3 5.3 2.2 1.3 2 .9 4-.6 5.9 2.7 1.1 3.3 2.4 2.9 5.1 2.5.7 4.8.3 6.9-1.6.2.3.4.6.5.9.2.5.4 1 .7 1.5.6 1.3 1.6 2.1 3.1 2.2.7.1 1.4 0 2.2.1h.7c.1.1.1.2.1.3 0 .2-.1.3-.1.5-.6 1.5-.5 2.9.2 4.3.7 1.5 1.9 2.6 3 3.8.3.3.5.6.9 1-.5.1-.9.2-1.2.2-.9.2-1.2.5-1.1 1.4.1.6.2 1.3.5 1.8.6 1.1 1.3 2.1 2 3.1.3.5.7 1 1.1 1.6-.4.2-.6.4-.9.5-1.2.4-1.7 1.3-1.8 2.4-.1 1 0 2 .2 2.9.3 1.4.8 2.9 1.3 4.3.1.3.2.7.3 1.1-.3.1-.4.1-.6.2-.9.2-1.4.9-1.4 1.7 0 1 .1 2.1.3 3.1.1.5.3.9.4 1.5-.3 0-.6.1-.8.1-1.3-.2-2.1.4-2.7 1.4-.6.9-1 1.9-1.1 3 0 .3-.1.5-.2.8-.7-.8-1.2-1.5-1.8-2.1-1.2-1-2.7-1.2-4.2-1.1-.5 0-.9.1-1.5.1-.1-.3-.1-.6-.3-.9-.5-1.2-1.2-2.2-2.1-3.1-.7-.6-1.4-.9-2.3-.6-.2.1-.4.1-.7.1-.1-.5-.3-1-.4-1.5-.3-1.3-.7-2.6-1.5-3.7-.3-.5-.7-1-1.2-1.1-.6.1-1 .3-1.6.4 0-.5-.1-.8-.1-1.1-.1-1.2 0-2.3-.2-3.5-.2-1.3-.5-2.5-1.1-3.7-.7-1.6-2.1-2.5-3.9-2.3-.2 0-.4 0-.8-.1.1-.4.1-.8.2-1.2.6-1.8.9-3.6.5-5.5-.2-1.2-.7-2.2-1.7-3-.3-.2-.5-.6-.9-.9 2.9-1.2 4.3-3.3 4.6-6.3-3.6 1.6-7.9-.4-7.7-4.9-1.3-.1-2.2-.8-3.2-1.6-1.3 1-2.2 2.2-2.7 3.6-.7 1.9-.6 3.7.3 5.6-.5 0-.9.1-1.3.1-1.2-.1-2.3.3-3.2 1-1.5 1.1-2.6 2.6-3.3 4.4-.2.3-.4.6-.6 1.1-.3-.3-.5-.5-.8-.7-.9-.9-2-1.3-3.3-1.1-.8.2-1.6.4-2.3.8-1.8.9-3.1 2.3-4.5 3.7-.3.3-.6.5-1 .8-.3-.5-.6-.9-.8-1.3-.8-.2-1.1-.2-2 0-1.2.4-2.3 1-3.3 1.7-.4.3-.8.4-1.2.7-.2-.2-.3-.3-.3-.4-.5-1.1-1.4-1.5-2.4-1.3-1.2.2-2.3.5-3.5.8-.3.1-.5.2-.8.3-1.9-2.4-4.1-4-7.4-2.7 0 .4-.1.3-.1.2zm39-23.3c-2.3-.9-3.9-2.5-4.6-5 0-.1-.1-.2-.2-.4-2.7 1.6-5.2 1.3-7.4-1.2-.9 1.5-2 2.5-3.6 3.1-1.5.5-3 .7-4.6.6-.1.1-.1.2-.1.2.5 1.3.3 2.2-.8 3-1.3 1-2.8 1.3-4.3 1.6-.6.1-1.2.2-1.9.2 1 1.8.3 3.3-.9 4.7-1.4 1.6-3.2 2.5-5 3.5-.3.1-.6.3-.9.4.9 1.4.4 2.5-.6 3.5-.8.8-1.7 1.5-2.6 2.2 1.9 1.9.9 3.9 0 6 2.7-.4 4.6.9 6.2 2.8.9-.3 1.8-.5 2.7-.8.5-.1 1.1-.2 1.7-.2 1.2 0 2.1.4 2.6 1.6.3-.2.5-.4.8-.6 1.2-1 2.6-1.7 4.2-1.9 1.3-.2 1.7 0 2.5 1l.5-.5c1.2-1.3 2.4-2.5 4-3.4.9-.5 1.8-.8 2.8-1 1.3-.3 2.5.1 3.6.9.2.1.3.2.5.4 1.5-3.2 3.4-5.9 7.3-6.1-1-3.7.2-6.6 3.1-9.1 0-.1-.1-.3-.2-.5s-.1-.4-.2-.6c-.7-.1-1.3.1-1.8.6-1.6 1.3-2.7 2.9-3.8 4.7-.8 1.3-1.5 2.6-2.3 3.8 1.2-3.1 2.6-6 5-8.6-2 .1-3.8.2-5.3 1.6-2.4 2.2-4.3 4.8-6 7.5-.6 1-1.2 2.1-1.7 3.1-.1.2-.3.5-.6.6 1.9-4.5 4.1-8.8 8.2-12.1-2.8.6-5.4 1.2-7.9 2.2-.9.3-1.6 1.1-2.3 1.7-2.3 2.1-4.1 4.7-5.6 7.4-1.1 1.9-2.1 3.8-3.2 5.7 0 .1-.1.1-.3.1.9-2.6 2.3-5 3.6-7.4 1.4-2.4 3-4.6 5-6.6 0 .1-.3.1-.5.2l-7.2 3c-.6.3-1.1.7-1.6 1.2-2.7 2.8-5 6-6.7 9.5-.2.5-.5.9-.8 1.3 1.4-3.9 3.5-7.4 6.2-10.5-3.6 1.8-7 3.8-10.2 6.5.1-.6.4-.8.7-1.1 1.6-1.5 3.4-2.8 5.3-3.9 1.1-.7 2.3-1.4 3.5-2.1-2.5 0-5 .2-7.6.4.5-.1.9-.3 1.4-.4 2.4-.3 4.8-.5 7.2-.8.5-.1 1.1-.1 1.5-.3 3.1-1.3 6.2-2.6 9.2-3.9.2-.1.5-.1.6-.3-4.7-.7-9.4-.9-14.2-.7.2-.1.3-.1.5-.1s.4-.1.6-.1c4.8-.6 9.6-.5 14.3.2.4.1.8.1 1.2 0 2.4-.7 4.8-1.4 7.3-2.1-1.2-.6-2.5-1-3.8-1.4l-3.9-1.2-3.9-1.2-3.9-.9c1.3-.1 2.6.1 3.9.3 3.9.8 7.8 2 11.4 3.5 1.2.5 2.3.6 3.5.3.4-.1.8-.1 1.3-.2.4-.1.8-.1 1.4-.2-3-2.1-6.2-3.5-9.3-5.1.3.1.7.1 1 .2 3.2.9 6.1 2.3 8.8 4.2.5.3.9.7 1.5.4.2-.8.4-1.6.6-2.5-1.6 0-3.2-.3-4.9-.9zm31.1 48.6c.3-1.1.5-2.2.8-3.2.9-3.3 1.1-6.7 1.1-10.1 0-.5-.1-.9-.3-1.3-1.1-2.6-2.3-5.1-3.5-7.7-.1-.1-.2-.2-.4-.6.3 5.8-1.2 11.1-2.9 16.3h-.3c.1-.3.1-.6.2-.8 1.1-4 2-8 2.3-12.1.1-1 0-2 0-3-.1-1.5-.4-3-1.3-4.3-1-1.5-1.9-3-2.8-4.5-.2-.3-.4-.5-.6-.7.6 3.1.1 6.1-.6 9-.4 1.8-.9 3.6-1.8 5.2.2-1 .5-2 .7-2.9.8-3.7 1.4-7.5.9-11.3-.1-1-.4-1.9-1.1-2.6-.5-.6-1-1.2-1.7-2 .1 3.7-.9 6.8-2.2 10 .2-.7.3-1.4.5-2.1.2-.7.4-1.5.4-2.2.2-1.9.4-3.7.5-5.6 0-.5-.1-1.1-.7-1.3-.4.5-.8 1-1.3 1.6-.1 2.9-1.2 5.4-3.9 6.9v.2c2.4 2.4 2.2 5.3 1.5 8.2l-.3.9v.2c.5.1.9.1 1.4.2 1.6.4 2.6 1.5 3.3 2.9.9 2 1.1 4.1 1.1 6.3v1.1c1.2-.5 2 .1 2.6 1 .9 1.2 1.4 2.5 1.6 3.9.1.4.1.8.2 1.2 1.6-.7 2.8.1 3.7 1.3.7.9 1.2 1.9 1.8 2.8 1.2.1 2.4.1 3.5.3 1.2.2 2.2.9 2.9 1.9.5-1 .9-2 1.5-2.9.6-1 1.6-1.5 2.8-1.4-.1-.6-.3-1.1-.4-1.6-.1-.8-.1-1.6-.1-2.4.1-1.2.5-2.1 1.9-2.4-.1-.3-.2-.5-.3-.8-.4-1.5-1-2.9-1.3-4.4-.2-.9-.2-2 0-2.9.2-1.3.8-2.4 2.4-2.9-.2-.2-.3-.4-.5-.6-.7-1-1.5-2-2.1-3-.3-.5-.5-1-.6-1.6-.4-1.6-.1-2.5 1.5-3.4-1.2-1.1-2.3-2.2-3-3.6-.7-1.4-1-2.9-.5-4.6-3.2.3-5.3-1.1-6.2-4.2-2.2 1.4-4.5 1.6-7 .7l-.4.4-.5.5c2.3.8 4.7 1.5 6.7 2.9-1.1-.3-2.2-.7-3.2-1-1.1-.3-2.1-.7-3.2-1-1.1-.2-2.2-.3-3.5-.4 1 1.2 1.8 2.2 2.6 3.2.1.2.4.3.6.3 2.3 1 4.6 1.9 6.9 2.9 2.3 1 4.4 2.2 6.4 3.7.6.4 1.1.9 1.6 1.4-2.3-1.4-4.7-2.7-7.2-3.8-2.4-1.1-4.9-2.2-7.3-3.3 0 .1-.1.1-.1.2.1.2.2.3.3.5l3.6 5.7c.3.4.6.8 1 1.1 3.9 2.7 7.5 5.8 10.5 9.4.3.3.5.7.7 1-3.3-3.4-6.9-6.4-10.7-9.2-.1.1-.2.1-.2.2.1.3.3.5.4.8 1.3 2.9 2.7 5.9 4 8.8.2.5.5.9.9 1.3 1.5 1.8 3.1 3.6 4.7 5.4.3.4.6.9.8 1.4-1.7-1.9-3.4-3.7-5.2-5.5 1.1 3.6 2.2 7.1 2.4 10.8 0 .2 0 .4-.2.6-.6-4-1.7-7.8-3.2-11.6 0 4.5-.9 8.4-2.6 12.2zm-14.5-37c1.6-1.3 1.9-3.5.7-5.1-1.5-2.1-4.7-2.3-6.6-.6-2.1 2.1-1.1 5.4 1.3 6.2 1.8.8 3.3.5 4.6-.5zm-1.8-10.2c.2 2.2 2.2 3.7 4.4 3.4 2.3-.3 3.8-2.5 3.3-4.8-.5-2-2.5-3.5-5-2.8-.1 1.9-1 3.3-2.7 4.2zm1.7-3c.7-1.9-.2-4-2-4.7-1.9-.8-4.1.2-4.9 2.2-.7 1.7.3 4.1 2.1 4.6 2 .7 4-.2 4.8-2.1zm-4.1 3.3c-1.4-.2-2.3-1-3.1-1.9-2-.1-3.7 1.3-3.8 3.3-.1 2 1.4 3.7 3.4 3.8 1.6-2.1 1.6-2.1 3.9-3-.1-.8-.2-1.5-.4-2.2zm11.7 7.3c.6-1.4-.1-3-1.5-3.6-1.4-.6-3.1.1-3.7 1.6-.5 1.2.3 3 1.6 3.5 1.4.6 3-.1 3.6-1.5zm-15.4-13.9c-.5-.7-1.6-1-2.7-.5s-1.8 1.5-1.7 2.7c.1.9.5 1.5 1.3 2 .4.3.9.4 1.4.1.6-.3 1.2-.4 1.6-.6 0-1.2 0-2.4.1-3.7z"/>
    <path class="st0" d="M115.4 85.3c.3-.5 0-.8-.3-1-.3-.2-.7-.4-1 .1.2.6.7.9 1.3.9zM113.8 72.7c.3.2.7.4 1.1.7.4-.7.1-1-.3-1.2-.4-.2-.7-.1-.8.5zM110.1 78.8c0-.9-.2-1.1-.8-1.3 0 1 .1 1.2.8 1.3zM123.6 83.6c.8.6 1.3.5 1.6-.3-.9-.4-1.1-.4-1.6.3z"/>
    <path class="st0" d="M121.8 84c0 .3.1.6.1.8-.5 2.5-1.2 4.9-2.2 7.3-.3.6-.6 1.1-.8 1.7 1.3-1.5 1.8-3.5 2.8-5.2-.2.6-.4 1.1-.5 1.7l-.6 1.8c-.2.6-.5 1.1-.7 1.7 1.8-2.5 2.4-5.5 3.1-8.4.2 2.2-.4 4.4-1 6.7.7-1.1 1.1-2.5 1.5-4.9.3-1.6.1-3.2.1-4.9-.1.4-.2.8-.4 1.3h-.2c.1-.8.1-1.6.2-2.4-.1.3-.3.6-.4.9h-.1c0-.4.1-.8.1-1.3-.2.4-.4.7-.5 1h-.1c.1-.3.1-.6.2-1.1-.6.6-.7 1.3-.7 1.9 0 1-.2 2-.8 2.9-.4.6-.6 1.4-.8 2.1-.4 1-.8 2-1.1 3 1-1.2 1.3-2.7 2.1-4-.3 1.2-.6 2.3-.9 3.5 1-1.8 1.3-3.7 1.5-5.7-.1-.4 0-.4.1-.4zM107.4 75.7c-1.3 3.3-3.7 5.8-6 8.5 1.8-1.1 3-2.7 4.4-4.2-.9 1.8-2.5 3.3-3.8 5 2.1-1.2 5.8-6.2 5.7-7.8l-.5.5c.4-.9.7-1.7 1-2.5-.2-.2-.4-.4-.6-.5-1.8 2.4-3.5 4.8-5.4 7.3 2.2-1.9 3.7-4.1 5.2-6.3zM118.8 78.9c0-.2.1-.4.1-.6-.1-1.8.2-3.5 1-5.1-.6.6-1.3 1.1-1.8 1.8-.6 1-.6 2 0 3.2.1-.6.2-1 .3-1.4h.1c0 .4 0 .7.1 1.1 0 .4.1.7.2 1zM118.6 79.7c.8.7.8 1.6.8 2.5 0 .4-.1.8-.2 1.3.6-.5.6-.5.5-3.2.8 1 .8 1.6 0 4.4.8-1 1.1-2.2.9-3.4-.2-.9-.5-1.7-1.6-1.9 0-.1-.1-.3-.1-.5l-.6.3c.1.2.2.4.3.5zM104.5 77.4c-.5.7-1 1.4-1.5 2-.9 1-1.9 2-2.9 3 1.7-.8 6-5.5 6.4-7.3-.2.3-.5.6-.7.8-.3.3-.6.7-.9 1-.2.2-.3.3-.4.5z"/>
    <path class="st0" d="M104.5 77.4c.1-.2.2-.3.3-.5.5-.8.9-1.5 1.4-2.3l-.1-.1c-1.8 2.2-3.6 4.3-5.4 6.5l1.2-.9 1.2-1.2c.4-.5.9-1 1.4-1.5zM122.2 93.6c1.3-2.5 1.7-5 1.7-7.6-.6 2.4-1.1 4.9-1.7 7.6zM125.7 84.6c-.4 2.5-.7 4.9-1 7.3.7-1.4 1.4-5.6 1-7.3zM85.6 99c1.1-1.8 2.2-3.6 3.7-5.2-1.8 1.4-3.2 3-3.7 5.2zM75.1 76.2c2.5.7 4.9.5 7.1-.7-2.3.8-4.7.9-7.1.7zM123.8 91.4c.9-2 1.3-4.1 1.1-6.3-.4 2.2-.8 4.2-1.1 6.3zM120.4 74.2c-.9 1.7-1.5 3.4-.4 5.2-.4-1.8-.2-3.5.4-5.2zM104.8 74.7c-1.1 1.3-2.2 2.7-3.3 4 1.5-1 2.6-2.3 3.5-3.9-.1 0-.2-.1-.2-.1zM71.1 99.8c1.8-1.1 3.4-2.2 4.9-3.1-1.3.1-3.8 1.6-4.9 3.1zM126.1 89.2c.6-1.7.7-3.4.4-5.2-.1 1.7-.3 3.4-.4 5.2zM112.7 79.3c1.1-1.4 1.7-3.5 1.3-4.5-.5 1.4-.9 2.9-1.3 4.5z"/>
    <path class="st0" d="M120.9 75.3c-.9 1.3-.8 2.9.3 4.1-.5-1.4-.7-2.7-.3-4.1zM145.8 115.6c-1-1.3-2-2.5-3-3.8.5 1.7 1.7 2.8 3 3.8zM109.9 72.7c.1-.5.2-1 .3-1.4.2-.6.4-1.2.7-1.8-.6.4-.6.4-1.1 1.8l-.6 2.1c.1 0 .2.1.3.2.2-.4.3-.6.4-.9z"/>
    <path class="st0" d="M109.9 72.7c0 .3.1.6.1 1 .5-1.3 1-2.4 1.4-3.6-.8.6-1 1.7-1.5 2.6zM122.8 113.6c.8-1.5 1-3 .9-4.6-.4 1.5-.7 3.1-.9 4.6zM127.3 83.2c0 1.6 0 3.1-.1 4.7.4-.9.5-3.2.1-4.7zM118.6 79.7c-.1-.2-.2-.3-.4-.5-.3-.2-.5-.4-.8-.6l-.1.1c.2.3.5.6.7 1 .2.4.4.8.5 1.2.1.4.1.8.2 1.5.5-1.1.1-1.9-.1-2.7zM101.1 77.6c1.1-.8 2.1-1.7 2.6-3-.9 1-1.7 2-2.6 3zM113.8 78.8c.9-1.2 1.2-2.3.9-3.6-.3 1.2-.6 2.3-.9 3.6zM103.7 84.8c.8-.9 1.7-1.8 2.5-2.8-.6.2-2.1 1.8-2.5 2.8zM100.8 76.4c1-.5 1.7-1.3 2.3-2.3l-.2-.2c-.6.9-1.3 1.7-2.1 2.5zM109.3 73.4c.1-.9.1-1.8.2-2.6-.5.6-.7 1.9-.4 3.3 0-.3.1-.5.2-.7zM112.8 77.5c.6-.9.6-2 .3-3.1-.1 1.1-.2 2.1-.3 3.1zM78.7 100.2c1.7-1.2 5-7.5 5.2-9.7-1.8 3.3-3.5 6.5-5.2 9.7zM83 89.6c-1.9 3.3-3.7 6.7-5.7 10.2.3-.2.5-.3.6-.4 1-1.7 2.1-3.3 3.1-5.1.8-1.5 1.5-3.1 2.2-4.6-.1-.1-.2-.1-.2-.1zM76.5 98.7c1.5-1.2 3.5-5.1 3.5-6.4-1.1 2.1-2.3 4.3-3.5 6.4zM84 93c-1.2 2.1-2.3 4.2-3.5 6.3 1.1-.7 3.3-4.7 3.5-6.3zM134.2 117c-.8 2-1.6 4-2.3 5.9 1.5-1.7 1.8-3.9 2.5-5.9h-.2zM140.8 103.8c.8-.8 1.8-3 2-4.5-.5.5-1.9 3.6-2 4.5zM142.6 97.1c-.6 1.4-1.3 2.8-1.9 4.2.1 0 .1.1.2.1.8-1.3 1.6-2.7 1.9-4.2-.1 0-.1 0-.2-.1zM75.3 98.4c1.1-.8 2.2-2.7 3-5-1 1.7-2 3.4-3 5zM143.3 100.3c-.7 1.7-1.3 3.2-1.9 4.9.4-.3.4-.3.9-1.4.2-.6.5-1.1.6-1.7.2-.6.6-1.1.4-1.8zM133.2 117.6c-.6 1.4-1.1 2.8-1.7 4.3 1-1.2 1.3-2.7 1.9-4.2-.1 0-.1-.1-.2-.1zM143.9 101.7c-.7.8-1 1.8-1.2 2.8.6-.8 1.1-1.7 1.2-2.8zM71.9 83c-.8.9-1.2 2-1.4 3.1.5-.9 1.3-1.8 1.4-3.1zM70.7 83.9c-.5 1.2-.9 2.3-1.4 3.6.9-1 1.1-2.3 1.7-3.5-.1-.1-.2-.1-.3-.1zM82.3 97.9c.9-.6 1.4-1.5 1.6-3-.6 1.1-1.1 2.1-1.6 3zM75.9 95.3c-.7 1-1.3 2-2 3 .8-.2 1.5-1.3 2-3zM132.1 117.7c-.4 1-.8 2.1-1.2 3.1.7-.3 1.3-1.7 1.2-3.1zM73.1 82.1c-.6.8-.9 1.8-1.2 2.8.6-.9.9-1.9 1.2-2.8zM143.7 104.9l.9-2.4c-.7.7-.9 1.5-1.2 2.4.1-.1.2-.1.3 0zM131.2 118.1l-1.2 2.4c.9-.6 1.2-1.4 1.2-2.4zM68.8 87.2c.3-.9.7-1.7 1-2.6-.5.8-1 1.6-1.2 2.5.1 0 .1.1.2.1z"/>
  </g>
</svg>
