<svg version="1.1" id="OBJECTS" xmlns="http://www.w3.org/2000/svg" x="0" y="0" viewBox="0 0 1085.2 422.6" xml:space="preserve">
  <style>
    .st0{fill:#fff}.st1{fill:#a1262a}
  </style>
  <circle class="st0" cx="887.5" cy="380.1" r="22.4"/>
  <path class="st1" d="M887.5 404.7c-13.6 0-24.6-11-24.6-24.6s11-24.6 24.6-24.6c13.6 0 24.6 11 24.6 24.6s-11.1 24.6-24.6 24.6zm0-44.9c-11.1 0-20.2 9.1-20.2 20.2s9.1 20.2 20.2 20.2 20.2-9.1 20.2-20.2-9.1-20.2-20.2-20.2z"/>
  <path class="st0" d="m836.4 362.8 8.8-9.8 2.1-7.1-1-34.5 5-23.4 10.1-14.6 11.5-7.5 18.6-2.1 15.5 3.3 15.2 10 5.9 10.2 3.7 16.1 1.1 17.7-.6 16.8-.3 9.5 3.4 7.9 7.1 7.5 2 2.6-107.5-.6z"/>
  <path class="st1" d="M946.6 367H837c-1.5 0-2.8-.9-3.2-2.4-.4-1.4.1-2.9 1.3-3.7 3.4-2.4 9.3-7.5 9.9-15.2.1-1.8-.1-5-.3-9.1-1-16.2-2.9-46.4 12.9-63 7.6-8 18.4-11.9 32.2-11.6l-.1 4.4c-12.5-.2-22.2 3.2-28.9 10.3-14.5 15.2-12.7 44.1-11.7 59.7.3 4.3.5 7.6.3 9.7-.6 7.7-5.3 13.2-9.3 16.5h106.5v4.4z"/>
  <path class="st1" d="M945.7 366.8c-.6-.3-14.6-6.8-15.7-20.7-.2-2.1 0-5.5.3-9.7 1-15.5 2.8-44.5-11.7-59.7-6.7-7-16.5-10.5-28.9-10.3l-.1-4.4c13.8-.3 24.6 3.7 32.2 11.6 15.9 16.6 13.9 46.8 12.9 63-.3 4.1-.5 7.3-.3 9.1.9 11.3 13 17 13.1 17.1l-1.8 4z"/>
  <path class="st0" d="M943.1 384.2h-106c-2.2 0-4-1.8-4-4v-13.9c0-2.2 1.8-4 4-4h106c2.2 0 4 1.8 4 4v13.9c0 2.2-1.8 4-4 4z"/>
  <path class="st1" d="M942.8 386.4H837.6c-3.6 0-6.6-3-6.6-6.6v-13.2c0-3.6 3-6.6 6.6-6.6h105.2c3.6 0 6.6 3 6.6 6.6v13.2c-.1 3.6-3 6.6-6.6 6.6zm-105.2-21.9c-1.2 0-2.2 1-2.2 2.2v13.2c0 1.2 1 2.2 2.2 2.2h105.2c1.2 0 2.2-1 2.2-2.2v-13.2c0-1.2-1-2.2-2.2-2.2H837.6zM887.8 264l2.7-3.7c2.9-3.9 17.6-23.3 26.4-19.7 3 1.2 4.5 4 4 7.2-1.6 9.3-15.7 15.4-28.5 16l-4.6.2zm26.7-19.5c-3.1 0-9.9 5.1-17.4 14.4 12.6-1.9 18.9-8.4 19.5-11.9.2-1.2-.2-1.9-1.3-2.3-.3-.1-.5-.2-.8-.2z"/>
  <path class="st1" d="m891.1 264-4.6-.2c-12.8-.6-26.9-6.8-28.5-16-.5-3.2 1-5.9 4-7.2 8.8-3.6 23.6 15.8 26.4 19.7l2.7 3.7zm-26.7-19.5c-.3 0-.6 0-.8.1-1.1.4-1.5 1.1-1.3 2.3.6 3.5 6.9 10 19.5 11.9-7.5-9.2-14.3-14.3-17.4-14.3z"/>
  <path class="st1" d="M890.9 261.6c0 1-.5 1.9-1.2 1.9s-1.2-.8-1.2-1.9c0-1 .5-1.9 1.2-1.9s1.2.9 1.2 1.9z"/>
  <path class="st0" d="m779.8 345.3 5.6-56.7-66.2-9.6-5 50.9c-.6 6.3-6.1 11-12.8 11.1l-5.5.1c-2.6 0-5.1.4-7.4 1.1 5.1 7.3 7.7 16.3 6.7 25.8-.8 8.3-4.2 15.7-9.2 21.5 3 1.3 6.4 2 9.9 2.2l41 1.4c1.9.1 3.8 0 5.7-.2-.9-4-1.3-8.3-.8-12.6 1.8-19.9 18.4-34.8 38-35z"/>
  <path class="st1" d="M693.8 393.7c-3-.3-5.9-1-8.8-2.2l-2.8-1.2 2-2.3c5-5.7 8-12.8 8.7-20.3.8-8.6-1.4-17.3-6.3-24.4l-1.8-2.5 3-.8c2.6-.7 5.3-1.1 8-1.1l5.5-.1c5.6-.1 10.1-4 10.6-9.1l5.2-53.2 70.6 10.2-6 60.8h-2c-18.7.2-34.1 14.4-36 33-.4 4-.1 8 .8 11.9l.6 2.4-2.5.2c-2 .2-4 .3-6 .2l-41-1.4c-.5 0-1.2 0-1.8-.1zm-4.3-5.2c2.1.6 4.2.9 6.3 1l41 1.4h3c-.6-3.6-.7-7.2-.4-10.8 2-20.2 18.3-35.7 38.3-36.9l5.2-52.7-61.9-9-4.8 48.6c-.7 7.4-7.2 13-15 13.1l-5.5.1c-1.3 0-2.6.1-3.9.3 4.3 7.4 6.2 16 5.4 24.6-.6 7.4-3.3 14.3-7.7 20.3z"/>
  <path class="st0" d="m778.5 358.7 1.3-13.3c-19.5.2-36.2 15.1-38.1 35-.4 4.3-.1 8.6.8 12.6 18.9-1.9 34.2-16 36-34.3z"/>
  <path class="st1" d="m740.8 395.3-.4-1.9c-1-4.4-1.3-8.9-.9-13.3 2-20.9 19.4-36.7 40.3-36.9h2.4l-1.5 15.8c-1.9 19-17.8 34.3-38 36.2l-1.9.1zm36.5-47.7c-17.6 1.3-31.8 15.1-33.5 32.9-.3 3.3-.2 6.7.4 10 17.1-2.5 30.5-15.7 32.1-32l1-10.9z"/>
  <g>
    <path class="st0" d="M688.4 342.1c-9.9 2.8-17.4 10.9-18.7 21-1.4 11.5 5.6 22 16.2 26.4 5.1-5.9 8.4-13.3 9.2-21.5 1-9.6-1.6-18.6-6.7-25.9z"/>
    <path class="st1" d="m686.5 392.1-1.5-.6c-11.8-4.9-19-16.7-17.5-28.7 1.3-10.8 9.3-19.7 20.3-22.8l1.5-.4.9 1.3c5.5 8 8 17.7 7.1 27.3-.8 8.5-4.2 16.3-9.8 22.8l-1 1.1zm1-47.4c-8.5 3-14.5 10.2-15.6 18.7-1.2 9.7 4.1 18.9 13.4 23.4 4.4-5.5 7-12.1 7.7-19.1.7-8-1.2-16.2-5.5-23z"/>
  </g>
  <g>
    <path class="st0" d="m791.1 290.2-77.8-7.6c-2.4-.2-4.1-2.3-3.9-4.7l2.4-24.5c.2-2.4 2.3-4.1 4.7-3.9l77.8 7.6c2.4.2 4.1 2.3 3.9 4.7l-2.4 24.5c-.3 2.4-2.4 4.1-4.7 3.9z"/>
    <path class="st1" d="m790.4 292.3-76.9-7.5c-3.8-.4-6.6-3.8-6.2-7.5l2.3-23.6c.4-3.8 3.8-6.6 7.5-6.2L794 255c3.8.4 6.6 3.8 6.2 7.5l-2.3 23.6c-.3 3.8-3.7 6.6-7.5 6.2zm-73.7-40.5c-1.4-.1-2.6.9-2.7 2.3l-2.3 23.6c-.1 1.4.9 2.6 2.3 2.7l76.9 7.5c1.4.1 2.6-.9 2.7-2.3l2.3-23.6c.1-1.4-.9-2.6-2.3-2.7l-76.9-7.5z"/>
  </g>
  <g>
    <path class="st1" d="m752.3 251.9 3.1-3.4c3.2-3.6 19.8-21.4 28.2-17 2.9 1.5 4.1 4.4 3.3 7.5-2.5 9.1-17.2 13.8-29.9 13.2l-4.7-.3zm28.5-16.8c-3.1-.3-10.4 4.1-18.7 12.6 12.7-.7 19.6-6.5 20.5-9.9.3-1.2 0-1.9-1.1-2.5-.2-.1-.4-.1-.7-.2z"/>
    <path class="st1" d="m755.7 252.2-4.5-.7c-12.7-1.8-26.1-9.3-26.8-18.7-.2-3.2 1.5-5.8 4.6-6.7 9.1-2.7 21.9 18 24.4 22.2l2.3 3.9zM731 230.3c-.3 0-.6 0-.8.1-1.1.3-1.6 1-1.5 2.2.3 3.6 5.9 10.6 18.2 13.7-6.6-10-12.8-15.7-15.9-16z"/>
    <path class="st1" d="M755.6 249.8c-.1 1-.7 1.8-1.3 1.8-.6-.1-1.1-1-1-2 .1-1 .7-1.8 1.3-1.8.7.1 1.1 1 1 2z"/>
  </g>
  <g>
    <path class="st1" d="m566.5 215.2 2.1-3.7c2.2-3.9 13.8-23.2 22.2-20.9 2.9.8 4.6 3.2 4.4 6.2-.5 8.7-12.8 15.8-24.5 17.7l-4.2.7zm22.5-20.7c-2.9.3-8.6 5.7-14.5 15 11.4-3.1 16.5-9.7 16.6-13 .1-1.1-.4-1.7-1.4-2h-.7z"/>
    <path class="st1" d="m569.6 214.9-4.2.3c-11.8.8-25.5-3.4-27.9-11.7-.8-2.9.3-5.6 2.9-7 7.7-4.2 23.3 12 26.4 15.3l2.8 3.1zM543 199.8c-.3 0-.5.1-.7.2-1 .5-1.2 1.2-.9 2.3.9 3.2 7.4 8.5 19.1 8.9-7.8-7.8-14.6-11.7-17.5-11.4z"/>
    <path class="st1" d="M569.1 212.7c.1 1-.3 1.8-.9 1.9-.6.1-1.2-.7-1.3-1.6-.1-1 .3-1.8.9-1.9.6-.1 1.2.7 1.3 1.6z"/>
    <g>
      <path class="st0" d="m641.6 329.3-121.4 13.9c-2.1.2-4.1-1.3-4.3-3.4l-10.1-87.9L635 237l10.1 87.9c.2 2.2-1.4 4.1-3.5 4.4z"/>
      <path class="st1" d="m641.8 331.3-121.2 13.9c-3.3.4-6.3-2-6.7-5.3L503.5 250l133.2-15.3 10.3 89.9c.4 3.3-1.9 6.3-5.2 6.7zm-133.7-77.7 9.8 85.8c.1 1.1 1.1 1.8 2.2 1.7l121.2-13.9c1.1-.1 1.8-1.1 1.7-2.2l-9.8-85.8-125.1 14.4z"/>
      <path class="st0" d="M639.6 247.4 504 262.9c-2.9.3-5.5-1.7-5.8-4.6l-3.2-28c-.3-2.9 1.7-5.5 4.6-5.8l135.6-15.6c2.9-.3 5.5 1.7 5.8 4.6l3.2 28c.3 2.9-1.7 5.5-4.6 5.9z"/>
      <path class="st1" d="m639.7 249.4-135.4 15.5c-4 .5-7.7-2.5-8.2-6.5l-3.2-27.8c-.5-4 2.5-7.7 6.5-8.2l135.4-15.5c4-.5 7.7 2.5 8.2 6.5l3.2 27.8c.5 4.1-2.4 7.7-6.5 8.2zm-139.8-22.9c-1.8.2-3.1 1.9-2.9 3.7l3.2 27.8c.2 1.8 1.9 3.1 3.7 2.9l135.4-15.5c1.8-.2 3.1-1.9 2.9-3.7l-3.2-27.8c-.2-1.8-1.9-3.1-3.7-2.9l-135.4 15.5z"/>
      <g>
        <path transform="rotate(-6.536 572.904 276.516)" class="st0" d="M554.9 216.6h35.8v120.1h-35.8z"/>
        <path class="st1" d="m599.7 336-39.6 4.5-14.2-123.3 39.6-4.5L599.7 336zm-36.1 0 31.5-3.6-13.2-115.2-31.5 3.6L563.6 336z"/>
      </g>
    </g>
  </g>
  <g>
    <path class="st1" d="m398.2 219.7 2.7-3.7c2.9-3.9 17.6-23.3 26.4-19.7 3 1.2 4.5 4 4 7.2-1.6 9.3-15.7 15.4-28.5 16l-4.6.2zm26.7-19.5c-3.1 0-9.9 5.1-17.4 14.4 12.6-1.9 18.9-8.4 19.5-11.9.2-1.2-.2-1.9-1.3-2.3-.3-.1-.5-.2-.8-.2z"/>
    <path class="st1" d="m401.6 219.7-4.6-.2c-12.8-.6-26.9-6.8-28.5-16-.5-3.2 1-5.9 4-7.2 8.8-3.6 23.6 15.8 26.4 19.7l2.7 3.7zm-26.8-19.5c-.3 0-.6 0-.8.1-1.1.4-1.5 1.1-1.3 2.3.6 3.5 6.9 10 19.5 11.9-7.4-9.2-14.2-14.3-17.4-14.3z"/>
    <path class="st1" d="M401.3 217.3c0 1-.5 1.9-1.2 1.9-.6 0-1.2-.8-1.2-1.9s.5-1.9 1.2-1.9c.6 0 1.2.9 1.2 1.9z"/>
    <g>
      <path class="st0" d="M389.9 359h21.6v29.7h-21.6z"/>
      <path class="st1" d="M413.7 390.9h-26v-34.1h26v34.1zm-21.6-4.4h17.2v-25.3h-17.2v25.3z"/>
      <path class="st0" d="M439.9 323.3h7.9c1.7 0 2.8-1.9 1.9-3.4L427 282.7c-.9-1.5.2-3.4 1.9-3.4h6.2c1.8 0 2.8-2 1.9-3.4L402.1 222c-.9-1.4-2.9-1.4-3.8 0l-33.9 53.9c-.9 1.5.1 3.4 1.9 3.4h6.2c1.7 0 2.8 1.9 1.9 3.4l-22.7 37.2c-.9 1.5.2 3.4 1.9 3.4h7.9c1.7 0 2.8 1.9 1.9 3.4l-21.8 36.4c-.9 1.5.2 3.4 1.9 3.4h114.1c1.7 0 2.8-1.9 1.9-3.4L438 326.7c-.9-1.5.1-3.4 1.9-3.4z"/>
      <path class="st1" d="M457.8 368.7H343.6c-1.6 0-3.1-.8-3.9-2.2-.8-1.4-.8-3.1.1-4.5l21.8-36.4-7.9-.1c-1.6 0-3.1-.9-3.9-2.3-.8-1.4-.7-3.1.1-4.5l22.7-37.2-6.2-.1c-1.6 0-3.1-.9-3.9-2.3-.8-1.4-.7-3.1.1-4.5l33.9-53.9c.8-1.3 2.2-2.1 3.7-2.1s2.9.8 3.7 2l34.7 53.9c.9 1.4.9 3.1.2 4.5-.8 1.4-2.3 2.3-3.9 2.3h-6.2l22.7 37.2c.8 1.4.9 3.1.1 4.5s-2.3 2.3-3.9 2.3h-7.9l21.8 36.5c.8 1.4.8 3.1.1 4.5-.7 1.6-2.2 2.4-3.8 2.4zm-57.5-145.5-34 53.9 6.2.1c1.6 0 3.1.9 3.9 2.3.8 1.4.8 3.1-.1 4.5l-22.7 37.2 7.9.1c1.6 0 3.1.8 3.8 2.2.8 1.4.8 3.1 0 4.5l-21.8 36.4 57.1.1h57.2L436.1 328c-.8-1.4-.8-3.1 0-4.5s2.2-2.2 3.8-2.2h7.9l-22.7-37.2c-.8-1.4-.9-3.1-.1-4.5s2.3-2.3 3.9-2.3h6.2l-34.8-54.1z"/>
      <g>
        <path class="st0" d="M354.5 343.6s59-2.6 81.6-44"/>
        <path class="st1" d="m354.6 345.8-.2-4.4c.6 0 58-3.1 79.8-42.8l3.9 2.1c-9.5 17.4-27 30.7-50.5 38.5-17.8 5.9-32.4 6.6-33 6.6z"/>
      </g>
      <g>
        <path class="st0" d="M381.8 248.3s11.1 34.8 46.6 37.9"/>
        <path class="st1" d="M428.3 288.4c-36.6-3.3-48.4-39.1-48.5-39.4l4.2-1.3-2.1.7 2.1-.7c0 .3 11 33.3 44.6 36.3l-.3 4.4z"/>
      </g>
    </g>
  </g>
  <g>
    <path class="st1" d="m1043.1 225.9 3.5-3c3.7-3.2 22.5-18.6 30.2-13.1 2.6 1.9 3.5 4.9 2.2 7.9-3.6 8.7-18.8 11.4-31.4 9.1l-4.5-.9zm30.4-12.8c-3-.7-10.8 2.7-20.2 10 12.7 1 20.3-3.9 21.7-7.1.5-1.1.3-1.9-.7-2.6-.2-.1-.5-.2-.8-.3z"/>
    <path class="st1" d="m1046.4 226.7-4.4-1.3c-12.3-3.5-24.7-12.7-24.1-22.1.2-3.2 2.3-5.6 5.5-6.1 9.4-1.5 19.3 20.7 21.2 25.2l1.8 4.3zm-21.6-25c-.3-.1-.5-.1-.8 0-1.2.2-1.7.8-1.8 2-.2 3.6 4.4 11.3 16.2 16-5.1-10.8-10.6-17.3-13.6-18z"/>
    <path class="st1" d="M1046.7 224.3c-.2 1-.9 1.7-1.6 1.6-.6-.1-.9-1.1-.7-2.1.2-1 .9-1.7 1.6-1.6.6.2.9 1.1.7 2.1z"/>
    <g>
      <path class="st0" d="M1034.4 420c.1 0 .3.1.4.1 8.7 1.6 17.1-4.1 19.1-12.7l3.7-15.7c-13.6 5-26.1 7.4-35.9 8.5-1.9 9 3.7 18 12.7 19.8z"/>
      <path class="st1" d="M1033.5 422c-4.6-1.1-8.5-3.8-11.2-7.8-2.8-4.2-3.8-9.4-2.7-14.4l.3-1.6 1.6-.2c12.1-1.3 24-4.2 35.4-8.4l3.8-1.4-4.6 19.7c-2.3 9.8-11.8 16.1-21.6 14.3l-.5-.1c-.2 0-.4 0-.5-.1zm-9.9-19.7c-.3 3.3.5 6.7 2.3 9.5 2.1 3.2 5.2 5.3 8.9 6.1l.4.1c7.5 1.4 14.8-3.4 16.5-11l2.7-11.7c-9.9 3.3-20.2 5.7-30.8 7z"/>
      <path class="st0" d="M1065.4 235.5c-6-4.6-14-8-24.6-9.2-31-3.6-50.8 14.5-58.7 32.5 8.4.4 45.9.8 83.3-23.3z"/>
      <path class="st1" d="m978.8 260.8 1.3-2.9c8.3-18.8 28.6-37.5 61-33.8 10.2 1.2 18.8 4.4 25.7 9.6l2.5 1.9-2.6 1.7c-38.3 24.7-77.2 24-84.7 23.7l-3.2-.2zm68.6-31.1c-2.2-.5-4.5-.9-6.9-1.2-28.3-3.2-46.6 11.9-55.1 28.2 11.6.1 43.7-1.5 75.9-21.3-3.9-2.6-8.6-4.5-13.9-5.7z"/>
      <path class="st0" d="M1029 370.1c-2.8 11.8-5.4 22.3-7.2 29.6 0 .2-.1.3-.1.5 9.8-1.1 22.3-3.5 35.9-8.5l7.8-33.5c-13.1 6.3-25.7 9.9-36.4 11.9z"/>
      <path class="st1" d="m1019 402.8.6-3.1c0-.2.1-.3.1-.5 1.8-7.3 4.3-17.8 7.1-29.6l.3-1.4 1.4-.3c12.5-2.4 24.6-6.3 35.9-11.7l4.1-2-9.1 39.1-1.1.4c-11.7 4.4-24 7.3-36.4 8.6l-2.9.5zm11.8-30.8c-2.4 10-4.6 18.9-6.2 25.7 10.6-1.4 21.1-4 31.2-7.6l6.5-28c-10.1 4.5-20.6 7.8-31.5 9.9z"/>
      <path class="st0" d="M1081.2 291.2c.4-1.6.7-3.2.9-4.8-12.9 9.7-26 16.3-38.3 20.7-2.2 9.7-4.8 20.8-7.4 32 11.5-3.1 24.3-8 37.3-15.8l7.5-32.1z"/>
      <path class="st1" d="m1033.4 342.2.8-3.6c2.9-12.3 5.4-23.1 7.4-32l.3-1.2 1.1-.4c13.6-4.9 26.3-11.7 37.7-20.3l4.4-3.3-.9 5.4c-.3 1.9-.6 3.4-1 4.9l-7.7 33-.8.5c-11.7 7-24.4 12.4-37.8 16.1l-3.5.9zm12.3-33.5c-1.8 7.8-3.9 17-6.3 27.3 11.4-3.4 22.3-8.1 32.4-14.1l7.1-30.4c-10.3 7.1-21.4 12.8-33.2 17.2z"/>
      <g>
        <path class="st0" d="M1078.8 253.3c-2.6-6.5-6.8-12.9-13.3-17.8-37.4 24.2-75 23.7-83.4 23.3-1 2.3-1.8 4.6-2.5 6.8-3.3 11.8 6.5 23.1 18.6 21.6h.3c6.6-.8 11.9-5.8 13.2-12.3v-.1c2.9-15.7 30.8-19.2 36.3-1.8 10.2-4.9 20.7-11.3 30.8-19.7z"/>
        <path class="st1" d="M991.8 289.1c-4-.9-7.6-3.1-10.3-6.3-4.2-4.9-5.7-11.5-4-17.8.7-2.4 1.5-4.8 2.6-7.1l.6-1.4 1.5.1c7.2.4 44.9 1 82-23l1.3-.8 1.2.9c6.2 4.7 10.9 11 14 18.7l.6 1.5-1.2 1c-9.5 7.9-20 14.6-31.2 20l-2.3 1.1-.8-2.4c-2.6-8-10.2-10.4-16.4-10-6.6.4-14.3 4.2-15.6 11.6v.1c-1.4 7.5-7.5 13.2-15 14.1h-.3c-2.3.3-4.6.2-6.7-.3zm-8.3-28.1c-.7 1.7-1.3 3.5-1.8 5.2-1.3 4.9-.2 9.9 3.1 13.7 3.3 3.9 8.1 5.7 13.2 5.1h.3c5.7-.7 10.2-4.9 11.3-10.5v-.1c1.5-8.3 9.6-14.5 19.7-15.2 9-.6 16.6 3.6 20 10.7 9.6-4.8 18.6-10.6 26.9-17.3-2.6-5.8-6.2-10.7-10.8-14.5-35.8 22.6-71.8 23.2-81.9 22.9z"/>
      </g>
      <g>
        <path class="st0" d="M1073.6 323.3c-12.9 7.8-25.8 12.7-37.3 15.8-2.5 10.6-5 21.3-7.4 31.1 10.8-2 23.4-5.6 36.5-11.9l8.2-35z"/>
        <path class="st1" d="m1026 372.9.8-3.3c2.3-9.8 4.9-20.5 7.4-31.1l.3-1.3 1.3-.3c13-3.5 25.4-8.8 36.7-15.6l4.5-2.7-9.6 41.1-1 .5c-11.7 5.6-24.1 9.6-37 12l-3.4.7zm12.2-32.1c-2.1 9-4.3 18-6.3 26.5 11-2.3 21.6-5.9 31.6-10.6l6.8-29.1c-10 5.7-20.8 10.1-32.1 13.2z"/>
      </g>
      <g>
        <path class="st0" d="M1082.1 286.4c1.2-7.3 1.2-14.7-.1-22-.7-3.6-1.7-7.4-3.2-11.1-10.1 8.4-20.5 14.8-30.7 19.7 1.1 3.5 1.4 7.8.3 13.1-1.1 5.4-2.7 12.7-4.6 21 12.2-4.5 25.4-11 38.3-20.7z"/>
        <path class="st1" d="m1040.8 310.4.9-3.9c2-8.8 3.5-15.9 4.5-20.9.9-4.6.9-8.6-.2-12l-.6-1.8 1.7-.8c10.9-5.2 21.1-11.7 30.3-19.4l2.3-1.9 1.1 2.8c1.5 3.6 2.6 7.5 3.3 11.5 1.3 7.3 1.4 14.9.1 22.7l-.1.9-.7.5c-11.8 8.9-24.8 15.9-38.9 21l-3.7 1.3zm9.8-36.3c.8 3.7.8 7.8-.1 12.4-.9 4.3-2.1 10-3.7 17 11.9-4.6 23.1-10.8 33.2-18.4 1-7 1-13.8-.2-20.4-.5-2.7-1.2-5.4-2-7.9-8.4 6.8-17.5 12.6-27.2 17.3z"/>
      </g>
    </g>
  </g>
  <g>
    <circle transform="rotate(-72.77 70.584 296.187)" class="st0" cx="70.6" cy="296.2" r="68.4"/>
    <path class="st1" d="M75.9 366.6c-38.8 2.9-72.8-26.2-75.7-65-2.9-38.8 26.2-72.8 65-75.7 38.8-2.9 72.8 26.2 75.7 65 3 38.8-26.1 72.7-65 75.7zM65.6 230.2c-36.4 2.8-63.8 34.6-61 71 2.8 36.4 34.6 63.8 71 61 36.4-2.8 63.8-34.6 61-71-2.8-36.4-34.6-63.8-71-61z"/>
    <path class="st0" d="M70.3 201.3c.3 4.2-2.8 7.8-7 8.1-4.2.3-7.8-2.8-8.1-7-.3-4.2 2.8-7.8 7-8.1 4.1-.2 7.7 2.9 8.1 7z"/>
    <path class="st1" d="M63.4 211.7c-5.4.4-10.1-3.6-10.5-9-.4-5.4 3.6-10.1 9-10.5 5.4-.4 10.1 3.6 10.5 9 .4 5.3-3.6 10-9 10.5zm-1.1-15.1c-3 .2-5.2 2.8-5 5.8.2 3 2.8 5.2 5.8 5 3-.2 5.2-2.8 5-5.8-.3-3-2.8-5.3-5.8-5z"/>
    <g>
      <path class="st0" d="m81.5 227.6-34 2.6c-1.5.1-2.8-1-2.9-2.5l-.9-12.3c-.1-1.5 1-2.8 2.5-2.9l34-2.6c1.5-.1 2.8 1 2.9 2.5l.9 12.3c.2 1.5-1 2.8-2.5 2.9z"/>
      <path class="st1" d="M81.4 229.8 48 232.4c-2.9.2-5.4-1.9-5.6-4.8l-.9-11.8c-.2-2.9 1.9-5.4 4.8-5.6l33.4-2.5c2.9-.2 5.4 1.9 5.6 4.8l.9 11.8c.2 2.8-1.9 5.3-4.8 5.5zm-34.8-15.2c-.5 0-.8.4-.8.9l.9 11.8c0 .5.4.8.9.8l33.4-2.5c.5 0 .8-.4.8-.9l-.9-11.8c0-.5-.4-.8-.9-.8l-33.4 2.5z"/>
    </g>
    <g>
      <path class="st1" d="m60.9 194.7 2.4-3.9c2.6-4.1 15.8-24.5 24.9-21.6 3.1 1 4.8 3.6 4.5 6.8-.9 9.4-14.5 16.6-27.2 18.1l-4.6.6zM86 173.3c-3.1.2-9.5 5.8-16.3 15.6 12.4-2.9 18.2-9.8 18.5-13.3.1-1.2-.3-1.9-1.5-2.2-.1-.1-.4-.1-.7-.1z"/>
      <path class="st1" d="m64.3 194.5-4.6.1c-12.8.4-27.4-4.7-29.6-13.8-.8-3.2.5-6 3.4-7.4 8.5-4.2 24.7 13.9 27.8 17.6l3 3.5zm-28.2-17.4c-.3 0-.5.1-.8.2-1.1.5-1.4 1.3-1.1 2.4.9 3.5 7.6 9.4 20.3 10.4-8.1-8.7-15.3-13.3-18.4-13z"/>
      <path class="st1" d="M63.8 192.1c.1 1-.4 1.9-1 2-.6 0-1.2-.8-1.3-1.8-.1-1 .4-1.9 1-2 .6 0 1.2.8 1.3 1.8z"/>
    </g>
    <path class="st1" d="M59.4 0h7v192.3h-7z"/>
  </g>
  <g>
    <path class="st1" d="m269.9 161.5 3.2-3.3c3.3-3.5 20.4-20.9 28.7-16.3 2.8 1.6 4 4.5 3.1 7.6-2.7 9-17.5 13.3-30.3 12.4l-4.7-.4zm28.9-16c-3.1-.4-10.5 3.8-19 12.1 12.7-.3 19.8-6 20.8-9.4.4-1.2.1-1.9-1-2.5-.2-.1-.5-.2-.8-.2z"/>
    <path class="st1" d="m273.3 161.9-4.5-.8c-12.6-2.2-25.9-10-26.3-19.4-.1-3.2 1.7-5.8 4.8-6.6 9.2-2.5 21.4 18.6 23.8 22.8l2.2 4zm-24.1-22.6h-.8c-1.2.3-1.6 1-1.6 2.2.2 3.6 5.6 10.8 17.8 14.2-6.2-10.1-12.3-16-15.4-16.4z"/>
    <path class="st1" d="M273.3 159.5c-.1 1-.7 1.8-1.4 1.7-.6-.1-1-1-.9-2 .1-1 .7-1.8 1.4-1.7.6.1 1 1 .9 2z"/>
    <g>
      <path class="st0" d="M300.4 258.8s11-22.9 3.3-50.4c-7.6-27.5-3.4-38 18.9-39.6l1-13.9s-136.2 5.8-134.6 93.6l111.4 10.3z"/>
      <path class="st1" d="M186.8 250.6v-2c-.7-36.9 22.9-65.2 68.2-81.8 33.8-12.4 68.2-14 68.6-14l2.5-.1-1.3 18.2-1.9.1c-9.2.7-14.9 2.9-17.8 7-3.7 5.3-3.5 14.5.8 29.8 7.8 27.9-3 50.9-3.5 51.9l-.7 1.4-114.9-10.5zm134.4-93.3c-8.4.6-36.9 3.3-64.9 13.6-43.1 15.8-65 41.3-65.2 75.6l107.8 9.9c2.1-5.3 8.9-24.9 2.6-47.5-4.7-17-4.8-27-.2-33.5 3.5-4.9 9.6-7.7 19.1-8.7l.8-9.4z"/>
      <path class="st0" d="m302.6 304.8-124.2-15.5c-2.6-.3-4.4-2.7-4.1-5.2l4.3-34.2c.3-2.6 2.7-4.4 5.2-4.1L308 261.3c2.6.3 4.4 2.7 4.1 5.2l-4.3 34.2c-.3 2.6-2.6 4.4-5.2 4.1z"/>
      <path class="st1" d="m301.9 306.9-123.3-15.4c-4-.5-6.9-4.2-6.4-8.2l4.1-33.3c.5-4 4.2-6.9 8.2-6.4L307.8 259c4 .5 6.9 4.2 6.4 8.2l-4.1 33.3c-.5 4-4.2 6.9-8.2 6.4zM184 248c-1.6-.2-3.1.9-3.3 2.6l-4.1 33.3c-.2 1.6.9 3.1 2.6 3.3l123.3 15.4c1.6.2 3.1-.9 3.3-2.6l4.1-33.3c.2-1.6-.9-3.1-2.6-3.3L184 248z"/>
      <g>
        <circle transform="rotate(-35.931 332.89 157.628)" class="st0" cx="332.9" cy="157.6" r="16.8"/>
        <path class="st1" d="M330.5 176.5c-10.4-1.3-17.8-10.8-16.5-21.2 1.3-10.4 10.8-17.8 21.2-16.5 10.4 1.3 17.8 10.8 16.5 21.2-1.3 10.4-10.8 17.8-21.2 16.5zm4.2-33.4c-8-1-15.3 4.7-16.3 12.7-1 8 4.7 15.3 12.7 16.3 8 1 15.3-4.7 16.3-12.7 1-8-4.7-15.3-12.7-16.3z"/>
      </g>
    </g>
    <path class="st1" d="M268.6 0h7v160.5h-7z"/>
  </g>
  <path class="st1" d="M396.8 0h7v219.7h-7zM563.3 0h7v214.2h-7zM751.8 0h7v250.4h-7zM886.6 0h7v263.5h-7zM1042.2 0h7v227.3h-7z"/>
  <g>
    <path class="st1" d="M31.5 305.9c1.5-.2 2.5-1.4 2.6-2.8l7.8-1.2-4.7 6.5 1.2.9 5.6-7.7 4.1-.6-4.7 6.5 1.2.9 5.6-7.7 4.1-.6-4.7 6.5 1.2.9 5.6-7.7 1.7-.3c.6 2.8 2.1 5.2 4.1 7l-1 1.3-9.4 1.5.2 1.5 7.9-1.2-2.4 3.3-9.4 1.5.2 1.5 7.9-1.2-2.4 3.3-9.4 1.5.2 1.5 7.9-1.2-4.7 6.4c-1.3-.5-2.8-.1-3.7 1.1-1 1.4-.7 3.4.7 4.4 1.4 1 3.4.7 4.4-.7.9-1.2.8-2.8-.1-3.9l4.7-6.4 1.2 7.9 1.5-.2L55 319l2.4-3.3 1.2 7.9 1.5-.2-1.5-9.4 2.4-3.3 1.2 7.9 1.5-.2-1.5-9.4 1-1.3c2.3 1.5 5 2.3 7.9 2l.2 1.5-5.6 7.7 1.2.9 4.7-6.5.6 4.1-5.6 7.7 1.2.9 4.7-6.5.6 4.1-5.6 7.7 1.2.9 4.7-6.5 1.2 7.8c-1.3.5-2.1 1.9-1.9 3.4.3 1.7 1.9 2.9 3.6 2.6 1.7-.3 2.9-1.9 2.6-3.6-.2-1.5-1.4-2.5-2.8-2.6l-1.2-7.8 6.5 4.7.9-1.2-7.7-5.6-.6-4.1 6.5 4.7.9-1.2-7.7-5.6-.6-4.1 6.5 4.7.9-1.2-7.7-5.6.2-2c2.8-.6 5.2-2.2 7-4.3l1.3 1 1.5 9.4 1.5-.2-1.2-7.9 3.3 2.4 1.5 9.4 1.5-.2-1.2-7.9 3.3 2.4 1.5 9.4 1.5-.2-1.2-7.9 6.4 4.7c-.5 1.3-.1 2.8 1.1 3.7 1.4 1 3.4.7 4.4-.7 1-1.4.7-3.4-.7-4.4-1.2-.9-2.8-.8-3.9.1l-6.4-4.7 7.9-1.2-.2-1.5-9.4 1.5-3.3-2.4 7.9-1.2-.2-1.5-9.4 1.5-3.3-2.4 7.9-1.2-.2-1.5-9.4 1.5-1.3-1c1.4-2.3 2.2-5.1 1.8-7.9l1.7-.3 7.7 5.7.9-1.2-6.5-4.7 4.1-.6 7.7 5.7.9-1.2-6.5-4.7 4.1-.6 7.7 5.7.9-1.2L99 293l7.8-1.2c.5 1.3 1.9 2.1 3.4 1.9 1.7-.3 2.9-1.9 2.6-3.6-.3-1.7-1.9-2.9-3.6-2.6-1.5.2-2.5 1.4-2.6 2.8l-7.8 1.2 4.7-6.5-1.2-.9-5.7 7.7-4.1.6 4.7-6.5-1.2-.9-5.7 7.7-4.1.6 4.7-6.5-1.2-.9-5.7 7.7-1.7.3c-.6-2.7-2.2-5.1-4.3-6.8l1.1-1.5 9.4-1.4-.2-1.5-7.9 1.2 2.4-3.3 9.4-1.4-.2-1.5-7.9 1.2 2.4-3.3 9.4-1.4-.2-1.5-7.9 1.2 4.7-6.4c1.3.5 2.8.1 3.7-1 1-1.4.7-3.4-.7-4.4-1.4-1-3.4-.7-4.4.7-.9 1.2-.8 2.8.1 3.9l-4.7 6.4-1.2-7.9-1.5.2 1.4 9.4-2.4 3.3-1.2-7.9-1.5.2 1.4 9.4-2.4 3.3-1.2-7.9-1.5.2 1.4 9.4-1.1 1.5c-2.2-1.4-4.9-2.1-7.7-1.8l-.3-1.9 5.7-7.7-1.2-.9-4.7 6.5-.6-4.1 5.7-7.7-1.2-.9-4.7 6.5-.6-4.1 5.7-7.7-1.2-.9-4.7 6.5-1.2-7.8c1.3-.5 2.1-1.9 1.9-3.4-.3-1.7-1.9-2.9-3.6-2.6-1.7.3-2.9 1.9-2.6 3.6.2 1.5 1.4 2.5 2.8 2.6l1.2 7.8-6.5-4.7-.9 1.2 7.7 5.7.6 4.1-6.5-4.7-.9 1.2 7.7 5.7.6 4.1-6.5-4.7-.9 1.2 7.7 5.7.3 1.9c-2.7.6-5.1 2.1-6.8 4.1l-1.5-1.1-1.4-9.4-1.5.2 1.2 7.9-3.3-2.4-1.4-9.4-1.5.2 1.2 7.9-3.3-2.4-1.4-9.4-1.5.2 1.2 7.9-6.4-4.7c.5-1.3.1-2.8-1-3.7-1.4-1-3.4-.7-4.4.7s-.7 3.4.7 4.4c1.2.9 2.8.8 3.9-.1l6.4 4.7-7.9 1.2.2 1.5 9.4-1.4 3.3 2.4-7.9 1.2.2 1.5 9.4-1.4L57 288l-7.9 1.2.2 1.5 9.4-1.4 1.5 1.1c-1.4 2.2-2.2 4.9-2 7.7l-1.7.3-7.7-5.6-.9 1.2 6.5 4.7-4.1.6-7.7-5.6-.9 1.2 6.5 4.7-4.1.6-7.7-5.6-.9 1.2 6.5 4.7-7.8 1.2c-.5-1.3-1.9-2.1-3.4-1.9-1.7.3-2.9 1.9-2.6 3.6s1.6 2.7 3.3 2.5zm27.8-6.8 6.1-.9c.2.9.7 1.6 1.2 2.2l-3.6 5c-1.8-1.6-3.2-3.8-3.7-6.3zm4.9 7.2 3.6-5c.8.4 1.6.7 2.5.7l1 6.1c-2.6.2-5-.5-7.1-1.8zm8.6 1.6-1-6.1c.9-.3 1.6-.7 2.2-1.4l5 3.6c-1.5 1.9-3.6 3.3-6.2 3.9zm7.2-5.1-5-3.6c.4-.8.6-1.7.6-2.6l6.1-.9c.2 2.5-.4 5-1.7 7.1zm1.4-8.6-6.1.9c-.3-.8-.8-1.5-1.3-2l3.6-5c1.8 1.5 3.2 3.6 3.8 6.1zm-5.1-7-3.7 5c-.7-.3-1.5-.5-2.3-.5l-.9-6.1c2.5-.2 4.9.4 6.9 1.6zm-8.4-1.4.9 6.1c-.8.2-1.5.7-2 1.2l-5-3.6c1.5-1.8 3.6-3.1 6.1-3.7zm-7 4.9 5 3.6c-.4.7-.6 1.5-.6 2.3l-6.1 1c-.2-2.5.4-4.9 1.7-6.9z"/>
  </g>
</svg>
