<svg version="1.1" id="Layer_1" xmlns="http://www.w3.org/2000/svg" xmlns:xlink="http://www.w3.org/1999/xlink" x="0" y="0" viewBox="0 0 600 600" xml:space="preserve">
  <style>
    .st0{fill:#fff}.st1{clip-path:url(#SVGID_2_)}
  </style>
  <path class="st0" d="M412.8 394h3.3v1h-1.4v26.5h1.4v1h-4.9v-1h1.4V400l.2-2.8h-.2l-1 2.2-8.1 13.9h-1.8l-8.2-13.9-.9-2.1h-.2l.2 2.7v21.5h1.3v1h-4.8v-1h1.4V395h-1.4v-1h3.2l10.2 17.3 10.3-17.3zM435.3 422.4h-15.6v-1h1.3v-26.5h-1.3v-1h15v3.2h-2v-2.3h-9.6v9.9h7.4v3.3h-2.1v-2.4h-5.3v15.7h10.1V419h2v3.4zM452.6 421.5h1.3v.9h-3.4v-8.8c0-4.3-2.9-7.8-6.8-7.8h-1.3v15.7h1.3v.9h-4.8v-.9h1.4v-26.7h-1.4v-.8h5.4c3.8 0 6.5 2.4 6.5 5.9 0 2.8-2.1 4.8-4.8 5.6v.1c4.3.9 6.5 4.1 6.5 8.2v7.7zm-8.3-16.6c2.7-.1 4.5-2.3 4.5-5.1 0-2.9-1.9-4.9-4.5-4.9h-1.9v10h1.9zM471.2 421.5h1.3v.9h-3.4v-8.8c0-4.3-2.9-7.8-6.8-7.8H461v15.7h1.3v.9h-4.8v-.9h1.4v-26.7h-1.4v-.8h5.4c3.8 0 6.5 2.4 6.5 5.9 0 2.8-2.1 4.8-4.8 5.6v.1c4.3.9 6.5 4.1 6.5 8.2v7.7zm-8.3-16.6c2.7-.1 4.5-2.3 4.5-5.1 0-2.9-1.9-4.9-4.5-4.9H461v10h1.9zM487.4 394h4.8v1h-1.6l-7.1 13.8v12.8h1.4v.9H480v-.9h1.3v-12.9l-7.3-13.8h-1.5v-1h4.9v1h-1.5l5.2 9.7 1.3 2.4h.3l1.1-2.5 4.9-9.6h-1.3v-.9z"/>
  <g>
    <path class="st0" d="M342.7 461.7c-2.6 4.3-6.2 6.8-11.4 6.8-10.7 0-14.5-10-14.5-18.9 0-9.5 4.5-18.9 14.5-18.9 5.3 0 9 2.7 11.4 6.8h-2.6c-2-3.7-5.2-5.6-8.8-5.6-8.3 0-11.8 9.8-11.8 17.6 0 8.1 3.4 17.8 11.8 17.8 4.1 0 7.1-2.3 8.8-5.6h2.6zM366.9 445v-12.6h-1.6v-1.2h6v1.2h-1.8V466h1.8v1.2h-6V466h1.6v-19.7h-15.2V466h1.7v1.2h-6.1V466h1.7v-33.6h-1.7v-1.2h6.1v1.2h-1.7V445h15.2zM393.3 466.1h1.6v1.2h-4.3v-11.1c0-5.5-3.6-9.9-8.7-9.9h-1.6v19.9h1.7v1.2h-6v-1.2h1.8v-33.8H376v-1.2h6.8c4.9 0 8.3 3.1 8.3 7.4 0 3.6-2.7 6.1-6 7v.2c5.4 1.1 8.3 5.3 8.3 10.4v9.9zM382.8 445c3.4-.1 5.6-2.9 5.6-6.4 0-3.7-2.4-6.3-5.6-6.3h-2.4V445h2.4zM405.7 467.3h-6.1v-1.2h1.7v-33.6h-1.7v-1.2h6.1v1.2h-1.8v33.6h1.8v1.2zM425.9 436.3c-.4-2.9-2.1-5.1-4.8-5.1-3.3 0-4.9 3.1-4.9 6.4 0 9.4 15.2 7.5 15.2 19.3 0 6.3-3.8 11.3-10.7 11.3-6.3 0-10.4-4.8-10.4-10.6 0-2.3 1-5.4 3-7.2h2.5c-2.1 2.1-2.9 4.9-2.9 7.2 0 4.9 2.9 9.4 7.8 9.4 5.5 0 8-4.8 8-10.1 0-12-15.2-9.7-15.2-19.3 0-4.3 2.8-7.6 7.6-7.6 4.1 0 7 2.6 7.3 6.3h-2.5zM455.6 431.2v4.1H453v-2.9h-7v33.7h1.8v1.2h-6.2v-1.2h1.8v-33.7h-7v2.9h-2.6v-4.1h21.8zM489.4 431.2h4.2v1.2h-1.8V466h1.8v1.2h-6.2V466h1.8v-27.3l.3-3.6h-.3l-1.2 2.8-10.2 17.6h-2.3L465 438l-1.2-2.6h-.3l.3 3.4v27.3h1.7v1.2h-6.1v-1.2h1.8v-33.6h-1.8v-1.2h4.1l13 22 12.9-22.1zM520.5 451.1h4.2v1.2h-3.8l4.8 13.7h1.9v1.2h-6.2V466h1.6l-4.7-13.7h-10.8v-1.2h10.4l-4.8-14.1-.8-3.6h-.3l-.8 3.6-10.1 29h1.7v1.2h-6.2V466h1.9l12.2-34.7h3.1l6.7 19.8zM546.7 436.3c-.4-2.9-2.1-5.1-4.8-5.1-3.3 0-4.9 3.1-4.9 6.4 0 9.4 15.2 7.5 15.2 19.3 0 6.3-3.8 11.3-10.7 11.3-6.3 0-10.4-4.8-10.4-10.6 0-2.3 1-5.4 3-7.2h2.5c-2.1 2.1-2.9 4.9-2.9 7.2 0 4.9 2.9 9.4 7.8 9.4 5.5 0 8-4.8 8-10.1 0-12-15.2-9.7-15.2-19.3 0-4.3 2.8-7.6 7.6-7.6 4.1 0 7 2.6 7.3 6.3h-2.5z"/>
  </g>
  <g>
    <path class="st0" d="m358.3 483.5-.9-.9c-.6.6-1.3.9-2.2.9-.4 0-.8-.1-1.2-.2-.4-.1-.6-.3-.8-.6-.2-.3-.3-.6-.3-.9 0-.4.1-.8.4-1.1.2-.3.7-.6 1.2-1-.3-.3-.5-.6-.6-.8-.1-.2-.2-.5-.2-.7 0-.4.2-.8.5-1.1.3-.3.8-.4 1.3-.4s.9.1 1.2.4c.3.2.4.6.4 1 0 .3-.1.6-.3.9-.2.3-.6.5-1.1.8l1.6 1.6c.2-.4.3-.8.4-1.2l.7.2c-.1.6-.3 1.1-.6 1.5l.9.9-.4.7zm-1.4-1.4-1.9-1.9c-.5.3-.8.5-1 .7-.2.2-.3.5-.3.7 0 .3.1.6.4.8.3.2.6.3 1.1.3.8 0 1.3-.2 1.7-.6zm-2.1-4.5c-.2.1-.3.3-.3.6 0 .2 0 .3.1.5s.3.4.5.6c.4-.2.7-.5.9-.6.2-.2.3-.4.3-.6 0-.2-.1-.4-.2-.5-.2-.1-.4-.2-.6-.2-.3 0-.5 0-.7.2zM376.4 476.8v6.6h-.9v-3h-3.8v3h-.9v-6.6h.9v2.9h3.8v-2.9h.9zM386.7 481.7h-3.5l-.7 1.7h-1l3-6.6h.9l3 6.6h-1l-.7-1.7zm-.3-.7-1.4-3.2-1.4 3.2h2.8zM398.1 477.4c.5.4.7 1 .7 1.7s-.2 1.3-.7 1.7c-.5.4-1.2.6-2 .6h-1.6v2h-.9v-6.6h2.6c.7 0 1.4.2 1.9.6zm-.7 2.8c.3-.3.5-.6.5-1.1 0-.5-.2-.8-.5-1.1-.3-.3-.8-.4-1.4-.4h-1.6v3h1.6c.6 0 1.1-.2 1.4-.4zM408.9 477.4c.5.4.7 1 .7 1.7s-.2 1.3-.7 1.7c-.5.4-1.2.6-2 .6h-1.6v2h-.9v-6.6h2.6c.7 0 1.4.2 1.9.6zm-.7 2.8c.3-.3.5-.6.5-1.1 0-.5-.2-.8-.5-1.1-.3-.3-.8-.4-1.4-.4h-1.6v3h1.6c.6 0 1.1-.2 1.4-.4zM417.6 481.1v2.3h-.9v-2.3l-2.6-4.3h1l2.1 3.5 2.1-3.5h.9l-2.6 4.3zM437.6 476.8v6.6h-.8l-4-4.9v4.9h-.9v-6.6h.8l4 4.9v-4.9h.9zM448.5 482.6v.8h-4.8v-6.6h4.7v.8h-3.7v2h3.3v.8h-3.3v2.1h3.8zM463.4 476.8l-2.2 6.6h-1l-1.8-5.3-1.8 5.3h-1l-2.2-6.6h1l1.8 5.4 1.9-5.4h.9l1.8 5.4 1.8-5.4h.8zM477.9 481.1v2.3h-.9v-2.3l-2.6-4.3h1l2.1 3.5 2.1-3.5h.9l-2.6 4.3zM490.3 482.6v.8h-4.8v-6.6h4.7v.8h-3.7v2h3.3v.8h-3.3v2.1h3.8zM500.1 481.7h-3.5l-.7 1.7h-1l3-6.6h.9l3 6.6h-1l-.7-1.7zm-.3-.7-1.4-3.2-1.4 3.2h2.8zM511.3 483.4l-1.4-2h-2v2h-.9v-6.6h2.6c.9 0 1.5.2 2 .6.5.4.7 1 .7 1.7 0 .5-.1.9-.4 1.3-.3.4-.6.6-1.1.8l1.6 2.2h-1.1zm-.5-3.2c.3-.3.5-.6.5-1.1 0-.5-.2-.8-.5-1.1-.3-.3-.8-.4-1.4-.4h-1.6v3h1.6c.7 0 1.1-.2 1.4-.4z"/>
  </g>
  <g>
    <defs>
      <path id="SVGID_1_" d="M0 0h600v600H0z"/>
    </defs>
    <clipPath id="SVGID_2_">
      <use xlink:href="#SVGID_1_" overflow="visible"/>
    </clipPath>
    <g class="st1">
      <path class="st0" d="M370.1 604.4c-.8 0-1.5-.7-1.5-1.5s.7-1.5 1.5-1.5 1.5.7 1.5 1.5c0 .9-.7 1.5-1.5 1.5zM314.8 564.3c-.4 0-.7-.3-.7-.8 0-.4.3-.7.7-.7.4 0 .7.3.7.7.1.5-.3.8-.7.8zM271.2 597.7c-.7 0-1.3-.6-1.3-1.3 0-.7.6-1.3 1.3-1.3.7 0 1.3.6 1.3 1.3-.1.7-.6 1.3-1.3 1.3zM253.4 486.4c-.8 0-1.5-.7-1.5-1.5s.7-1.5 1.5-1.5 1.5.7 1.5 1.5-.6 1.5-1.5 1.5zM246.3 404.4c-.7 0-1.3-.6-1.3-1.3 0-.7.6-1.3 1.3-1.3.7 0 1.3.6 1.3 1.3.1.7-.5 1.3-1.3 1.3zM139.5 566.1c-.5 0-.9-.4-.9-.9s.4-.9.9-.9.9.4.9.9-.4.9-.9.9zM125.4 540.3c-1 0-1.9-.8-1.9-1.9 0-1 .8-1.9 1.9-1.9 1 0 1.9.8 1.9 1.9 0 1-.8 1.9-1.9 1.9zM134.6 462.8c-.6 0-1-.5-1-1 0-.6.5-1 1-1 .6 0 1 .5 1 1 0 .6-.5 1-1 1zM130.3 561.6c-.8 0-1.4-.6-1.4-1.4 0-.8.6-1.4 1.4-1.4.8 0 1.4.6 1.4 1.4.1.8-.6 1.4-1.4 1.4zM337.9 605.2c-.6 0-1.1-.5-1.1-1.1 0-.6.5-1.1 1.1-1.1.6 0 1.1.5 1.1 1.1-.1.6-.6 1.1-1.1 1.1zM299.5 490c-1.2 0-2.1-.9-2.1-2.1 0-1.2.9-2.1 2.1-2.1 1.2 0 2.1.9 2.1 2.1 0 1.2-1 2.1-2.1 2.1zM209.9 501c-.6 0-1-.5-1-1 0-.6.5-1 1-1 .6 0 1 .5 1 1s-.4 1-1 1zM196.1 388.7c-.6 0-1.1-.5-1.1-1.1 0-.6.5-1.1 1.1-1.1.6 0 1.1.5 1.1 1.1 0 .6-.5 1.1-1.1 1.1zM77.9 406.2c-.9 0-1.6-.7-1.6-1.6 0-.9.7-1.6 1.6-1.6s1.6.7 1.6 1.6c0 .9-.8 1.6-1.6 1.6zM12.6 328.2c-1.2 0-2.1-.9-2.1-2.1 0-1.2.9-2.1 2.1-2.1 1.2 0 2.1.9 2.1 2.1 0 1.2-.9 2.1-2.1 2.1zM216.8 291.8c-1.2 0-2.2-1-2.2-2.2 0-1.2 1-2.2 2.2-2.2 1.2 0 2.2 1 2.2 2.2 0 1.2-1 2.2-2.2 2.2zM92.5 176.2c-.6 0-1.1-.5-1.1-1.1 0-.6.5-1.1 1.1-1.1.6 0 1.1.5 1.1 1.1 0 .6-.5 1.1-1.1 1.1zM148.2 145.8c-1 0-1.7-.8-1.7-1.7 0-1 .8-1.7 1.7-1.7 1 0 1.7.8 1.7 1.7.1.9-.7 1.7-1.7 1.7zM185.4 204.1c-1 0-1.9-.9-1.9-1.9 0-1 .9-1.9 1.9-1.9s1.9.9 1.9 1.9c0 1-.9 1.9-1.9 1.9zM135.2 502c-1 0-1.9-.8-1.9-1.9 0-1 .8-1.9 1.9-1.9 1 0 1.9.8 1.9 1.9 0 1.1-.8 1.9-1.9 1.9zM229.4 193.3c-.7 0-1.2-.5-1.2-1.2s.5-1.2 1.2-1.2 1.2.5 1.2 1.2c-.1.6-.6 1.2-1.2 1.2zM135.4 188.9c-.9 0-1.6-.7-1.6-1.6 0-.9.7-1.6 1.6-1.6.9 0 1.6.7 1.6 1.6 0 .8-.7 1.6-1.6 1.6zM67.6 103.1c-.9 0-1.7-.8-1.7-1.7 0-.9.8-1.7 1.7-1.7.9 0 1.7.8 1.7 1.7 0 .9-.8 1.7-1.7 1.7zM45 580.8c-.7 0-1.2-.5-1.2-1.2s.5-1.2 1.2-1.2 1.2.5 1.2 1.2c0 .6-.5 1.2-1.2 1.2zM17.4 572.8c-.8 0-1.5-.7-1.5-1.5s.7-1.5 1.5-1.5 1.5.7 1.5 1.5c0 .9-.7 1.5-1.5 1.5zM13 510.3c-1 0-1.7-.8-1.7-1.7 0-1 .8-1.7 1.7-1.7.9 0 1.7.8 1.7 1.7.1.9-.7 1.7-1.7 1.7zM-51.9 486.8c-.9 0-1.6-.7-1.6-1.6 0-.9.7-1.6 1.6-1.6.9 0 1.6.7 1.6 1.6 0 .9-.8 1.6-1.6 1.6zM8.2 443.6c-1 0-1.7-.8-1.7-1.7 0-1 .8-1.7 1.7-1.7 1 0 1.7.8 1.7 1.7 0 .9-.8 1.7-1.7 1.7zM-6.9 388.4c-.4 0-.8-.4-.8-.8s.4-.8.8-.8.8.4.8.8-.4.8-.8.8zM-21 354.5c-1.2 0-2.2-1-2.2-2.2 0-1.2 1-2.2 2.2-2.2 1.2 0 2.2 1 2.2 2.2 0 1.2-1 2.2-2.2 2.2zM-13.6 139.2c-.6 0-1.1-.5-1.1-1.1 0-.6.5-1.1 1.1-1.1.6 0 1.1.5 1.1 1.1 0 .6-.5 1.1-1.1 1.1zM-52.1 247.7c-.7 0-1.3-.6-1.3-1.2 0-.7.6-1.3 1.3-1.3.7 0 1.2.6 1.2 1.3.1.7-.5 1.2-1.2 1.2zM12.5 275.3c-1 0-1.8-.8-1.8-1.8s.8-1.8 1.8-1.8 1.8.8 1.8 1.8-.8 1.8-1.8 1.8zM36.6 234.4c-.6 0-1.1-.5-1.1-1.1 0-.6.5-1.1 1.1-1.1.6 0 1.1.5 1.1 1.1 0 .6-.5 1.1-1.1 1.1zM42.3 169.7c-1 0-1.8-.8-1.8-1.8s.8-1.8 1.8-1.8 1.8.8 1.8 1.8-.8 1.8-1.8 1.8zM40.4 78.9c-.5 0-.9-.4-.9-.9s.4-.9.9-.9.9.4.9.9-.4.9-.9.9zM52.5 40.7c-1 0-1.9-.8-1.9-1.9 0-1 .8-1.9 1.9-1.9 1 0 1.9.8 1.9 1.9-.1 1.1-.9 1.9-1.9 1.9zM124 38.8c-.4 0-.8-.4-.8-.8s.4-.8.8-.8.8.4.8.8c-.1.5-.4.8-.8.8zM141.9 10.5c-.8 0-1.4-.6-1.4-1.4 0-.8.6-1.4 1.4-1.4.8 0 1.4.6 1.4 1.4 0 .7-.7 1.4-1.4 1.4zM304.9 20.8c-.9 0-1.7-.8-1.7-1.7 0-.9.8-1.7 1.7-1.7.9 0 1.7.8 1.7 1.7 0 1-.8 1.7-1.7 1.7zM-41.3 173.5c-.5 0-.8-.4-.8-.8 0-.5.4-.8.8-.8.5 0 .8.4.8.8s-.4.8-.8.8zM-32.1 276.8c-.3 0-.5-.2-.5-.5s.2-.5.5-.5.5.2.5.5-.2.5-.5.5zM-62.3 309.2c-.7 0-1.3-.6-1.3-1.3 0-.7.6-1.3 1.3-1.3.7 0 1.3.6 1.3 1.3 0 .7-.6 1.3-1.3 1.3z"/>
      <circle class="st0" cx="-55.6" cy="398.1" r="1.2"/>
      <path class="st0" d="M-66.6 397.5c-.4 0-.7-.3-.7-.7 0-.4.3-.7.7-.7.4 0 .7.3.7.7 0 .4-.4.7-.7.7zM-38 450.1c-.8 0-1.4-.6-1.4-1.4 0-.8.6-1.4 1.4-1.4.8 0 1.4.6 1.4 1.4.1.8-.6 1.4-1.4 1.4zM107.4 403.4c-.6 0-1-.5-1-1 0-.6.5-1 1-1 .6 0 1 .5 1 1s-.4 1-1 1zM155.6 249.9c-.8 0-1.5-.7-1.5-1.5s.6-1.5 1.5-1.5c.8 0 1.5.7 1.5 1.5-.1.8-.7 1.5-1.5 1.5zM128.6 224.6c-.5 0-.8-.4-.8-.8 0-.5.4-.8.8-.8.5 0 .8.4.8.8.1.5-.3.8-.8.8zM133 168.3c-.7 0-1.3-.6-1.3-1.3 0-.7.6-1.3 1.3-1.3.7 0 1.3.6 1.3 1.3 0 .7-.6 1.3-1.3 1.3zM169.5 196.8c-.7 0-1.3-.6-1.3-1.3 0-.7.6-1.3 1.3-1.3.7 0 1.3.6 1.3 1.3.1.7-.5 1.3-1.3 1.3zM192.9 231.5c-.6 0-1.1-.5-1.1-1.1 0-.6.5-1.1 1.1-1.1.6 0 1.1.5 1.1 1.1 0 .6-.5 1.1-1.1 1.1zM179.1 296.8c-.8 0-1.5-.7-1.5-1.5s.7-1.5 1.5-1.5 1.5.7 1.5 1.5c0 .9-.7 1.5-1.5 1.5zM196.5 321.7c-.3 0-.6-.3-.6-.6s.3-.6.6-.6.6.2.6.6c-.1.4-.3.6-.6.6zM213.4 229.9c-.3 0-.6-.3-.6-.6s.3-.6.6-.6.6.3.6.6-.3.6-.6.6zM255.4 570c-.6 0-1.2-.5-1.2-1.2s.5-1.2 1.2-1.2c.6 0 1.2.5 1.2 1.2s-.6 1.2-1.2 1.2zM201.2 540.2c-.3 0-.5-.2-.5-.5s.2-.5.5-.5.5.2.5.5-.2.5-.5.5zM192 561.1c-.4 0-.6-.3-.6-.6 0-.4.3-.6.6-.6.4 0 .6.3.6.6s-.2.6-.6.6zM215.3 579.7c-.8 0-1.4-.6-1.4-1.4s.6-1.4 1.4-1.4c.8 0 1.4.6 1.4 1.4s-.7 1.4-1.4 1.4zM286.4 592.7c-.6 0-1.2-.5-1.2-1.2 0-.6.5-1.2 1.2-1.2.6 0 1.2.5 1.2 1.2-.1.7-.6 1.2-1.2 1.2zM236.1 567c-.6 0-1.1-.5-1.1-1.1 0-.6.5-1.2 1.1-1.2.6 0 1.2.5 1.2 1.2-.1.6-.6 1.1-1.2 1.1zM272.3 548.6c-.8 0-1.4-.6-1.4-1.4 0-.8.6-1.4 1.4-1.4.8 0 1.4.6 1.4 1.4 0 .8-.6 1.4-1.4 1.4zM235 558.9c-.8 0-1.4-.6-1.4-1.4 0-.8.6-1.4 1.4-1.4.8 0 1.4.6 1.4 1.4 0 .8-.6 1.4-1.4 1.4zM325 528.5c-.7 0-1.3-.6-1.3-1.3 0-.7.6-1.3 1.3-1.3.7 0 1.3.6 1.3 1.3 0 .7-.6 1.3-1.3 1.3zM324.1 599.8c-.6 0-1.1-.5-1.1-1.1 0-.6.5-1.1 1.1-1.1.6 0 1.1.5 1.1 1.1 0 .6-.5 1.1-1.1 1.1zM246.2 20.9c-.6 0-1.1-.5-1.1-1.1 0-.6.5-1.1 1.1-1.1.6 0 1.1.5 1.1 1.1 0 .6-.5 1.1-1.1 1.1zM317.8-7.2c-.4 0-.7-.3-.7-.7 0-.4.3-.7.7-.7.4 0 .7.3.7.7 0 .3-.3.7-.7.7zM295.7.9c-.5 0-.9-.4-.9-.9s.4-.9.9-.9.9.4.9.9-.4.9-.9.9zM343.4 13c-.5 0-1-.4-1-1 0-.5.4-1 1-1 .5 0 1 .4 1 1s-.4 1-1 1zM82.4 574.4c-.4 0-.7-.3-.7-.7 0-.4.3-.7.7-.7.4 0 .7.3.7.7 0 .4-.3.7-.7.7z"/>
      <circle class="st0" cx="369.4" cy="552.8" r="1.3"/>
      <path class="st0" d="M239.2 443.6c.4 0 .7.3.7.8 0 .4-.3.7-.7.7-.4 0-.7-.3-.7-.7 0-.5.3-.8.7-.8zM194.5 475.8c.4 0 .7.3.7.7 0 .4-.3.7-.7.7-.4 0-.7-.3-.7-.7 0-.4.3-.7.7-.7zM190.7 492.8c.6 0 1.2.5 1.2 1.2 0 .6-.5 1.2-1.2 1.2-.6 0-1.2-.5-1.2-1.2 0-.6.5-1.2 1.2-1.2zM190.9 418.5c.4 0 .7.3.7.7 0 .4-.3.7-.7.7-.4 0-.7-.3-.7-.7.1-.4.4-.7.7-.7zM253.5 57c.6 0 1.2.5 1.2 1.2 0 .6-.5 1.2-1.2 1.2-.6 0-1.2-.5-1.2-1.2s.5-1.2 1.2-1.2zM278.8-7.6c.4 0 .8.3.8.8 0 .4-.3.8-.8.8-.4 0-.8-.3-.8-.8s.4-.8.8-.8zM268.7-6.6c.6 0 1.2.5 1.2 1.2 0 .6-.5 1.2-1.2 1.2-.6 0-1.2-.5-1.2-1.2 0-.6.5-1.2 1.2-1.2zM209.7 17c.4 0 .8.4.8.8s-.4.8-.8.8-.8-.4-.8-.8c.1-.4.4-.8.8-.8zM84.6 31c.5 0 .9.4.9.9s-.4.9-.9.9-.9-.4-.9-.9.4-.9.9-.9zM65.2 57.6c.8 0 1.4.6 1.4 1.4 0 .8-.6 1.4-1.4 1.4-.8 0-1.4-.6-1.4-1.4 0-.7.6-1.4 1.4-1.4zM85.5 5.7c.4 0 .6.3.6.6 0 .4-.3.6-.6.6-.4 0-.6-.3-.6-.6s.3-.6.6-.6zM64.1 46.7c.5 0 .9.4.9.9s-.4.9-.9.9-.9-.4-.9-.9.4-.9.9-.9zM99.3 4c.6 0 1 .4 1 1s-.4 1-1 1-1-.4-1-1c.1-.5.5-1 1-1zM114.7 59.5c.4 0 .7.3.7.7 0 .4-.3.7-.7.7-.4 0-.7-.3-.7-.7-.1-.3.3-.7.7-.7zM83.1 68.9c.7 0 1.2.5 1.2 1.2 0 .6-.5 1.2-1.2 1.2s-1.2-.5-1.2-1.2c.1-.7.6-1.2 1.2-1.2zM133.1 99.9c.8 0 1.4.6 1.4 1.4 0 .8-.6 1.4-1.4 1.4-.8 0-1.4-.6-1.4-1.4 0-.7.7-1.4 1.4-1.4zM100.7 108.8c.7 0 1.2.5 1.2 1.2s-.5 1.2-1.2 1.2-1.2-.5-1.2-1.2c0-.6.5-1.2 1.2-1.2zM98.3 44.5c.7 0 1.3.6 1.3 1.3 0 .7-.6 1.3-1.3 1.3-.7 0-1.3-.6-1.3-1.3 0-.7.6-1.3 1.3-1.3zM19.6 60.7c.3 0 .5.2.5.5s-.2.5-.5.5-.5-.2-.5-.5c.1-.3.3-.5.5-.5zM-28.6 21.1c.5 0 .9.4.9.9s-.4.9-.9.9-.9-.4-.9-.9c.1-.5.5-.9.9-.9zM-14.3 36.6c.5 0 .8.4.8.8 0 .5-.4.8-.8.8-.5 0-.8-.4-.8-.8s.3-.8.8-.8zM-31.4 10.1c.6 0 1.1.5 1.1 1.1 0 .6-.5 1.1-1.1 1.1-.6 0-1.1-.5-1.1-1.1-.1-.5.4-1.1 1.1-1.1zM-42.2-4.5c.3 0 .6.2.6.6 0 .3-.2.6-.6.6-.3 0-.6-.3-.6-.6.1-.3.3-.6.6-.6zM-62.9-2.2c.5 0 .9.4.9.9s-.4.9-.9.9-.9-.4-.9-.9c-.1-.5.4-.9.9-.9zM-65.7 34c.7 0 1.2.5 1.2 1.2 0 .6-.5 1.2-1.2 1.2s-1.2-.5-1.2-1.2.5-1.2 1.2-1.2zM-7.5 33.7c.5 0 .9.4.9.9s-.4.9-.9.9-.9-.4-.9-.9.4-.9.9-.9zM28.7 20.1c.8 0 1.4.6 1.4 1.4 0 .8-.6 1.4-1.4 1.4-.8 0-1.4-.6-1.4-1.4 0-.7.7-1.4 1.4-1.4zM-20.1 21c.4 0 .8.3.8.8 0 .4-.3.8-.8.8s-.8-.3-.8-.8.4-.8.8-.8zM-10.7 20.4c.7 0 1.3.6 1.3 1.3 0 .7-.6 1.3-1.3 1.3-.7 0-1.3-.6-1.3-1.3 0-.7.6-1.3 1.3-1.3zM.2 33c.3 0 .6.3.6.6s-.3.6-.6.6-.6-.3-.6-.6c0-.4.3-.6.6-.6zM354.7-8.8c.4 0 .7.3.7.7 0 .4-.3.7-.7.7-.4 0-.7-.3-.7-.7 0-.4.3-.7.7-.7zM301.6 6.5c.5 0 .9.4.9.8 0 .5-.4.8-.9.8s-.8-.4-.8-.8c0-.5.4-.8.8-.8zM280.6 14.2c.7 0 1.4.6 1.4 1.3 0 .7-.6 1.4-1.4 1.4-.7 0-1.4-.6-1.4-1.4.1-.7.7-1.3 1.4-1.3zM307.7 86.7c.3 0 .5.2.5.5s-.2.5-.5.5-.5-.2-.5-.5.2-.5.5-.5zM316.9 65.9c.4 0 .6.3.6.6 0 .4-.3.6-.6.6-.4 0-.6-.3-.6-.6-.1-.3.2-.6.6-.6zM293.6 47.2c.8 0 1.4.6 1.4 1.4 0 .8-.6 1.4-1.4 1.4-.8 0-1.4-.6-1.4-1.4 0-.7.7-1.4 1.4-1.4zM222.5 34.2c.6 0 1.2.5 1.2 1.2 0 .6-.5 1.2-1.2 1.2-.6 0-1.2-.5-1.2-1.2.1-.6.6-1.2 1.2-1.2zM272.8 59.9c.6 0 1.1.5 1.1 1.1 0 .6-.5 1.2-1.1 1.2-.6 0-1.2-.5-1.2-1.2.1-.6.6-1.1 1.2-1.1zM236.6 78.3c.8 0 1.4.6 1.4 1.4 0 .8-.6 1.4-1.4 1.4-.8 0-1.4-.6-1.4-1.4 0-.8.6-1.4 1.4-1.4zM273.9 68.1c.8 0 1.4.6 1.4 1.4 0 .8-.6 1.4-1.4 1.4-.8 0-1.4-.6-1.4-1.4 0-.8.6-1.4 1.4-1.4zM183.8 98.5c.7 0 1.3.6 1.3 1.3 0 .7-.6 1.3-1.3 1.3-.7 0-1.3-.6-1.3-1.3.1-.8.6-1.3 1.3-1.3zM184.8 27.2c.6 0 1.1.5 1.1 1.1 0 .6-.5 1.1-1.1 1.1-.6 0-1.1-.5-1.1-1.1 0-.7.5-1.1 1.1-1.1zM169.6 556c.6 0 1.2.5 1.2 1.2 0 .6-.5 1.2-1.2 1.2-.6 0-1.2-.5-1.2-1.2.1-.7.6-1.2 1.2-1.2zM262.7 606.1c.6 0 1.1.5 1.1 1.1 0 .6-.5 1.1-1.1 1.1-.6 0-1.1-.5-1.1-1.1 0-.6.5-1.1 1.1-1.1zM175.4 564.6c.6 0 1.2.5 1.2 1.2 0 .6-.5 1.2-1.2 1.2-.6 0-1.2-.5-1.2-1.2 0-.6.6-1.2 1.2-1.2zM100.5 582.7c.8 0 1.4.6 1.4 1.4 0 .8-.6 1.4-1.4 1.4-.8 0-1.4-.6-1.4-1.4 0-.7.6-1.4 1.4-1.4zM3.7 604.7c.5 0 1 .4 1 1 0 .5-.4.9-1 .9-.5 0-.9-.4-.9-.9-.1-.5.3-1 .9-1zM38.1.9c.7 0 1.2.6 1.2 1.2s-.6 1.2-1.2 1.2c-.7 0-1.2-.6-1.2-1.2S37.4.9 38.1.9zM49.9 16.7c.8 0 1.5.7 1.5 1.5s-.7 1.5-1.5 1.5-1.5-.7-1.5-1.5c0-.9.7-1.5 1.5-1.5zM73.7 56.4c.6 0 1.1.5 1.1 1.1 0 .6-.5 1.1-1.1 1.1-.6 0-1.1-.5-1.1-1.1 0-.6.5-1.1 1.1-1.1zM54.9 95.1c.4 0 .8.3.8.8 0 .4-.4.8-.8.8s-.8-.4-.8-.8c0-.5.4-.8.8-.8zM174.9 149.6c.3 0 .6.3.6.6s-.3.6-.6.6-.6-.3-.6-.6c.1-.3.3-.6.6-.6zM139.5 72.8c.7 0 1.3.6 1.3 1.3 0 .7-.6 1.3-1.3 1.3-.7 0-1.3-.6-1.3-1.3 0-.7.6-1.3 1.3-1.3zM53.3 104c.4 0 .8.4.8.8s-.4.8-.8.8-.8-.4-.8-.8c-.1-.4.3-.8.8-.8zM78.7 158.7c.3 0 .5.2.5.5s-.2.5-.5.5-.5-.2-.5-.5c-.1-.3.2-.5.5-.5zM67 244c.7 0 1.4.6 1.4 1.3 0 .7-.6 1.4-1.4 1.4-.7 0-1.3-.6-1.3-1.4 0-.7.6-1.3 1.3-1.3zM106.5 266c.6 0 1.1.5 1.1 1.1 0 .6-.5 1.1-1.1 1.1-.6 0-1.1-.5-1.1-1.1 0-.6.5-1.1 1.1-1.1zM146.1 317.6c.5 0 1 .4 1 1 0 .5-.4 1-1 1-.5 0-1-.4-1-1 0-.5.5-1 1-1zM174 317.5c.6 0 1.2.5 1.2 1.2 0 .6-.5 1.2-1.2 1.2-.6 0-1.2-.5-1.2-1.2s.5-1.2 1.2-1.2zM179.3 285.9c.5 0 .9.4.9.8 0 .5-.4.9-.9.9s-.9-.4-.9-.9c.1-.5.5-.8.9-.8zM181.3 231.8c.5 0 .9.4.9.9s-.4.9-.9.9-.9-.4-.9-.9.4-.9.9-.9zM157.1 200.2c.6 0 1 .5 1 1 0 .6-.5 1-1 1-.6 0-1-.5-1-1-.1-.5.4-1 1-1zM136.1 156.3c.5 0 .9.4.9.9s-.4.9-.9.9-.9-.4-.9-.9.4-.9.9-.9zM34.1 135c.3 0 .5.2.5.5s-.2.5-.5.5-.5-.2-.5-.5.2-.5.5-.5zM40.1 184.3c.6 0 1.2.5 1.2 1.2 0 .6-.5 1.2-1.2 1.2-.6 0-1.2-.5-1.2-1.2s.5-1.2 1.2-1.2zM17.6 230.3c.8 0 1.5.7 1.5 1.5s-.7 1.5-1.5 1.5-1.5-.7-1.5-1.5.6-1.5 1.5-1.5zM47.6 251.6c.5 0 .9.4.9.9s-.4.9-.9.9-.9-.4-.9-.9.4-.9.9-.9zM49.6 273.1c.3 0 .5.2.5.5s-.2.5-.5.5-.5-.2-.5-.5.3-.5.5-.5zM73.5 300.8c.5 0 .9.4.9.9s-.4.9-.9.9-.9-.4-.9-.9c0-.4.4-.9.9-.9zM54.4 354.7c.8 0 1.4.6 1.4 1.4 0 .8-.6 1.4-1.4 1.4-.8 0-1.4-.6-1.4-1.4 0-.7.6-1.4 1.4-1.4zM120.3 372c.6 0 1.1.5 1.1 1.1 0 .6-.5 1.1-1.1 1.1-.6 0-1.1-.5-1.1-1.1 0-.6.5-1.1 1.1-1.1zM96.5 407.4c.6 0 1.1.5 1.1 1.1 0 .6-.5 1.1-1.1 1.1-.6 0-1.1-.5-1.1-1.1 0-.6.5-1.1 1.1-1.1zM65.3 426.7c.8 0 1.5.7 1.5 1.5s-.7 1.5-1.5 1.5-1.5-.7-1.5-1.5.7-1.5 1.5-1.5zM144 442.8c.7 0 1.3.6 1.3 1.3 0 .7-.6 1.3-1.3 1.3-.7 0-1.3-.6-1.3-1.3-.1-.7.5-1.3 1.3-1.3zM107.4 493.9c.6 0 1.1.5 1.1 1.1 0 .6-.5 1.1-1.1 1.1-.6 0-1.1-.5-1.1-1.1 0-.6.5-1.1 1.1-1.1zM111.3 528c.7 0 1.3.6 1.3 1.3 0 .7-.6 1.4-1.3 1.4-.7 0-1.3-.6-1.3-1.4-.1-.7.6-1.3 1.3-1.3zM131.7 546.9c.4 0 .8.3.8.8 0 .4-.3.8-.8.8-.4 0-.8-.3-.8-.8.1-.5.4-.8.8-.8zM105.7 597c.8 0 1.4.6 1.4 1.4 0 .8-.6 1.4-1.4 1.4-.8 0-1.4-.6-1.4-1.4 0-.7.6-1.4 1.4-1.4zM210.1 511.2c.8 0 1.4.6 1.4 1.4 0 .8-.6 1.4-1.4 1.4-.8 0-1.4-.6-1.4-1.4 0-.8.6-1.4 1.4-1.4zM112.9 509.3c.3 0 .6.3.6.6s-.3.6-.6.6-.6-.3-.6-.6.3-.6.6-.6zM172.7 445.4c.6 0 1 .5 1 1 0 .6-.5 1-1 1-.6 0-1-.5-1-1-.1-.5.4-1 1-1zM71.4 409.4c.7 0 1.3.6 1.3 1.3 0 .7-.6 1.3-1.3 1.3-.7 0-1.3-.6-1.3-1.3 0-.7.6-1.3 1.3-1.3zM99.5 381.3c.8 0 1.5.7 1.5 1.5s-.7 1.5-1.5 1.5-1.5-.7-1.5-1.5c0-.9.6-1.5 1.5-1.5zM151.5 327.7c.6 0 1 .5 1 1 0 .6-.5 1-1 1-.6 0-1-.5-1-1s.4-1 1-1zM21.5 353.8c.7 0 1.3.6 1.3 1.3s-.6 1.3-1.3 1.3c-.7 0-1.3-.6-1.3-1.3s.6-1.3 1.3-1.3zM75.2 381.9c.8 0 1.4.6 1.4 1.4 0 .8-.6 1.4-1.4 1.4-.8 0-1.4-.6-1.4-1.4 0-.7.6-1.4 1.4-1.4zM73.3 446.3c.7 0 1.2.5 1.2 1.2s-.5 1.2-1.2 1.2-1.2-.5-1.2-1.2.5-1.2 1.2-1.2zM49.7 484.3c.8 0 1.5.7 1.5 1.5s-.7 1.5-1.5 1.5-1.5-.7-1.5-1.5.7-1.5 1.5-1.5zM132.9 495c.4 0 .7.3.7.7 0 .4-.3.7-.7.7-.4 0-.7-.3-.7-.7 0-.4.3-.7.7-.7z"/>
    </g>
    <g class="st1">
      <path class="st0" d="M149.6 331.2c-.8-11.7-16.2-24.1-23.6-30.1-1.2-1-2.2-1.7-2.7-2.2-2-2.3 3.7-22.1 10.3-39.9l1.2.3c.4.1.8.1 1.2.1 2.2 0 4.3-1.2 5.3-3.3l6.1-12.1c.7-1.3.7-2.9 0-4.3-.6-1.4-1.9-2.3-3.3-2.7-12.9-2.9-24.2-10.1-29.7-14.1-1.4-1-3.2-1.4-5-1-1.7.4-3.2 1.6-4 3.1l-5.5 11c-1.3 2.6-.6 5.7 1.7 7.5.7.5 1.5 1.1 2.3 1.7-3.4 9.2-18.5 51.4-16.6 66.5 1.2 9.4 23 24.7 39.3 30.1 4.2 1.4 7.9 2.1 10.9 2.1 3.6 0 6.4-1 8.2-2.9 2.9-2.8 4.1-6.1 3.9-9.8zm-19.3-71.6-.5-1.6c.3.1.7.2 1 .3-.1.4-.3.8-.5 1.3zm-1.5-.3-1.9-.5c-.2-.1-.4 0-.6.1l-1.6 1.2-.1-2c0-.2-.1-.4-.3-.5l-1.6-1.2 1.3-.5c1.4.5 2.9 1.1 4.3 1.5l.5 1.9zm-26.3-22 5.5-10.9c.4-.8 1.2-1.5 2.1-1.7.2-.1.5-.1.8-.1.7 0 1.3.2 1.9.6 5.7 4.2 17.4 11.6 30.8 14.6.6.1 1.1.5 1.4 1.1.3.6.3 1.2 0 1.8l-6.1 12.1c-.6 1.2-2 1.9-3.4 1.6-14-2.8-26.1-10.8-32-15.3-1.3-.8-1.7-2.5-1-3.8zM143.8 339c-2.6 2.7-8.3 2.7-16.2.1-16.5-5.5-36.4-20.2-37.4-27.7-1.8-13.9 12.5-54.3 16.2-64.5 4.1 2.7 9.4 5.8 15.5 8.4l-1.1.4c-.2.1-.4.3-.4.6s.1.5.3.7l2.4 1.7.2 3c0 .3.2.5.4.6.1 0 .2.1.3.1.1 0 .3 0 .4-.1l2.4-1.8 2.9.7h.1c-4.9 13.7-12.3 36.3-8.5 39.9.6.5 1.5 1.3 2.8 2.3 6.6 5.3 21.9 17.6 22.6 28 .2 2.8-.7 5.4-2.9 7.6z"/>
      <path class="st0" d="m106.2 261.2.2 3c0 .3.2.5.4.6.1 0 .2.1.3.1.1 0 .3 0 .4-.1l2.4-1.8 2.9.7c.3.1.5 0 .7-.2.2-.2.2-.5.1-.7l-1-2.8 1.6-2.5c.1-.2.1-.5 0-.7-.1-.2-.3-.4-.6-.4h-3l-1.9-2.3c-.2-.2-.4-.3-.7-.2-.3.1-.5.2-.5.5l-.9 2.8-2.8 1.1c-.2.1-.4.3-.4.6s.1.5.3.7l2.5 1.6zm1.3-2.9c.2-.1.3-.2.4-.4l.6-1.9 1.3 1.5c.1.2.3.2.6.3h2l-1.1 1.7c-.1.2-.1.4-.1.6l.6 1.9-1.9-.5c-.2-.1-.4 0-.6.1l-1.6 1.2-.1-2c0-.2-.1-.4-.3-.5l-1.6-1.2 1.8-.8zM112.3 272.7c0 .3.1.5.3.7l2.4 1.7.2 3c0 .3.2.5.4.6.1 0 .2.1.3.1.1 0 .3 0 .4-.1l2.4-1.8 2.9.7c.3.1.5 0 .7-.2.2-.2.2-.5.2-.7l-1-2.8 1.6-2.5c.1-.2.1-.5 0-.7-.1-.2-.3-.4-.6-.4h-3l-1.9-2.3c-.2-.2-.4-.3-.7-.2-.3.1-.5.2-.5.5l-.9 2.8-2.8 1.1c-.2 0-.4.3-.4.5zm4-.5c.2-.1.3-.2.4-.4l.6-1.9 1.3 1.5c.1.2.3.3.6.3h2l-1.1 1.7c-.1.2-.1.4-.1.6l.6 1.9-1.9-.5c-.2-.1-.4 0-.6.1l-1.6 1.2-.1-2c0-.2-.1-.4-.3-.5l-1.6-1.2 1.8-.8zM100.6 282.9l.2 3c0 .3.2.5.4.6.1 0 .2.1.3.1.2 0 .3 0 .4-.1l2.4-1.8 2.9.7c.3.1.5 0 .7-.2.2-.2.2-.5.2-.7l-1-2.8 1.6-2.5c.1-.2.1-.5 0-.7-.1-.2-.3-.4-.6-.4h-3l-1.9-2.3c-.2-.2-.4-.3-.7-.2-.3.1-.5.2-.5.5l-.9 2.8-2.8 1.1c-.2.1-.4.3-.4.6s.1.5.3.7l2.4 1.6zm1.3-2.8c.2-.1.3-.2.4-.4l.6-1.9 1.3 1.5c.1.2.3.3.6.3h2l-1.1 1.7c-.1.2-.1.4-.1.6l.6 1.9-1.9-.5c-.2-.1-.4 0-.6.1l-1.6 1.2-.1-2c0-.2-.1-.4-.3-.5l-1.6-1.2 1.8-.8zM111.6 298.6l2.4-1.8 2.9.7c.3.1.5 0 .7-.2.2-.2.2-.5.2-.7l-1-2.8 1.6-2.5c.1-.2.1-.5 0-.7-.1-.2-.4-.4-.6-.4h-3l-1.9-2.3c-.2-.2-.4-.3-.7-.2-.3.1-.5.2-.5.5l-.9 2.8-2.8 1.1c-.2.1-.4.3-.4.6s.1.5.3.7l2.4 1.7.2 3c0 .3.2.5.4.6.1 0 .2.1.3.1.1-.1.3-.1.4-.2zm-1.9-5.6 1.9-.7c.2-.1.3-.2.4-.4l.6-1.9 1.3 1.5c.1.2.3.3.6.3h2l-1.1 1.7c-.1.2-.1.4-.1.6l.6 1.9-1.9-.5c-.2-.1-.4 0-.6.1l-1.6 1.2-.1-2c0-.2-.1-.4-.3-.5l-1.7-1.3zM102.5 305c.3.1.5 0 .7-.2.2-.2.2-.5.1-.7l-1-2.8 1.6-2.5c.1-.2.1-.5 0-.7-.1-.2-.4-.4-.6-.4h-3l-1.9-2.3c-.2-.2-.4-.3-.7-.2-.3.1-.5.2-.5.5l-.9 2.8-2.8 1.1c-.2.1-.4.3-.4.6s.1.5.3.7l2.4 1.7.2 3c0 .3.2.5.4.6.1 0 .2.1.3.1.1 0 .3 0 .4-.1l2.4-1.8 3 .6zm-3.5-2.1-1.6 1.2-.1-2c0-.2-.1-.4-.3-.5l-1.6-1.2 1.9-.7c.2-.1.3-.2.4-.4l.6-1.9 1.3 1.5c.1.2.4.3.6.3h2l-1.1 1.7c-.1.2-.1.4-.1.6l.6 1.9-1.9-.5c-.3-.2-.5-.1-.7 0zM113.8 313.6c0 .3.2.5.4.6.1 0 .2.1.3.1.2 0 .3 0 .4-.1l2.4-1.8 2.9.7c.3.1.5 0 .7-.2.2-.2.2-.5.1-.7l-1-2.8 1.6-2.5c.1-.2.1-.5 0-.7-.1-.2-.3-.4-.6-.4h-3l-1.9-2.3c-.2-.2-.4-.3-.7-.2-.3.1-.5.2-.5.5l-.9 2.8-2.8 1.1c-.2.1-.4.3-.4.6s.1.5.3.7l2.4 1.7.3 2.9zm1.1-5.8c.2-.1.3-.2.4-.4l.6-1.9 1.3 1.5c.1.2.3.3.6.3h2l-1.1 1.7c-.1.2-.1.4-.1.6l.6 1.9-1.9-.5c-.2-.1-.4 0-.6.1l-1.6 1.2-.1-2c0-.2-.1-.4-.3-.5l-1.6-1.2 1.8-.8zM108.9 313.7h-3l-1.9-2.3c-.2-.2-.4-.3-.7-.2-.3.1-.5.2-.5.5l-.9 2.8-2.8 1.1c-.2.1-.4.3-.4.6s.1.5.3.7l2.4 1.7.2 3c0 .3.2.5.4.6.1 0 .2.1.3.1.1 0 .3 0 .4-.1l2.4-1.8 2.9.7c.3.1.5 0 .7-.2.2-.2.2-.5.2-.7l-1-2.8 1.6-2.5c.1-.2.1-.5 0-.7-.1-.3-.3-.5-.6-.5zm-2.4 3.8.6 1.9-1.9-.5c-.2-.1-.4 0-.6.1l-1.6 1.2-.1-2c0-.2-.1-.4-.3-.5l-1.6-1.2 1.9-.7c.2-.1.3-.2.4-.4l.6-1.9 1.3 1.5c.1.2.3.3.6.3h2l-1.1 1.7c-.2 0-.2.3-.2.5zM123.6 322.6h-3l-1.9-2.3c-.2-.2-.4-.3-.7-.2-.3.1-.5.2-.5.5l-.9 2.8-2.8 1.1c-.2.1-.4.3-.4.6s.1.5.3.7l2.4 1.7.2 3c0 .3.2.5.4.6.1 0 .2.1.3.1.1 0 .3 0 .4-.1l2.4-1.8 2.9.7c.3.1.5 0 .7-.2.2-.2.2-.5.2-.7l-1-2.8 1.6-2.5c.1-.2.1-.5 0-.7-.1-.3-.4-.5-.6-.5zm-2.4 3.8.6 1.9-1.9-.5c-.2-.1-.4 0-.6.1l-1.6 1.2-.1-2c0-.2-.1-.4-.3-.5l-1.6-1.2 1.9-.7c.2-.1.3-.2.4-.4l.6-1.9 1.3 1.5c.1.2.4.3.6.3h2l-1.1 1.7c-.3 0-.3.3-.2.5zM130.6 323.7l2.4-1.8 2.9.7c.3.1.5 0 .7-.2.2-.2.2-.5.1-.7l-1-2.8 1.6-2.5c.1-.2.1-.5 0-.7-.1-.2-.4-.4-.6-.4h-3l-1.9-2.3c-.2-.2-.4-.3-.7-.2-.3.1-.5.2-.5.5l-.9 2.8-2.8 1.1c-.2.1-.4.3-.4.6s.1.5.3.7l2.4 1.7.2 3c0 .3.2.5.4.6.1 0 .2.1.3.1.2 0 .4-.1.5-.2zm-1.9-5.6 1.9-.7c.2-.1.3-.2.4-.4l.6-1.9 1.3 1.5c.1.2.3.3.6.3h2l-1.1 1.7c-.1.2-.1.4-.1.6l.6 1.9-1.9-.5c-.2-.1-.4 0-.6.1l-1.6 1.2-.1-2c0-.2-.1-.4-.3-.5l-1.7-1.3zM140.2 330.2h-3l-1.9-2.3c-.2-.2-.4-.3-.7-.2-.3.1-.5.2-.5.5l-.9 2.8-2.8 1.1c-.2.1-.4.3-.4.6s.1.5.3.7l2.4 1.7.2 3c0 .3.2.5.4.6.1 0 .2.1.3.1.1 0 .3 0 .4-.1l2.4-1.8 2.9.7c.3.1.5 0 .7-.2.2-.2.2-.5.2-.7l-1-2.8 1.6-2.5c.1-.2.1-.5 0-.7-.1-.4-.3-.6-.6-.5zm-2.4 3.7.6 1.9-1.9-.5c-.2-.1-.4 0-.6.1l-1.6 1.2-.1-2c0-.2-.1-.4-.3-.5l-1.6-1.2 1.9-.7c.2-.1.3-.2.4-.4l.6-1.9 1.3 1.5c.1.2.3.3.6.3h2l-1.1 1.7c-.2.1-.3.3-.2.5zM108.7-103h2.3v326.8h-2.3z"/>
    </g>
    <g class="st1">
      <path class="st0" d="M244.5 411c0-.2-.1-.3-.1-.5-.1-.3-14.6-28-45.9-38.8-.2-.1-.4-.1-.5-.1-.2 0-15.6 1.5-34.4 5.6-6.1-3.2-13.4-4.8-21.6-4.8h-.5c-4.7 0-9.6 4.3-9 13.6-6.5 2.4-12.3 5-17.3 7.8-.2.1-.3.2-.4.4 0 0 0 .1-.1.1 0 .1-.1.2-.1.3-2.5 9.7-3.2 17.9 10.6 34.7 1.1 5.4 8.9 41.3 11.7 45.6 1.1 1.7 2.9 5.3 5.9 9.3 2.7 3.6 5.7 6.8 9.1 9.3 4.2 3.2 9 5.5 14.3 6.8.1.1.2.1.3.2 3.2 1.3 28-3.5 45.3-9.9l.3-.1c.1 0 .1-.1.2-.1 6.6-2.5 12.3-5.2 15.5-8 .2-.2.3-.4.4-.7.4-1.5 9.7-36.3 7.6-50 2.6-1.7 4.6-3.2 5.6-4.4 3.9-4.7 3.1-15.8 3.1-16.3zm-3-.2c-8.1 6.3-20.8 10.3-30.6 13l-20.7-16.3c18.2-.5 26.5-8.6 26.9-9v-.1l.1-.1c.1-.1.1-.2.2-.3v-.1c1.9-6 1.8-10.5-.2-13.5-.1-.2-.2-.3-.3-.5 14.6 10.5 22.6 23.3 24.6 26.9zm-30.9 14.5zM160.5 450h-.2v-.2c0-.2-2.3-9.9-2.3-14.1 4-.3 19.4-1.6 38.7-5.7l.7 14.1c-17.8 4.4-36.7 5.9-36.9 5.9zm-26.8-56.8c0 .1.1.2.2.3 0 0 0 .1.1.1 4.8 5.9 21.5 8.9 29.6 9.7.7.1 1.4.1 2.1.2.2 0 .4 0 .7.1l-2.2.7h-.1l-35.4 11.1c-.1-.1-.1-.1-.1-.2-4.8-5.2-9.3-12.3-11.1-19.6 4.5-2.4 9.7-4.8 15.4-6.9 0 .9.5 3.6.8 4.5zm29 5.9s.1 0 0 0l-21-5.7h.4c7.2 0 14.1 1.9 20.6 5.7zm-7.5 36.2s.1 0 .1.1c-.2 3.7 1.2 10.5 2.1 13.9-5.4-2.2-10.4-4.8-14.8-7.7l-3.1-13.7c5 3 11.1 5.8 15.7 7.4zm17.6-26.9c-36.6 15.8-35.9 14.9-36.4 15.8-.1.2-.2.4-.2.6v.3l3.9 17.4 10.1 45.7-5.4-5.5-11.1-47.7-4-17c.1-.1.1-.2.1-.3l34.8-10.9h.1l4.9-1.5c.3.2 1.1 1.8 3.2 3.1zM157 433.1c-3.8-1.2-10.7-4.3-16.5-8l35.8-15.2 1.8.3 16.8 17.4c-19 3.8-36 5.3-37.9 5.5zm25.4-26.5c-5.7 3-9.5-2.1-10.9-3.5v-.1c-2-4-1-9.6 5.1-11.4 4.7-1.3 9.7 2 10.2 7 .2 3.5-1.7 6.5-4.4 8zm4.9-13.5c4.1-4.7 11.5-9.7 24.6-8.9.1 0 1.9.2 3.1 1.9 1.4 2 1.4 5.4.2 9.9-3.7-.9-14.5-2.4-26.2 6 .8-3.3.2-6.3-1.7-8.9zm4.9 9.9c.2-.1.4-.3.6-.4 5.1-3.1 10.9-4.9 16.8-4.7h.5l-17.9 5.1zm5.7-28.7c5.8 2 10.9 4.6 15.5 7.5h-.1c-.1 0-.1 0-.2-.1-.1 0-.2-.1-.3-.1h-.6c-14-.9-22.1 4.5-26.6 9.6-2.4-2-5.7-2.8-8.7-2.3-2.2-3.3-5-6.3-8.5-8.8-.4-.3-.9-.6-1.3-.9 15.8-3.3 28.7-4.7 30.8-4.9zm-56.4.8c8.2-.1 15.3 1.5 21.3 4.7 5.5 2.9 9.1 6.8 11.4 9.9h-.1c-3.4 1.6-5.9 4.9-6.1 9.2v.4c-10.5-7.6-22.4-10-32-8.1-.4-1.6-.6-3.1-.7-4.4-.8-6.1 1.2-11.7 6.2-11.7zM116 400.3v.2c.4.8 2.5 8.4 10.8 17l.1.1 3.2 13.6c-7.9-8.4-15.8-19.4-14.1-30.9zm23 73.2c-1.8-2.7-6.8-23.8-10.3-40 .9.9 1.8 1.8 2.7 2.6l9.4 40.3c-.1-.2-.3-.4-.4-.7-.6-.9-1.1-1.6-1.4-2.2zm14.7 18.3-10.3-46.6c5.8 3.5 8.6 5 16.7 7.5.9 6.6 1 8.4 5 44.8-4.1-1.3-8-3.2-11.4-5.7zm14.2 6.4c-1.1-11.9-3.6-33-5.1-45.8 12.2-1.1 24.7-3.2 34.6-5.7l2.2 45c-13.8 4-28 6.5-31.7 6.5zm34.4-7.2-2.3-46-.8-16.3c0-.3-.1-.6-.4-.8l-.4-.4-17-17.7c1.4-.4 3-1.2 4.2-2.3h.2l23.4 18.4.2 15.7.7 46.8-7.8 2.6zm23.2-10.2c-2.9 2.4-7.4 4.6-12.8 6.7l-.6-45c6.9-2.3 14.6-5.5 21-9.1 1.2 13.4-6.6 43.6-7.6 47.4zm13.7-54.9c-.3.4-1.7 1.8-5.7 4.3-6.4 3.9-14.3 7.1-21.4 9.6l-.2-13.5c9-2.5 22.5-6.9 30-12.4 0 3.7-.5 9.3-2.7 12z"/>
      <path class="st0" d="M177.1-65.6h2.1v441.7h-2.1z"/>
    </g>
    <g class="st1">
      <path class="st0" d="M360.6 188.5c0-.1 0-.2-.1-.3-.1-.2-9.2-17.8-29.1-24.6-.1 0-.2-.1-.3 0-.1 0-9.9.9-21.8 3.5-3.9-2-8.5-3-13.7-3h-.3c-3 0-6.1 2.7-5.7 8.7-4.1 1.5-7.8 3.2-11 5l-.3.3v.1c0 .1-.1.1-.1.2-1.6 6.2-2 11.4 6.7 22 .7 3.4 5.6 26.2 7.4 28.9.7 1.1 1.8 3.3 3.7 5.9 1.7 2.3 3.6 4.3 5.8 5.9 2.7 2 5.7 3.5 9.1 4.3.1 0 .1.1.2.1 2 .8 17.8-2.2 28.7-6.3l.2-.1s.1 0 .1-.1c4.2-1.6 7.8-3.3 9.8-5.1.1-.1.2-.3.3-.4.3-.9 6.1-23 4.8-31.7 1.7-1.1 2.9-2 3.6-2.8 2.5-3.1 2-10.2 2-10.5zm-1.9-.1c-5.1 4-13.2 6.6-19.4 8.3l-13.1-10.3c11.6-.3 16.8-5.4 17-5.7 0 0 0-.1.1-.1 0-.1.1-.1.1-.2v-.1c1.2-3.8 1.2-6.7-.1-8.5-.1-.1-.1-.2-.2-.3 9.3 6.5 14.3 14.6 15.6 16.9zm-19.6 9.2zm-31.8 15.7h-.1v-.1c0-.1-1.5-6.3-1.4-9 2.5-.2 12.3-1 24.5-3.6l.4 8.9c-11.2 2.8-23.2 3.8-23.4 3.8zm-17-36c0 .1.1.1.1.2v.1c3.1 3.7 13.6 5.7 18.8 6.1.4 0 .9.1 1.3.1h.4l-1.4.4-22.4 7.1-.1-.1c-3.1-3.3-5.9-7.8-7.1-12.4 2.9-1.5 6.1-3 9.8-4.4.1.6.4 2.3.6 2.9zm18.4 3.7s.1 0 0 0l-13.3-3.6h.3c4.5-.1 8.9 1.2 13 3.6zm-4.8 22.9c.1 0 .1 0 0 0-.1 2.4.9 6.7 1.4 8.9-3.4-1.4-6.6-3-9.4-4.9l-1.9-8.7c3.2 1.9 7 3.7 9.9 4.7zm11.3-17c-23.2 10-22.8 9.4-23.1 10-.1.1-.1.3-.1.4v.2l2.5 11.1 6.4 29-3.4-3.5-7-30.3L288 193c0-.1.1-.1.1-.2l22-6.9 3.1-1c.1.1.6 1.1 2 2zm-10.1 15.6c-2.4-.8-6.8-2.7-10.4-5.1l22.7-9.6c.4.1.8.1 1.1.2l10.7 11.1c-12.1 2.3-22.9 3.3-24.1 3.4zm16.1-16.8c-3.6 1.9-6-1.3-6.9-2.2-1.3-2.5-.6-6.1 3.2-7.2 3-.8 6.2 1.2 6.5 4.5.2 2.1-1.1 4-2.8 4.9zm3.1-8.6c2.6-3 7.3-6.2 15.6-5.6.1 0 1.2.1 2 1.2.9 1.3.9 3.5.1 6.3-2.3-.6-9.2-1.5-16.6 3.8.5-2.1.1-4-1.1-5.7zm3.2 6.4c.1-.1.3-.2.4-.3 3.2-2 6.9-3.1 10.7-3h.3l-11.4 3.3zm3.5-18.2c3.6 1.3 6.9 2.9 9.8 4.7h-.2c-.1 0-.2 0-.2-.1h-.5c-8.9-.6-14 2.8-16.9 6.1-1.5-1.2-3.6-1.8-5.5-1.4-1.4-2.1-3.2-4-5.4-5.6-.3-.2-.5-.4-.8-.6 10.2-2.2 18.4-3 19.7-3.1zm-35.7.4c5.2 0 9.7 1 13.5 3 3.5 1.9 5.8 4.3 7.2 6.3-2.2 1-3.7 3.1-3.9 5.9v.3c-6.6-4.8-14.2-6.4-20.3-5.1-.2-1-.4-1.9-.5-2.8-.4-4 .8-7.5 4-7.6zm-16.2 16.1c0 .1 0 .1 0 0 0 .1 0 .1.1.1.2.5 1.6 5.3 6.9 10.8l.1.1 2 8.6c-5.2-5.4-10.2-12.4-9.1-19.6zm14.6 46.4c-1.1-1.7-4.3-15.1-6.5-25.4.5.6 1.1 1.1 1.7 1.7l5.9 25.6c-.1-.1-.2-.3-.2-.4-.4-.7-.7-1.2-.9-1.5zm9.3 11.6-6.6-29.5c3.7 2.3 5.4 3.2 10.6 4.8.6 4.2.6 5.3 3.2 28.4-2.6-.9-5-2.2-7.2-3.7zm9 4c-.7-7.6-2.3-20.9-3.2-29 7.7-.7 15.7-2 22-3.6l1.4 28.6c-8.8 2.5-17.8 4-20.2 4zm21.8-4.5-1.4-29.1-.5-10.3c0-.2-.1-.4-.2-.5l-.2-.2-10.8-11.2c.9-.3 1.9-.7 2.7-1.4h.1l14.9 11.7.1 10 .4 29.7-5.1 1.3zm14.8-6.5c-1.8 1.5-4.7 2.9-8.1 4.2l-.4-28.5c4.4-1.5 9.3-3.5 13.3-5.8.8 8.5-4.2 27.7-4.8 30.1zm8.6-34.8c-.2.2-1.1 1.2-3.6 2.7-4.1 2.5-9 4.5-13.6 6.1l-.1-8.5c5.7-1.6 14.3-4.4 19.1-7.9 0 2.3-.4 5.9-1.8 7.6z"/>
      <path class="st0" d="M317.9-113.8h1.3v280.2h-1.3z"/>
    </g>
    <g class="st1">
      <path class="st0" d="M271.5 310.6c.5-.4 1.1-.8 1.9-1 .4-.1.8-.2 1.1-.2H280.2c2.3 0 4.5-.1 6.8-.2 2.2-.1 4.5-.3 6.7-.5 1.1-.1 2.2-.3 3.2-.5.5-.1 1-.2 1.5-.4.2-.1.4-.2.5-.2.2-.1 0-.1-.1.4l.8 1.2c-6.9-2.7-13.4-6.7-19-11.4-5.7-4.8-10.7-10.4-15.1-16.3l-2.5-3.6 4.3.1c3.3.1 6.6.1 9.9 0 1.6-.1 3.3-.1 4.9-.3.8-.1 1.6-.2 2.3-.4.4-.1.7-.2 1-.3l.3-.1c-.1.1-.1.2-.1.3l.6.9c-4.1-2-7.9-4.5-11.3-7.4-3.3-3-6.4-6.4-9.1-10-2.7-3.6-5.1-7.5-7.2-11.4-2.1-4-4-8-5.6-12.4h4.6c-1.6 4.4-3.4 8.4-5.5 12.4s-4.5 7.8-7.1 11.4c-2.7 3.6-5.7 7-9.1 10-3.4 3-7.2 5.5-11.3 7.5l.7-1.1c0-.1 0-.3-.1-.4l.3.1c.3.1.6.2 1 .3.7.2 1.5.3 2.3.4 1.6.2 3.2.3 4.9.4 3.3.1 6.6.1 9.9.1h4.4l-2.7 3.6c-4.4 6-9.4 11.5-15.2 16.3-5.7 4.8-12.1 8.7-19.1 11.3l.7-1c0-.5-.2-.4 0-.3.1.1.3.2.6.2.5.2 1 .3 1.5.4 1.1.2 2.2.3 3.3.5 2.2.2 4.5.4 6.7.4 4.5.2 9 .2 13.6.2h4.4l-2.7 3.6c-4 5.3-8.4 10.3-13.4 14.8-5 4.4-10.5 8.2-16.6 11l.8-1.3c-.1-.7-.2-.3.2-.2.3.2.7.3 1.1.4.9.3 1.8.5 2.7.6 1.9.3 3.8.6 5.8.8 3.9.4 7.8.7 11.8.9 7.9.4 15.8.6 23.7.6 7.9 0 15.8-.1 23.7-.5 3.9-.2 7.9-.4 11.8-.8 2-.2 3.9-.4 5.8-.7.9-.2 1.9-.4 2.8-.6.4-.1.9-.3 1.2-.4.4-.1.5-.5.4-.1l.6 1c-6.1-2.7-11.7-6.5-16.7-10.9-2.5-2.2-4.9-4.5-7.1-7-1.1-1.2-2.2-2.5-3.3-3.8l-1.6-1.9c-.4-.4-.9-1.3-1.2-2 .1-1 0-1.8-.1-2.5zm4.1 2c.4 0 .7-.1.9-.3.2-.1.1-.3.3-.1l1.4 1.9c1 1.3 1.9 2.5 2.9 3.8 2 2.5 4.2 4.8 6.4 7.1 4.6 4.5 9.7 8.4 15.3 11.3l.7.4-.1.7v.1c0 .7-.4 1.2-.7 1.4-.3.3-.6.5-.8.6-.5.3-1.1.5-1.6.7-1 .4-2 .6-3 .8-2 .4-4 .8-6 1.1-4 .5-8 .9-11.9 1.2-8 .5-15.9.8-23.9.8-8 0-15.9-.1-23.9-.7-4-.3-8-.6-12-1.1-2-.3-4-.6-6-1-1-.2-2-.5-3.1-.8-.5-.2-1-.4-1.6-.7-.3-.2-.6-.4-.9-.7-.3-.3-.7-.9-.8-1.7v-.8l.9-.5c11.4-5.8 20.4-15.3 27.6-25.8l1.8 3.6c-4.6-.4-9.1-.8-13.7-1.3-2.3-.3-4.6-.6-6.8-1-1.1-.2-2.3-.5-3.4-.8-.6-.2-1.2-.3-1.8-.6-.3-.1-.6-.3-1-.5-.3-.2-.9-.6-1-1.6v-.7l.7-.3c6.5-2.9 12.5-7 17.7-11.8 5.2-4.8 9.7-10.4 13.7-16.3l1.8 3.6c-3.4-.3-6.7-.7-10.1-1.2-1.7-.2-3.4-.5-5-.9-.8-.2-1.7-.4-2.6-.7-.4-.1-.9-.3-1.4-.5-.3-.2-.5-.3-.8-.5-.2-.1-.3-.3-.4-.5-.2-.3-.3-.7-.3-1v-.7l.7-.4c3.8-2 7.2-4.6 10.3-7.5 3-3 5.8-6.4 8.2-9.9 2.4-3.6 4.5-7.4 6.3-11.2 1.8-3.9 3.5-8 4.7-11.9l2.3-7.7 2.2 7.7c1.2 4 2.8 8.1 4.7 12 1.8 3.9 3.9 7.7 6.3 11.3 2.4 3.6 5.1 6.9 8.2 10 3.1 3 6.6 5.5 10.3 7.6l.7.4-.1.6c0 .3-.1.6-.3.9-.1.2-.3.3-.4.4-.3.2-.5.3-.8.5-.4.2-.9.4-1.3.5-.9.3-1.7.5-2.5.7-1.7.4-3.4.7-5 .9-3.4.5-6.7.9-10.1 1.2l1.8-3.6c3.9 5.9 8.5 11.5 13.7 16.3 5.2 4.8 11.2 8.9 17.7 11.7l.8.4v.8c-.1 1.2-.8 1.5-1.1 1.7-.4.2-.7.4-1 .5-.6.3-1.2.4-1.8.6-1.2.3-2.3.6-3.5.8-2.3.4-4.6.7-6.9 1-2.3.3-4.6.5-6.8.7l-3.4.3-1.7.1h-.2c-.1 0-.1 0 0 0s.2-.1.3-.2c.2-.4.3-.8.2-1.2z"/>
      <path class="st0" d="M254.6-201.4h2.1v441.7h-2.1z"/>
    </g>
    <g class="st1">
      <path class="st0" d="M67.1 178.9c.3-.2.7-.5 1.2-.6.2-.1.5-.1.7-.1H72.4c1.4 0 2.8-.1 4.2-.1 1.4-.1 2.8-.2 4.1-.3.7-.1 1.4-.2 2-.3.3-.1.6-.1.9-.2.1 0 .3-.1.3-.1.1 0 0-.1 0 .3l.5.7c-4.3-1.7-8.2-4.1-11.8-7.1-3.5-3-6.6-6.4-9.3-10.1l-1.5-2.3 2.6.1c2 0 4.1.1 6.1 0 1 0 2-.1 3-.2.5-.1 1-.1 1.4-.2.2 0 .4-.1.6-.2l.2-.1s-.1.1 0 .2l.4.6c-2.5-1.2-4.9-2.8-7-4.6-2.1-1.9-3.9-3.9-5.6-6.2-1.6-2.2-3.1-4.6-4.4-7.1-1.3-2.5-2.5-4.9-3.4-7.7h2.8c-1 2.7-2.1 5.2-3.4 7.7-1.3 2.5-2.8 4.8-4.4 7.1-1.7 2.2-3.5 4.3-5.6 6.2-2.1 1.9-4.5 3.4-7 4.6l.4-.7c0-.1 0-.2-.1-.2l.2.1c.2.1.4.1.6.2.5.1.9.2 1.4.2 1 .1 2 .2 3 .2 2 .1 4.1.1 6.1.1h2.7l-1.6 2.2c-2.7 3.7-5.8 7.1-9.4 10-3.5 2.9-7.5 5.4-11.8 7l.4-.6c0-.3-.1-.2 0-.2s.2.1.4.1c.3.1.6.2.9.2.7.1 1.3.2 2 .3 1.4.1 2.8.2 4.1.3 2.8.1 5.6.1 8.4.1h2.7l-1.7 2.2c-2.4 3.3-5.2 6.4-8.3 9.1-3.1 2.7-6.5 5.1-10.3 6.8l.5-.8c-.1-.4-.1-.2.1-.1s.4.2.7.3c.5.2 1.1.3 1.7.4 1.2.2 2.4.4 3.6.5 2.4.2 4.8.4 7.3.5 4.9.2 9.8.4 14.6.3 4.9 0 9.8 0 14.7-.3 2.4-.1 4.9-.2 7.3-.5 1.2-.1 2.4-.2 3.6-.4.6-.1 1.2-.2 1.7-.4.3-.1.5-.2.7-.3.2-.1.3-.3.2 0l.4.6c-3.8-1.7-7.2-4-10.3-6.7-1.5-1.4-3-2.8-4.4-4.3-.7-.8-1.4-1.5-2-2.3l-1-1.2c-.2-.3-.6-.8-.7-1.3.4-.5.3-1 .2-1.4zm2.5 1.2c.2 0 .5-.1.6-.2.1-.1.1-.2.2 0l.9 1.2c.6.8 1.2 1.6 1.8 2.3 1.2 1.5 2.6 3 4 4.4 2.8 2.8 6 5.2 9.5 7l.4.2v.4c0 .4-.2.7-.4.9-.2.2-.4.3-.5.4-.3.2-.6.3-1 .4-.6.2-1.2.4-1.9.5-1.2.3-2.5.5-3.7.7-2.5.3-4.9.5-7.4.7-4.9.3-9.8.5-14.8.5-4.9 0-9.8-.1-14.8-.4-2.5-.2-4.9-.3-7.4-.7-1.2-.2-2.5-.4-3.7-.6-.6-.1-1.2-.3-1.9-.5-.3-.1-.6-.2-1-.4-.2-.1-.4-.2-.6-.4-.2-.2-.4-.5-.5-1v-.5l.5-.3c7-3.6 12.6-9.4 17-15.9L46 181c-2.8-.2-5.6-.5-8.5-.8l-4.2-.6c-.7-.1-1.4-.3-2.1-.5-.4-.1-.7-.2-1.1-.4l-.6-.3c-.2-.1-.6-.3-.6-1v-.4l.5-.2c4-1.8 7.7-4.3 10.9-7.3s6-6.4 8.4-10.1l1.1 2.2c-2.1-.2-4.1-.4-6.2-.7-1-.2-2.1-.3-3.1-.6-.5-.1-1-.2-1.6-.4-.3-.1-.5-.2-.8-.3-.2-.1-.3-.2-.5-.3l-.3-.3c-.1-.2-.2-.4-.2-.6v-.4l.5-.3c2.3-1.3 4.5-2.8 6.4-4.7 1.9-1.9 3.6-3.9 5.1-6.1 1.5-2.2 2.8-4.5 3.9-6.9 1.1-2.4 2.2-4.9 2.9-7.4l1.4-4.8 1.4 4.8c.7 2.5 1.8 5 2.9 7.4 1.1 2.4 2.4 4.7 3.9 7 1.5 2.2 3.2 4.3 5 6.1 1.9 1.8 4.1 3.4 6.4 4.7l.4.2v.4c0 .2-.1.4-.2.5l-.3.3c-.2.2-.3.2-.5.3-.3.1-.6.3-.8.3-.5.2-1.1.3-1.6.4-1 .2-2.1.4-3.1.6-2.1.3-4.1.6-6.2.8l1.1-2.2c2.4 3.7 5.2 7.1 8.5 10 3.2 3 6.9 5.5 10.9 7.2l.5.2v.5c-.1.7-.5.9-.7 1.1l-.6.3c-.4.2-.7.3-1.1.4-.7.2-1.4.3-2.1.5-1.4.3-2.8.4-4.2.6-1.4.2-2.8.3-4.2.4l-2.1.2-1.1.1h-.1c-.1 0-.1 0 0 0 0 0 .1 0 .2-.1 0-.2.1-.5 0-.7z"/>
      <path class="st0" d="M56.7-137.4H58v272.8h-1.3z"/>
    </g>
    <g class="st1">
      <circle class="st0" cx="86.8" cy="350.2" r="13.3"/>
      <path class="st0" d="M220.2 197.2c-6.8 1.1-7.7 2-8.8 8.8-1.1-6.8-2-7.7-8.8-8.8 6.8-1.1 7.7-2 8.8-8.8 1.1 6.9 2 7.7 8.8 8.8zM304.3 69.1c-7.5 1.2-8.4 2.2-9.7 9.7-1.2-7.5-2.2-8.4-9.7-9.7 7.5-1.2 8.4-2.2 9.7-9.7 1.3 7.5 2.3 8.5 9.7 9.7zM312.5 411.6c-6.4 1-7.3 1.9-8.3 8.3-1-6.4-1.9-7.3-8.3-8.3 6.4-1 7.3-1.9 8.3-8.3 1 6.4 1.8 7.3 8.3 8.3zM290.1 515c-7.8 1.3-8.9 2.3-10.1 10.1-1.3-7.8-2.3-8.9-10.1-10.1 7.8-1.3 8.9-2.3 10.1-10.1 1.2 7.8 2.2 8.8 10.1 10.1zM378.8 318.3c-4.8.8-5.4 1.4-6.2 6.2-.8-4.8-1.4-5.4-6.2-6.2 4.8-.8 5.4-1.4 6.2-6.2.8 4.8 1.4 5.4 6.2 6.2zM160.7 50.8c-7.3 1.2-8.3 2.2-9.5 9.5-1.2-7.3-2.2-8.3-9.5-9.5 7.3-1.2 8.3-2.2 9.5-9.5 1.2 7.3 2.1 8.3 9.5 9.5z"/>
      <circle transform="rotate(-80.811 354.9 130.511)" class="st0" cx="354.9" cy="130.5" r="16.1"/>
      <path class="st0" d="M99.5 465.4c-10.2 1.7-11.6 3-13.2 13.2-1.7-10.2-3-11.6-13.2-13.2 10.2-1.7 11.6-3 13.2-13.2 1.6 10.1 2.9 11.5 13.2 13.2zM68.1 249.2c-6.1 1-6.9 1.8-7.9 7.9-1-6.1-1.8-6.9-7.9-7.9 6.1-1 6.9-1.8 7.9-7.9 1 6.1 1.8 6.9 7.9 7.9zM231.6 111.6c-7 1.1-7.9 2-9 9-1.1-7-2-7.9-9-9 7-1.1 7.9-2 9-9 1.2 7 2.1 7.9 9 9zM265 375c-9.9 1.6-11.2 2.9-12.9 12.9-1.6-9.9-2.9-11.2-12.9-12.9 9.9-1.6 11.2-2.9 12.9-12.9 1.7 10 3 11.3 12.9 12.9zM199.1 534.4c-7.4 1.2-8.4 2.2-9.6 9.6-1.2-7.4-2.2-8.4-9.6-9.6 7.4-1.2 8.4-2.2 9.6-9.6 1.3 7.5 2.2 8.4 9.6 9.6z"/>
    </g>
  </g>
</svg>
