<svg version="1.1" id="Layer_1" xmlns="http://www.w3.org/2000/svg" x="0" y="0" viewBox="0 0 600 600" xml:space="preserve">
  <style>
    .st0{fill:#fff}
  </style>
  <path class="st0" d="M402.5 419.2h-7.9l.8-16h6.3z"/>
  <path class="st0" d="M445.4 395c-4.2-3.1-8.3-6.3-12.1-10-2.4-2.4-4.7-5-6.7-7.8s-3.6-5.9-4.7-9.1l-1-2.5 2.3 1.5c1.8 1.2 3.7 2.3 5.6 3.3.9.5 1.9.9 2.9 1.4 1 .4 2 .8 3 1.1 1 .3 2 .6 3.1.9 1 .2 2.1.5 3.1.6 2.1.3 4.2.6 6.4.7l-.5 1.6-4.1-2.7c-.7-.4-1.3-.9-2-1.4l-2-1.4-3.9-3c-1.3-1-2.5-2.2-3.7-3.2-.6-.5-1.2-1.1-1.8-1.7l-1.8-1.7c-.6-.6-1.1-1.2-1.7-1.7L424 358l-6.6-7.2-1.7-1.7 2.5.3c3.3.4 6.6.9 9.7 1 1.6 0 3.1-.1 4.6-.3.8-.1 1.5-.3 2.2-.5.7-.2 1.5-.5 2.2-.7l-.4 3.5c-2.6-1.6-5.3-3.3-7.8-5.1-.6-.4-1.3-.9-1.9-1.4l-1.8-1.5c-1.2-1-2.4-2-3.5-3.1l-3.3-3.3c-.5-.6-1.1-1.1-1.6-1.7l-1.5-1.8c-2-2.4-3.8-4.9-5.6-7.4L408 325l2.5.7c1.6.4 3.1.9 4.7 1.2.8.2 1.6.3 2.4.5l2.4.3 1.2.1c.4 0 .8.1 1.2.1h2.4l1.2-.1c.4 0 .8 0 1.2-.1l2.4-.3-.2 1-1.7-1c-.6-.3-1.2-.7-1.7-1-1.1-.7-2.3-1.4-3.4-2.2-1.1-.7-2.2-1.5-3.3-2.3-.5-.4-1.1-.8-1.6-1.2-.5-.4-1.1-.8-1.6-1.2-1-.8-2.1-1.7-3.1-2.6l-3-2.7c-1-.9-1.9-1.9-2.9-2.9-.9-1-1.8-2-2.7-3.1l-2-2.6 3 1.2c2.2.9 4.3 1.9 6.4 2.6 1.1.3 2.1.6 3.2.7h1.6c.5 0 1.1-.1 1.6-.2l-.4 1.5c-2.4-1.9-4.4-4.1-6.3-6.4-1.9-2.3-3.6-4.7-5.3-7.2-1.6-2.5-3.2-5-4.7-7.6-1.5-2.6-2.9-5.1-4.3-7.8h2.6c-1.4 2.7-2.8 5.2-4.3 7.8-1.5 2.6-3.1 5.1-4.7 7.5-1.7 2.5-3.4 4.9-5.3 7.2s-3.9 4.5-6.3 6.4l-.4-1.1c1.1-.1 2.3-.1 3.4-.2.6 0 1.1-.1 1.7-.2.6-.1 1.1-.2 1.7-.3.6-.1 1.1-.3 1.6-.4.3-.1.5-.2.8-.2l.8-.3 1.6-.6 1.6-.7 1.6-.8-1.1 1.5c-.8 1.1-1.7 2.1-2.5 3.2l-2.7 3c-.9 1-1.9 1.9-2.9 2.8l-3 2.7c-.5.4-1 .9-1.5 1.3s-1 .9-1.6 1.3c-1.1.8-2.1 1.7-3.2 2.5s-2.2 1.6-3.3 2.3c-.6.4-1.1.7-1.7 1.1l-1.7 1.1-.6-2.8c3.2.4 6.4.8 9.6.8 1.6 0 3.2-.1 4.7-.4 1.6-.3 3.1-.7 4.6-1.2l3-1.1-2 2.4-1.6 1.9-1.6 1.8-1.7 1.8-1.8 1.7c-1.2 1.1-2.4 2.2-3.7 3.3-1.3 1.1-2.5 2.1-3.9 3-2.6 2-5.3 3.8-8 5.6-2.7 1.8-5.5 3.5-8.2 5.2l-.2-1.6c.8.3 1.5.5 2.3.7.8.2 1.6.3 2.3.5.8.1 1.6.2 2.4.2h2.4c3.2-.2 6.4-.9 9.6-1.7l2-.5-1.1 1.8c-.4.7-.8 1.4-1.2 2-.4.7-.8 1.3-1.3 2-.9 1.3-1.8 2.5-2.8 3.8-1 1.2-2 2.4-3.1 3.5l-3.3 3.3c-1.1 1.1-2.3 2.1-3.5 3.2l-3.6 3c-2.4 2-4.8 3.9-7.3 5.8l-1.2-2.8c4.3-.6 8.5-1.2 12.6-2.3 2-.6 4-1.3 6-2.1 1.9-.8 3.8-1.8 5.7-2.9l3.2-1.9-2 3.1-2.7 4.2c-1 1.4-1.9 2.7-3 4-1 1.3-2.1 2.6-3.2 3.8-1.1 1.2-2.3 2.4-3.5 3.6-.6.6-1.2 1.2-1.8 1.7-.6.6-1.2 1.1-1.9 1.6-1.3 1.1-2.6 2.1-3.9 3.1-2.6 2-5.3 4-7.9 6l-.2-1.5c2 .8 4.1 1.5 6.1 2 2.1.6 4.2 1.1 6.3 1.6 2.1.5 4.3.9 6.4 1.2 2.1.4 4.3.7 6.5 1 2.2.3 4.3.5 6.5.7 2.2.2 4.4.3 6.5.4 2.2.1 4.4.1 6.5.2h6.5l6.6-.2c2.2-.1 4.3-.2 6.5-.4s4.3-.4 6.5-.6c2.2-.2 4.3-.5 6.5-.9 2.1-.3 4.3-.7 6.4-1.1 2.1-.4 4.2-.9 6.3-1.4 2.1-.5 4.2-1.1 6.2-1.8.8-.2 1.4-.4 2.1-.6zm6 2.9c-2.3.9-4.4 1.6-6.6 2.2-2.2.6-4.3 1.2-6.5 1.6-2.2.5-4.4.9-6.6 1.3-2.2.4-4.4.7-6.6 1-2.2.3-4.4.5-6.6.7-2.2.2-4.4.3-6.6.5-2.2.1-4.5.1-6.7.2h-6.6l-6.7-.2c-2.2-.1-4.4-.2-6.6-.4-2.2-.2-4.4-.4-6.6-.7-2.2-.2-4.4-.6-6.6-.9-2.2-.4-4.4-.7-6.5-1.2-2.2-.4-4.3-.9-6.5-1.5-2.1-.6-4.3-1.1-6.4-1.8-2.1-.7-4.2-1.4-6.3-2.3l-1.4-.6 1.2-.9c2.7-2 5.3-3.9 7.9-5.9 1.3-1 2.6-2 3.8-3.1.6-.5 1.2-1.1 1.8-1.6.6-.5 1.2-1.1 1.8-1.7 1.2-1.1 2.3-2.3 3.4-3.5 1.1-1.2 2.1-2.5 3.2-3.7 1-1.3 2-2.6 2.9-3.9.9-1.3 1.8-2.7 2.7-4.1l1.2 1.2c-1.8 1.2-3.7 2.3-5.7 3.3s-4 1.8-6.1 2.5c-4.2 1.4-8.5 2.3-12.8 3l-6.2 1.1 5-3.9c2.5-1.8 5-3.6 7.4-5.4 1.2-.9 2.4-1.9 3.6-2.8 1.2-1 2.3-1.9 3.5-3 1.1-1 2.3-2 3.3-3.1 1.1-1.1 2.1-2.2 3.1-3.3 1-1.1 2-2.3 2.9-3.5.5-.6.9-1.2 1.3-1.8.4-.6.8-1.3 1.2-1.9l1 1.3c-3.2.8-6.5 1.5-9.9 1.7-.9.1-1.7.1-2.6 0-.9 0-1.7-.1-2.6-.2-.8-.1-1.7-.3-2.5-.5s-1.6-.5-2.5-.7l-1.7-.6 1.6-1c2.7-1.7 5.5-3.4 8.2-5.2 2.7-1.8 5.4-3.6 8-5.5 1.3-1 2.5-2 3.8-3 1.2-1 2.4-2.1 3.6-3.2l1.7-1.7 1.7-1.7 1.6-1.8 1.5-1.8 1 1.4c-1.6.6-3.2 1.2-4.8 1.6-1.6.4-3.3.6-5 .8-3.4.2-6.7.1-10-.2l-4.5-.3 3.9-2.5 1.7-.9c.6-.3 1.2-.6 1.7-1 1.1-.7 2.3-1.3 3.4-2s2.2-1.4 3.3-2.2c.5-.4 1.1-.8 1.6-1.1.5-.4 1.1-.8 1.6-1.2 1-.8 2.1-1.6 3.1-2.5 1-.8 2-1.7 3-2.6 1-.9 1.9-1.8 2.9-2.7.9-.9 1.8-1.9 2.7-2.9l.5.7-1.6.8-1.6.7-.8.3c-.3.1-.6.2-.8.3-.6.1-1.1.3-1.7.4-.6.1-1.2.2-1.7.3-.6.1-1.2.2-1.7.2-1.2.1-2.3.2-3.5.3l-1.8.1 1.4-1.2c2.2-1.9 4.1-4.1 5.8-6.4 1.7-2.3 3.3-4.8 4.9-7.3 1.5-2.5 3-5 4.3-7.6 1.4-2.6 2.7-5.2 3.9-7.8l1.2-2.6 1.4 2.6c1.2 2.6 2.6 5.2 4 7.8 1.4 2.6 2.8 5.1 4.4 7.6 1.5 2.5 3.2 4.9 4.9 7.2 1.8 2.3 3.6 4.5 5.8 6.3l1.5 1.2-1.9.3c-.6.1-1.2.2-1.8.2h-1.9c-1.2-.1-2.4-.4-3.6-.7-2.3-.7-4.4-1.8-6.5-2.6l1-1.3c.8 1 1.6 2 2.5 3 .9 1 1.8 1.9 2.7 2.9.9.9 1.9 1.8 2.9 2.7 1 .9 2 1.7 3 2.6l1.5 1.2c.5.4 1 .8 1.6 1.2 1.1.8 2.1 1.6 3.2 2.3 1.1.8 2.2 1.5 3.3 2.2.5.4 1.1.7 1.7 1l1.7 1 1.3.8-1.5.2-2.4.4c-.4.1-.8.1-1.2.1l-1.2.1c-.4.1-.8 0-1.2.1H420.3c-.8-.1-1.7-.2-2.5-.3-.8-.1-1.6-.3-2.5-.4-1.6-.3-3.2-.7-4.8-1.1l.9-1.4c1.9 2.4 3.9 4.7 5.9 6.9.5.6 1 1.1 1.6 1.6l1.6 1.6c1.1 1 2.2 2 3.4 3 1.2 1 2.3 1.9 3.6 2.8.6.4 1.2.9 1.8 1.3.6.4 1.2.8 1.9 1.2 2.5 1.6 5.2 3.1 7.8 4.6l3.9 2.1-4.2 1.4c-.9.2-1.7.4-2.6.6-.9.2-1.8.3-2.6.3-1.8.1-3.5.1-5.2-.2-3.4-.4-6.6-1.3-9.8-2l.8-1.4 6.6 7.2 1.7 1.7c.6.6 1.1 1.2 1.7 1.7l1.7 1.7c.6.6 1.1 1.1 1.8 1.7 1.2 1.1 2.4 2.2 3.6 3.2 1.3 1 2.5 2.1 3.8 3l2 1.4c.7.5 1.3 1 2 1.4l4 2.6 2.9 1.9-3.4-.3c-2.2-.2-4.4-.4-6.5-.8l-3.3-.6c-1.1-.3-2.1-.6-3.2-.9-1.1-.4-2.1-.7-3.1-1.2-1-.4-2-.9-3-1.4-2-1-3.8-2.2-5.7-3.3l1.3-1c1.3 3 3.1 5.7 5.1 8.2 2.1 2.5 4.4 4.7 6.9 6.8 2.5 2.1 5.1 4 7.9 5.8 2.7 1.8 5.5 3.5 8.4 5.3l4.1 2.5-5.2 1.5z"/>
  <path class="st0" d="m371.5 395.5-2.9-1.2-2.6 1.7.3-3.1-2.4-1.9 3-.8 1.1-2.8 1.6 2.6 3.1.2-2 2.3zM426.7 395.5l-2.8-1.2-2.6 1.7.2-3.1-2.4-1.9 3-.8 1.1-2.8 1.6 2.6 3.1.2-2 2.3zM397.8 394.2 395 393l-2.6 1.7.2-3.1-2.4-1.9 3-.7 1.1-2.9 1.6 2.6 3.1.2-2 2.3zM396.1 363.5l-2.8-1.2-2.6 1.7.3-3.1-2.4-1.9 3-.7 1.1-2.9 1.6 2.7 3 .1-2 2.3zM399.5 332.1l-2.8-1.2-2.6 1.7.3-3.1-2.4-1.9 3-.7 1.1-2.9 1.6 2.6 3 .2-2 2.3zM402.8 350.2l-2.1-.9-1.8 1.2.1-2.2-1.7-1.4 2.2-.5.8-2 1.1 1.8 2.2.2-1.4 1.6zM380 379.4l-2-.8-1.9 1.2.2-2.2-1.7-1.4 2.1-.5.8-2.1 1.2 1.9 2.2.1-1.5 1.7zM406.9 381.9l-2-.9-1.9 1.2.2-2.2-1.7-1.4 2.1-.5.8-2 1.2 1.9 2.2.1-1.4 1.7zM410.1 321.2l-2.1-.9-1.8 1.2.2-2.2-1.8-1.4 2.2-.5.8-2.1 1.1 1.9 2.3.1-1.5 1.7zM412.2 363l-2.8-1.2-2.6 1.7.2-3.1-2.4-1.9 3-.7 1.1-2.9 1.6 2.6 3.1.2-2 2.3zM388.5 344.5l-2.8-1.1-2.6 1.6.2-3-2.4-2 3-.7 1.1-2.9 1.6 2.7 3.1.1-2 2.4zM403.4 304.2l-2.8-1.2-2.6 1.7.3-3.1-2.4-1.9 3-.7 1.1-2.9 1.6 2.6 3 .2-2 2.3zM416.7 375.9l-1.2-.6-1.2.8.1-1.4-1-.8 1.3-.3.5-1.3.7 1.2h1.3l-.8 1.1zM409.2 399.3l-1.3-.5-1.1.7.1-1.3-1-.9 1.3-.3.5-1.2.7 1.1 1.3.1-.9 1zM382.3 399.3l-1.3-.5-1.1.7.1-1.3-1-.9 1.3-.3.5-1.2.7 1.1 1.3.1-.9 1zM376 363.2l-1.3-.5-1.1.8.1-1.4-1-.8 1.3-.3.4-1.3.7 1.2h1.4l-.9 1.1zM412.9 343.7l-1.3-.5-1.1.7.1-1.3-1-.8 1.3-.3.5-1.3.7 1.1 1.3.1-.9 1zM392.4 319.5l-1.2-.5-1.1.7.1-1.3-1.1-.9 1.3-.3.5-1.2.7 1.1 1.4.1-.9 1zM399.9 292.7l-1.2-.5-1.1.7.1-1.4-1-.8 1.3-.3.4-1.3.7 1.2 1.4.1-.9 1zM381.9 325.1l-.8-.3-.8.4.1-.9-.7-.5.8-.3.4-.8.4.8h1l-.6.7zM417.6 325.1l-.9-.3-.8.5.1-.9-.7-.6.9-.2.3-.9.5.8h.9l-.6.7zM399.8 311.5l-.9-.4-.7.5v-.9l-.7-.6.9-.2.3-.8.5.7.9.1-.6.7zM371.1 348l-.8-.3-.8.5.1-.9-.7-.6.9-.2.3-.9.5.8.9.1-.6.7zM421.4 345.5l-.9-.4-.7.5v-.9l-.7-.5.9-.3.4-.8.4.8h.9l-.6.7zM388.2 351.7l-.9-.4-.7.5v-.9l-.7-.6.9-.2.3-.8.5.7.9.1-.6.7zM398.1 371.7l-.9-.4-.8.5.1-.9-.7-.6.9-.2.3-.8.5.8h.9l-.6.7zM406.9 335l-.9-.4-.7.5.1-.9-.8-.6.9-.2.4-.8.4.7.9.1-.5.7zM401.1 320.2l-.9-.3-.7.5v-.9l-.7-.6.9-.2.3-.9.5.8.9.1-.6.7zM430.1 369.1l-.8-.3-.8.5.1-.9-.7-.6.9-.2.3-.9.5.8.9.1-.6.7zM436.2 395.2l-.8-.3-.8.5.1-.9-.7-.6.8-.2.4-.9.4.8 1 .1-.6.7zM391.2 304.6l-.9-.4-.7.5v-.9l-.7-.6.9-.2.4-.8.4.7.9.1-.6.7zM388.6 380.2l-1.2-.5-1.1.7.1-1.3-1.1-.8 1.3-.4.5-1.2.7 1.1 1.3.1-.8 1zM397.6 0h2v282.6h-2z"/>
  <g>
    <path class="st0" d="M467 283.9h-7.9l.8-15.9h6.3z"/>
    <path class="st0" d="M509.8 259.7c-4.2-3.1-8.3-6.3-12.1-10-2.4-2.4-4.7-5-6.7-7.8s-3.6-5.9-4.7-9.1l-1-2.5 2.3 1.5c1.8 1.2 3.7 2.3 5.6 3.3.9.5 1.9.9 2.9 1.4 1 .4 2 .8 3 1.1 1 .3 2 .6 3.1.9 1 .2 2.1.5 3.1.6 2.1.3 4.2.6 6.4.7l-.5 1.6-4.1-2.7c-.7-.4-1.3-.9-2-1.4l-2-1.4-3.9-3c-1.3-1-2.5-2.2-3.7-3.2-.6-.5-1.2-1.1-1.8-1.7l-1.8-1.7c-.6-.6-1.1-1.2-1.7-1.7l-1.7-1.8-6.6-7.2-1.7-1.7 2.5.3c3.3.4 6.6.9 9.7 1 1.6 0 3.1-.1 4.6-.3.8-.1 1.5-.3 2.2-.5.7-.2 1.5-.5 2.2-.7l-.4 3.5c-2.6-1.6-5.3-3.3-7.8-5.1-.6-.4-1.3-.9-1.9-1.4l-1.8-1.5c-1.2-1-2.4-2-3.5-3.1l-3.3-3.3c-.5-.6-1.1-1.1-1.6-1.7l-1.5-1.8c-2-2.4-3.8-4.9-5.6-7.4l-1.5-2.1 2.5.7c1.6.4 3.1.9 4.7 1.2.8.2 1.6.3 2.4.5l2.4.3 1.2.1c.4 0 .8.1 1.2.1h2.4l1.2-.1c.4 0 .8 0 1.2-.1l2.4-.3-.2 1-1.7-1c-.6-.3-1.2-.7-1.7-1-1.1-.7-2.3-1.4-3.4-2.2-1.1-.7-2.2-1.5-3.3-2.3-.5-.4-1.1-.8-1.6-1.2-.5-.4-1.1-.8-1.6-1.2-1-.8-2.1-1.7-3.1-2.6l-3-2.7c-1-.9-1.9-1.9-2.9-2.9-.9-1-1.8-2-2.7-3.1l-2-2.6 3 1.2c2.2.9 4.3 1.9 6.4 2.6 1.1.3 2.1.6 3.2.7h1.6c.5 0 1.1-.1 1.6-.2l-.4 1.5c-2.4-1.9-4.4-4.1-6.3-6.4-1.9-2.3-3.6-4.7-5.3-7.2-1.6-2.5-3.2-5-4.7-7.6-1.5-2.6-2.9-5.1-4.3-7.8h2.6c-1.4 2.7-2.8 5.2-4.3 7.8-1.5 2.6-3.1 5.1-4.7 7.5-1.7 2.5-3.4 4.9-5.3 7.2s-3.9 4.5-6.3 6.4l-.4-1.1c1.1-.1 2.3-.1 3.4-.2.6 0 1.1-.1 1.7-.2.6-.1 1.1-.2 1.7-.3.6-.1 1.1-.3 1.6-.4.3-.1.5-.2.8-.2l.8-.3 1.6-.6 1.6-.7 1.6-.8-1.1 1.5c-.8 1.1-1.7 2.1-2.5 3.2l-2.7 3c-.9 1-1.9 1.9-2.9 2.8l-3 2.7c-.5.4-1 .9-1.5 1.3s-1 .9-1.6 1.3c-1.1.8-2.1 1.7-3.2 2.5s-2.2 1.6-3.3 2.3c-.6.4-1.1.7-1.7 1.1l-1.7 1.1-.6-2.8c3.2.4 6.4.8 9.6.8 1.6 0 3.2-.1 4.7-.4 1.6-.3 3.1-.7 4.6-1.2l3-1.1-2 2.4-1.6 1.9-1.6 1.8-1.7 1.8-1.8 1.7c-1.2 1.1-2.4 2.2-3.7 3.3-1.3 1-2.5 2.1-3.9 3-2.6 2-5.3 3.8-8 5.6-2.7 1.8-5.5 3.5-8.2 5.2l-.2-1.6c.8.3 1.5.5 2.3.7.8.2 1.6.3 2.3.5.8.1 1.6.2 2.4.2h2.4c3.2-.2 6.4-.9 9.6-1.7l2-.5-1.1 1.8c-.4.7-.8 1.4-1.2 2-.4.7-.8 1.3-1.3 2-.9 1.3-1.8 2.5-2.8 3.8-1 1.2-2 2.4-3.1 3.5l-3.3 3.3c-1.1 1.1-2.3 2.1-3.5 3.2l-3.6 3c-2.4 2-4.8 3.9-7.3 5.8l-1.2-2.8c4.3-.6 8.5-1.2 12.6-2.3 2-.6 4-1.3 6-2.1 1.9-.8 3.8-1.8 5.7-2.9l3.2-1.9-2 3.1-2.7 4.2c-.9 1.4-1.9 2.7-3 4-1 1.3-2.1 2.6-3.2 3.8-1.1 1.2-2.3 2.4-3.5 3.6-.6.6-1.2 1.2-1.8 1.7-.6.6-1.2 1.1-1.9 1.6-1.3 1.1-2.6 2.1-3.9 3.1-2.6 2-5.3 4-7.9 6l-.2-1.5c2 .8 4.1 1.5 6.1 2 2.1.6 4.2 1.1 6.3 1.6 2.1.5 4.3.9 6.4 1.2 2.1.4 4.3.7 6.5 1 2.2.3 4.3.5 6.5.7 2.2.2 4.4.3 6.5.4 2.2.1 4.4.1 6.5.2h6.5l6.6-.2c2.2-.1 4.3-.2 6.5-.4s4.3-.4 6.5-.6c2.2-.2 4.3-.5 6.5-.9 2.1-.3 4.3-.7 6.4-1.1 2.1-.4 4.2-.9 6.3-1.4 2.1-.5 4.2-1.1 6.2-1.8.8-.2 1.4-.5 2-.7zm6.1 3c-2.3.9-4.4 1.6-6.6 2.2-2.2.6-4.3 1.2-6.5 1.6-2.2.5-4.4.9-6.6 1.3-2.2.4-4.4.7-6.6 1-2.2.3-4.4.5-6.6.7-2.2.2-4.4.3-6.6.5-2.2.1-4.5.1-6.7.2h-6.6l-6.7-.2c-2.2-.1-4.4-.2-6.6-.4-2.2-.2-4.4-.4-6.6-.7-2.2-.2-4.4-.6-6.6-.9-2.2-.4-4.4-.7-6.5-1.2-2.2-.4-4.3-.9-6.5-1.5-2.1-.6-4.3-1.1-6.4-1.8-2.1-.7-4.2-1.4-6.3-2.3l-1.4-.6 1.2-.9c2.7-2 5.3-3.9 7.9-5.9 1.3-1 2.6-2 3.8-3.1.6-.5 1.2-1.1 1.8-1.6.6-.5 1.2-1.1 1.8-1.7 1.2-1.1 2.3-2.3 3.4-3.5 1.1-1.2 2.1-2.5 3.2-3.7 1-1.3 2-2.6 2.9-3.9.9-1.3 1.8-2.7 2.7-4.1l1.2 1.2c-1.8 1.2-3.7 2.3-5.7 3.3s-4 1.8-6.1 2.5c-4.2 1.4-8.5 2.3-12.8 3l-6.2 1.1 5-3.9c2.5-1.8 5-3.6 7.4-5.4 1.2-.9 2.4-1.9 3.6-2.8 1.2-1 2.3-1.9 3.5-3 1.1-1 2.3-2 3.3-3.1 1.1-1.1 2.1-2.2 3.1-3.3 1-1.1 2-2.3 2.9-3.5.5-.6.9-1.2 1.3-1.8.4-.6.8-1.3 1.2-1.9l1 1.3c-3.2.8-6.5 1.5-9.9 1.7-.9.1-1.7.1-2.6 0-.9 0-1.7-.1-2.6-.2-.8-.1-1.7-.3-2.5-.5s-1.6-.5-2.5-.7l-1.7-.6 1.6-1c2.7-1.7 5.5-3.4 8.2-5.2 2.7-1.8 5.4-3.6 8-5.5 1.3-1 2.5-2 3.8-3 1.2-1 2.4-2.1 3.6-3.2l1.7-1.7 1.7-1.7 1.6-1.8 1.5-1.8 1 1.4c-1.6.6-3.2 1.2-4.8 1.6-1.6.4-3.3.6-5 .8-3.4.2-6.7.1-10-.2l-4.5-.3 3.9-2.5 1.7-.9c.6-.3 1.2-.6 1.7-1 1.1-.7 2.3-1.3 3.4-2s2.2-1.4 3.3-2.2c.5-.4 1.1-.8 1.6-1.1.5-.4 1.1-.8 1.6-1.2 1-.8 2.1-1.6 3.1-2.5 1-.8 2-1.7 3-2.6 1-.9 1.9-1.8 2.9-2.7.9-.9 1.8-1.9 2.7-2.9l.5.7-1.6.8-1.6.7-.8.3c-.3.1-.6.2-.8.3-.6.1-1.1.3-1.7.4-.6.1-1.2.2-1.7.3-.6.1-1.2.2-1.7.2-1.2.1-2.3.2-3.5.3l-1.8.1 1.4-1.2c2.2-1.9 4.1-4.1 5.8-6.4 1.7-2.3 3.3-4.8 4.9-7.3 1.5-2.5 3-5 4.3-7.6 1.4-2.6 2.7-5.2 3.9-7.8l1.2-2.6 1.4 2.6c1.2 2.6 2.6 5.2 4 7.8 1.4 2.6 2.8 5.1 4.4 7.6 1.5 2.5 3.2 4.9 4.9 7.2 1.8 2.3 3.6 4.5 5.8 6.3l1.5 1.2-1.9.3c-.6.1-1.2.2-1.8.2h-1.9c-1.2-.1-2.4-.4-3.6-.7-2.3-.7-4.4-1.8-6.5-2.6l1-1.3c.8 1 1.6 2 2.5 3 .9 1 1.8 1.9 2.7 2.9.9.9 1.9 1.8 2.9 2.7 1 .9 2 1.7 3 2.6l1.5 1.2c.5.4 1 .8 1.6 1.2 1.1.8 2.1 1.6 3.2 2.3 1.1.8 2.2 1.5 3.3 2.2.5.4 1.1.7 1.7 1l1.7 1 1.3.8-1.5.2-2.4.4c-.4.1-.8.1-1.2.1l-1.2.1c-.4.1-.8 0-1.2.1H484.8c-.8-.1-1.7-.2-2.5-.3-.8-.1-1.6-.3-2.5-.4-1.6-.3-3.2-.7-4.8-1.1l.9-1.4c1.9 2.4 3.9 4.7 5.9 6.9.5.6 1 1.1 1.6 1.6l1.6 1.6c1.1 1 2.2 2 3.4 3 1.2 1 2.3 1.9 3.6 2.8.6.4 1.2.9 1.8 1.3.6.4 1.2.8 1.9 1.2 2.5 1.6 5.2 3.1 7.8 4.6l3.9 2.1-4.2 1.4c-.9.2-1.7.4-2.6.6-.9.2-1.8.3-2.6.3-1.8.1-3.5.1-5.2-.2-3.4-.4-6.6-1.3-9.8-2l.8-1.4 6.6 7.2 1.7 1.7c.6.6 1.1 1.2 1.7 1.7l1.7 1.7c.6.6 1.1 1.1 1.8 1.7 1.2 1.1 2.4 2.2 3.6 3.2 1.3 1 2.5 2.1 3.8 3l2 1.4c.7.5 1.3 1 2 1.4l4 2.6 2.9 1.9-3.4-.3c-2.2-.2-4.4-.4-6.5-.8l-3.3-.6c-1.1-.3-2.1-.6-3.2-.9-1.1-.4-2.1-.7-3.1-1.2-1-.4-2-.9-3-1.4-2-1-3.8-2.2-5.7-3.3l1.3-1c1.3 3 3.1 5.7 5.1 8.2 2.1 2.5 4.4 4.7 6.9 6.8 2.5 2.1 5.1 4 7.9 5.8 2.7 1.8 5.5 3.5 8.4 5.3l4.1 2.5-5.2 1.5z"/>
    <path class="st0" d="m435.9 260.2-2.8-1.1-2.6 1.6.3-3-2.4-2 3-.7 1.1-2.9 1.6 2.7 3 .1-2 2.4zM491.2 260.2l-2.9-1.1-2.5 1.6.2-3-2.4-2 3-.7 1.1-2.9 1.6 2.7 3.1.1-2 2.4zM462.3 259l-2.9-1.2-2.5 1.7.2-3.1-2.4-1.9 3-.8 1.1-2.8 1.6 2.6 3.1.2-2 2.3zM460.6 228.3l-2.8-1.2-2.6 1.7.2-3.1-2.3-1.9 2.9-.7 1.2-2.9 1.6 2.6 3 .2-2 2.3zM464 196.8l-2.8-1.1-2.6 1.6.2-3-2.3-2 2.9-.7 1.1-2.8 1.6 2.6 3.1.1-2 2.4zM467.2 214.9l-2-.8-1.9 1.2.2-2.2-1.7-1.4 2.2-.5.7-2.1 1.2 1.9 2.2.1-1.4 1.7zM444.5 244.2l-2-.9-1.9 1.2.2-2.2-1.7-1.4 2.1-.5.8-2 1.2 1.9 2.2.1-1.5 1.7zM471.4 246.7l-2-.9-1.9 1.2.2-2.2-1.7-1.4 2.1-.5.8-2.1 1.2 1.9 2.2.1-1.5 1.7zM474.6 185.9l-2.1-.8-1.8 1.2.1-2.2-1.7-1.4 2.2-.5.8-2.1 1.1 1.9 2.2.1-1.4 1.7zM476.7 227.8l-2.9-1.2-2.5 1.7.2-3.1-2.4-1.9 3-.8 1.1-2.8 1.6 2.6 3.1.2-2 2.3zM453 209.3l-2.9-1.2-2.5 1.7.2-3.1-2.4-1.9 3-.7 1.1-2.9 1.6 2.6 3.1.2-2 2.3zM467.9 169l-2.8-1.2-2.6 1.7.2-3.1-2.3-1.9 3-.7 1.1-2.9 1.6 2.6 3 .2-2 2.3zM481.2 240.6l-1.3-.5-1.1.7.1-1.3-1-.8 1.3-.4.5-1.2.7 1.1 1.3.1-.9 1zM473.7 264.1l-1.3-.6-1.1.8.1-1.4-1-.8 1.3-.3.5-1.3.7 1.2h1.3l-.9 1.1zM446.7 264.1l-1.2-.6-1.1.8.1-1.4-1-.8 1.3-.3.4-1.3.7 1.2h1.4l-.9 1.1zM440.4 228l-1.2-.5-1.1.7.1-1.3-1.1-.9 1.3-.3.5-1.2.7 1.1 1.4.1-.9 1zM477.4 208.5l-1.3-.5-1.1.7.1-1.3-1-.9 1.3-.3.4-1.2.7 1.1 1.4.1-.9 1zM456.9 184.3l-1.2-.6-1.1.8.1-1.4-1.1-.8 1.3-.3.5-1.3.7 1.2h1.3l-.8 1.1zM464.4 157.4l-1.2-.5-1.1.7.1-1.3-1.1-.8 1.3-.3.5-1.3.7 1.1 1.4.1-.9 1zM446.4 189.9l-.9-.4-.7.5v-.9l-.7-.6.9-.2.4-.8.4.7.9.1-.6.7zM482 189.9l-.8-.4-.8.5.1-.9-.7-.6.9-.2.3-.8.5.8h.9l-.6.7zM464.2 176.2l-.8-.3-.8.5.1-.9-.7-.6.9-.2.3-.9.5.8h.9l-.6.7zM435.6 212.8l-.9-.3-.7.4.1-.9-.8-.5.9-.2.4-.9.4.8h.9l-.5.7zM485.9 210.3l-.9-.4-.7.5v-.9l-.7-.6.9-.2.3-.8.5.7.9.1-.6.7zM452.7 216.4l-.9-.3-.8.5.1-.9-.7-.6.9-.2.3-.9.5.8.9.1-.6.7zM462.5 236.4l-.8-.3-.8.5.1-.9-.7-.6.9-.2.3-.9.5.8.9.1-.6.7zM471.4 199.7l-.9-.3-.7.5v-.9l-.7-.6.9-.2.3-.9.5.8.9.1-.6.6zM465.5 185l-.8-.4-.8.5.1-.9-.7-.5.9-.3.3-.8.5.8h.9l-.6.7zM494.6 233.9l-.8-.4-.8.5.1-.9-.7-.5.9-.3.3-.8.5.8h.9l-.6.7zM500.7 260l-.9-.3-.7.5v-1l-.7-.5.9-.2.4-.9.4.8h.9l-.6.7zM455.7 169.3l-.9-.3-.7.5v-.9l-.7-.6.9-.2.3-.9.5.8h.9l-.6.7zM453.1 245l-1.2-.5-1.2.7.1-1.3-1-.9 1.3-.3.5-1.2.7 1.1 1.3.1-.8 1zM462.1 0h2v147.4h-2z"/>
  </g>
  <g>
    <path class="st0" d="M528.2 514h-7.9l.8-15.9h6.3z"/>
    <path class="st0" d="M571 489.9c-4.2-3.1-8.3-6.3-12.1-10-2.4-2.4-4.7-5-6.7-7.8s-3.6-5.9-4.7-9.1l-1-2.5 2.3 1.5c1.8 1.2 3.7 2.3 5.6 3.3.9.5 1.9.9 2.9 1.4 1 .4 2 .8 3 1.1 1 .3 2 .6 3.1.9 1 .2 2.1.5 3.1.6 2.1.3 4.2.6 6.4.7l-.5 1.6-4.1-2.7c-.7-.4-1.3-.9-2-1.4l-2-1.4-3.9-3c-1.3-1-2.5-2.2-3.7-3.2-.6-.5-1.2-1.1-1.8-1.7l-1.8-1.7c-.6-.6-1.1-1.2-1.7-1.7l-1.7-1.8-6.6-7.2-1.7-1.7 2.5.3c3.3.4 6.6.9 9.7 1 1.6 0 3.1-.1 4.6-.3.8-.1 1.5-.3 2.2-.5.7-.2 1.5-.5 2.2-.7l-.4 3.5c-2.6-1.6-5.3-3.3-7.8-5.1-.6-.4-1.3-.9-1.9-1.4l-1.8-1.5c-1.2-1-2.4-2-3.5-3.1l-3.3-3.3c-.5-.6-1.1-1.1-1.6-1.7l-1.5-1.8c-2-2.4-3.8-4.9-5.6-7.4l-1.5-2.1 2.5.7c1.6.4 3.1.9 4.7 1.2.8.2 1.6.3 2.4.5l2.4.3 1.2.1c.4 0 .8.1 1.2.1h2.4l1.2-.1c.4 0 .8 0 1.2-.1l2.4-.3-.2 1-1.7-1c-.6-.3-1.2-.7-1.7-1-1.1-.7-2.3-1.4-3.4-2.2-1.1-.7-2.2-1.5-3.3-2.3-.5-.4-1.1-.8-1.6-1.2-.5-.4-1.1-.8-1.6-1.2-1-.8-2.1-1.7-3.1-2.6l-3-2.7c-1-.9-1.9-1.9-2.9-2.9-.9-1-1.8-2-2.7-3.1l-2-2.6 3 1.2c2.2.9 4.3 1.9 6.4 2.6 1.1.3 2.1.6 3.2.7h1.6c.5 0 1.1-.1 1.6-.2l-.4 1.5c-2.4-1.9-4.4-4.1-6.3-6.4-1.9-2.3-3.6-4.7-5.3-7.2-1.6-2.5-3.2-5-4.7-7.6-1.5-2.6-2.9-5.1-4.3-7.8h2.6c-1.4 2.7-2.8 5.2-4.3 7.8-1.5 2.6-3.1 5.1-4.7 7.5-1.7 2.5-3.4 4.9-5.3 7.2s-3.9 4.5-6.3 6.4l-.4-1.1c1.1-.1 2.3-.1 3.4-.2.6 0 1.1-.1 1.7-.2.6-.1 1.1-.2 1.7-.3.6-.1 1.1-.3 1.6-.4.3-.1.5-.2.8-.2l.8-.3 1.6-.6 1.6-.7 1.6-.8-1.1 1.5c-.8 1.1-1.7 2.1-2.5 3.2l-2.7 3c-.9 1-1.9 1.9-2.9 2.8l-3 2.7c-.5.4-1 .9-1.5 1.3s-1 .9-1.6 1.3c-1.1.8-2.1 1.7-3.2 2.5s-2.2 1.6-3.3 2.3c-.6.4-1.1.7-1.7 1.1l-1.8.8-.6-2.8c3.2.4 6.4.8 9.6.8 1.6 0 3.2-.1 4.7-.4 1.6-.3 3.1-.7 4.6-1.2l3-1.1-2 2.4-1.6 1.9-1.6 1.8-1.7 1.8-1.8 1.7c-1.2 1.1-2.4 2.2-3.7 3.3-1.3 1-2.5 2.1-3.9 3-2.6 2-5.3 3.8-8 5.6-2.7 1.8-5.5 3.5-8.2 5.2l-.2-1.6c.8.3 1.5.5 2.3.7.8.2 1.6.3 2.3.5.8.1 1.6.2 2.4.2h2.4c3.2-.2 6.4-.9 9.6-1.7l2-.5-1.1 1.8c-.4.7-.8 1.4-1.2 2-.4.7-.8 1.3-1.3 2-.9 1.3-1.8 2.5-2.8 3.8-1 1.2-2 2.4-3.1 3.5l-3.3 3.3c-1.1 1.1-2.3 2.1-3.5 3.2l-3.6 3c-2.4 2-4.8 3.9-7.3 5.8l-1.2-2.8c4.3-.6 8.5-1.2 12.6-2.3 2-.6 4-1.3 6-2.1 1.9-.8 3.8-1.8 5.7-2.9l3.2-1.9-2 3.1-2.7 4.2c-1 1.4-1.9 2.7-3 4-1 1.3-2.1 2.6-3.2 3.8-1.1 1.2-2.3 2.4-3.5 3.6-.6.6-1.2 1.2-1.8 1.7-.6.6-1.2 1.1-1.9 1.6-1.3 1.1-2.6 2.1-3.9 3.1-2.6 2-5.3 4-7.9 6l-.2-1.5c2 .8 4.1 1.5 6.1 2 2.1.6 4.2 1.1 6.3 1.6 2.1.5 4.3.9 6.4 1.2 2.1.4 4.3.7 6.5 1 2.2.3 4.3.5 6.5.7 2.2.2 4.4.3 6.5.4 2.2.1 4.4.1 6.5.2h6.5l6.6-.2c2.2-.1 4.3-.2 6.5-.4s4.3-.4 6.5-.6c2.2-.2 4.3-.5 6.5-.9 2.1-.3 4.3-.7 6.4-1.1 2.1-.4 4.2-.9 6.3-1.4 2.1-.5 4.2-1.1 6.2-1.8.9 0 1.5-.2 2.1-.4zm6.1 2.9c-2.3.9-4.4 1.6-6.6 2.2-2.2.6-4.3 1.2-6.5 1.6-2.2.5-4.4.9-6.6 1.3-2.2.4-4.4.7-6.6 1-2.2.3-4.4.5-6.6.7-2.2.2-4.4.3-6.6.5-2.2.1-4.5.1-6.7.2h-6.6l-6.7-.2c-2.2-.1-4.4-.2-6.6-.4-2.2-.2-4.4-.4-6.6-.7-2.2-.2-4.4-.6-6.6-.9-2.2-.4-4.4-.7-6.5-1.2-2.2-.4-4.3-.9-6.5-1.5-2.1-.6-4.3-1.1-6.4-1.8-2.1-.7-4.2-1.4-6.3-2.3l-1.4-.6 1.2-.9c2.7-2 5.3-3.9 7.9-5.9 1.3-1 2.6-2 3.8-3.1.6-.5 1.2-1.1 1.8-1.6.6-.5 1.2-1.1 1.8-1.7 1.2-1.1 2.3-2.3 3.4-3.5 1.1-1.2 2.1-2.5 3.2-3.7 1-1.3 2-2.6 2.9-3.9.9-1.3 1.8-2.7 2.7-4.1l1.2 1.2c-1.8 1.2-3.7 2.3-5.7 3.3s-4 1.8-6.1 2.5c-4.2 1.4-8.5 2.3-12.8 3l-6.2 1.1 5-3.9c2.5-1.8 5-3.6 7.4-5.4 1.2-.9 2.4-1.9 3.6-2.8 1.2-1 2.3-1.9 3.5-3 1.1-1 2.3-2 3.3-3.1 1.1-1.1 2.1-2.2 3.1-3.3 1-1.1 2-2.3 2.9-3.5.5-.6.9-1.2 1.3-1.8.4-.6.8-1.3 1.2-1.9l1 1.3c-3.2.8-6.5 1.5-9.9 1.7-.9.1-1.7.1-2.6 0-.9 0-1.7-.1-2.6-.2-.8-.1-1.7-.3-2.5-.5s-1.6-.5-2.5-.7l-1.7-.6 1.6-1c2.7-1.7 5.5-3.4 8.2-5.2 2.7-1.8 5.4-3.6 8-5.5 1.3-1 2.5-2 3.8-3 1.2-1 2.4-2.1 3.6-3.2l1.7-1.7 1.7-1.7 1.6-1.8 1.5-1.8 1 1.4c-1.6.6-3.2 1.2-4.8 1.6-1.6.4-3.3.6-5 .8-3.4.2-6.7.1-10-.2l-4.5-.3 3.9-2.5 1.7-.9c.6-.3 1.2-.6 1.7-1 1.1-.7 2.3-1.3 3.4-2s2.2-1.4 3.3-2.2c.5-.4 1.1-.8 1.6-1.1.5-.4 1.1-.8 1.6-1.2 1-.8 2.1-1.6 3.1-2.5 1-.8 2-1.7 3-2.6 1-.9 1.9-1.8 2.9-2.7.9-.9 1.8-1.9 2.7-2.9l.5.7-1.6.8-1.6.7-.8.3c-.3.1-.6.2-.8.3-.6.1-1.1.3-1.7.4-.6.1-1.2.2-1.7.3-.6.1-1.2.2-1.7.2-1.2.1-2.3.2-3.5.3l-1.8.1 1.4-1.2c2.2-1.9 4.1-4.1 5.8-6.4 1.7-2.3 3.3-4.8 4.9-7.3 1.5-2.5 3-5 4.3-7.6 1.4-2.6 2.7-5.2 3.9-7.8l1.2-2.6 1.4 2.6c1.2 2.6 2.6 5.2 4 7.8 1.4 2.6 2.8 5.1 4.4 7.6 1.5 2.5 3.2 4.9 4.9 7.2 1.8 2.3 3.6 4.5 5.8 6.3l1.5 1.2-1.9.3c-.6.1-1.2.2-1.8.2h-1.9c-1.2-.1-2.4-.4-3.6-.7-2.3-.7-4.4-1.8-6.5-2.6l1-1.3c.8 1 1.6 2 2.5 3 .9 1 1.8 1.9 2.7 2.9.9.9 1.9 1.8 2.9 2.7 1 .9 2 1.7 3 2.6l1.5 1.2c.5.4 1 .8 1.6 1.2 1.1.8 2.1 1.6 3.2 2.3 1.1.8 2.2 1.5 3.3 2.2.5.4 1.1.7 1.7 1l1.7 1 1.3.8-1.5.2-2.4.4c-.4.1-.8.1-1.2.1l-1.2.1c-.4.1-.8 0-1.2.1H546c-.8-.1-1.7-.2-2.5-.3-.8-.1-1.6-.3-2.5-.4-1.6-.3-3.2-.7-4.8-1.1l.9-1.4c1.9 2.4 3.9 4.7 5.9 6.9.5.6 1 1.1 1.6 1.6l1.6 1.6c1.1 1 2.2 2 3.4 3 1.2 1 2.3 1.9 3.6 2.8.6.4 1.2.9 1.8 1.3.6.4 1.2.8 1.9 1.2 2.5 1.6 5.2 3.1 7.8 4.6l3.9 2.1-4.2 1.4c-.9.2-1.7.4-2.6.6-.9.2-1.8.3-2.6.3-1.8.1-3.5.1-5.2-.2-3.4-.4-6.6-1.3-9.8-2l.8-1.4 6.6 7.2 1.7 1.7c.6.6 1.1 1.2 1.7 1.7l1.7 1.7c.6.6 1.1 1.1 1.8 1.7 1.2 1.1 2.4 2.2 3.6 3.2 1.3 1 2.5 2.1 3.8 3l2 1.4c.7.5 1.3 1 2 1.4l4 2.6 2.9 1.9-3.4-.3c-2.2-.2-4.4-.4-6.5-.8l-3.3-.6c-1.1-.3-2.1-.6-3.2-.9-1.1-.4-2.1-.7-3.1-1.2-1-.4-2-.9-3-1.4-2-1-3.8-2.2-5.7-3.3l1.3-1c1.3 3 3.1 5.7 5.1 8.2 2.1 2.5 4.4 4.7 6.9 6.8 2.5 2.1 5.1 4 7.9 5.8 2.7 1.8 5.5 3.5 8.4 5.3l4.1 2.5-5.2 1.5z"/>
    <path class="st0" d="m497.1 490.4-2.8-1.2-2.6 1.7.3-3.1-2.4-1.9 3-.8 1.1-2.8 1.6 2.6 3 .2-2 2.3zM552.4 490.4l-2.9-1.2-2.5 1.7.2-3.1-2.4-1.9 3-.8 1.1-2.8 1.6 2.6 3.1.2-2 2.3zM523.5 489.1l-2.9-1.2-2.5 1.7.2-3.1-2.4-1.9 3-.7 1.1-2.9 1.6 2.6 3.1.2-2 2.3zM521.8 458.4l-2.8-1.2-2.6 1.7.2-3.1-2.3-1.9 2.9-.7 1.2-2.9 1.6 2.6 3 .2-2 2.3zM525.2 427l-2.8-1.2-2.6 1.7.2-3.1-2.3-1.9 2.9-.8 1.1-2.8 1.6 2.6 3.1.2-2 2.3zM528.4 445.1l-2-.9-1.9 1.2.2-2.2-1.7-1.4 2.2-.5.7-2 1.2 1.8 2.2.2-1.4 1.6zM505.7 474.3l-2-.8-1.9 1.2.2-2.2-1.7-1.4 2.1-.5.8-2.1 1.2 1.9 2.2.1-1.5 1.7zM532.6 476.8l-2-.9-1.9 1.2.2-2.2-1.7-1.4 2.1-.5.8-2 1.2 1.9 2.2.1-1.5 1.7zM535.8 416l-2.1-.8-1.8 1.2.1-2.2-1.7-1.4 2.2-.5.8-2.1 1.1 1.9 2.2.1-1.4 1.7zM537.9 457.9l-2.9-1.2-2.5 1.7.2-3.1-2.4-1.9 3-.7 1.1-2.9 1.6 2.6 3.1.2-2 2.3zM514.2 439.4l-2.9-1.2-2.5 1.7.2-3-2.4-2 3-.7 1.1-2.9 1.6 2.7 3.1.1-2 2.4zM529.1 399.1l-2.8-1.2-2.6 1.7.2-3.1-2.3-1.9 3-.7 1.1-2.9 1.6 2.6 3 .2-2 2.3zM542.4 470.8l-1.3-.6-1.1.8.1-1.4-1-.8 1.3-.3.5-1.3.7 1.2h1.3l-.9 1.1zM534.9 494.2l-1.3-.5-1.1.7.1-1.3-1-.9 1.3-.3.5-1.2.7 1.1 1.3.1-.9 1zM507.9 494.2l-1.2-.5-1.1.7.1-1.3-1-.9 1.3-.3.4-1.2.7 1.1 1.4.1-.9 1zM501.6 458.1l-1.2-.5-1.1.8.1-1.4-1.1-.8 1.3-.3.5-1.3.7 1.2h1.4l-.9 1zM538.6 438.6l-1.3-.5-1.1.7.1-1.3-1-.8 1.3-.4.4-1.2.7 1.1 1.4.1-.9 1zM518.1 414.4l-1.2-.5-1.1.7.1-1.3-1.1-.9 1.3-.3.5-1.2.7 1.1 1.3.1-.8 1zM525.6 387.6l-1.2-.6-1.1.8.1-1.4-1.1-.8 1.3-.3.5-1.3.7 1.2 1.4.1-.9 1zM507.6 420l-.9-.4-.7.5v-.9l-.7-.5.9-.3.4-.8.4.8h.9l-.6.7zM543.2 420l-.8-.3-.8.5.1-1-.7-.5.9-.2.3-.9.5.8h.9l-.6.7zM525.4 406.3l-.8-.3-.8.5.1-.9-.7-.6.9-.2.3-.9.5.8.9.1-.6.7zM496.8 442.9l-.8-.3-.8.5.1-.9-.8-.6.9-.2.4-.9.4.8 1 .1-.6.6zM547.1 440.4l-.9-.4-.7.5v-.9l-.7-.6.9-.2.3-.8.5.8h.9l-.6.7zM513.9 446.6l-.9-.4-.8.5.1-.9-.7-.6.9-.2.3-.8.5.7.9.1-.6.7zM523.7 466.6l-.8-.4-.8.5.1-.9-.7-.6.9-.2.3-.8.5.8h.9l-.6.7zM532.6 429.9l-.9-.4-.7.5v-.9l-.7-.6.9-.2.3-.8.5.7.9.1-.6.7zM526.8 415.1l-.9-.3-.8.5.1-.9-.7-.6.9-.2.3-.9.5.8.9.1-.6.6zM555.8 464l-.8-.3-.8.5.1-.9-.7-.6.9-.2.3-.9.5.8.9.1-.6.6zM561.9 490.1l-.9-.3-.7.5v-.9l-.7-.6.9-.2.4-.9.4.8.9.1-.6.7zM516.9 399.5l-.9-.4-.7.5v-.9l-.7-.6.9-.2.3-.9.5.8.9.1-.6.7zM514.3 475.1l-1.2-.5-1.2.7.1-1.3-1-.8 1.3-.4.5-1.2.7 1.1 1.3.1-.8 1zM523.3 0h2v377.5h-2z"/>
  </g>
  <g>
    <path class="st0" d="M121.4 400.5c4.2 9.3-2.8 23.4-7 26.6-11.3 8.6-13.3 4-11.4 2.1 7.9-8.2 20.7-17.5 16.1-28.7-3.7-9-13.3-6.6-22.5.7-6 4.7-17.9 20-19.3 36-2.6 32.1 20.2 26 41.9-1.6l-.6 2.6c-32.4 45.1-52.7 20.7-51.1-.5.9-13.5 4.8-27.3 18.2-39.1 11.6-10.1 30.5-9.5 35.7 1.9z"/>
    <path class="st0" d="M148 443c-6.6 7.1-9.8 9.6-11.9 11.3-2.4 1.9-3.2 2.9-6.5 1.4-3.4-1.4-3.8-3.6-1.6-8.6.6-1.7 1.9-4.7 3.7-7.8-4.6 4.3-9.7 9-12.8 12.5-1 4.4.8 5.5-5.6 3-3.4-1.4-4.7-1.1 3.1-18.2 1.8-4.1 14.2-30.6 19.8-29.3 1 .2 6.7 1.6 5.9 2.4-6.5 6.6-16.1 22.7-21.6 37.4 2.9-3.1 11.1-10 15.2-13.5 2-2.3 4.2-3.8 6.5-2.9 1 .3 5.2 1.7 4.2 2.5-4.6 4.1-5.2 6-7.6 10-1.7 3.1-3.4 7.9-3.2 8.2 1.6.3 8.7-6.3 11.2-9.4.6-.9 1.7.4 1.2 1z"/>
    <path class="st0" d="M167.9 443c-6.6 7.1-9.7 9.6-11.9 11.3-2.3 1.9-3.2 2.9-6.5 1.4-3.3-1.4-3.7-3.6-1.6-8.6 1.1-2.7 4-9.6 7.6-13.6-9.7 0-2.9-14.8 2-14.8 1.1 0 5.2 1.7 4.3 2.5-3.9 3.5-9 11.5-2.9 9.7 1-.5 2.1-.6 3.1-.2 1 .3 5.2 1.7 4.2 2.5-4.6 4.1-5.2 6-7.5 10-1.7 3.1-3.5 7.9-3.3 8.2 1.6.3 8.7-6.3 11.2-9.4.8-.9 1.9.4 1.3 1z"/>
    <path class="st0" d="M182.9 433.1c-4.7 4.1-5.2 6-7.6 10-1.7 3.1-3.5 7.9-3.2 8.2 1.6.3 8.2-6.4 10.8-9.5.6-.8 1.8.5 1.3 1-6.6 7.1-9.5 9.7-11.5 11.4-2.4 1.9-3.2 2.9-6.5 1.4-3.4-1.4-3.8-3.6-1.7-8.6 1.7-4.1 8-18.6 14.2-16.5.9.4 5.2 1.8 4.2 2.6zm1.5-10.8c-2.9-.9-4.1-.8-5.2 1.2-.9 1.7-1.5 2.6 2.9 4.1 3 1.1 3.1.8 4.8-1.8 1.1-1.9.4-2.6-2.5-3.5z"/>
    <path class="st0" d="M200.3 431.2c-3.2 1.8-5.5 5.1-4.2 10.2 1.1 4.4.6 7.1-1.4 9.7-5.7 7.4-16 5.1-17.5 1.8-.6-1.2-.1-1.9.6-1 5.2 6.2 11.8-2.5 10.9-7.3-.2-1.1-1.1-2.6-1.1-5.9-1.2 1.5-2.7 3.1-4.2 4.8-.6.6-1.4-.8-.9-1.4 0 0 3.6-4.1 6.2-7.3 2-3.7 5.6-5.1 10.5-5.2 1.9 0 2.5.9 1.1 1.6zM222.4 423c-1.9 1.7-3.7 3.9-5.2 6.3h3.1c.5 0 .8.4.8.8 0 .5-.4.8-.8.8h-4.1c-1.9 3.3-3.8 7.4-6 12.1-1.5 3.3-3.5 7.9-3.2 8.2 1.5.3 8.6-6.5 11.1-9.6.7-.8 1.8.5 1.3 1-6.7 7.1-9.8 9.7-12 11.5-2.3 1.9-3.1 2.9-6.4 1.4-3.4-1.4-4.7-1 3-18.2.6-1.3 1.7-3.8 3.1-6.4h-.2c-.5 0-.8-.4-.8-.8 0-.5.4-.8.8-.8h1c2.7-4.8 6.3-9.6 9.6-8.8 1.1.3 5.8 1.7 4.9 2.5z"/>
    <path class="st0" d="M262.5 443.1c-6.7 7.1-9.3 10.2-11.4 12-2.3 1.9-3.1 2.9-6.4 1.4-3.4-1.4-3.8-3.6-1.7-8.6.6-1.2 1.4-3.2 2.5-5.4-3.7 3.7-6.8 6.5-9 9.9-.1.2-.3.4-.4.5-1.6 4.8 1.3 5.3-4.5 2.2-3.7-2-4.5-2.9-1.7-8.6 1.8-3.9 3.4-6.9 5.1-9.7-4.4 4.6-8.1 7.8-10.9 11.3-.4.6-.7 1.4-1.1 2.1-3.3 6.7 1.2 7.9-5.4 4.3-3.7-2-4.4-2.9-1.7-8.6 3.6-7.2 5.9-11.4 9.7-16.3.8-1.1 2.9-.7 4.6-.2 1.7.6 4.4 1.5 3.7 2.5-2.6 3.5-4.6 6.5-6.4 9.8 4.6-4.5 10.3-9.3 12.1-11.6.8-1.1 2.9-.7 4.6-.2 1.7.6 4.4 1.5 3.7 2.5-3.5 4.8-5.8 8.6-8.4 13.5 2.7-2.9 6.2-6 9-8.6 2.6-3.9 5.6-7 8.7-5.9 1 .3 5.2 1.7 4.3 2.5-4.7 4.1-5.3 6-7.6 10-1.7 3.1-3.5 7.9-3.2 8.2 1.5.3 8.1-7 10.6-10 .6-.9 1.7.4 1.2 1z"/>
    <path class="st0" d="M295 443c-6.7 7.1-9.8 9.6-12 11.3-2.3 1.9-3.1 2.9-6.5 1.4-3.3-1.4-3.7-3.6-1.6-8.6.5-1.2 1.4-3.2 2.5-5.4-5.2 6.3-8.8 11.1-10.5 12.6-2.4 1.9-3.2 2.9-6.5 1.4-3.4-1.4-3.8-3.6-1.7-8.6 1.7-4.1 7.6-15.9 14.2-16.5 7.3-.7 9.7.9 10.7 1.9 1.7-1.7 3.7-2.6 5.5-1.9 1 .3 5.2 1.7 4.3 2.5-4.7 4.1-5.3 6-7.6 10-1.7 3.1-3.5 7.9-3.2 8.2 1.5.3 8.6-6.3 11.1-9.4.6-.8 1.8.5 1.3 1.1zm-13.9-7.6c.6-.8 1.1-1.6 1.7-2.1-1.4-1.9-4-1.7-7.4 1.5-2 1.8-3.4 4.3-5.8 8.4-1.7 3.1-3.5 7.9-3.2 8.2 1.5.2 12.2-12.9 14.7-16z"/>
    <path class="st0" d="M311.2 431.2c-3.2 1.8-5.5 5.1-4.2 10.2 1.1 4.4.6 7.1-1.4 9.7-5.7 7.4-16 5.1-17.5 1.8-.6-1.2-.1-1.9.6-1 5.2 6.2 11.8-2.5 10.9-7.3-.2-1.1-1.1-2.6-1.1-5.9-1.2 1.5-2.7 3.1-4.2 4.8-.6.6-1.4-.8-.9-1.4 0 0 3.6-4.1 6.2-7.3 2-3.7 5.6-5.1 10.5-5.2 1.9 0 2.5.9 1.1 1.6z"/>
    <g>
      <path class="st0" d="M169.9 411.9v-10.2l-5.1 8.5h-.9l-5.1-8.5v10.2h-1.9v-14h1.6l5.9 9.9 5.8-9.9h1.6v14h-1.9zM194.9 410.2v1.7h-10.2v-14h9.9v1.7h-7.9v4.3h7v1.7h-7v4.5h8.2zM216.1 411.9l-3-4.3h-4.4v4.3h-2v-14h5.5c1.8 0 3.2.4 4.3 1.3 1 .9 1.6 2.1 1.6 3.6 0 1.1-.3 2-.8 2.8-.5.8-1.3 1.3-2.3 1.7l3.3 4.7h-2.2zm-1.1-6.8c.7-.5 1-1.3 1-2.3 0-1-.3-1.8-1-2.3-.7-.5-1.6-.8-2.9-.8h-3.4v6.3h3.4c1.3 0 2.3-.3 2.9-.9zM239.3 411.9l-3-4.3h-4.4v4.3h-2v-14h5.5c1.8 0 3.2.4 4.3 1.3 1 .9 1.6 2.1 1.6 3.6 0 1.1-.3 2-.8 2.8-.5.8-1.3 1.3-2.3 1.7l3.3 4.7h-2.2zm-1.1-6.8c.7-.5 1-1.3 1-2.3 0-1-.3-1.8-1-2.3-.7-.5-1.6-.8-2.9-.8h-3.4v6.3h3.4c1.3 0 2.3-.3 2.9-.9zM258.3 407.1v4.8h-2V407l-5.6-9.1h2.1l4.5 7.4 4.5-7.4h2l-5.5 9.2z"/>
    </g>
    <g>
      <path class="st0" d="m124.1 485.6-.9-.9c-.6.6-1.4.9-2.3.9-.5 0-.9-.1-1.2-.2-.4-.1-.6-.4-.9-.6-.2-.3-.3-.6-.3-.9 0-.4.1-.8.4-1.1.3-.3.7-.7 1.3-1-.3-.3-.5-.6-.6-.8-.1-.2-.2-.5-.2-.8 0-.5.2-.8.5-1.1.3-.3.8-.4 1.3-.4s.9.1 1.2.4c.3.3.5.6.5 1 0 .3-.1.7-.3.9-.2.3-.6.6-1.1.9l1.7 1.7c.2-.4.3-.8.4-1.2l.8.2c-.1.6-.3 1.1-.6 1.6l.9.9-.6.5zm-1.4-1.5-1.9-1.9c-.5.3-.8.5-1 .7-.2.2-.3.5-.3.8 0 .3.1.6.4.8.3.2.7.3 1.1.3.7 0 1.2-.3 1.7-.7zm-2.2-4.6c-.2.2-.3.4-.3.6 0 .2 0 .3.1.5s.3.4.6.7c.4-.3.8-.5.9-.7.2-.2.3-.4.3-.6 0-.2-.1-.4-.2-.5-.2-.1-.4-.2-.7-.2-.3 0-.5 0-.7.2zM142.7 478.6v6.8h-1v-3h-3.9v3h-1v-6.8h1v2.9h3.9v-2.9h1zM153.3 483.8h-3.6l-.8 1.7h-1l3.1-6.8h1l3.1 6.8h-1l-.8-1.7zm-.3-.8-1.5-3.4-1.5 3.4h3zM165.1 479.3c.5.4.8 1 .8 1.7s-.3 1.3-.8 1.7c-.5.4-1.2.6-2.1.6h-1.7v2.1h-1v-6.8h2.7c.9 0 1.6.2 2.1.7zm-.7 2.8c.3-.3.5-.6.5-1.1 0-.5-.2-.9-.5-1.1-.3-.3-.8-.4-1.4-.4h-1.7v3.1h1.7c.6-.1 1.1-.2 1.4-.5zM176.2 479.3c.5.4.8 1 .8 1.7s-.3 1.3-.8 1.7c-.5.4-1.2.6-2.1.6h-1.7v2.1h-1v-6.8h2.7c.9 0 1.6.2 2.1.7zm-.7 2.8c.3-.3.5-.6.5-1.1 0-.5-.2-.9-.5-1.1-.3-.3-.8-.4-1.4-.4h-1.7v3.1h1.7c.6-.1 1.1-.2 1.4-.5zM185.3 483.1v2.4h-1v-2.4l-2.7-4.5h1l2.2 3.6 2.2-3.6h1l-2.7 4.5zM205.9 478.6v6.8h-.8l-4.1-5.1v5.1h-1v-6.8h.8l4.1 5.1v-5.1h1zM217.1 484.6v.8h-5v-6.8h4.8v.8h-3.8v2.1h3.4v.8h-3.4v2.2h4zM232.4 478.6l-2.3 6.8h-1l-1.9-5.5-1.9 5.5h-1l-2.3-6.8h1l1.8 5.6 1.9-5.6h.9l1.9 5.6 1.9-5.6h1zM247.4 483.1v2.4h-1v-2.4l-2.7-4.5h1l2.2 3.6 2.2-3.6h1l-2.7 4.5zM260.2 484.6v.8h-5v-6.8h4.8v.8h-3.8v2.1h3.4v.8h-3.4v2.2h4zM270.3 483.8h-3.6l-.8 1.7h-1l3.1-6.8h1l3.1 6.8h-1l-.8-1.7zm-.3-.8-1.5-3.4-1.5 3.4h3zM281.9 485.5l-1.5-2.1h-2.1v2.1h-1v-6.8h2.7c.9 0 1.6.2 2.1.6.5.4.8 1 .8 1.7 0 .5-.1 1-.4 1.3-.3.4-.6.6-1.1.8l1.6 2.3h-1.1zm-.6-3.3c.3-.3.5-.6.5-1.1 0-.5-.2-.9-.5-1.1-.3-.3-.8-.4-1.4-.4h-1.7v3.1h1.7c.6-.1 1.1-.3 1.4-.5z"/>
    </g>
    <g>
      <path class="st0" d="m219.1 386-11.8-36.4-12.2 36.4h10.1v5h3.8v-5zM236.9 387.8l-7.5-23-7.7 23h6.4v3.2h2.4v-3.2zM192.9 387.8l-7.5-23-7.7 23h6.4v3.2h2.4v-3.2z"/>
    </g>
    <path class="st0" d="M119.1 464.8h161.1v.7H119.1z"/>
  </g>
  <g>
    <circle class="st0" cx="355.2" cy="257.1" r="8.5"/>
    <circle class="st0" cx="479.6" cy="323.2" r="10.3"/>
    <circle class="st0" cx="564.3" cy="305.5" r="6.3"/>
    <path class="st0" d="M521.5 81.1c-8.3 1.4-9.4 2.4-10.8 10.8-1.4-8.3-2.4-9.4-10.8-10.8 8.3-1.4 9.4-2.4 10.8-10.8 1.4 8.4 2.5 9.5 10.8 10.8z"/>
    <circle class="st0" cx="556.8" cy="114.6" r="4"/>
    <circle class="st0" cx="415.1" cy="460.2" r="13.9"/>
    <circle class="st0" cx="484.8" cy="536.2" r="4.5"/>
    <circle class="st0" cx="429" cy="125.8" r="10.1"/>
    <path class="st0" d="M367.7 141.3c-6.6 1.1-7.5 1.9-8.5 8.5-1.1-6.6-1.9-7.5-8.5-8.5 6.6-1.1 7.5-1.9 8.5-8.5 1 6.6 1.9 7.5 8.5 8.5zM356.2 87.8c-8.7 1.4-9.8 2.5-11.2 11.2-1.4-8.7-2.5-9.8-11.2-11.2 8.7-1.4 9.8-2.5 11.2-11.2 1.4 8.6 2.6 9.8 11.2 11.2zM348.3 202.4c-3.5.6-3.9 1-4.5 4.5-.6-3.5-1-3.9-4.5-4.5 3.5-.6 3.9-1 4.5-4.5.6 3.4 1 3.9 4.5 4.5zM341.4 365.4c-9.7 1.6-11 2.9-12.6 12.6-1.6-9.7-2.9-11-12.6-12.6 9.7-1.6 11-2.9 12.6-12.6 1.6 9.7 2.9 11 12.6 12.6zM496.6 387.4c-4.9.8-5.5 1.4-6.3 6.3-.8-4.9-1.4-5.5-6.3-6.3 4.9-.8 5.5-1.4 6.3-6.3.8 4.9 1.4 5.5 6.3 6.3zM451 43.3c-5.6.9-6.3 1.6-7.2 7.2-.9-5.6-1.6-6.3-7.2-7.2 5.6-.9 6.3-1.6 7.2-7.2.9 5.6 1.7 6.3 7.2 7.2zM565.7 550c-8.7 1.4-9.8 2.5-11.2 11.2-1.4-8.7-2.5-9.8-11.2-11.2 8.7-1.4 9.8-2.5 11.2-11.2 1.4 8.7 2.5 9.8 11.2 11.2z"/>
  </g>
</svg>
