<svg version="1.1" id="Layer_1" xmlns="http://www.w3.org/2000/svg" xmlns:xlink="http://www.w3.org/1999/xlink" x="0" y="0" viewBox="0 0 600 600" xml:space="preserve">
  <style>
    .st0{fill:#fff}.st1{clip-path:url(#SVGID_2_)}
  </style>
  <path class="st0" d="M80.3 435.4c-.9 1.5-2 3.1-3.3 4.8-1.4 1.7-2.9 3.4-4.5 5.1-1.6 1.7-3.4 3.3-5.3 4.8s-3.8 2.7-5.7 3.7c-1.9 1-3.8 1.6-5.6 1.9-1.8.3-3.6 0-5.2-.7-2.3-1.1-3.9-2.6-5-4.7-1-2.1-1.6-4.5-1.6-7.2-.1-2.7.3-5.7 1.1-8.9s1.9-6.4 3.3-9.7c1.4-3.2 3-6.4 4.9-9.6 1.9-3.1 3.9-6 5.9-8.7 2.1-2.6 4.2-4.9 6.3-6.8 2.1-1.9 4.2-3.3 6.2-4.1 2.8-1.2 5.1-1.6 6.9-1.3 1.8.3 3.2 1.1 4.1 2.4.9 1.2 1.4 2.8 1.5 4.5.1 1.8-.2 3.5-.9 5.3-.7 1.8-1.7 3.3-3.1 4.7-1.4 1.4-3.1 2.3-5.1 2.7-.9.2-1.5.1-1.8-.2-.3-.3-.5-.7-.4-1.1.1-.4.3-.8.6-1.1.4-.3.8-.4 1.4-.3 1.2-.2 2.2-.6 3.1-1.4.9-.8 1.6-1.7 2.2-2.7.6-1 .9-2.1 1.1-3.3.2-1.1.2-2.2 0-3.1-.2-.9-.6-1.6-1.2-2.1s-1.4-.7-2.5-.5c-1.9.4-3.8 1.4-5.7 2.9-1.9 1.5-3.7 3.4-5.5 5.7-1.7 2.3-3.4 4.8-5 7.6s-3 5.7-4.3 8.7c-1.2 3-2.3 6-3.2 8.9-.9 3-1.5 5.7-1.8 8.2-.4 2.5-.4 4.7-.1 6.6.3 1.9.9 3.3 1.9 4.1.9.8 2 1.1 3.4.9 1.3-.2 2.8-.8 4.3-1.6 1.5-.9 3.1-2 4.7-3.3 1.6-1.4 3.2-2.8 4.6-4.3 1.5-1.5 2.8-3 4.1-4.5 1.2-1.5 2.2-2.8 2.9-3.9.2-.3.5-.5.8-.6.4-.1.7-.1 1 0 .3.1.5.3.6.7.3.4.2.9-.1 1.5z"/>
  <path class="st0" d="M81.5 443.6c-1.1.4-2 .5-2.8.4-.8-.1-1.5-.5-2-1s-.9-1.2-1.1-2.1c-.2-.9-.3-1.9-.1-2.9.2-1.3.5-3 1.1-5.2.6-2.2 1.3-4.6 2.1-7.3s1.8-5.5 3-8.6c1.1-3 2.4-6 3.7-9 1.3-3 2.8-5.8 4.3-8.5s3-5.1 4.6-7.2c1.6-2.1 3.2-3.8 4.9-5.1 1.7-1.3 3.3-2 5-2.1 1.3 0 2.2.2 2.7.6.6.5.9 1.1 1 1.9.1.8.1 1.7-.1 2.6-.2 1-.5 1.9-.8 2.7-.7 1.8-1.9 4-3.5 6.4-1.6 2.5-3.4 4.9-5.4 7.4-2 2.5-4 4.8-5.9 7-2 2.2-3.7 4-5 5.4-1 2.6-1.9 5.4-2.7 8.4-.8 3-1.4 5.9-1.9 8.6 1-1.7 2.1-3.6 3.3-5.5 1.3-2 2.6-3.8 4-5.6 1.4-1.8 2.8-3.5 4.3-4.9 1.5-1.5 3-2.7 4.4-3.5.2-.2.5-.3 1-.4.4-.1.9-.2 1.4-.2.5 0 .9.1 1.3.2s.6.3.7.6c.3 1.4.3 2.8 0 4.3-.3 1.4-.8 2.9-1.5 4.3s-1.4 2.9-2.2 4.4c-.8 1.5-1.6 3-2.3 4.6-.7 1.6-1.4 3.2-1.9 4.8-.5 1.6-.7 3.3-.7 5.1 1.2-.7 2.4-1.6 3.6-2.6 1.2-1 2.2-2.1 3.2-3.2s1.8-2.1 2.5-3c.7-.9 1.3-1.6 1.6-2.1.3-.5.6-.7 1-.6.3 0 .6.2.8.4.2.2.3.5.3.9s-.1.7-.3 1c-2.8 3.9-5.4 6.8-7.7 8.8-2.3 2-4.2 3.2-5.6 3.8-2 .9-3.5.8-4.5-.2s-1.4-2.6-1.4-4.7c0-1.9.4-3.9 1.2-5.8.8-2 1.7-3.9 2.8-5.8 1.1-1.9 2.2-3.8 3.3-5.6 1.1-1.8 2-3.5 2.6-5.2-1.6 1.4-3.2 3.1-4.8 5.1-1.7 2-3.2 4.1-4.7 6.4-1.5 2.2-2.8 4.4-4 6.5-1.3 1.9-2.2 3.7-2.8 5.3zm24-54.4c-1-.1-2.2.6-3.6 2.1-1.4 1.4-2.9 3.3-4.4 5.6-1.5 2.3-3 4.9-4.5 7.8-1.5 2.9-2.8 5.8-3.9 8.8 1.1-1.3 2.3-2.7 3.6-4.2 1.3-1.5 2.6-3.1 3.8-4.8 1.3-1.6 2.5-3.2 3.7-4.8 1.2-1.6 2.2-3.1 3-4.5.8-1.4 1.5-2.6 1.9-3.7.4-1 .6-1.8.4-2.3z"/>
  <path class="st0" d="M116.2 428c-1.3-1-2.3-1.8-3-2.6-.7 1.2-1.5 2.4-2.3 3.7-.8 1.2-1.6 2.4-2.4 3.5-.8 1.1-1.5 2.1-2.2 3-.7.9-1.2 1.5-1.7 2.1-.4.5-.8.7-1.1.7-.3 0-.6-.1-.7-.3-.2-.2-.2-.5-.2-.9s.1-.7.3-1c.3-.5.8-1.2 1.5-2.2.7-1 1.5-2.1 2.3-3.3.8-1.2 1.7-2.5 2.6-3.9.9-1.3 1.6-2.7 2.2-3.9-.3-.6-.4-1.4-.5-2.4-.1-1-.1-2.2 0-3.3.1-1.2.3-2.4.7-3.5.4-1.2.9-2.2 1.5-3.1s1.5-1.6 2.6-2c1.1-.4 2.4-.5 3.9-.3.5.3.7 1 .5 2.1-.2 1.1-.5 2.3-1 3.6-.5 1.3-1 2.6-1.6 3.8-.6 1.2-.9 2.1-1.1 2.6.3 1.8.8 3.1 1.6 3.9.7.8 1.4 1.4 2 1.9.6.5.9 1.1 1 1.8.1.7-.5 1.8-1.6 3.3-.6.8-1.2 1.8-2 2.9-.8 1.1-1.6 2.3-2.4 3.6-.8 1.3-1.5 2.6-2.2 4s-1.3 2.7-1.7 4c-.4 1.3-.6 2.6-.6 3.8 0 1.2.2 2.3.8 3.3 1.7-.8 3.5-2 5.2-3.6 1.7-1.6 3.4-3.3 4.9-5.1 1.5-1.8 2.9-3.5 4.1-5.1 1.2-1.6 2.1-2.8 2.6-3.6.4-.5.7-.8 1.1-.8.4-.1.6 0 .8.3.2.2.3.6.3 1s-.1.8-.3 1.2c-.5.7-1.2 1.8-2.1 3.1-1 1.4-2.1 2.8-3.4 4.4-1.3 1.6-2.7 3.1-4.1 4.7-1.5 1.5-3 2.9-4.5 4s-3 1.9-4.5 2.4-2.8.4-4-.2c-1.4-.7-2.2-1.8-2.6-3.1-.4-1.4-.3-2.9 0-4.6.4-1.7 1-3.5 1.9-5.4.9-1.9 1.9-3.7 3-5.5 1.1-1.8 2.3-3.4 3.5-4.9.9-2 2-3.2 2.9-4.1z"/>
  <path class="st0" d="M133.8 419.9c.2-.5.4-.8.8-1 .4-.2.8-.3 1.3-.3.4 0 .8.1 1.2.4.4.3.5.6.5 1.1 0 1.3-.3 3-1 4.9-.6 2-1.3 4.1-2.1 6.4-.7 2.3-1.4 4.7-2 7.2-.6 2.5-.8 4.9-.7 7.3 1.3-.9 2.6-1.9 3.9-3.2 1.3-1.3 2.6-2.5 3.7-3.8 1.2-1.2 2.2-2.4 3.1-3.5.9-1.1 1.6-2 2-2.5.2-.3.4-.4.7-.4.3 0 .5.2.7.4.2.2.3.5.3.9s-.1.7-.3 1c-1.2 1.8-2.5 3.4-3.8 5-1.3 1.5-2.6 2.9-3.8 4.1-1.2 1.2-2.4 2.3-3.5 3.2-1.1.9-2.1 1.6-2.8 2-1 .6-1.9.8-2.7.8-.8 0-1.5-.3-2.1-.8-.6-.5-1-1.1-1.4-1.9-.3-.8-.5-1.8-.5-2.8 0-2.3.3-4.5.9-6.7.6-2.2 1.4-4.3 2.2-6.3.9-2 1.8-4 2.7-5.9 1.1-2 2-3.8 2.7-5.6zm7.1-12.7c.7.4 1 .9 1.1 1.5.1.6-.1 1.3-.5 1.9-.4.6-.8 1.2-1.4 1.6-.6.5-1.1.8-1.7.9-.7.2-1.1.1-1.4-.3-.3-.3-.5-.8-.5-1.3 0-.6.1-1.2.3-1.8.2-.6.5-1.2.9-1.6.4-.5.9-.8 1.4-1 .6-.3 1.2-.2 1.8.1z"/>
  <path class="st0" d="M155.7 423.2c.2 2.2.5 4.1.8 5.9.3 1.7.6 3.3.9 4.8.3 1.5.5 2.9.8 4.2.2 1.3.4 2.6.4 3.8 1.7-.8 3.2-1.7 4.6-2.7 1.3-1 2.5-2.3 3.4-3.7.4-.5.7-.8 1-.8.3 0 .6.1.8.4.2.3.3.6.3 1.1 0 .4-.1.8-.3 1.2-1.3 1.8-2.8 3.3-4.5 4.6-1.7 1.3-3.5 2.3-5.5 3.2-.1.9-.3 1.8-.6 2.6s-.8 1.5-1.3 2.2c-.8 1-1.8 1.7-2.9 2.3-1.1.6-2.2.9-3.1 1-1.9.3-3.4 0-4.6-.7-1.2-.7-1.9-1.6-2.2-2.6-.3-1-.1-2 .6-3s2-1.7 3.8-2c.7-.1 1.3-.2 1.9-.4.6-.2 1.2-.3 1.7-.4.3-2.5.2-5.1 0-8-.3-2.8-.6-5.4-1-7.6-.8 1.2-1.7 2.5-2.7 4-1.1 1.5-2.5 3.3-4.2 5.6-.4.5-.8.8-1.1.8-.3 0-.6-.1-.8-.4-.2-.3-.3-.6-.3-1s.1-.8.3-1.1c.8-1 2-2.5 3.5-4.6 1.5-2 3.1-4.3 4.6-6.7-.2-.9-.2-1.9 0-3s.5-2.2.9-3.3c.5-1.1 1.1-2 1.9-2.9.8-.8 1.7-1.4 2.8-1.6 1.9-.5 3-.1 3.3 1 .3 1.1-.3 2.5-1.5 4.2-.5.7-.9 1.3-1.2 1.8-.4.4-.6 1.1-.5 1.8zm-8.2 26.7c1 .3 1.7.1 2.3-.5.6-.6 1-1.3 1.3-2.2-.4.1-.7.2-1 .2-.3.1-.7.1-1.1.2-1.4.2-2.1.6-2.3 1.2-.2.5.1.9.8 1.1z"/>
  <path class="st0" d="M184.2 406.6c2.2-.3 4.3-.5 6.4-.7 2.1-.2 4.1-.2 6.3 0 2 .2 3.4.9 4.3 2.1.9 1.2.9 2.6 0 4.2-.2.4-.5.6-.8.7-.3.1-.6.1-.8 0-.3-.1-.4-.4-.6-.7-.1-.4-.1-.8.1-1.4-.2-1-.9-1.7-2.1-2-1.2-.3-2.5-.5-4.1-.5-1.6 0-3.2.1-4.9.3-1.7.2-3.2.4-4.4.6-1 3.3-2.2 6.8-3.6 10.2-1.4 3.5-2.9 7-4.3 10.4-1.4 3.5-2.8 6.9-3.9 10.3-1.2 3.4-2 6.6-2.4 9.6 1.6-1.2 3.2-2.5 4.8-3.9 1.6-1.4 3.1-2.8 4.6-4.3 1.4-1.4 2.8-2.9 3.9-4.3 1.2-1.4 2.2-2.7 3-3.8.4-.6.8-.9 1.1-1 .3 0 .6.1.8.4.2.3.3.6.3 1.1s-.1.8-.3 1.1c-1.2 1.8-2.6 3.5-4.2 5.3-1.5 1.8-3.2 3.4-4.8 5.1-1.7 1.6-3.3 3.1-5 4.5-1.7 1.4-3.2 2.6-4.7 3.6-.9.6-1.8.9-2.5.8-.8-.1-1.4-.3-1.9-.8s-.9-1.2-1.2-2c-.3-.9-.4-1.8-.3-2.9.3-2.8 1-5.8 2.2-9.1 1.2-3.2 2.5-6.6 4.1-10 1.6-3.4 3.2-6.8 4.9-10.2 1.7-3.4 3.2-6.7 4.6-9.9-3.2.2-6 .2-8.4 0-2.4-.2-4.5-.9-6.2-2.1-.9-.6-1.3-1.1-1.4-1.6-.1-.5.1-.8.4-1 .3-.2.7-.3 1.2-.2.5.1.8.4 1.1.8 1.6 1.2 3.6 1.8 6.1 1.8 2.5.1 5.2 0 8.1-.3.3-.6.5-1.2.7-1.8.2-.7.4-1.3.6-1.9.1-.6.4-.9.8-1 .4 0 .9.1 1.4.3.5.3.9.6 1.2 1 .3.4.4.8.3 1.2l-.5 2z"/>
  <path class="st0" d="M188.7 439.8c-.7.7-1.4 1.3-2.2 1.9-.8.5-1.5.9-2.2 1.1-.7.2-1.3.3-1.7.2-.5-.1-.7-.5-.8-1.1.2-2 .6-4 1.3-6 .7-2 1.4-3.8 2.2-5.7.8-1.8 1.6-3.6 2.5-5.3.9-1.7 1.6-3.4 2.2-5 .2-.5.4-.8.8-1 .4-.2.7-.3 1.1-.3.4 0 .8.2 1.1.4.4.3.6.6.8 1.1.1 1.1-.1 2.3-.5 3.8s-.9 3.1-1.4 4.8c1.1-1.3 2.3-2.5 3.7-3.6 1.3-1.1 2.6-2 3.9-2.7 1.3-.7 2.5-1.1 3.6-1.3 1.1-.2 2.1.1 2.8.8.4.4.6 1.1.6 2 0 .9-.1 1.9-.3 3 1.1-1.4 2.2-2.7 3.4-4 1.2-1.3 2.5-2.5 3.7-3.6 1.3-1.1 2.5-2.1 3.8-2.9 1.2-.9 2.4-1.5 3.5-2 .2-.2.5-.3.8-.3.4-.1.7-.1 1.1-.1.4 0 .7.1 1 .2.3.1.5.3.6.6.3 1.5.3 3 0 4.5s-.8 3-1.5 4.6c-.7 1.6-1.4 3.2-2.2 4.8-.8 1.6-1.6 3.3-2.3 5-.7 1.7-1.2 3.4-1.7 5.2-.4 1.8-.5 3.5-.3 5.4 1.2-.5 2.4-1.1 3.5-1.9 1.1-.8 2.1-1.6 3-2.5.9-.9 1.7-1.7 2.3-2.6.7-.8 1.2-1.5 1.6-2 .2-.3.4-.4.7-.4.3 0 .5.2.6.4.2.2.3.5.3.9.1.4 0 .7-.2 1-.6 1.1-1.5 2.3-2.7 3.6-1.2 1.3-2.4 2.4-3.8 3.5-1.3 1.1-2.7 1.9-4.1 2.6-1.4.7-2.7 1-3.9 1-1.2 0-2.1-.5-2.9-1.4-.7-.9-1.1-2.5-1.1-4.7 0-2 .4-4 1.3-6.1.8-2.1 1.8-4.1 2.9-6.2 1.1-2.1 2.2-4.1 3.4-6.1 1.1-2 2-3.8 2.6-5.6-1.6.9-3.3 2.2-5.1 4-1.8 1.7-3.5 3.6-5.1 5.5-1.6 1.9-2.9 3.8-4 5.6-1.1 1.8-1.6 3.2-1.7 4.2-.7.2-1.4.3-2.1.5-.7.2-1.3.3-1.9.3-.6 0-1-.1-1.3-.3-.3-.2-.4-.6-.3-1.3.1-.8.3-1.6.6-2.6s.7-2 1-3c.3-1.1.6-2.1.9-3.2.3-1 .4-2 .4-2.9-1.2.6-2.4 1.4-3.7 2.4-1.3 1-2.5 2.2-3.6 3.5-1.1 1.3-2.2 2.7-3.1 4.3-.9 1.6-1.5 3.3-1.9 5z"/>
  <path class="st0" d="M252.2 419c.2-.2.4-.4.7-.5.3-.1.6-.2 1-.2.3 0 .6.1.9.2.3.1.4.3.5.6.4 1.4.4 2.8.1 4.4-.3 1.6-.7 3.2-1.4 4.9-.6 1.7-1.4 3.4-2.2 5.2-.9 1.8-1.7 3.6-2.4 5.5-.8 1.9-1.4 3.7-2 5.6-.6 1.9-.8 3.7-.8 5.4 1.3-1 2.7-2.2 4.1-3.7 1.4-1.5 2.7-3 4-4.5 1.2-1.5 2.3-2.8 3.2-4 .9-1.2 1.5-2.1 1.9-2.6.2-.3.5-.5.8-.5.3 0 .6.1.8.3.2.2.4.5.5.8.1.3 0 .6-.2 1-.6.9-1.4 1.9-2.2 3.2-.9 1.3-1.9 2.6-3 4s-2.2 2.7-3.5 4c-1.2 1.3-2.4 2.5-3.6 3.5-1.2 1-2.3 1.8-3.4 2.3-1.1.5-2.1.7-2.9.5-.9-.3-1.6-.9-2.2-1.9-.5-1-.8-2.3-.8-3.7 0-1.2.2-2.5.6-3.8.4-1.3.9-2.8 1.6-4.2-1.5 1.8-3 3.4-4.5 4.9-1.5 1.5-2.9 2.7-4.3 3.6-1.4.9-2.7 1.5-3.9 1.8-1.2.3-2.3 0-3.2-.7-1.3-1-2.1-2.4-2.4-4.2-.3-1.8-.3-3.7.2-5.9.4-2.1 1.1-4.3 2.1-6.6s2.2-4.5 3.6-6.5c1.4-2.1 2.9-3.9 4.5-5.5s3.3-2.9 4.9-3.7c1.6-.8 3.2-1.2 4.8-1 1.5.2 2.9 1 4.1 2.6.6.7.8 1.3.8 1.7-.1.4-.2.7-.5.8-.3.1-.7.1-1.1 0-.4-.1-.8-.4-1-.8-.8-1.2-1.7-1.6-2.9-1-1.2.5-2.4 1.6-3.7 3.2-1.3 1.6-2.6 3.6-3.8 6-1.2 2.4-2.3 4.7-3.2 7.1-.9 2.4-1.5 4.6-1.9 6.7-.4 2.1-.4 3.6 0 4.7 1-.5 2.1-1.3 3.5-2.5s2.8-2.5 4.3-4.1c1.5-1.6 3-3.3 4.5-5.2 1.5-1.9 2.9-3.8 4.2-5.7 1.3-2 2.4-3.9 3.3-5.8.6-2.2 1.2-4 1.5-5.7z"/>
  <path class="st0" d="M272.7 423.2c.2 2.2.5 4.1.8 5.9.3 1.7.6 3.3.9 4.8.3 1.5.5 2.9.8 4.2.2 1.3.4 2.6.4 3.8 1.7-.8 3.2-1.7 4.6-2.7 1.3-1 2.5-2.3 3.4-3.7.4-.5.7-.8 1-.8.3 0 .6.1.8.4.2.3.3.6.3 1.1 0 .4-.1.8-.3 1.2-1.3 1.8-2.8 3.3-4.5 4.6-1.6 1.3-3.5 2.3-5.5 3.2-.1.9-.3 1.8-.6 2.6s-.8 1.5-1.3 2.2c-.8 1-1.8 1.7-2.9 2.3-1.1.6-2.2.9-3.1 1-1.9.3-3.4 0-4.6-.7-1.2-.7-1.9-1.6-2.2-2.6-.3-1-.1-2 .6-3s2-1.7 3.8-2c.7-.1 1.3-.2 1.9-.4.6-.2 1.2-.3 1.8-.4.3-2.5.2-5.1 0-8-.3-2.8-.6-5.4-1-7.6-.8 1.2-1.7 2.5-2.7 4-1.1 1.5-2.5 3.3-4.2 5.6-.4.5-.8.8-1.1.8-.3 0-.6-.1-.8-.4-.2-.3-.3-.6-.3-1s.1-.8.3-1.1c.8-1 2-2.5 3.5-4.6 1.5-2 3.1-4.3 4.6-6.7-.2-.9-.2-1.9 0-3s.5-2.2.9-3.3c.5-1.1 1.1-2 1.9-2.9.8-.8 1.7-1.4 2.8-1.6 1.9-.5 3-.1 3.3 1 .3 1.1-.3 2.5-1.5 4.2-.5.7-.9 1.3-1.2 1.8-.5.4-.7 1.1-.6 1.8zm-8.2 26.7c1 .3 1.7.1 2.3-.5.6-.6 1-1.3 1.3-2.2-.4.1-.7.2-1 .2-.3.1-.7.1-1.1.2-1.4.2-2.1.6-2.3 1.2-.2.5.1.9.8 1.1z"/>
  <g>
    <path class="st0" d="m137.6 387.8-2.7 5.5h-1.3l-2.7-5.5v6.3h-2.2v-10h3l2.6 5.5 2.6-5.5h3v10h-2.2v-6.3zM155.7 384.1v2h-5v2.1h4.5v1.9h-4.5v2.1h5.2v2h-7.4v-10h7.2zM172.1 387.4c0 1.6-.6 2.6-1.9 3.1l2.5 3.6H170l-2.2-3.2h-1.5v3.2H164v-10h3.8c1.6 0 2.7.3 3.3.8.7.5 1 1.4 1 2.5zm-2.7 1.2c.3-.2.4-.6.4-1.2 0-.5-.1-.9-.4-1.1-.3-.2-.8-.3-1.5-.3h-1.7v3h1.6c.8 0 1.4-.1 1.6-.4zM188.7 387.4c0 1.6-.6 2.6-1.9 3.1l2.5 3.6h-2.8l-2.2-3.2h-1.5v3.2h-2.2v-10h3.8c1.6 0 2.7.3 3.3.8.7.5 1 1.4 1 2.5zm-2.7 1.2c.3-.2.4-.6.4-1.2 0-.5-.1-.9-.4-1.1-.3-.2-.8-.3-1.5-.3h-1.7v3h1.6c.8 0 1.4-.1 1.6-.4zM201.3 394.1H199v-4l-3.5-6.1h2.4l2.2 3.7 2.2-3.7h2.4l-3.5 6.1v4z"/>
  </g>
  <g>
    <path class="st0" d="M48.8 472.3c-.8.7-1.7 1-2.8 1-1.1 0-1.9-.3-2.6-.8-.7-.5-1-1.3-1-2.2 0-1.1.7-2 2.1-2.8-.3-.4-.5-.7-.7-1-.1-.3-.2-.6-.2-1 0-.8.3-1.4.9-1.9.6-.4 1.3-.7 2.1-.7s1.5.2 2.1.6c.6.4.9 1 .9 1.8 0 .9-.7 1.8-2.1 2.6.5.7.9 1.2 1.2 1.5.2-.4.4-.9.5-1.4l1.7 1.2c-.2.6-.5 1.2-.8 1.7l1.4 1.4-1.4 1.4-1.3-1.4zm-3.9-1.1c.3.2.6.3 1.1.3.4 0 .9-.2 1.4-.6-.7-.7-1.3-1.4-1.8-2-.7.5-1.1 1-1.1 1.5 0 .3.1.5.4.8zm1.6-6.6c-.2 0-.4.1-.6.2-.2.1-.3.4-.3.6 0 .3.2.6.6 1.1.7-.4 1.1-.7 1.1-1.1 0-.3-.1-.5-.3-.6-.1-.2-.2-.2-.5-.2zM75.5 463.1h2.3v10.1h-2.3v-4h-4v4h-2.3v-10.1h2.3v4.2h4v-4.2zM93.7 473.2l-.9-2.2h-4.2l-.9 2.2h-2.4l4.4-10.1h2.2l4.4 10.1h-2.6zm-3.1-7.1-1.3 2.9h2.5l-1.2-2.9zM110.4 464c.7.6 1.1 1.5 1.1 2.8 0 1.2-.4 2.2-1.1 2.7-.7.6-1.8.9-3.3.9h-1.3v2.8h-2.3v-10.1h3.6c1.5 0 2.6.3 3.3.9zm-1.6 4c.3-.3.4-.7.4-1.3s-.2-1-.5-1.2c-.4-.2-.9-.4-1.6-.4h-1.3v3.4h1.5c.7-.1 1.2-.2 1.5-.5zM126.4 464c.7.6 1.1 1.5 1.1 2.8 0 1.2-.4 2.2-1.1 2.7-.7.6-1.8.9-3.3.9h-1.3v2.8h-2.3v-10.1h3.6c1.5 0 2.6.3 3.3.9zm-1.6 4c.3-.3.4-.7.4-1.3s-.2-1-.5-1.2c-.4-.2-.9-.4-1.6-.4h-1.3v3.4h1.5c.7-.1 1.2-.2 1.5-.5zM139.8 473.2h-2.3v-4l-3.5-6.1h2.4l2.2 3.8 2.2-3.8h2.4l-3.5 6.1v4zM167.7 463.1h2.3v10.1h-2.3l-4.8-6.3v6.3h-2.3v-10.1h2.1l5 6.5v-6.5zM185.9 463.1v2h-5v2.1h4.5v1.9h-4.5v2.1h5.2v2h-7.4v-10.1h7.2zM197.5 468.9l1.8-5.8h2.4l1.8 5.8 2-5.8h2.4l-3.5 10.1h-1.7l-2.2-7-2.2 7h-1.7l-3.5-10.1h2.4l2 5.8zM229.6 473.2h-2.3v-4l-3.5-6.1h2.4l2.2 3.8 2.2-3.8h2.4l-3.5 6.1v4zM247.7 463.1v2h-5v2.1h4.5v1.9h-4.5v2.1h5.2v2h-7.4v-10.1h7.2zM263.3 473.2l-.9-2.2h-4.2l-.9 2.2h-2.4l4.4-10.1h2.2l4.4 10.1h-2.6zm-3.1-7.1L259 469h2.5l-1.3-2.9zM281.3 466.4c0 1.6-.6 2.7-1.9 3.1l2.6 3.6h-2.8l-2.2-3.2h-1.6v3.2h-2.3V463h3.8c1.6 0 2.7.3 3.4.8.7.6 1 1.5 1 2.6zm-2.7 1.2c.3-.3.4-.6.4-1.2 0-.5-.1-.9-.4-1.1-.3-.2-.8-.3-1.5-.3h-1.7v3h1.6c.8 0 1.3-.1 1.6-.4z"/>
  </g>
  <g>
    <path class="st0" d="m365.7 237.2 6.4-10.9-10.6-7 12.4 2.7 3.3-12.2 1.3 12.6 12.6-.6-11.6 5.1 4.5 11.9-8.4-9.5zM465.7 115.1l-6.1-1.4-1.8 6-.5-6.3-6.3.2 5.8-2.4-2.1-5.9 4.1 4.7 5-3.8-3.3 5.4zM557.6 101.2l5.7-2.6-2.3-5.9 4.3 4.7 4.8-4-3.1 5.5 5.3 3.4-6.1-1.3-1.6 6.1-.7-6.2zM541.3 297l-14.2-6.4-7.2 13.8 1.7-15.5-15.3-2.6 15.2-3.1-2.3-15.4 7.7 13.6 14-7-10.5 11.5zM531.8 350.6l.4-4.6-4.5-.7 4.5-1-.8-4.6 2.4 4 4.1-2.2-3.1 3.5 3.3 3.3-4.2-1.9zM320 410.4l-9.9-7.9-8.4 9.5 4.4-11.9-11.6-5 12.7.5 1.2-12.6 3.4 12.2 12.4-2.7-10.6 7zM557.8 456.1l-5.7-2.8-3.2 5.5 1-6.3-6.3-1.3 6.3-1-.7-6.4 2.9 5.7 5.8-2.7-4.4 4.6zM296.4 197.8l-7.7-6.3-6.8 7.3 3.7-9.3-9-4.1 9.9.6 1.2-9.9 2.5 9.6 9.7-1.9-8.4 5.3zM371.2 136.4l7.5-15-14.5-8.4 16.6 2.5 3.5-16.4 2.7 16.6 16.7-1.8-15 7.7 6.9 15.4-11.9-11.9zM375.1 182.1l-4.2-1.8-2 4.1.4-4.6-4.6-.7 4.5-1-.8-4.5 2.4 3.9 4-2.1-3 3.5zM368 52.9l-8.4-3.6-4.1 8.3.8-9.2-9.1-1.3 9-2.1-1.6-9 4.8 7.9 8.1-4.3-6 6.9zM468 49.8l9.7 3.4 3.9-9.5-.2 10.2 10.3.8-9.9 3 2.5 10-5.9-8.5-8.7 5.4 6.2-8.2zM467.2 323l-4.9-2.3-2.6 4.8.7-5.4-5.4-1 5.3-1-.7-5.4 2.6 4.7 5-2.3-3.8 4zM326.3 515.9l3-8.3-8.2-3.4 8.9.2.7-8.8 2.5 8.5 8.6-2-7.3 5 4.6 7.5-7-5.4zM461.7 547.4l-7.8-.4-.9 7.8-2-7.6-7.8 1.5 6.7-4.2-3.9-6.9 6.1 5 5.3-5.8-2.8 7.3z"/>
  </g>
  <g>
    <path class="st0" d="M305 128.9c0 1.5-1.2 2.8-2.8 2.8-1.5 0-2.8-1.2-2.8-2.8 0-1.5 1.2-2.8 2.8-2.8 1.6.1 2.8 1.3 2.8 2.8zM484.6 282.9c0 1.3-1.1 2.4-2.4 2.4-1.3 0-2.4-1.1-2.4-2.4 0-1.3 1.1-2.4 2.4-2.4 1.3 0 2.4 1.1 2.4 2.4zM542.8 380.9c0 2-1.6 3.5-3.5 3.5-2 0-3.5-1.6-3.5-3.5 0-2 1.6-3.5 3.5-3.5 1.9-.1 3.5 1.5 3.5 3.5zM323.1 436.4c0 2.2-1.8 3.9-3.9 3.9s-3.9-1.8-3.9-3.9c0-2.2 1.8-3.9 3.9-3.9s3.9 1.7 3.9 3.9zM540.5 502.1c0 2-1.6 3.5-3.5 3.5-2 0-3.5-1.6-3.5-3.5s1.6-3.5 3.5-3.5 3.5 1.6 3.5 3.5zM402.7 268.7c0 2.2-1.8 3.9-3.9 3.9s-3.9-1.8-3.9-3.9 1.8-3.9 3.9-3.9 3.9 1.7 3.9 3.9zM538.1 53.7c0 2.6-2.1 4.7-4.7 4.7s-4.7-2.1-4.7-4.7 2.1-4.7 4.7-4.7 4.7 2.1 4.7 4.7zM543.6 120.3c0 1.1-.9 2-2 2s-2-.9-2-2 .9-2 2-2 2 .9 2 2zM588.5 154.5c0 3.5-2.8 6.3-6.3 6.3s-6.3-2.8-6.3-6.3 2.8-6.3 6.3-6.3 6.3 2.8 6.3 6.3z"/>
    <circle class="st0" cx="454.6" cy="156.1" r="3.1"/>
    <path class="st0" d="M397.2 64.4c0 2.4-1.9 4.3-4.3 4.3s-4.3-1.9-4.3-4.3 1.9-4.3 4.3-4.3c2.3-.1 4.3 1.9 4.3 4.3zM293.2 82.5c0 .7-.5 1.2-1.2 1.2s-1.2-.5-1.2-1.2.5-1.2 1.2-1.2 1.2.5 1.2 1.2z"/>
    <circle class="st0" cx="268" cy="227" r="6.3"/>
    <circle class="st0" cx="262.5" cy="364" r="1.6"/>
    <path class="st0" d="M306.6 508.4c0 1.5-1.2 2.8-2.8 2.8-1.5 0-2.8-1.2-2.8-2.8 0-1.5 1.2-2.8 2.8-2.8 1.6.1 2.8 1.3 2.8 2.8zM375.1 551.8c0 2.8-2.3 5.1-5.1 5.1s-5.1-2.3-5.1-5.1 2.3-5.1 5.1-5.1c2.8-.1 5.1 2.2 5.1 5.1z"/>
  </g>
  <g>
    <defs>
      <path id="SVGID_1_" d="M0 0h600v600H0z"/>
    </defs>
    <clipPath id="SVGID_2_">
      <use xlink:href="#SVGID_1_" overflow="visible"/>
    </clipPath>
    <g class="st1">
      <path class="st0" d="M432.8 351.4c4.9 0 9.7.4 14.4 1V343c0-2.5-2-4.5-4.5-4.5h-23.5c-2.5 0-4.5 2-4.5 4.5v10c6-1 12.1-1.6 18.1-1.6zM483.1 372.5h-.5l-.3-.1c-9.4-3.4-20.2-5.3-32-5.8-18.1-.7-34-3.3-47.3-7.5-.1 0-.2-.1-.3-.1 1.8-.6 3.6-1.2 5.5-1.8 12.1 3.4 26.3 5.5 42.2 6.1 8.9.4 17.2 1.5 24.9 3.5 2.7 1.8 5.3 3.6 7.8 5.7zM510.6 414.7c-.1-.1-.3-.2-.4-.3l-.2-.2c-14-18.7-36.4-29.3-66.6-31.4-23.8-1.7-43.4-6.6-58.4-14.7 1-.7 2.1-1.4 3.2-2 14.3 7.3 33 11.9 55.4 13.4 33.5 2.4 53.1 15 64.3 27.1 1.1 2.6 2 5.3 2.7 8.1zM513.3 442c-.1 2.3-.4 4.5-.7 6.7-.1-.2-.3-.4-.3-.6-5.9-16.2-23.5-44-75.7-49.2-27.1-2.7-48.3-9.8-63.2-21.2.8-.8 1.6-1.5 2.4-2.3 14.4 10.8 34.9 17.5 61.1 20.2 49 4.9 68.6 29.2 76.4 46.4z"/>
      <path class="st0" d="M508.5 464.7c-.6 1.6-1.2 3.3-2 4.9 0-.1-.1-.2-.1-.3-3.5-13.8-18.1-46.7-76.8-54.3-29-3.8-50.9-12.9-65.2-27 .6-.9 1.3-1.8 2-2.6 13.7 13.8 35.1 22.7 63.6 26.4 56 7.2 73.2 37 78.5 52.9z"/>
      <path class="st0" d="M500.9 480.1c-.7 1.2-1.5 2.4-2.3 3.5-1.9-6.6-5.9-15.4-13.9-23.9-.7-.8-1.5-1.6-2.3-2.4-4.8-4.7-10.8-9.2-18.4-13.3-1-.5-1.9-1-2.9-1.5-5.3-2.6-11.4-5-18.2-7-1.1-.3-2.1-.6-3.2-.9-5.2-1.4-10.7-2.6-16.8-3.6-2.1-.3-4.1-.7-6.1-1.1-1.1-.2-2.2-.5-3.3-.7-7.7-1.7-14.9-3.8-21.4-6.3-1.1-.4-2.1-.8-3.1-1.3-7-3-13.2-6.5-18.7-10.5-.9-.7-1.8-1.3-2.6-2-3.8-3-7.1-6.4-10-10 .6-1.1 1.1-2.1 1.7-3.1 11.6 14.9 30.6 25.1 56.5 30.4.2 0 .4.1.6.1 2.3.5 4.5.9 6.9 1.2 55.5 9 72.5 37.9 77.5 52.4z"/>
      <g>
        <path class="st0" d="M371.2 409.7s-.4.5-.9 1.3c-3.9 5.9-19 30.4-15.7 54.9v.6c-1.5-3.7-2.7-7.5-3.6-11.4 1.3-21.9 13.3-41 16.8-46.1.5-.7.8-1.1.9-1.3.5-.7 1.6-.9 2.3-.4.6.7.7 1.7.2 2.4zM392.6 422l-.6.9c-3.2 5.2-18.8 32.5-18.6 72.3-1.1-1.1-2.2-2.2-3.3-3.4.6-37.7 15-63.9 18.8-70.2.6-.9.9-1.4.9-1.5.5-.7 1.5-.9 2.3-.4.8.5 1 1.6.5 2.3zM417.3 428.8s-.2.4-.6 1.1c-3.7 7.3-24.1 49.2-20.1 81.3-1.2-.5-2.3-1.1-3.5-1.7-3-32.1 15.5-71 20.2-80.3.6-1.1.9-1.8 1-2 .3-.6.8-.9 1.4-.9.2 0 .4 0 .6.1.1 0 .1 0 .2.1.9.5 1.2 1.5.8 2.3zM443.3 434.8s-.2.3-.4.7c-3.2 5.9-24.3 46.1-20.6 82.8-1.1-.1-2.2-.3-3.3-.4-3.3-36.2 16.4-75.3 20.7-83.3.5-.9.8-1.4.8-1.5.5-.8 1.5-1.1 2.3-.6.6.5.9 1.5.5 2.3zM464.3 443.6s-.1.2-.3.5c-2.5 4.2-20.8 36.2-16 73-1.1.2-2.2.4-3.2.6-4.9-37.3 13.2-69.9 16.2-75.1.3-.4.4-.7.4-.7.5-.8 1.5-1 2.3-.5.9.4 1.1 1.4.6 2.2zM485.5 458.7s-.3.4-.8 1c-3.5 4.7-17.5 25.3-14.9 49.4-1 .6-2.1 1.1-3.1 1.6-3.5-26.9 12.4-49.1 15.7-53.4.3-.4.5-.6.6-.7.6-.7 1.6-.8 2.3-.2.7.5.8 1.6.2 2.3z"/>
      </g>
      <g>
        <path class="st0" d="M431 339.4c-4.7 0-8.5-3.8-8.5-8.5s3.8-8.5 8.5-8.5 8.5 3.8 8.5 8.5-3.8 8.5-8.5 8.5zm0-15.4c-3.8 0-6.9 3.1-6.9 6.9s3.1 6.9 6.9 6.9c3.8 0 6.9-3.1 6.9-6.9s-3.1-6.9-6.9-6.9z"/>
      </g>
      <g>
        <path class="st0" d="M430.2-172.8h1.6v496h-1.6z"/>
      </g>
      <path class="st0" d="M431 522.2c-47.3 0-85.8-38.5-85.8-85.8s38.5-85.8 85.8-85.8 85.8 38.5 85.8 85.8-38.5 85.8-85.8 85.8zm0-165.4c-43.9 0-79.6 35.7-79.6 79.6S387.2 516 431 516s79.6-35.7 79.6-79.6-35.7-79.6-79.6-79.6z"/>
    </g>
    <g class="st1">
      <path class="st0" d="M327.1 241.9c3.1 0 6.2.2 9.2.7v-6c0-1.6-1.3-2.9-2.9-2.9h-15.1c-1.6 0-2.9 1.3-2.9 2.9v6.4c4-.7 7.8-1.1 11.7-1.1zM359.4 255.4H359.1l-.2-.1c-6.1-2.2-13-3.4-20.5-3.7-11.6-.5-21.8-2.1-30.4-4.8-.1 0-.1 0-.2-.1 1.1-.4 2.3-.8 3.5-1.1 7.8 2.2 16.9 3.5 27.1 3.9 5.7.2 11 1 16 2.2 1.7 1.2 3.4 2.4 5 3.7zM377 282.5c-.1-.1-.2-.1-.3-.2l-.1-.1c-9-12-23.4-18.8-42.8-20.2-15.3-1.1-27.9-4.2-37.5-9.4.7-.4 1.4-.9 2-1.3 9.2 4.7 21.2 7.6 35.6 8.6 21.5 1.5 34.1 9.7 41.3 17.4.8 1.7 1.4 3.4 1.8 5.2zM378.8 300c-.1 1.5-.2 2.9-.5 4.3-.1-.1-.2-.3-.2-.4-3.8-10.4-15.1-28.3-48.6-31.6-17.4-1.7-31-6.3-40.6-13.6l1.5-1.5c9.2 6.9 22.4 11.3 39.3 12.9 31.5 3.3 44.1 18.9 49.1 29.9z"/>
      <path class="st0" d="M375.7 314.6c-.4 1.1-.8 2.1-1.3 3.1 0-.1 0-.1-.1-.2-2.3-8.9-11.6-30-49.3-34.9-18.6-2.4-32.7-8.3-41.8-17.4.4-.6.8-1.1 1.3-1.7 8.8 8.9 22.5 14.6 40.8 16.9 35.9 4.9 47 24 50.4 34.2z"/>
      <path class="st0" d="M370.8 324.5c-.5.8-1 1.5-1.5 2.2-1.2-4.3-3.8-9.9-8.9-15.4l-1.5-1.5c-3.1-3-6.9-5.9-11.8-8.5-.6-.3-1.2-.7-1.9-1-3.4-1.7-7.3-3.2-11.7-4.5l-2.1-.6c-3.3-.9-6.9-1.7-10.8-2.3-1.3-.2-2.6-.4-3.9-.7-.7-.1-1.4-.3-2.1-.4-5-1.1-9.5-2.4-13.7-4.1-.7-.3-1.3-.5-2-.8-4.5-1.9-8.5-4.2-12-6.8-.6-.4-1.1-.9-1.7-1.3-2.4-2-4.6-4.1-6.4-6.4.4-.7.7-1.4 1.1-2 7.5 9.6 19.6 16.1 36.3 19.5.1 0 .3.1.4.1 1.4.3 2.9.6 4.4.8 35.7 5.9 46.6 24.4 49.8 33.7z"/>
      <g>
        <path class="st0" d="m287.5 279.3-.6.9c-2.5 3.8-12.2 19.5-10.1 35.3v.4c-.9-2.4-1.7-4.8-2.3-7.3.8-14 8.6-26.3 10.8-29.6.3-.5.5-.7.6-.8.3-.5 1-.6 1.5-.2.4.2.5.9.1 1.3zM301.3 287.2s-.1.2-.4.6c-2 3.3-12.1 20.9-11.9 46.4-.7-.7-1.4-1.4-2.1-2.2.4-24.2 9.6-41 12.1-45.1l.6-.9c.3-.5 1-.6 1.5-.3.4.4.5 1 .2 1.5zM317.1 291.6s-.1.3-.4.7c-2.4 4.7-15.5 31.6-12.9 52.2-.8-.3-1.5-.7-2.2-1.1-1.9-20.6 10-45.6 13-51.5.4-.7.6-1.1.7-1.3.2-.4.5-.5.9-.5.1 0 .3 0 .4.1h.1c.5.2.7.9.4 1.4zM333.8 295.4s-.1.2-.3.5c-2.1 3.8-15.6 29.6-13.2 53.2l-2.1-.3c-2.1-23.2 10.5-48.3 13.3-53.5.3-.6.5-.9.5-.9.3-.5.9-.7 1.4-.4.5.3.7.9.4 1.4zM347.3 301.1s-.1.1-.2.3c-1.6 2.7-13.3 23.3-10.2 46.9-.7.1-1.4.3-2.1.4-3.2-24 8.5-44.9 10.4-48.2.2-.3.3-.4.3-.5.3-.5 1-.6 1.5-.3.5.2.6.9.3 1.4zM361 310.8s-.2.2-.5.6c-2.2 3-11.2 16.2-9.6 31.7-.7.4-1.3.7-2 1-2.2-17.3 8-31.5 10.1-34.3.2-.2.3-.4.4-.5.4-.4 1-.5 1.5-.1.4.4.4 1.1.1 1.6z"/>
      </g>
      <g>
        <path class="st0" d="M325.9 234.2c-3 0-5.5-2.5-5.5-5.5s2.5-5.5 5.5-5.5 5.5 2.5 5.5 5.5-2.5 5.5-5.5 5.5zm0-9.9c-2.4 0-4.4 2-4.4 4.4 0 2.4 2 4.4 4.4 4.4s4.4-2 4.4-4.4c.1-2.4-1.9-4.4-4.4-4.4z"/>
      </g>
      <g>
        <path class="st0" d="M325.4-94.7h1v318.5h-1z"/>
      </g>
      <path class="st0" d="M326 351.6c-30.4 0-55.1-24.7-55.1-55.1s24.7-55.1 55.1-55.1 55.1 24.7 55.1 55.1-24.8 55.1-55.1 55.1zm0-106.2c-28.2 0-51.1 22.9-51.1 51.1s22.9 51.1 51.1 51.1 51.1-22.9 51.1-51.1-23-51.1-51.1-51.1z"/>
    </g>
    <g class="st1">
      <path class="st0" d="M512.1 145.1c3.1 0 6.2.2 9.2.7v-6c0-1.6-1.3-2.9-2.9-2.9h-15.1c-1.6 0-2.9 1.3-2.9 2.9v6.4c4-.8 7.9-1.1 11.7-1.1zM544.4 158.6H544.1l-.2-.1c-6.1-2.2-13-3.4-20.5-3.7-11.6-.5-21.8-2.1-30.4-4.8-.1 0-.1 0-.2-.1 1.1-.4 2.3-.8 3.5-1.1 7.8 2.2 16.9 3.5 27.1 3.9 5.7.2 11 1 16 2.2 1.8 1.2 3.4 2.4 5 3.7zM562.1 185.7c-.1-.1-.2-.1-.3-.2l-.1-.1c-9-12-23.4-18.8-42.8-20.2-15.3-1.1-27.9-4.2-37.5-9.4.7-.4 1.4-.9 2-1.3 9.2 4.7 21.2 7.6 35.6 8.6 21.5 1.5 34.1 9.7 41.3 17.4.7 1.6 1.3 3.4 1.8 5.2zM563.8 203.2c-.1 1.5-.2 2.9-.5 4.3-.1-.1-.2-.3-.2-.4-3.8-10.4-15.1-28.3-48.6-31.6-17.4-1.7-31-6.3-40.6-13.6l1.5-1.5c9.2 6.9 22.4 11.3 39.3 12.9 31.5 3.2 44.1 18.9 49.1 29.9z"/>
      <path class="st0" d="M560.7 217.8c-.4 1.1-.8 2.1-1.3 3.1 0-.1 0-.1-.1-.2-2.3-8.9-11.6-30-49.3-34.9-18.6-2.4-32.7-8.3-41.8-17.4.4-.6.8-1.1 1.3-1.7 8.8 8.9 22.5 14.6 40.8 16.9 36 4.8 47.1 23.9 50.4 34.2z"/>
      <path class="st0" d="M555.9 227.7c-.5.8-1 1.5-1.5 2.2-1.2-4.3-3.8-9.9-8.9-15.4L544 213c-3.1-3-6.9-5.9-11.8-8.5-.6-.3-1.2-.7-1.9-1-3.4-1.7-7.3-3.2-11.7-4.5l-2.1-.6c-3.3-.9-6.9-1.7-10.8-2.3-1.3-.2-2.6-.4-3.9-.7-.7-.1-1.4-.3-2.1-.4-5-1.1-9.5-2.4-13.7-4.1-.7-.3-1.3-.5-2-.8-4.5-1.9-8.5-4.2-12-6.8-.6-.4-1.1-.9-1.7-1.3-2.4-2-4.6-4.1-6.4-6.4.4-.7.7-1.4 1.1-2 7.5 9.6 19.6 16.1 36.3 19.5.1 0 .3.1.4.1 1.4.3 2.9.6 4.4.8 35.6 5.8 46.5 24.3 49.8 33.7z"/>
      <g>
        <path class="st0" d="m472.6 182.5-.6.9c-2.5 3.8-12.2 19.5-10.1 35.3v.4c-.9-2.4-1.7-4.8-2.3-7.3.8-14 8.6-26.3 10.8-29.6.3-.5.5-.7.6-.8.3-.5 1-.6 1.5-.2.3.2.4.8.1 1.3zM486.3 190.4s-.1.2-.4.6c-2 3.3-12.1 20.9-11.9 46.4-.7-.7-1.4-1.4-2.1-2.2.4-24.2 9.6-41 12.1-45.1l.6-.9c.3-.5 1-.6 1.5-.3.4.3.5 1 .2 1.5zM502.2 194.7s-.1.3-.4.7c-2.4 4.7-15.5 31.6-12.9 52.2-.8-.3-1.5-.7-2.2-1.1-1.9-20.6 10-45.6 13-51.5.4-.7.6-1.1.7-1.3.2-.4.5-.5.9-.5.1 0 .3 0 .4.1h.1c.5.3.7.9.4 1.4zM518.9 198.6s-.1.2-.3.5c-2.1 3.8-15.6 29.6-13.2 53.2l-2.1-.3c-2.1-23.2 10.5-48.3 13.3-53.5.3-.6.5-.9.5-.9.3-.5.9-.7 1.4-.4.5.2.6.9.4 1.4zM532.4 204.2s-.1.1-.2.3c-1.6 2.7-13.3 23.3-10.2 46.9-.7.1-1.4.3-2.1.4-3.2-24 8.5-44.9 10.4-48.2.2-.3.3-.4.3-.5.3-.5 1-.6 1.5-.3.4.3.6.9.3 1.4zM546 213.9s-.2.2-.5.6c-2.2 3-11.2 16.2-9.6 31.7-.7.4-1.3.7-2 1-2.2-17.3 8-31.5 10.1-34.3.2-.2.3-.4.4-.5.4-.4 1-.5 1.5-.1.4.5.5 1.2.1 1.6z"/>
      </g>
      <g>
        <path class="st0" d="M511 137.3c-3 0-5.5-2.5-5.5-5.5s2.5-5.5 5.5-5.5 5.5 2.5 5.5 5.5c-.1 3.1-2.5 5.5-5.5 5.5zm0-9.9c-2.4 0-4.4 2-4.4 4.4 0 2.4 2 4.4 4.4 4.4 2.4 0 4.4-2 4.4-4.4 0-2.4-2-4.4-4.4-4.4z"/>
      </g>
      <g>
        <path class="st0" d="M510.4-191.6h1v318.5h-1z"/>
      </g>
      <path class="st0" d="M511 254.7c-30.4 0-55.1-24.7-55.1-55.1s24.7-55.1 55.1-55.1c30.4 0 55.1 24.7 55.1 55.1s-24.7 55.1-55.1 55.1zm0-106.2c-28.2 0-51.1 22.9-51.1 51.1s22.9 51.1 51.1 51.1c28.2 0 51.1-22.9 51.1-51.1s-22.9-51.1-51.1-51.1z"/>
    </g>
  </g>
</svg>
