<svg version="1.1" id="Layer_1" xmlns="http://www.w3.org/2000/svg" x="0" y="0" viewBox="0 0 600 600" xml:space="preserve">
  <style>
    .st0{fill:#fff}
  </style>
  <path class="st0" d="M6.5 418.8c0-1.6 1.3-2.8 2.8-2.8 1.6 0 2.8 1.3 2.8 2.8 0 1.6-1.3 2.8-2.8 2.8-1.6.1-2.8-1.2-2.8-2.8zM45.1 366.6c0-.8.6-1.4 1.4-1.4.8 0 1.4.6 1.4 1.4s-.6 1.4-1.4 1.4c-.8 0-1.4-.6-1.4-1.4zM13.1 325.3c0-1.3 1.1-2.4 2.4-2.4 1.3 0 2.4 1.1 2.4 2.4 0 1.3-1.1 2.4-2.4 2.4-1.4 0-2.4-1.1-2.4-2.4zM118.1 308.5c0-1.6 1.3-2.9 2.9-2.9 1.6 0 2.9 1.3 2.9 2.9 0 1.6-1.3 2.9-2.9 2.9-1.6-.1-2.9-1.3-2.9-2.9zM196 301.7c0-1.4 1.1-2.5 2.5-2.5s2.5 1.1 2.5 2.5-1.1 2.5-2.5 2.5c-1.4.1-2.5-1.1-2.5-2.5zM43.3 200.7c0-1 .8-1.8 1.8-1.8s1.8.8 1.8 1.8-.8 1.8-1.8 1.8c-1-.1-1.8-.9-1.8-1.8zM66.8 187.3c0-2 1.6-3.5 3.5-3.5 2 0 3.5 1.6 3.5 3.5 0 2-1.6 3.5-3.5 3.5-1.9.1-3.5-1.5-3.5-3.5zM141 196c0-1 .9-1.9 1.9-1.9 1.1 0 1.9.9 1.9 1.9 0 1.1-.9 1.9-1.9 1.9-1.1 0-1.9-.9-1.9-1.9zM47.1 192c0-1.5 1.2-2.7 2.7-2.7 1.5 0 2.7 1.2 2.7 2.7 0 1.5-1.2 2.7-2.7 2.7-1.5 0-2.7-1.2-2.7-2.7zM6.2 388.4c0-1.1.9-2 2-2s2 .9 2 2-.9 2-2 2-2-.9-2-2zM114.2 352c0-2.2 1.8-4 4-4s4 1.8 4 4-1.8 4-4 4-4-1.8-4-4zM104.8 267.3c0-1.1.9-1.9 1.9-1.9 1.1 0 1.9.9 1.9 1.9 0 1.1-.9 1.9-1.9 1.9-1 0-1.9-.8-1.9-1.9zM211 254.2c0-1.2 1-2.1 2.1-2.1 1.2 0 2.1 1 2.1 2.1 0 1.2-1 2.1-2.1 2.1-1.2.1-2.1-.9-2.1-2.1zM193.9 142.3c0-1.7 1.4-3 3-3 1.7 0 3 1.4 3 3s-1.4 3.1-3 3.1-3-1.4-3-3.1zM267.3 80.6c0-2.2 1.8-3.9 3.9-3.9 2.2 0 4 1.8 4 3.9 0 2.2-1.8 3.9-4 3.9s-3.9-1.7-3.9-3.9zM301.7 273.8c0-2.3 1.8-4.1 4.1-4.1s4.1 1.8 4.1 4.1-1.8 4.1-4.1 4.1c-2.2 0-4.1-1.8-4.1-4.1zM412.1 156.2c0-1.2.9-2.1 2.1-2.1 1.2 0 2.1.9 2.1 2.1 0 1.2-.9 2.1-2.1 2.1-1.2 0-2.1-.9-2.1-2.1zM440.2 208.9c0-1.8 1.5-3.3 3.3-3.3 1.8 0 3.3 1.5 3.3 3.3 0 1.8-1.5 3.3-3.3 3.3-1.8 0-3.3-1.4-3.3-3.3zM385 244.1c0-2 1.6-3.6 3.6-3.6s3.6 1.6 3.6 3.6-1.6 3.6-3.6 3.6-3.6-1.6-3.6-3.6zM103.1 196.6c0-2 1.6-3.5 3.5-3.5 2 0 3.5 1.6 3.5 3.5 0 2-1.6 3.5-3.5 3.5-2 .1-3.5-1.5-3.5-3.5zM395.9 285.7c0-1.2 1-2.2 2.2-2.2 1.2 0 2.2 1 2.2 2.2 0 1.2-1 2.2-2.2 2.2-1.2 0-2.2-1-2.2-2.2zM399.6 196.7c0-1.7 1.4-3.1 3.1-3.1 1.7 0 3.1 1.4 3.1 3.1 0 1.7-1.4 3.1-3.1 3.1-1.7.1-3.1-1.3-3.1-3.1zM480.7 132.6c0-1.8 1.4-3.2 3.2-3.2 1.8 0 3.2 1.4 3.2 3.2 0 1.8-1.4 3.2-3.2 3.2-1.7 0-3.2-1.5-3.2-3.2zM29.2 111.2c0-1.3 1-2.3 2.3-2.3 1.3 0 2.3 1 2.3 2.3 0 1.3-1 2.3-2.3 2.3-1.3 0-2.3-1-2.3-2.3zM36.4 85.1c0-1.5 1.3-2.8 2.8-2.8 1.5 0 2.8 1.2 2.8 2.8 0 1.5-1.2 2.8-2.8 2.8-1.5 0-2.8-1.2-2.8-2.8zM95.3 81c0-1.8 1.5-3.3 3.3-3.3 1.8 0 3.3 1.5 3.3 3.3 0 1.8-1.5 3.3-3.3 3.3-1.8-.1-3.3-1.5-3.3-3.3zM117.7 19.5c0-1.7 1.4-3.1 3.1-3.1 1.7 0 3.1 1.4 3.1 3.1 0 1.7-1.4 3.1-3.1 3.1-1.7 0-3.1-1.4-3.1-3.1zM158.5 76.4c0-1.8 1.5-3.3 3.3-3.3s3.3 1.5 3.3 3.3c0 1.8-1.5 3.3-3.3 3.3s-3.3-1.5-3.3-3.3zM211.6 62.1c0-.8.7-1.5 1.5-1.5s1.5.7 1.5 1.5c0 .9-.7 1.5-1.5 1.5s-1.5-.6-1.5-1.5zM242.3 48.7c0-2.3 1.9-4.2 4.2-4.2 2.3 0 4.2 1.9 4.2 4.2 0 2.3-1.9 4.2-4.2 4.2-2.3.1-4.2-1.8-4.2-4.2zM447.2 55.8c0-1.1.9-2 2-2s2 .9 2 2-.9 2-2 2-2-.9-2-2zM344.3 19.4c0-1.3 1.1-2.4 2.4-2.4 1.3 0 2.4 1.1 2.4 2.4 0 1.3-1.1 2.4-2.4 2.4-1.4-.1-2.4-1.1-2.4-2.4zM317.6 80.4c0-1.9 1.6-3.5 3.5-3.5s3.5 1.6 3.5 3.5-1.6 3.5-3.5 3.5-3.5-1.5-3.5-3.5zM357.1 103.3c0-1.1.9-2 2-2s2 .9 2 2-.9 2-2 2-2-.9-2-2zM417.5 108.7c0-1.9 1.5-3.5 3.5-3.5 1.9 0 3.5 1.5 3.5 3.5s-1.5 3.5-3.5 3.5c-1.9-.1-3.5-1.6-3.5-3.5zM504.4 106.9c0-.9.8-1.7 1.7-1.7.9 0 1.7.8 1.7 1.7 0 .9-.8 1.7-1.7 1.7-1 0-1.7-.8-1.7-1.7zM539.6 118.3c0-2 1.6-3.5 3.5-3.5 2 0 3.5 1.6 3.5 3.5 0 2-1.6 3.5-3.5 3.5s-3.5-1.6-3.5-3.5zM542.4 185.9c0-.8.7-1.5 1.5-1.5s1.5.7 1.5 1.5-.7 1.5-1.5 1.5-1.5-.6-1.5-1.5zM568.6 202.9c0-1.5 1.2-2.7 2.7-2.7 1.5 0 2.7 1.2 2.7 2.7 0 1.5-1.2 2.7-2.7 2.7-1.5 0-2.7-1.2-2.7-2.7zM558.6 357.1c0-1.8 1.4-3.2 3.2-3.2 1.8 0 3.2 1.4 3.2 3.2 0 1.8-1.4 3.2-3.2 3.2-1.8 0-3.2-1.4-3.2-3.2zM414.9 29.5c0-.9.7-1.6 1.6-1.6.9 0 1.6.7 1.6 1.6 0 .9-.7 1.6-1.6 1.6-.9 0-1.6-.7-1.6-1.6zM317.4 38.2c0-.6.4-1 1-1s1 .4 1 1c0 .5-.4 1-1 1-.5 0-1-.4-1-1zM286 9.7c0-1.4 1.1-2.5 2.5-2.5s2.5 1.1 2.5 2.5-1.1 2.5-2.5 2.5c-1.4-.1-2.5-1.2-2.5-2.5z"/>
  <circle class="st0" cx="203.1" cy="16" r="2.3"/>
  <path class="st0" d="M203 5.6c0-.8.6-1.4 1.4-1.4.8 0 1.4.6 1.4 1.4 0 .8-.6 1.4-1.4 1.4-.8-.1-1.4-.7-1.4-1.4zM152.6 32.7c0-1.5 1.2-2.7 2.7-2.7 1.5 0 2.7 1.2 2.7 2.7 0 1.5-1.2 2.7-2.7 2.7-1.5 0-2.7-1.2-2.7-2.7zM197.2 170.3c0-1.1.9-1.9 1.9-1.9 1.1 0 1.9.9 1.9 1.9 0 1.1-.9 1.9-1.9 1.9-1 0-1.9-.8-1.9-1.9zM342 215.9c0-1.5 1.2-2.8 2.8-2.8 1.5 0 2.8 1.2 2.8 2.8 0 1.5-1.2 2.8-2.8 2.8-1.5-.1-2.8-1.3-2.8-2.8zM366.5 190.4c0-.9.7-1.6 1.6-1.6.9 0 1.6.7 1.6 1.6 0 .9-.7 1.6-1.6 1.6-.9-.1-1.6-.8-1.6-1.6zM419.4 194.5c0-1.4 1.1-2.5 2.5-2.5s2.5 1.1 2.5 2.5-1.1 2.5-2.5 2.5-2.5-1.1-2.5-2.5zM392.4 229.1c0-1.4 1.1-2.5 2.5-2.5s2.5 1.1 2.5 2.5-1.1 2.5-2.5 2.5-2.5-1.1-2.5-2.5zM359.8 251.2c0-1.2.9-2.1 2.1-2.1 1.2 0 2.1.9 2.1 2.1 0 1.2-.9 2.1-2.1 2.1-1.2 0-2.1-.9-2.1-2.1zM297.6 238.2c0-1.5 1.2-2.8 2.8-2.8 1.5 0 2.8 1.2 2.8 2.8 0 1.5-1.2 2.8-2.8 2.8-1.6-.1-2.8-1.3-2.8-2.8zM274.9 254.6c0-.6.5-1.1 1.1-1.1s1.1.5 1.1 1.1c0 .6-.5 1.1-1.1 1.1s-1.1-.5-1.1-1.1zM361.8 270.6c0-.6.5-1.1 1.1-1.1.6 0 1.1.5 1.1 1.1 0 .6-.5 1.1-1.1 1.1-.6 0-1.1-.5-1.1-1.1zM39.4 310.3c0-1.2 1-2.2 2.2-2.2 1.2 0 2.2 1 2.2 2.2 0 1.2-1 2.2-2.2 2.2-1.3 0-2.2-1-2.2-2.2zM68.1 259.1c0-.5.4-.9 1-.9.5 0 .9.4.9.9s-.4.9-.9.9-1-.4-1-.9zM48.3 250.3c0-.7.5-1.2 1.2-1.2s1.2.5 1.2 1.2-.5 1.2-1.2 1.2c-.7.1-1.2-.5-1.2-1.2zM29.9 272.4c0-1.5 1.2-2.6 2.6-2.6 1.5 0 2.6 1.2 2.6 2.6S34 275 32.6 275c-1.5 0-2.7-1.2-2.7-2.6zM17.8 339.6c0-1.2 1-2.2 2.2-2.2 1.2 0 2.2 1 2.2 2.2 0 1.2-1 2.2-2.2 2.2-1.2 0-2.2-.9-2.2-2.2zM42.2 292.1c0-1.2 1-2.2 2.2-2.2 1.2 0 2.2 1 2.2 2.2 0 1.2-1 2.2-2.2 2.2-1.2-.1-2.2-1-2.2-2.2zM59.4 326.3c0-1.4 1.2-2.6 2.6-2.6 1.4 0 2.6 1.2 2.6 2.6 0 1.4-1.2 2.6-2.6 2.6-1.5 0-2.6-1.1-2.6-2.6zM49.6 291c0-1.5 1.2-2.7 2.7-2.7 1.5 0 2.7 1.2 2.7 2.7 0 1.5-1.2 2.7-2.7 2.7-1.5 0-2.7-1.2-2.7-2.7zM78.5 376.2c0-1.3 1.1-2.4 2.4-2.4 1.3 0 2.4 1.1 2.4 2.4 0 1.3-1.1 2.4-2.4 2.4-1.3 0-2.4-1-2.4-2.4zM11.2 375.4c0-1.1.9-2 2-2s2 .9 2 2-.9 2-2 2-2-.9-2-2zM559.1 301.6c0-1.1.9-2 2-2s2 .9 2 2-.9 2-2 2c-1.1.1-2-.8-2-2zM586 369.4c0-.8.6-1.4 1.4-1.4.8 0 1.4.6 1.4 1.4 0 .8-.6 1.4-1.4 1.4-.7 0-1.4-.7-1.4-1.4zM578.1 348.5c0-.9.8-1.7 1.7-1.7.9 0 1.7.8 1.7 1.7 0 .9-.8 1.7-1.7 1.7-.9 0-1.7-.8-1.7-1.7zM566.6 393.6c0-1 .8-1.8 1.8-1.8s1.8.8 1.8 1.8-.8 1.8-1.8 1.8c-1 .1-1.8-.8-1.8-1.8zM35.7 146.7c0-.7.6-1.3 1.3-1.3.7 0 1.3.6 1.3 1.3 0 .7-.6 1.3-1.3 1.3-.7-.1-1.3-.6-1.3-1.3z"/>
  <circle class="st0" cx="56.7" cy="418.2" r="2.5"/>
  <path class="st0" d="M160.8 295c0 .8-.6 1.4-1.4 1.4-.8 0-1.4-.6-1.4-1.4 0-.8.6-1.4 1.4-1.4.8 0 1.4.7 1.4 1.4zM130.3 252.7c0 .8-.6 1.4-1.4 1.4-.7 0-1.4-.6-1.4-1.4 0-.8.6-1.4 1.4-1.4.8.1 1.4.7 1.4 1.4zM114.6 249.1c0 1.2-1 2.2-2.2 2.2-1.2 0-2.2-1-2.2-2.2 0-1.2 1-2.2 2.2-2.2 1.2 0 2.2 1 2.2 2.2zM184.5 249.3c0 .7-.6 1.2-1.2 1.2-.7 0-1.2-.6-1.2-1.2 0-.7.6-1.2 1.2-1.2s1.2.5 1.2 1.2zM527.1 308.5c0 1.2-1 2.2-2.2 2.2-1.2 0-2.2-1-2.2-2.2 0-1.2 1-2.2 2.2-2.2 1.2 0 2.2 1 2.2 2.2zM587.8 332.5c0 .8-.7 1.5-1.5 1.5s-1.5-.7-1.5-1.5.7-1.4 1.5-1.4c.9-.1 1.5.6 1.5 1.4zM587.2 322.9c0 1.2-1 2.2-2.2 2.2-1.2 0-2.2-1-2.2-2.2 0-1.2 1-2.2 2.2-2.2 1.2 0 2.2 1 2.2 2.2zM564.5 267.1c0 .8-.7 1.5-1.5 1.5s-1.5-.7-1.5-1.5.7-1.5 1.5-1.5c.8.1 1.5.7 1.5 1.5zM551.4 148.7c0 1-.8 1.7-1.7 1.7-1 0-1.7-.8-1.7-1.7s.8-1.7 1.7-1.7c.9 0 1.7.7 1.7 1.7zM526.7 130.3c0 1.5-1.2 2.7-2.7 2.7-1.5 0-2.7-1.2-2.7-2.7 0-1.5 1.2-2.7 2.7-2.7 1.5 0 2.7 1.2 2.7 2.7zM575.1 149.6c0 .7-.5 1.2-1.2 1.2s-1.2-.5-1.2-1.2.5-1.2 1.2-1.2 1.2.5 1.2 1.2zM536.5 129.3c0 .9-.7 1.6-1.6 1.6-.9 0-1.6-.7-1.6-1.6 0-.9.7-1.6 1.6-1.6.8-.1 1.6.7 1.6 1.6zM577 162.7c0 1-.8 1.9-1.9 1.9-1 0-1.9-.8-1.9-1.9 0-1 .8-1.9 1.9-1.9 1.1 0 1.9.8 1.9 1.9zM524.2 177.1c0 .8-.6 1.4-1.4 1.4-.8 0-1.4-.6-1.4-1.4 0-.8.6-1.4 1.4-1.4.8.1 1.4.7 1.4 1.4zM515.8 147.3c0 1.2-1 2.2-2.2 2.2-1.2 0-2.2-1-2.2-2.2 0-1.2 1-2.2 2.2-2.2 1.2 0 2.2 1 2.2 2.2zM486.7 194.6c0 1.5-1.2 2.7-2.7 2.7-1.5 0-2.7-1.2-2.7-2.7s1.2-2.7 2.7-2.7c1.5 0 2.7 1.2 2.7 2.7zM478 163.9c0 1.3-1 2.3-2.3 2.3-1.2 0-2.3-1-2.3-2.3 0-1.3 1-2.3 2.3-2.3 1.3 0 2.3 1.1 2.3 2.3zM538.9 161.7c0 1.3-1.1 2.4-2.4 2.4-1.3 0-2.4-1.1-2.4-2.4 0-1.3 1.1-2.4 2.4-2.4 1.3-.1 2.4 1 2.4 2.4zM522.9 87.2c0 .5-.4.9-.9.9s-.9-.4-.9-.9.4-.9.9-.9.9.4.9.9zM560.8 41.6c0 .9-.8 1.7-1.7 1.7-.9 0-1.7-.8-1.7-1.7 0-.9.8-1.7 1.7-1.7.9 0 1.7.8 1.7 1.7zM546 55.1c0 .9-.7 1.6-1.6 1.6-.9 0-1.6-.7-1.6-1.6 0-.9.7-1.6 1.6-1.6.9 0 1.6.7 1.6 1.6zM571.4 38.9c0 1.2-1 2.2-2.2 2.2-1.2 0-2.2-1-2.2-2.2 0-1.2 1-2.2 2.2-2.2 1.2 0 2.2 1 2.2 2.2zM584.6 28.7c0 .6-.5 1.1-1 1.1-.6 0-1.1-.5-1.1-1.1 0-.6.5-1.1 1.1-1.1.6.1 1 .5 1 1.1zM582.9 9.1c0 1-.8 1.8-1.8 1.8s-1.8-.8-1.8-1.8.8-1.8 1.8-1.8 1.8.8 1.8 1.8zM548.9 6.4c0 1.2-1 2.2-2.2 2.2-1.2 0-2.2-1-2.2-2.2 0-1.2 1-2.2 2.2-2.2 1.2 0 2.2 1 2.2 2.2zM548.9 61.5c0 1-.8 1.8-1.8 1.8s-1.8-.8-1.8-1.8.8-1.8 1.8-1.8c1 .1 1.8.9 1.8 1.8zM562.1 95.8c0 1.4-1.2 2.6-2.6 2.6-1.4 0-2.6-1.2-2.6-2.6 0-1.4 1.2-2.6 2.6-2.6 1.5 0 2.6 1.2 2.6 2.6zM560.8 49.6c0 .8-.6 1.5-1.4 1.5-.8 0-1.5-.6-1.5-1.5 0-.8.7-1.5 1.5-1.5.7.1 1.4.7 1.4 1.5zM561.8 58.5c0 1.3-1.1 2.4-2.4 2.4-1.3 0-2.4-1.1-2.4-2.4 0-1.3 1.1-2.4 2.4-2.4 1.3-.1 2.4 1 2.4 2.4zM549.2 68.8c0 .6-.5 1.1-1.1 1.1-.6 0-1.1-.5-1.1-1.1 0-.6.5-1.1 1.1-1.1.6 0 1.1.5 1.1 1.1zM588.8 404.3c0 .7-.6 1.3-1.3 1.3-.7 0-1.3-.6-1.3-1.3 0-.7.6-1.3 1.3-1.3.8 0 1.3.6 1.3 1.3zM574.6 354.1c0 .9-.7 1.6-1.6 1.6-.9 0-1.6-.7-1.6-1.6 0-.9.7-1.6 1.6-1.6.9 0 1.6.7 1.6 1.6zM567.7 334.2c0 1.4-1.1 2.6-2.6 2.6-1.4 0-2.6-1.1-2.6-2.6 0-1.4 1.1-2.6 2.6-2.6 1.5.1 2.6 1.2 2.6 2.6zM498.3 359.8c0 .5-.4.9-1 .9-.5 0-.9-.4-.9-.9s.4-.9.9-.9c.6-.1 1 .4 1 .9zM518.1 368.5c0 .7-.5 1.2-1.2 1.2s-1.2-.5-1.2-1.2.5-1.2 1.2-1.2 1.2.5 1.2 1.2zM536.5 346.5c0 1.5-1.2 2.6-2.6 2.6-1.5 0-2.6-1.2-2.6-2.6 0-1.5 1.2-2.6 2.6-2.6 1.4 0 2.6 1.2 2.6 2.6zM548.6 279.2c0 1.2-1 2.2-2.2 2.2-1.2 0-2.2-1-2.2-2.2 0-1.2 1-2.2 2.2-2.2 1.2 0 2.2 1 2.2 2.2zM524.2 326.8c0 1.2-1 2.2-2.2 2.2-1.2 0-2.2-1-2.2-2.2 0-1.2 1-2.2 2.2-2.2 1.3 0 2.2 1 2.2 2.2zM507 292.5c0 1.4-1.2 2.6-2.6 2.6-1.4 0-2.6-1.2-2.6-2.6 0-1.4 1.2-2.6 2.6-2.6 1.5 0 2.6 1.2 2.6 2.6zM516.8 327.9c0 1.5-1.2 2.7-2.7 2.7-1.5 0-2.7-1.2-2.7-2.7 0-1.5 1.2-2.7 2.7-2.7 1.5-.1 2.7 1.2 2.7 2.7zM487.9 242.6c0 1.3-1.1 2.4-2.4 2.4-1.3 0-2.4-1.1-2.4-2.4 0-1.3 1.1-2.4 2.4-2.4 1.3 0 2.4 1.1 2.4 2.4zM555.2 243.5c0 1.1-.9 2-2 2s-2-.9-2-2 .9-2 2-2 2 .9 2 2zM54.9 229.2c0 1.2-1 2.2-2.2 2.2-1.2 0-2.2-1-2.2-2.2 0-1.2 1-2.2 2.2-2.2 1.2 0 2.2 1 2.2 2.2zM7.3 317.2c0 1.1-.9 2-2 2s-2-.9-2-2 .9-2 2-2 2 .9 2 2zM46.7 234.7c0 1.2-1 2.2-2.2 2.2-1.2 0-2.2-1-2.2-2.2 0-1.2 1-2.2 2.2-2.2 1.2-.1 2.2.9 2.2 2.2zM29.8 163.7c0 1.5-1.2 2.7-2.7 2.7-1.5 0-2.7-1.2-2.7-2.7s1.2-2.7 2.7-2.7c1.5 0 2.7 1.2 2.7 2.7zM8.5 72.1c0 1-.8 1.8-1.8 1.8s-1.8-.8-1.8-1.8.8-1.8 1.8-1.8 1.8.8 1.8 1.8zM580.2 104.7c0 1.3-1.1 2.4-2.4 2.4s-2.4-1.1-2.4-2.4 1.1-2.4 2.4-2.4 2.4 1.1 2.4 2.4zM565.5 115.9c0 1.5-1.2 2.8-2.8 2.8-1.5 0-2.8-1.2-2.8-2.8 0-1.5 1.2-2.8 2.8-2.8 1.5 0 2.8 1.2 2.8 2.8zM527.6 138.4c0 1.2-1 2.1-2.1 2.1-1.2 0-2.1-1-2.1-2.1 0-1.2 1-2.1 2.1-2.1s2.1.9 2.1 2.1zM490.6 120.6c0 .8-.7 1.5-1.5 1.5s-1.5-.7-1.5-1.5.7-1.5 1.5-1.5c.9 0 1.5.7 1.5 1.5zM438.8 234.2c0 .6-.5 1.1-1.1 1.1-.6 0-1.1-.5-1.1-1.1 0-.6.5-1.1 1.1-1.1.6 0 1.1.5 1.1 1.1zM512.2 200.7c0 1.4-1.1 2.5-2.5 2.5s-2.5-1.1-2.5-2.5 1.1-2.5 2.5-2.5 2.5 1.1 2.5 2.5zM482.2 119c0 .8-.7 1.5-1.5 1.5s-1.5-.7-1.5-1.5.7-1.5 1.5-1.5 1.5.7 1.5 1.5zM430.2 143.1c0 .6-.4 1-1 1s-1-.4-1-1 .4-1 1-1 1 .4 1 1zM350.2 132.1c0 1.4-1.1 2.6-2.6 2.6-1.4 0-2.6-1.1-2.6-2.6 0-1.4 1.1-2.6 2.6-2.6s2.6 1.2 2.6 2.6zM329.2 169.4c0 1.2-.9 2.1-2.1 2.1-1.2 0-2.1-.9-2.1-2.1 0-1.2.9-2.1 2.1-2.1 1.1 0 2.1 1 2.1 2.1zM280.2 206.9c0 1-.8 1.9-1.9 1.9-1 0-1.9-.8-1.9-1.9 0-1 .8-1.9 1.9-1.9 1.1 0 1.9.9 1.9 1.9zM280.5 233.3c0 1.2-1 2.2-2.2 2.2-1.2 0-2.2-1-2.2-2.2 0-1.2 1-2.2 2.2-2.2 1.2 0 2.2 1 2.2 2.2zM310.2 238.4c0 .9-.7 1.6-1.6 1.6-.9 0-1.6-.7-1.6-1.6 0-.9.7-1.6 1.6-1.6.8 0 1.6.7 1.6 1.6zM361.4 240.2c0 1-.8 1.8-1.8 1.8s-1.8-.8-1.8-1.8.8-1.8 1.8-1.8c1 .1 1.8.8 1.8 1.8zM391.4 217.3c0 1.1-.9 2-2 2s-2-.9-2-2 .9-2 2-2 2 .9 2 2zM432.8 197.4c0 1-.8 1.7-1.7 1.7-1 0-1.7-.8-1.7-1.7 0-1 .8-1.7 1.7-1.7 1 0 1.7.8 1.7 1.7zM452.6 100.9c0 .5-.4.9-.9.9s-.9-.4-.9-.9.4-.9.9-.9.9.4.9.9zM406.6 106.6c0 1.2-1 2.2-2.2 2.2-1.2 0-2.2-1-2.2-2.2 0-1.2 1-2.2 2.2-2.2 1.2-.1 2.2.9 2.2 2.2zM363.3 85.3c0 1.6-1.3 2.8-2.8 2.8-1.6 0-2.8-1.3-2.8-2.8 0-1.6 1.3-2.8 2.8-2.8 1.6-.1 2.8 1.2 2.8 2.8zM342.6 113.7c0 .9-.8 1.7-1.7 1.7-.9 0-1.7-.8-1.7-1.7 0-.9.8-1.7 1.7-1.7.9 0 1.7.8 1.7 1.7zM321.9 115.6c0 .5-.4.9-.9.9s-.9-.4-.9-.9.4-.9.9-.9.9.4.9.9zM296 138.2c0 1-.8 1.7-1.7 1.7-1 0-1.7-.8-1.7-1.7 0-1 .8-1.7 1.7-1.7 1 0 1.7.8 1.7 1.7zM245.5 120.1c0 1.5-1.2 2.7-2.7 2.7-1.5 0-2.7-1.2-2.7-2.7 0-1.5 1.2-2.7 2.7-2.7 1.5.1 2.7 1.2 2.7 2.7zM228.8 182.5c0 1.1-.9 2-2 2s-2-.9-2-2 .9-2 2-2 2 .9 2 2zM195.3 160c0 1.1-.9 2-2 2s-2-.9-2-2 .9-2 2-2 2 .9 2 2zM177.5 130.5c0 1.5-1.2 2.8-2.8 2.8-1.5 0-2.8-1.2-2.8-2.8 0-1.5 1.2-2.8 2.8-2.8 1.6 0 2.8 1.3 2.8 2.8zM162.1 204.9c0 1.4-1.1 2.5-2.5 2.5s-2.5-1.1-2.5-2.5 1.1-2.5 2.5-2.5 2.5 1.1 2.5 2.5zM113.5 170.3c0 1.2-.9 2.1-2.1 2.1-1.2 0-2.1-.9-2.1-2.1 0-1.2.9-2.1 2.1-2.1 1.2 0 2.1.9 2.1 2.1zM81.5 174c0 1.4-1.1 2.5-2.6 2.5-1.4 0-2.6-1.1-2.6-2.5s1.1-2.6 2.6-2.6 2.6 1.2 2.6 2.6zM63.1 193.3c0 .8-.6 1.4-1.4 1.4-.8 0-1.4-.6-1.4-1.4 0-.8.6-1.4 1.4-1.4.7 0 1.4.6 1.4 1.4zM16.2 168.7c0 1.5-1.2 2.7-2.7 2.7-1.5 0-2.7-1.2-2.7-2.7 0-1.5 1.2-2.7 2.7-2.7 1.5 0 2.7 1.2 2.7 2.7zM97.5 267.4c0 1.5-1.2 2.7-2.7 2.7-1.5 0-2.7-1.2-2.7-2.7 0-1.5 1.2-2.7 2.7-2.7 1.5.1 2.7 1.3 2.7 2.7zM98.5 175.5c0 .6-.5 1.2-1.2 1.2-.6 0-1.2-.5-1.2-1.2 0-.6.5-1.2 1.2-1.2s1.2.6 1.2 1.2zM159.4 232c0 1.1-.9 2-2 2s-2-.9-2-2 .9-2 2-2c1.1.1 2 .9 2 2zM193.7 136.3c0 1.4-1.1 2.5-2.5 2.5s-2.5-1.1-2.5-2.5 1.1-2.5 2.5-2.5 2.5 1.1 2.5 2.5zM220.5 162.8c0 1.5-1.3 2.8-2.8 2.8-1.5 0-2.8-1.2-2.8-2.8 0-1.5 1.2-2.8 2.8-2.8 1.5 0 2.8 1.2 2.8 2.8zM270.7 212c0 1.1-.9 2-2 2s-2-.9-2-2 .9-2 2-2c1.2 0 2 .9 2 2zM246.3 89c0 1.4-1.1 2.5-2.5 2.5s-2.5-1.1-2.5-2.5 1.1-2.5 2.5-2.5c1.4.1 2.5 1.2 2.5 2.5zM219.8 139.8c0 1.5-1.2 2.7-2.7 2.7-1.5 0-2.7-1.2-2.7-2.7 0-1.5 1.2-2.7 2.7-2.7 1.5 0 2.7 1.2 2.7 2.7zM158.7 138c0 1.3-1 2.3-2.3 2.3-1.3 0-2.3-1-2.3-2.3 0-1.3 1-2.3 2.3-2.3 1.3 0 2.3 1 2.3 2.3zM123 115.7c0 1.6-1.3 2.9-2.9 2.9-1.6 0-2.9-1.3-2.9-2.9 0-1.6 1.3-2.9 2.9-2.9 1.6 0 2.9 1.3 2.9 2.9zM112.2 194.4c0 .8-.6 1.4-1.4 1.4-.8 0-1.4-.6-1.4-1.4 0-.8.6-1.4 1.4-1.4.8 0 1.4.7 1.4 1.4z"/>
  <g>
    <path class="st0" d="M251.3 415.4c.1-.5.2-.7.5-.7.2 0 .4.1.7.9L260 431l7.5-15.6c.2-.4.4-.7.6-.7.2 0 .4.3.5.9l2.5 16.9c.2 1.7.5 2.5 1.4 2.8.8.2 1.4.3 1.7.3.2 0 .4 0 .4.2s-.3.3-.7.3c-.7 0-4.5-.1-5.6-.1-.6-.1-.8-.1-.8-.3 0-.1.1-.2.3-.3.2-.1.2-.4.1-1.2l-1.7-12h-.1l-6 12.3c-.6 1.3-.8 1.5-1 1.5-.2 0-.5-.6-1-1.4-.7-1.3-2.8-5.5-3.2-6.3-.2-.6-1.9-3.8-2.9-5.9h-.1l-1.4 10.8c-.1.5-.1.9-.1 1.3 0 .5.4.8.8.9.5.1.9.1 1.2.1.2 0 .4.1.4.2 0 .3-.2.3-.7.3-1.2 0-2.4-.1-2.9-.1s-1.9.1-2.7.1c-.3 0-.5-.1-.5-.3 0-.1.2-.2.4-.2s.4 0 .8-.1c.8-.2 1-1.2 1.1-2.2l3-17.8zM284.7 423.1c0-4.2 0-5-.1-5.9-.1-.9-.3-1.4-1.2-1.6-.2-.1-.7-.1-1.1-.1-.3 0-.5-.1-.5-.2 0-.2.2-.2.6-.2h2.2c.7 0 1.4.1 1.7.1h6.9c.5-.1 1-.1 1.2-.2.1 0 .3-.1.4-.1s.2.1.2.3c0 .2-.1.5-.2 1.8 0 .3-.1 1.5-.1 1.8 0 .1-.1.3-.3.3-.2 0-.2-.1-.2-.4 0-.2 0-.7-.2-1-.2-.5-.5-.8-1.9-1-.5-.1-3.4-.1-3.9-.1-.1 0-.2.1-.2.3v7c0 .2 0 .3.2.3.6 0 3.8 0 4.4-.1.7-.1 1.1-.1 1.3-.4.2-.2.3-.4.4-.4.1 0 .2.1.2.2 0 .2-.1.6-.2 2 0 .6-.1 1.7-.1 1.9 0 .2 0 .5-.2.5s-.2-.1-.2-.3c0-.3 0-.6-.1-1-.1-.6-.5-1-1.5-1.1-.5-.1-3.3-.1-3.9-.1-.1 0-.2.1-.2.3v6.5c.1 1.9.5 2.3 3.3 2.3.7 0 1.9 0 2.6-.3.7-.3 1.1-.9 1.2-2 .1-.3.1-.4.3-.4.2 0 .2.2.2.5 0 .6-.2 2.5-.4 3.1-.2.7-.4.7-1.5.7-2.1 0-3.6-.1-4.8-.1-1.2-.1-2-.1-2.9-.1h-1.6c-.6 0-1.4.1-1.9.1-.4 0-.6-.1-.6-.3 0-.1.1-.2.4-.2.4 0 .7-.1 1-.1.6-.1.7-.7.8-1.5.1-1.2.1-3.3.1-5.9v-4.9zM307.7 423.1c0-4.2 0-5-.1-5.9-.1-.9-.3-1.4-1.2-1.6-.2-.1-.7-.1-1.1-.1-.3 0-.5-.1-.5-.2 0-.2.2-.2.6-.2 1.5 0 3.2.1 3.8.1.9 0 3-.1 3.9-.1 1.7 0 3.6.2 5.1 1.2.8.5 1.9 1.9 1.9 3.8 0 2-.9 3.9-3.6 6.2 2.5 3.1 4.4 5.6 6 7.3 1.5 1.6 2.7 1.8 3.1 1.9.3.1.6.1.8.1.2 0 .3.1.3.2 0 .2-.2.3-.5.3h-2.6c-1.5 0-2.2-.1-3-.5-1.2-.6-2.2-1.9-3.8-4.1-1.1-1.5-2.4-3.4-2.7-3.8-.1-.2-.3-.2-.5-.2l-2.4-.1c-.1 0-.2.1-.2.2v.4c0 2.6 0 4.8.1 5.9.1.8.2 1.4 1.1 1.5.4.1 1 .1 1.4.1.2 0 .3.1.3.2 0 .2-.2.3-.6.3-1.6 0-3.7-.1-4.1-.1-.5 0-2.3.1-3.4.1-.4 0-.6-.1-.6-.3 0-.1.1-.2.4-.2.4 0 .7-.1 1-.1.6-.1.7-.7.8-1.5.1-1.2.1-3.3.1-5.9v-4.9zm3.2 2.2c0 .3.1.4.2.5.6.2 1.4.3 2.1.3 1.1 0 1.5-.1 2-.5.8-.6 1.6-1.9 1.6-4.1 0-3.9-2.6-5.1-4.2-5.1-.7 0-1.2 0-1.5.1-.2.1-.2.2-.2.4v8.4zM334.1 423.1c0-4.2 0-5-.1-5.9-.1-.9-.3-1.4-1.2-1.6-.2-.1-.7-.1-1.1-.1-.3 0-.5-.1-.5-.2 0-.2.2-.2.6-.2 1.5 0 3.2.1 3.8.1.9 0 3-.1 3.9-.1 1.7 0 3.6.2 5.1 1.2.8.5 1.9 1.9 1.9 3.8 0 2-.9 3.9-3.6 6.2 2.5 3.1 4.4 5.6 6 7.3 1.5 1.6 2.7 1.8 3.1 1.9.3.1.6.1.8.1.2 0 .3.1.3.2 0 .2-.2.3-.5.3H350c-1.5 0-2.2-.1-3-.5-1.2-.6-2.2-1.9-3.8-4.1-1.1-1.5-2.4-3.4-2.7-3.8-.1-.2-.3-.2-.5-.2l-2.4-.1c-.1 0-.2.1-.2.2v.4c0 2.6 0 4.8.1 5.9.1.8.2 1.4 1.1 1.5.4.1 1 .1 1.4.1.2 0 .3.1.3.2 0 .2-.2.3-.6.3-1.6 0-3.7-.1-4.1-.1-.5 0-2.3.1-3.4.1-.4 0-.6-.1-.6-.3 0-.1.1-.2.4-.2.4 0 .7-.1 1-.1.6-.1.7-.7.8-1.5.1-1.2.1-3.3.1-5.9v-4.9zm3.2 2.2c0 .3.1.4.2.5.6.2 1.4.3 2.1.3 1.1 0 1.5-.1 2-.5.8-.6 1.6-1.9 1.6-4.1 0-3.9-2.6-5.1-4.2-5.1-.7 0-1.2 0-1.5.1-.2.1-.2.2-.2.4v8.4zM363 428.8c0-1.5-.3-2.1-.6-2.9-.2-.4-3.9-6.5-4.9-8-.7-1-1.4-1.7-1.9-2-.4-.2-.8-.4-1.2-.4-.2 0-.4-.1-.4-.2 0-.2.2-.2.5-.2.5 0 2.6.1 3.5.1.6 0 1.7-.1 3-.1.3 0 .4.1.4.2 0 .2-.2.2-.6.3-.2.1-.4.3-.4.5s.1.6.3.9c.4.8 4.3 7.5 4.7 8.3.3-.7 3.8-6.7 4.1-7.6.3-.6.4-1.1.4-1.4 0-.3-.1-.6-.6-.7-.2-.1-.5-.1-.5-.3 0-.2.1-.2.5-.2.9 0 1.8.1 2.6.1.6 0 2.4-.1 3-.1.3 0 .5.1.5.2 0 .2-.2.3-.5.3s-.8.1-1.2.3c-.6.3-.9.6-1.5 1.4-.9 1.1-4.8 7.6-5.3 8.8-.4 1-.4 1.9-.4 2.8v2.3c0 .4 0 1.6.1 2.8.1.8.3 1.4 1.1 1.5.4.1 1 .1 1.4.1.3 0 .4.1.4.2 0 .2-.2.3-.6.3-1.7 0-3.5-.1-4.2-.1-.7 0-2.4.1-3.5.1-.4 0-.6-.1-.6-.3 0-.1.1-.2.4-.2.4 0 .7-.1 1-.1.6-.1.8-.7.9-1.5.1-1.2.1-2.3.1-2.8v-2.4z"/>
    <g>
      <path class="st0" d="M169.9 457.5c1.7-.2 3.4-1 5-2.4s3.1-2.9 4.3-4.7c1.2-1.8 2.1-3.6 2.7-5.5.6-1.9.6-3.5.1-4.7-.6-1.5-1.8-2-3.4-1.5-1.7.5-3.6 1.7-5.7 3.5-2.2 1.8-4.4 4.2-6.8 7-2.4 2.8-4.7 5.8-6.9 8.9-2.2 3.1-4.1 6.2-5.8 9.2-1.7 3-2.9 5.6-3.6 7.9-.7 2.2-.8 3.9-.3 4.9.5 1.1 1.9 1.2 4.2.4 1.7-.6 3.8-1.7 6.3-3.4 2.4-1.6 4.9-3.4 7.4-5.3s4.9-3.8 7.3-5.7c2.4-1.9 4.4-3.5 6.2-4.6.6-.4 1.2-.5 1.8-.3.6.2 1.1.5 1.4.9-1 .7-2.3 1.7-3.9 3s-3.4 2.7-5.3 4.3c-1.9 1.6-4 3.2-6.1 4.8-2.1 1.6-4.2 3.1-6.3 4.5-2.1 1.4-4 2.5-5.8 3.5-1.8 1-3.4 1.5-4.7 1.6-1.8.2-3.3.1-4.6-.2-1.3-.3-2.3-.7-3.1-1.4-.8-.6-1.4-1.4-1.7-2.2-.4-.8-.6-1.8-.6-2.8-.1-2.3.5-4.7 1.7-7.5 1.2-2.7 2.7-5.5 4.5-8.2 1.8-2.7 3.8-5.3 6-7.8 2.1-2.5 4.1-4.6 6-6.4.6-.5 1.5-1.3 2.7-2.3 1.3-1 2.7-2.1 4.4-3.2 1.6-1.1 3.3-2.1 5.2-3.1 1.8-1 3.5-1.6 5.2-2 1.7-.4 3.2-.4 4.5 0 1.4.4 2.4 1.4 3 3 .4 1.1.5 2.3.3 3.7-.2 1.4-.6 2.9-1.3 4.4-.7 1.5-1.5 3-2.6 4.4-1.1 1.4-2.3 2.7-3.6 3.9-1.4 1.2-2.8 2.1-4.4 2.7-1.6.7-3.1 1-4.7.9.1-.4.1-.7 0-1-.1-.3-.1-.5 0-.6.1-.2.2-.3.3-.4-.1-.1.2-.2.7-.2z"/>
      <path class="st0" d="M216.5 428c1.3.3 2.1 1.1 2.5 2.2.4 1.1-.1 2.7-1.3 4.9-.5.6-.9 1.2-1.3 1.9-.4.6-.8 1.2-1.3 1.6-2 2.2-4.4 4.5-7.1 6.9-2.8 2.4-5.5 4.6-8.2 6.8-2.7 2.1-5.2 3.9-7.3 5.4-2.2 1.5-3.7 2.4-4.5 2.7-1.6 2.6-2.9 4.7-3.9 6.3-1 1.6-1.7 3-2.3 4.1-.6 1.1-1.1 1.9-1.4 2.6-.3.7-.7 1.3-1.1 1.9 1-1.2 2.2-2.5 3.8-4 1.6-1.5 3.3-3 5.1-4.5 1.8-1.5 3.7-2.9 5.6-4.3 1.9-1.4 3.7-2.5 5.4-3.4 1.7-.9 3.1-1.5 4.4-1.8 1.2-.3 2.1-.1 2.7.5 1.4 1.2 1.9 2.5 1.6 3.9-.3 1.4-1 2.9-2 4.4-1 1.6-2.3 3.2-3.6 4.8-1.4 1.7-2.5 3.3-3.3 5-.6 1.7-.5 2.8.2 3.2.7.4 1.7.5 3.1.1 1.4-.4 3-1 4.8-1.9 1.8-.9 3.6-1.9 5.3-3 1.7-1 3.2-2 4.6-3 1.3-.9 2.2-1.6 2.7-1.9 2.1-1.7 4-3.2 5.6-4.5 1.6-1.3 3-2.5 4.2-3.5.4-.3.8-.4 1.1-.3.4.1.9.5 1.6 1.1-1 .8-2 1.8-3.2 2.8-1 .8-2.2 1.8-3.6 2.9-1.4 1.1-2.9 2.3-4.4 3.5-1.5 1.2-3.4 2.5-5.5 4-2.2 1.5-4.4 2.8-6.7 3.9s-4.5 1.9-6.8 2.4c-2.2.5-4.1.3-5.7-.5-1.5-.8-2.3-1.9-2.6-3.2-.3-1.3-.1-2.6.4-4.1.5-1.5 1.3-3 2.3-4.5 1-1.5 2-2.9 3.1-4.3 1-1.3 2-2.5 2.9-3.5.9-1 1.5-1.7 1.7-2.2.3-.4.1-.5-.5-.3-.6.3-1.9 1-3.8 2.2-2.5 1.6-5 3.3-7.3 5.2-2.3 1.9-4.5 3.8-6.5 5.6-2 1.8-3.7 3.4-5.2 4.9-1.5 1.5-2.6 2.6-3.4 3.3-.1.1-.3.2-.5.2h-1.1c-.5 0-1.3-.1-2.2-.1-.9-.1-2.2-.1-3.8-.1 1.5-2.9 3.4-6.3 5.6-10.1 2.2-3.9 4.6-7.9 7.2-12 2.6-4.1 5.4-8.1 8.3-12 2.9-3.9 5.8-7.3 8.8-10.2 3-2.9 5.9-5.2 8.9-6.8 2.5-1.4 5.3-1.8 7.9-1.2zm-25.8 28.1c.3-.2.9-.6 1.9-1.3 1-.7 2.2-1.6 3.5-2.7 1.4-1.1 2.9-2.3 4.5-3.6 1.7-1.4 3.3-2.7 4.9-4.1 1.6-1.4 3.2-2.8 4.7-4.3 1.5-1.4 2.8-2.8 3.8-4 1.2-1.4 2-2.5 2.4-3.5.4-1 .6-1.8.4-2.4-.2-.6-.6-.8-1.4-.8-.8 0-1.9.4-3.2 1.1-1.9 1-3.9 2.7-6 4.9-2.1 2.3-4.1 4.7-6.1 7.3-1 1.4-2 2.7-3 4.1-1 1.4-1.9 2.7-2.8 3.8-.8 1.2-1.6 2.2-2.2 3.2-.5 1-1 1.7-1.4 2.3z"/>
      <path class="st0" d="M227.2 462.9c.5-.4 1-.9 1.6-1.4.6-.6 1.3-1.1 2-1.6s1.3-1 1.9-1.4c.6-.4 1-.6 1.4-.7.8-.2 1.9-.3 3.2-.4 1.4-.1 2.6-.1 3.8 0 1.2.1 2 .5 2.7 1 .6.5.6 1.3 0 2.4-1.9 3.4-3.6 6.8-5.2 10.2-1.5 3.4-2.4 6.6-2.6 9.7-.1 1 .1 1.8.6 2.3.5.5 1.5.6 2.8.3 1.3-.3 3.1-1 5.3-2.2 2.2-1.2 5-3 8.4-5.4 1.8-1.4 3.6-2.7 5.4-4.1 1.8-1.4 3.5-2.7 5.1-4 1.6-1.3 3-2.4 4.3-3.5 1.3-1 2.3-1.9 3-2.5.5-.3.8-.4 1.2-.3s.9.5 1.6 1.1c-.1 0-.8.6-2.2 1.9-1.4 1.2-3.3 2.8-5.6 4.6-2.3 1.9-4.8 3.8-7.7 5.9-2.8 2.1-5.7 4-8.4 5.7-2.8 1.7-5.4 3.1-7.9 4-2.5 1-4.5 1.2-6.1.8-2.3-.6-3.9-1.6-4.9-3-.9-1.4-1.4-2.9-1.4-4.6 0-1.7.4-3.5 1.1-5.4.7-1.9 1.5-3.6 2.5-5.3 1-1.6 2-3.1 3-4.3 1-1.2 1.9-2 2.5-2.3l-3.8.1-6.8 5.2c-.4-.4-.7-.7-1-.9-.3-.2-.4-.4-.5-.6-.1-.2-.1-.3 0-.5.1-.3.3-.5.7-.8z"/>
      <path class="st0" d="M279.7 457.2c-1.7 2.6-3.2 4.8-4.3 6.8-1.1 1.9-2.1 4-3 6.2-.9 2.2-1.5 4.3-1.6 6.1-.2 1.1.2 1.7 1.2 1.8 1 .1 2.3-.2 4-.7 1.7-.6 3.5-1.4 5.5-2.4l6-3.3c1.9-1.1 3.7-2.2 5.2-3.3 1.5-1 2.7-1.8 3.3-2.4 1.1-1 2.2-1.8 3.1-2.6 1-.8 1.7-1.4 2.4-1.9.4-.3.8-.4 1.2-.3.3.1.9.5 1.6 1.1-.6.5-1.3 1.1-2 1.7-.6.5-1.4 1.1-2.2 1.9-.8.7-1.8 1.5-2.8 2.3-1 .7-2.3 1.7-4.1 2.9-1.7 1.2-3.7 2.4-5.8 3.7-2.1 1.2-4.4 2.4-6.7 3.5s-4.4 1.8-6.4 2.3c-2 .4-3.7.5-5.2.1s-2.4-1.4-2.9-3c-.4-1.6-.5-3.3-.4-5.2.1-1.9.5-3.7.9-5.5.5-1.8 1.1-3.5 1.9-5.1.8-1.6 1.6-2.9 2.5-3.9.4-.6 1.1-.9 1.8-1.1.8-.2 1.5-.2 2.4-.2l2.4.3c.8.1 1.5.2 2 .2zm-1.5-4.6c-1.1 0-1.7-.4-1.9-1.3-.2-.8 0-1.8.4-2.7.4-1 1.1-1.8 1.9-2.5.8-.7 1.7-.8 2.7-.5 1.1.5 1.7 1.1 1.8 1.8.1.8-.1 1.5-.6 2.3-.5.8-1.2 1.5-2 2-.8.6-1.6.9-2.3.9z"/>
      <path class="st0" d="M315.3 469.2c2-1 4-2 6-3.2 2-1.2 4.2-2.7 6.4-4.5.5-.3.9-.4 1.3-.3s.9.5 1.7 1.1c-3 2.7-5.8 4.8-8.4 6.3-2.6 1.5-5.1 2.8-7.6 3.7-.4 1.5-1 2.9-1.8 4.4-.8 1.5-1.9 2.9-3.2 4.4-1.2 1.2-2.5 2.1-3.8 2.8-1.4.7-2.7 1.2-4.1 1.4-1.3.2-2.5.1-3.5-.2-1-.3-1.7-.9-2.1-1.8-.6-1.3-.6-2.5 0-3.5.6-1.1 1.6-2 2.9-2.9 1.3-.9 2.8-1.7 4.4-2.4 1.6-.7 3.2-1.4 4.6-2.1 0-.8.1-1.7.3-2.7.2-1 .3-2 .3-3.1.1-1.1 0-2.2-.2-3.3-.2-1.1-.5-2.1-1.1-3.1-.1-.2-.5 0-1.1.5-.6.5-1.4 1-2.2 1.7-.8.6-1.5 1.3-2.2 1.8-.7.6-1.1.9-1.3.9-.5 0-.7-.2-.8-.7-.1-.4-.2-1-.3-1.6l6.4-5.2c1.5-1.2 2.8-2.1 3.8-2.5 1-.4 2.3-.6 3.7-.3.5.1.9.3 1.1.7.3.3.4.7.4 1.1 0 .4 0 .9-.1 1.3-.1.5-.3.8-.6 1.2.2 1 .5 1.9.7 3 .1 1 .2 2 .3 3.2.3 1.2.3 2.5.1 3.9zm-7.9 6.2c-1 .5-2 1.1-3.3 1.8-1.2.7-2.3 1.4-3.3 2.1-1 .7-1.7 1.4-2.1 1.9-.4.6-.3 1 .4 1.3.8.3 1.6.4 2.4.1.8-.3 1.7-.8 2.5-1.5s1.5-1.6 2.1-2.6c.6-1 1-2.1 1.3-3.1z"/>
      <path class="st0" d="M327.9 476.3c-.1 1 .2 1.5.8 1.6.7 0 1.6-.3 2.7-.8 1.1-.6 2.4-1.4 3.8-2.4s2.8-2.1 4.2-3.2c1.4-1.1 2.7-2.1 3.9-3.1 1.2-1 2.2-1.8 2.8-2.3 1.1-1 2.2-1.8 3.1-2.6.9-.8 1.7-1.4 2.3-1.9.5-.3.9-.4 1.2-.3.4.1.9.5 1.6 1.1-.6.5-1.3 1.1-1.9 1.7-.6.5-1.4 1.1-2.2 1.9-.8.7-1.8 1.5-2.8 2.3-.7.6-1.6 1.4-2.7 2.2-1 .9-2.2 1.8-3.4 2.8-1.2 1-2.5 2-3.8 3-1.3 1-2.6 1.8-3.9 2.5-1.3.7-2.5 1.3-3.7 1.7-1.2.4-2.3.5-3.2.3-1.7-.3-2.8-.9-3.2-1.9-.4-1-.7-2.3-.7-3.9.1-1.2.3-2.7.8-4.3.5-1.6 1.2-3.4 2-5.2.8-1.8 1.8-3.7 2.8-5.6 1-1.9 2.1-3.9 3.3-5.9h-3c-1.2 0-2.3.1-3.3.2.2-.4.4-.9.7-1.6.3-.7.6-1 1-1 .6-.1 1.4-.1 2.5-.2s2.3-.1 3.7-.1c.6-1 1.2-2.1 1.8-3.3.6-1.2 1.2-2.3 1.9-3.2.6-.8 1.2-1.4 2-1.7.8-.3 1.5-.5 2.3-.5.8 0 1.5 0 2.2.2.7.1 1.2.2 1.7.2l-1.8 2.7c-1 1.5-2.1 3.4-3.5 5.5h5.3c.2 0 .2.3 0 .8s-.6 1.2-1.3 2.1h-3.1c-.9 0-1.7 0-2.5-.1-1.2 2-2.4 4-3.6 6.1-1.2 2.1-2.3 4.2-3.3 6.2s-1.8 3.9-2.5 5.7c-.6 1.7-.9 3.2-1 4.3z"/>
      <path class="st0" d="M379.3 478.8c.1.4.5.5 1.2.2s1.5-.7 2.5-1.3c1-.6 2.1-1.3 3.3-2.1 1.2-.8 2.3-1.6 3.4-2.4 1.1-.8 2.1-1.6 3-2.3.9-.7 1.5-1.2 1.9-1.5 2.1-1.7 4-3.3 5.7-4.7 1.7-1.5 3.1-2.5 4-3.2.4-.3.9-.4 1.2-.3.4.1.9.5 1.6 1.1-1 .8-2 1.8-3.2 2.8-1 .8-2.2 1.8-3.5 2.9-1.4 1.1-2.8 2.3-4.4 3.5-1.5 1.1-3.1 2.3-4.8 3.6-1.7 1.3-3.5 2.5-5.2 3.5-1.7 1-3.3 1.9-4.7 2.5-1.4.6-2.5.8-3.3.6-.3 0-.6-.1-1-.3-.4-.2-.8-.4-1.1-.8-.4-.3-.7-.8-.9-1.3-.2-.5-.3-1.2-.2-1.9.2-1.2.6-2.4 1.4-3.8.7-1.3 1.5-2.6 2.5-3.8.9-1.2 1.8-2.4 2.6-3.4s1.5-1.8 1.9-2.4c.5-.7.7-1.2.5-1.3-.2-.1-.6-.1-1.3.2-.7.3-1.5.8-2.5 1.4-1 .7-2 1.5-2.9 2.4-.3.3-1.1 1-2.2 2-1.2 1-2.4 2.1-3.7 3.5-1.3 1.3-2.5 2.7-3.7 4.2-1.2 1.5-1.9 2.8-2.3 4.1-.6-.1-1.2-.3-1.8-.5-.6-.3-1-.6-1.4-1-.4-.4-.7-1-.8-1.6-.1-.6 0-1.4.3-2.2.5-1.4 1.2-2.7 2-4.2.8-1.4 1.7-2.8 2.6-4.1.9-1.3 1.7-2.5 2.5-3.5s1.4-1.8 1.8-2.3c.5-.7.7-1 .5-1.1-.1-.1-.5.1-1.1.5-.6.4-1.3.9-2.2 1.7-.9.8-1.8 1.6-2.8 2.5a77.8 77.8 0 0 0-4.9 5c-1.7 1.8-3.2 3.5-4.5 5-1.4 1.5-2.5 2.9-3.3 3.9-.9 1.1-1.4 1.7-1.5 1.8-.1.1-.3.2-.5.2h-7.5c1.2-2.3 2.2-4.2 3.1-5.8.9-1.6 1.7-3.1 2.5-4.6.8-1.4 1.6-2.9 2.4-4.4.8-1.5 1.7-3.2 2.7-5.1.3-.7.9-1.2 1.6-1.4.7-.3 1.4-.4 2.2-.5.8 0 1.6 0 2.4.1.8.1 1.4.1 1.9.1-1 1.7-1.8 3.2-2.5 4.5-.7 1.3-1.5 2.6-2.2 3.8-.7 1.2-1.4 2.4-2.1 3.7-.7 1.2-1.5 2.6-2.3 4.1 1-1.2 2.1-2.5 3.4-4 1.3-1.5 2.6-2.9 4.1-4.4 1.4-1.5 2.8-2.9 4.2-4.2 1.4-1.3 2.7-2.4 4-3.3 1.3-.8 2.4-1.4 3.4-1.6 1-.3 1.8-.1 2.3.5 1.2 1 1.8 2.1 1.7 3.2-.1 1.1-.5 2.3-1.3 3.5-.8 1.2-1.7 2.5-2.9 3.8-1.2 1.3-2.2 2.6-3.2 4 1.4-1.5 3.1-3.1 4.9-4.9 1.9-1.7 3.7-3.3 5.6-4.6 1.8-1.4 3.5-2.4 5-3 1.5-.7 2.5-.8 3.2-.3 1 .9 1.6 1.9 1.6 2.9.1 1-.1 2.1-.6 3.1-.5 1.1-1.2 2.2-2 3.3-.9 1.1-1.7 2.2-2.6 3.3-.8 1.1-1.6 2.2-2.3 3.2-.9 1.4-1.3 2.3-1.4 3.2z"/>
      <path class="st0" d="M413.8 469.9c-2.4 1.7-4.5 3-6.5 4.1-2 1-4.2 1.4-6.7 1.2-1.2-.2-1.8-1-2-2.3-.1-1.3.1-2.8.8-4.5.6-1.7 1.6-3.4 2.9-5 1.3-1.7 2.8-3 4.5-4 1.7-1 3.6-1.4 5.6-1.3 2 .1 4 1.1 6 3 .4-.7.8-1.3 1.3-1.8.4-.6.9-1 1.5-1.2.6-.2 1.3-.3 1.9-.3.7 0 1.3.1 1.9.3.6.2 1.2.4 1.6.6-.5.7-1.1 1.7-1.9 3-.8 1.3-1.7 2.7-2.7 4.2-.9 1.5-1.8 3-2.6 4.6-.8 1.5-1.4 2.9-1.6 4.2-.3 1.5-.2 2.3.3 2.7.5.3 1.3.3 2.2 0 .9-.3 1.8-.7 2.7-1.3.9-.6 1.5-1 1.9-1.3 2.7-2.1 5.3-4.3 7.9-6.5 2.6-2.3 5.2-4.5 7.9-6.5.4-.3.8-.4 1.2-.3.3.1.9.5 1.6 1.1-2.5 2.3-5.3 4.6-8.2 7-2.9 2.4-5.7 4.6-8.4 6.8-2.9 2.4-5.4 3.8-7.7 4.4-1.7.4-3 .4-4-.1s-1.6-1.2-2-2.2c-.4-1-.5-2.3-.3-3.7-.1-1.7.3-3.3.9-4.9zm-9 1.2c-.3.9-.1 1.3.6 1.1.8-.2 1.7-.6 2.9-1.4 1.2-.7 2.4-1.5 3.8-2.5 1.3-1 2.4-1.7 3.2-2.4.2-.5.5-1 .7-1.4s.5-.9.7-1.4c-.6-1.2-1.4-1.8-2.4-1.9-1-.1-2.2.3-3.3 1.1s-2.3 1.9-3.5 3.5c-1.1 1.6-2 3.4-2.7 5.3z"/>
      <path class="st0" d="M454.4 469.2c2-1 4-2 6-3.2 2-1.2 4.2-2.7 6.4-4.5.5-.3.9-.4 1.3-.3.3.1.9.5 1.7 1.1-3 2.7-5.8 4.8-8.4 6.3-2.6 1.5-5.1 2.8-7.6 3.7-.4 1.5-1 2.9-1.8 4.4-.8 1.5-1.9 2.9-3.2 4.4-1.2 1.2-2.5 2.1-3.8 2.8-1.4.7-2.7 1.2-4.1 1.4-1.3.2-2.5.1-3.5-.2-1-.3-1.7-.9-2.1-1.8-.6-1.3-.6-2.5 0-3.5.6-1.1 1.6-2 2.9-2.9 1.3-.9 2.8-1.7 4.4-2.4 1.6-.7 3.2-1.4 4.6-2.1 0-.8.1-1.7.3-2.7.2-1 .3-2 .3-3.1.1-1.1 0-2.2-.2-3.3-.2-1.1-.5-2.1-1.1-3.1-.1-.2-.5 0-1.1.5-.6.5-1.4 1-2.2 1.7-.8.6-1.5 1.3-2.2 1.8-.7.6-1.1.9-1.3.9-.5 0-.7-.2-.8-.7-.1-.4-.2-1-.3-1.6l6.4-5.2c1.5-1.2 2.8-2.1 3.8-2.5 1-.4 2.3-.6 3.7-.3.5.1.9.3 1.1.7.3.3.4.7.4 1.1 0 .4 0 .9-.1 1.3-.1.5-.3.8-.6 1.2.2 1 .5 1.9.7 3 .1 1 .2 2 .3 3.2.3 1.2.3 2.5.1 3.9zm-8 6.2c-1 .5-2 1.1-3.3 1.8-1.2.7-2.3 1.4-3.3 2.1-1 .7-1.7 1.4-2.1 1.9-.4.6-.3 1 .4 1.3.8.3 1.6.4 2.4.1.8-.3 1.7-.8 2.5-1.5s1.5-1.6 2.1-2.6c.6-1 1.1-2.1 1.3-3.1z"/>
    </g>
    <g>
      <path class="st0" d="m188.4 508.3-.7-.7c-.4.3-.8.5-1.1.6-.3.1-.6.2-.9.2s-.7.1-1.2.1c-.8 0-1.5-.1-2-.4-.6-.3-1-.6-1.4-1.1-.3-.5-.5-1-.5-1.6 0-1.3.7-2.3 2-2.9-.3-.3-.5-.7-.7-1.1-.2-.4-.3-.8-.3-1.3 0-.8.3-1.4.9-1.9.6-.5 1.4-.7 2.5-.7 1 0 1.8.2 2.4.7.6.5.9 1.1.9 1.9 0 .5-.2 1-.5 1.5s-.8.9-1.5 1.3l1.5 1.4c.4-.6.6-1.2.8-1.9h3c-.1.7-.4 1.4-.7 2-.3.7-.7 1.3-1.1 1.7l2.3 2.3h-3.7zm-4.9-3.2c0 .3.1.6.3.8.2.2.5.3.9.3.3 0 .5 0 .7-.1.2-.1.4-.2.5-.2l-1.8-1.8c-.4.1-.6.5-.6 1zm2.2-5.1c0-.2-.1-.4-.2-.5-.1-.1-.3-.2-.5-.2s-.4.1-.5.2c-.2.1-.2.3-.2.6 0 .4.2.7.6 1.1.3-.2.5-.3.6-.6s.2-.4.2-.6zM218.2 508.3h-2.9v-4.4H212v4.4h-3v-10.7h2.9v4h3.4v-4h2.9v10.7zM233.1 508.3l-.5-2h-3.5l-.5 2h-3.2l3.5-10.8h3.9l3.5 10.8h-3.2zm-1.1-4.4-.5-1.8c-.1-.4-.2-.9-.4-1.5s-.3-1.1-.3-1.3c0 .2-.1.7-.3 1.2-.1.6-.4 1.7-.9 3.4h2.4zM251.2 500.9c0 1.2-.4 2.1-1.1 2.8-.7.7-1.7 1-3 1h-.8v3.6h-2.9v-10.7h3.7c1.4 0 2.4.3 3 .9.7.5 1.1 1.4 1.1 2.4zm-4.9 1.4h.5c.4 0 .8-.1 1-.4.3-.2.4-.6.4-1 0-.7-.4-1.1-1.2-1.1h-.7v2.5zM266.7 500.9c0 1.2-.4 2.1-1.1 2.8-.7.7-1.7 1-3 1h-.8v3.6h-2.9v-10.7h3.7c1.4 0 2.4.3 3 .9.7.5 1.1 1.4 1.1 2.4zm-4.9 1.4h.5c.4 0 .8-.1 1-.4.3-.2.4-.6.4-1 0-.7-.4-1.1-1.2-1.1h-.7v2.5zM278.2 501.5l1.8-4h3.1l-3.5 6.5v4.2h-2.9v-4.1l-3.5-6.6h3.1l1.9 4zM310.4 508.3h-3.8l-3.9-7.5h-.1c.1 1.2.1 2.1.1 2.7v4.8h-2.6v-10.7h3.8l3.9 7.4c-.1-1.1-.1-1.9-.1-2.6v-4.8h2.6v10.7zM325.1 508.3h-6.4v-10.7h6.4v2.3h-3.5v1.7h3.2v2.3h-3.2v2h3.5v2.4zM344.5 508.3h-3.4l-1-4.7c0-.2-.1-.6-.2-1.2s-.2-1.1-.2-1.5c0 .3-.1.7-.2 1.2s-.2.9-.3 1.3c-.1.4-.4 2-1.1 4.8h-3.4l-2.7-10.7h2.8l1.2 5.4c.3 1.2.4 2.1.5 2.8.1-.5.2-1.2.3-2 .2-.9.3-1.6.5-2.1l.9-4h2.7l.9 4c.2.6.3 1.4.5 2.2.2.8.3 1.5.3 1.9.1-.5.2-1.5.5-2.8l1.2-5.4h2.8l-2.6 10.8zM368.2 501.5l1.8-4h3.1l-3.5 6.5v4.2h-2.9v-4.1l-3.5-6.6h3.1l1.9 4zM386.7 508.3h-6.4v-10.7h6.4v2.3h-3.5v1.7h3.2v2.3h-3.2v2h3.5v2.4zM401.2 508.3l-.5-2h-3.5l-.5 2h-3.2l3.5-10.8h3.9l3.5 10.8h-3.2zm-1.1-4.4-.5-1.8c-.1-.4-.2-.9-.4-1.5s-.3-1.1-.3-1.3c0 .2-.1.7-.3 1.2-.1.6-.4 1.7-.9 3.4h2.4zM414.4 504.4v3.9h-2.9v-10.7h3.5c2.9 0 4.4 1.1 4.4 3.2 0 1.2-.6 2.2-1.8 2.9l3.1 4.7h-3.3l-2.3-3.9h-.7zm0-2.2h.5c1 0 1.5-.4 1.5-1.3 0-.7-.5-1.1-1.5-1.1h-.6v2.4z"/>
    </g>
  </g>
  <g>
    <path class="st0" d="m60.4 334.1-1-.4.6-.4c.3-.2.3-.5.2-.8-.2-.3-.5-.3-.8-.2l-1.2.8-1.3-.5 1.6-1.1c.3-.2.3-.5.2-.8-.2-.3-.5-.3-.8-.2l-2.2 1.5-1.5-.6 2.7-1.9c.3-.2.3-.5.2-.8-.2-.3-.5-.3-.8-.2l-3.4 2.3-1.7-.7 3.9-2.5c.2-.1.2-.3.2-.5s-.1-.4-.2-.5l-3.9-2.5 1.6-.7L56 326c.1.1.2.1.3.1.2 0 .4-.1.5-.3.2-.3.1-.6-.2-.8l-2.8-1.9 1.6-.6 2.2 1.5c.1.1.2.1.3.1.2 0 .4-.1.5-.2.2-.3.1-.6-.2-.8l-1.6-1.1 1.3-.5 1.2.8c.1.1.2.1.3.1.2 0 .4-.1.5-.2.2-.3.1-.6-.2-.8l-.5-.4 1-.4c.3-.1.4-.5.3-.7-.1-.3-.5-.4-.7-.3l-1.2.5.2-1c.1-.3-.2-.6-.5-.7-.3 0-.6.2-.7.5l-.3 1.7-1.3.5.4-2.2c.1-.3-.2-.6-.5-.7-.3-.1-.6.2-.7.5l-.5 2.9-1.3.5.5-3c.1-.3-.2-.6-.5-.7-.3-.1-.6.2-.7.5l-.6 3.7-1.6.6.9-4.8c0-.2 0-.4-.2-.5-.1-.1-.3-.2-.5-.2l-4.8.9.6-1.6 3.7-.6c.3-.1.5-.3.5-.7-.1-.3-.4-.5-.7-.5l-3.1.5.5-1.3 2.9-.5c.3-.1.5-.3.5-.7-.1-.3-.4-.5-.7-.5l-2.2.4.5-1.3 1.7-.3c.3-.1.5-.3.5-.7-.1-.3-.3-.5-.7-.5l-1 .2.5-1.2c.1-.3 0-.6-.3-.8-.3-.1-.6 0-.7.3l-.4 1-.4-.5c-.2-.3-.5-.3-.8-.2-.3.2-.3.5-.2.8l.8 1.2-.5 1.3-1.1-1.6c-.2-.3-.5-.3-.8-.2-.3.2-.3.5-.2.8l1.5 2.2-.6 1.5-1.9-2.7c-.2-.3-.5-.3-.8-.2-.3.2-.3.5-.2.8l2.3 3.4-.7 1.6-2.5-3.9c-.2-.3-.7-.3-1 0l-2.5 3.9-.7-1.6L40 313c.2-.3.1-.6-.2-.8-.3-.2-.6-.1-.8.2l-1.9 2.7-.6-1.5 1.5-2.2c.2-.3.1-.6-.1-.8-.3-.2-.6-.1-.8.2l-1.1 1.6-.5-1.3.8-1.2c.2-.3.1-.6-.2-.8-.3-.2-.6-.1-.8.2l-.4.5-.4-1c-.1-.3-.5-.4-.7-.3-.3.1-.4.5-.3.8l.5 1.2-1-.2c-.3 0-.6.2-.7.5-.1.3.2.6.5.7l1.7.3.5 1.3-2.2-.4c-.3 0-.6.2-.7.5-.1.3.2.6.5.7l2.9.5.5 1.3-3.1-.5c-.3 0-.6.2-.7.5 0 .3.2.6.5.7l3.7.6.6 1.6-4.8-.9c-.2 0-.4 0-.5.2-.1.1-.2.3-.2.5l.9 4.8-1.6-.6-.6-3.7c-.1-.3-.3-.5-.7-.5-.3.1-.5.3-.5.7l.5 3-1.3-.5-.5-2.9c-.1-.3-.3-.5-.7-.5-.3.1-.5.3-.5.7L28 321l-1.3-.5-.3-1.7c-.1-.3-.3-.5-.7-.5-.3.1-.5.3-.5.7l.2 1-1.2-.5c-.3-.1-.6 0-.7.3-.1.3 0 .6.3.7l1 .4-.6.4c-.3.2-.3.5-.1.8.1.2.3.2.5.2.1 0 .2 0 .3-.1l1.2-.8 1.3.5-1.6 1.1c-.3.2-.3.5-.2.8.1.2.3.2.5.2.1 0 .2 0 .3-.1l2.2-1.5 1.6.6-2.8 1.9c-.3.2-.3.5-.2.8.1.2.3.3.5.3.1 0 .2 0 .3-.1l3.4-2.3 1.6.7-3.9 2.5c-.2.1-.3.3-.3.5s.1.4.3.5l3.9 2.5-1.7.7-3.4-2.3c-.3-.2-.6-.1-.8.2-.2.3-.1.6.2.8l2.7 1.9-1.5.6-2.2-1.5c-.3-.2-.6-.1-.8.2-.2.3-.1.6.2.8l1.6 1.1-1.3.5-1.2-.8c-.3-.2-.6-.1-.8.2-.2.3-.1.6.1.8l.6.4-1 .4c-.3.1-.4.5-.3.7.1.3.5.5.7.3l1.3-.5-.2 1c-.1.3.2.6.5.7h.1c.3 0 .5-.2.6-.5l.3-1.7 1.3-.5-.4 2.2c-.1.3.2.6.5.7h.1c.3 0 .5-.2.6-.5l.5-2.9 1.3-.5-.5 3.1c-.1.3.2.6.5.7h.1c.3 0 .5-.2.6-.5l.6-3.8 1.6-.6-.9 4.8c0 .2 0 .4.2.5.1.1.3.2.5.2l4.8-.9-.6 1.6-3.7.6c-.3.1-.5.3-.5.7.1.3.4.5.7.5l3.1-.5-.5 1.3-2.9.5c-.3.1-.5.3-.5.7.1.3.3.5.7.5l2.2-.4-.5 1.3-1.7.3c-.3.1-.5.3-.5.7.1.3.4.5.7.5l1-.2-.5 1.2c-.1.3 0 .6.3.7h.2c.2 0 .4-.1.5-.3l.4-1.1.4.5c.1.2.3.3.5.3.1 0 .2 0 .3-.1.3-.2.3-.5.2-.8l-.8-1.2.5-1.3 1.1 1.6c.1.2.3.2.5.2.1 0 .2 0 .3-.1.3-.2.3-.5.1-.8l-1.5-2.2.6-1.6 1.9 2.7c.1.2.3.2.5.2.1 0 .2 0 .3-.1.3-.2.3-.5.2-.8l-2.3-3.4.7-1.6 2.5 3.9c.1.2.3.2.5.2s.4-.1.5-.2l2.5-3.9.7 1.6-2.3 3.4c-.2.3-.1.6.2.8.1.1.2.1.3.1.2 0 .4-.1.5-.2l1.9-2.7.6 1.6-1.5 2.2c-.2.3-.1.6.2.8.1.1.2.1.3.1.2 0 .4-.1.5-.2l1.1-1.6.5 1.3-.8 1.2c-.2.3-.1.6.2.8.1.1.2.1.3.1.2 0 .4-.1.5-.3l.4-.5.4 1.1c.1.2.3.3.5.3h.2c.3-.1.4-.4.3-.7l-.5-1.2 1 .2c.3.1.6-.2.7-.5.1-.3-.2-.6-.5-.7l-1.7-.3-.5-1.3 2.2.4c.3.1.6-.2.7-.5.1-.3-.2-.6-.5-.7l-2.9-.5-.5-1.3 3.1.5c.3.1.6-.2.7-.5.1-.3-.2-.6-.5-.7l-3.7-.6-.6-1.6 4.8.9c.2 0 .4 0 .5-.2.1-.1.2-.3.2-.5l-.9-4.8 1.6.6.6 3.8c0 .3.3.5.6.5h.1c.3-.1.5-.3.5-.7l-.5-3.1 1.3.5.5 2.9c0 .3.3.5.6.5h.1c.3-.1.5-.3.5-.7l-.4-2.2 1.3.5.3 1.7c0 .3.3.5.6.5h.1c.3-.1.5-.3.5-.7l-.2-1 1.3.5c.3.1.6 0 .7-.3-.9-.4-1-.8-1.3-.9zm-10.7-9.2 3.9 2.5-3.9 2.5-3.1-1.2.4-1.1v-.4l-.4-1.1 3.1-1.2zm-3.8 2.4-.3.8-.4 1.1-.3.8-.8.3-1.1.4-.8.3-.8-.3-1.1-.4-.8-.3-.3-.8-.4-1.1-.3-.8.3-.8.4-1.1.3-.8.8-.3 1.1-.4.8-.3.8.3 1.1.4.8.3.3.8.4 1.1.3.8zm4.5-8.3-.8 4.7-3.4 1.3-.4-1.1c-.1-.2-.2-.3-.3-.3l-1.1-.4 1.4-3.4 4.6-.8zm-8.3-3.1 2.5 3.9-1.2 3.1-1.1-.4h-.4l-1.1.4-1.2-3.1 2.5-3.9zm-8.3 3.1 4.6.8 1.4 3.4-1.1.4c-.2 0-.3.2-.3.3L38 325l-3.4-1.3-.8-4.7zm-3.2 8.3 3.9-2.5 3.1 1.2-.4 1.1v.4l.4 1.1-3.1 1.2-3.9-2.5zm3.2 8.4.8-4.7 3.4-1.3.4 1.1c.1.1.2.3.3.3l1.1.4-1.3 3.4-4.7.8zm8.3 3.1-2.5-3.9 1.2-3.1 1 .4h.4l1-.4 1.3 3.1-2.4 3.9zm8.3-3.1-4.7-.8-1.3-3.4 1.1-.4c.2 0 .3-.2.3-.3l.4-1.1 3.4 1.3.8 4.7zM112.3 32.7l-.4-.2.2-.2c.1-.1.1-.2.1-.3-.1-.1-.2-.1-.3-.1l-.5.3-.5-.2.6-.4c.1-.1.1-.2.1-.3-.1-.1-.2-.1-.3-.1l-.9.6-.6-.3 1.1-.7c.1-.1.1-.2.1-.3-.1-.1-.2-.1-.3-.1l-1.3.9-.7-.3 1.6-1c.1 0 .1-.1.1-.2s0-.1-.1-.2l-1.6-1 .6-.3 1.4.9h.1c.1 0 .1 0 .2-.1s0-.2-.1-.3l-1.1-.7.6-.3.9.6h.1c.1 0 .1 0 .2-.1s0-.2-.1-.3l-.6-.4.5-.2.5.3h.1c.1 0 .1 0 .2-.1s0-.2-.1-.3l-.2-.1.4-.2c.1 0 .2-.2.1-.3 0-.1-.2-.2-.3-.1l-.5.2.1-.4c0-.1-.1-.2-.2-.3-.1 0-.2.1-.3.2l-.1.7-.5.2.2-.9c0-.1-.1-.2-.2-.3-.1 0-.2.1-.3.2l-.2 1.2-.5.2.2-1.2c0-.1-.1-.2-.2-.3-.1 0-.2.1-.3.2l-.3 1.5-.6.3.3-1.9c0-.1 0-.1-.1-.2s-.1-.1-.2-.1l-1.9.3.3-.6 1.5-.3c.1 0 .2-.1.2-.3 0-.1-.1-.2-.3-.2l-1.2.2.2-.5 1.2-.2c.1 0 .2-.1.2-.3 0-.1-.1-.2-.3-.2l-.9.2.2-.5.7-.1c.1 0 .2-.1.2-.3 0-.1-.1-.2-.3-.2l-.4.1.2-.5c0-.1 0-.3-.1-.3s-.2 0-.3.1l-.2.4-.1-.2c-.1-.1-.2-.1-.3-.1-.1.1-.1.2-.1.3l.3.5-.2.5-.4-.6c-.1-.1-.2-.1-.3-.1-.1.1-.1.2-.1.3l.6.9-.3.6-.7-1.1c-.1-.1-.2-.1-.3-.1-.1.1-.1.2-.1.3l.9 1.4-.3.7-1-1.6c-.1-.1-.3-.1-.4 0l-1 1.6-.3-.7.9-1.4c.1-.1 0-.2-.1-.3-.1-.1-.2 0-.3.1l-.7 1.1-.3-.6.6-.9c.1-.1 0-.2-.1-.3-.1-.1-.2 0-.3.1l-.4.6-.2-.5.3-.5c.1-.1 0-.2-.1-.3s-.2 0-.3.1l-.1.2-.2-.4c0-.1-.2-.2-.3-.1-.1 0-.2.2-.1.3l.2.5-.4-.1c-.1 0-.2.1-.3.2 0 .1.1.2.2.3l.7.1.2.5-.9-.2c-.1 0-.2.1-.3.2 0 .1.1.2.2.3l1.2.2.2.5-1.2-.2c-.1 0-.2.1-.3.2 0 .1.1.2.2.3l1.5.3.3.6-1.9-.3c-.1 0-.1 0-.2.1 0 .1-.1.1-.1.2l.3 1.9-.6-.3-.3-1.5c0-.1-.1-.2-.3-.2-.1 0-.2.1-.2.3l.2 1.2-.5-.2-.2-1.2c0-.1-.1-.2-.3-.2-.1 0-.2.1-.2.3l.2.9-.5-.2-.1-.7c0-.1-.1-.2-.3-.2-.1 0-.2.1-.2.3l.1.4-.5-.2c-.1 0-.2 0-.3.1 0 .1 0 .3.1.3l.4.2.3.4c-.1.1-.1.2-.1.3 0 .1.1.1.2.1h.1l.5-.3.5.2-.6.4c-.1.1-.1.2-.1.3 0 .1.1.1.2.1h.1l.9-.6.6.3-1.1.6c-.1.1-.1.2-.1.3 0 .1.1.1.2.1h.1l1.4-.9.7.3-1.6 1c-.1 0-.1.1-.1.2s0 .2.1.2l1.6 1-.7.3-1.3-.9c-.1-.1-.2 0-.3.1-.1.1 0 .2.1.3l1.1.7-.6.3-.9-.6c-.1-.1-.2 0-.3.1-.1.1 0 .2.1.3l.6.4-.5.2-.6-.4c-.1-.1-.2 0-.3.1-.1.1 0 .2.1.3l.2.2-.4.2c-.1 0-.2.2-.1.3 0 .1.2.2.3.1l.5-.2-.1.4c0 .1.1.2.2.3.1 0 .2-.1.2-.2l.1-.7.5-.2-.2.9c0 .1.1.2.2.3.1 0 .2-.1.2-.2l.2-1.2.5-.2-.2 1.2c0 .1.1.2.2.3.1 0 .2-.1.2-.2l.3-1.5.6-.3-.4 1.9c0 .1 0 .1.1.2s.1.1.2.1l1.9-.3-.2.6-1.5.3c-.1 0-.2.1-.2.3 0 .1.1.2.3.2l1.2-.2-.2.5-1.2.2c-.1 0-.2.1-.2.3 0 .1.1.2.3.2l.9-.2-.2.5-.7.1c-.1 0-.2.1-.2.3 0 .1.1.2.3.2l.4-.1-.2.5c0 .1 0 .2.1.3h.1c.1 0 .2-.1.2-.1l.2-.4.1.2c0 .1.1.1.2.1h.1c.1-.1.1-.2.1-.3l-.3-.5.2-.5.4.6c0 .1.1.1.2.1h.1c.1-.1.1-.2.1-.3l-.6-.9.3-.6.7 1.1c0 .1.1.1.2.1h.1c.1-.1.1-.2.1-.3l-.9-1.4.3-.6 1 1.6c0 .1.1.1.2.1s.1 0 .2-.1l1-1.6.3.6-.9 1.4c-.1.1 0 .2.1.3h.1c.1 0 .1 0 .2-.1l.7-1.1.3.6-.6.9c-.1.1 0 .2.1.3h.1c.1 0 .1 0 .2-.1l.4-.6.2.5-.3.5c-.1.1 0 .2.1.3h.1c.1 0 .1 0 .2-.1l.1-.2.2.4c0 .1.1.1.2.1h.1c.1 0 .2-.2.1-.3l-.2-.5.4.1c.1 0 .2-.1.3-.2 0-.1-.1-.2-.2-.3l-.7-.1-.2-.5.9.2c.1 0 .2-.1.3-.2 0-.1-.1-.2-.2-.3l-1.2-.2-.2-.5 1.2.2c.1 0 .2-.1.3-.2 0-.1-.1-.2-.2-.3l-1.5-.3-.2-.6 1.9.3c.1 0 .1 0 .2-.1 0-.1.1-.1.1-.2l-.4-1.9.6.3.3 1.5c0 .1.1.2.2.2s.2-.1.2-.3l-.2-1.2.5.2.2 1.2c0 .1.1.2.2.2s.2-.1.2-.3l-.2-.9.5.2.1.7c0 .1.1.2.2.2s.2-.1.2-.3l-.1-.4.5.2c.1 0 .2 0 .3-.1.2-.3.1-.4 0-.4zm-4.2-3.7 1.5 1-1.5 1-1.2-.5.1-.5v-.2l-.2-.4 1.3-.4zm-1.6 1-.1.3-.2.4-.1.3-.3.1-.4.2-.3.1-.3-.1-.4-.2-.3-.1-.1-.3-.2-.4-.1-.3.1-.3.2-.4.1-.3.3-.1.4-.2.3-.1.3.1.4.2.3.1.1.3.2.4.1.3zm1.8-3.4-.3 1.9-1.3.5-.2-.4c0-.1-.1-.1-.1-.1l-.4-.2.5-1.3 1.8-.4zm-3.3-1.2 1 1.5-.5 1.2-.4-.2h-.2l-.4.2-.5-1.2 1-1.5zm-3.3 1.2 1.9.3.5 1.3-.4.2c-.1 0-.1.1-.1.1l-.2.4-1.3-.5-.4-1.8zm-1.2 3.4 1.5-1 1.2.5-.2.4v.2l.2.4-1.2.5-1.5-1zm1.2 3.3.3-1.9 1.3-.5.2.4c0 .1.1.1.1.1l.4.2-.5 1.3-1.8.4zm3.3 1.2-1-1.5.5-1.2.4.2h.2l.4-.2.5 1.2-1 1.5zm3.3-1.2-1.9-.3-.5-1.3.4-.2c.1 0 .1-.1.1-.1l.2-.4 1.3.5.4 1.8zM242.6 150.4l-.4-.2.2-.2c.1-.1.1-.2.1-.3-.1-.1-.2-.1-.3-.1l-.5.3-.5-.2.7-.4c.1-.1.1-.2.1-.3-.1-.1-.2-.1-.3-.1l-.9.6-.6-.3 1.1-.8c.1-.1.1-.2.1-.3-.1-.1-.2-.1-.3-.1l-1.4.9-.7-.3 1.6-1.1c.1 0 .1-.1.1-.2s0-.2-.1-.2l-1.6-1 .7-.3 1.4 1h.1c.1 0 .1 0 .2-.1s0-.3-.1-.3l-1.1-.8.6-.3.9.6h.1c.1 0 .1 0 .2-.1s0-.3-.1-.3l-.7-.4.5-.2.5.3h.1c.1 0 .1 0 .2-.1s0-.3-.1-.3l-.2-.2.4-.2c.1 0 .2-.2.1-.3 0-.1-.2-.2-.3-.1l-.5.2.1-.4c0-.1-.1-.2-.2-.3-.1 0-.2.1-.3.2l-.1.7-.5.2.2-.9c0-.1-.1-.2-.2-.3-.1 0-.2.1-.3.2l-.2 1.2-.5.2.2-1.3c0-.1-.1-.2-.2-.3-.1 0-.2.1-.3.2l-.3 1.5-.6.3.4-2c0-.1 0-.2-.1-.2-.1-.1-.1-.1-.2-.1l-2 .4.3-.6 1.5-.3c.1 0 .2-.1.2-.3 0-.1-.1-.2-.3-.2l-1.3.2.2-.5 1.2-.2c.1 0 .2-.1.2-.3 0-.1-.1-.2-.3-.2l-.9.2.2-.5.7-.1c.1 0 .2-.1.2-.3 0-.1-.1-.2-.3-.2l-.4.1.2-.5c0-.1 0-.3-.1-.3s-.3 0-.3.1l-.2.4-.2-.2c-.1-.1-.2-.1-.3-.1-.1.1-.1.2-.1.3l.3.5-.2.5-.4-.7c-.1-.1-.2-.1-.3-.1-.1.1-.1.2-.1.3l.6.9-.3.6-.8-1.1c-.1-.1-.2-.1-.3-.1-.1.1-.1.2-.1.3l1 1.4-.3.7-1-1.6c-.1-.1-.3-.1-.4 0l-1 1.6-.3-.7 1-1.4c.1-.1 0-.3-.1-.3-.1-.1-.3 0-.3.1l-.8 1.1-.3-.6.6-.9c.1-.1 0-.3-.1-.3-.1-.1-.3 0-.3.1l-.4.7-.2-.5.3-.5c.1-.1 0-.3-.1-.3-.1-.1-.3 0-.3.1l-.2.2-.2-.4c0-.1-.2-.2-.3-.1-.1 0-.2.2-.1.3l.2.5-.4-.1c-.1 0-.2.1-.3.2 0 .1.1.2.2.3l.7.1.2.5-.9-.2c-.1 0-.2.1-.3.2 0 .1.1.2.2.3l1.2.2.2.5-1.3-.2c-.1 0-.2.1-.3.2 0 .1.1.2.2.3l1.5.3.3.6-2-.4c-.1 0-.1 0-.2.1 0 .1-.1.1-.1.2l.4 2-.6-.3-.3-1.5c0-.1-.1-.2-.3-.2-.1 0-.2.1-.2.3l.2 1.3-.5-.2-.2-1.2c0-.1-.1-.2-.3-.2-.1 0-.2.1-.2.3l.2.9-.5-.2-.1-.7c0-.1-.1-.2-.3-.2-.1 0-.2.1-.2.3l.1.4-.5-.2c-.1 0-.3 0-.3.1s0 .3.1.3l.4.2-.2.2c-.1.1-.1.2-.1.3 0 .1.1.1.2.1h.1l.5-.3.5.2-.6.4c-.1.1-.1.2-.1.3 0 .1.1.1.2.1h.1l.9-.6.6.3-1.1.8c-.1.1-.1.2-.1.3 0 .1.1.1.2.1h.1l1.4-1 .7.3-1.6 1c-.1 0-.1.1-.1.2s0 .2.1.2l1.6 1.1-.7.3-1.4-.9c-.1-.1-.3 0-.3.1-.1.1 0 .3.1.3l1.1.8-.6.3-.9-.6c-.1-.1-.3 0-.3.1-.1.1 0 .3.1.3l.7.4-.5.2-.5-.3c-.1-.1-.3 0-.3.1-.1.1 0 .3.1.3l.2.2-.4.2c-.1 0-.2.2-.1.3 0 .1.2.2.3.1l.5-.2-.1.4c0 .1.1.2.2.3.1 0 .2-.1.2-.2l.1-.7.5-.2-.2.9c0 .1.1.2.2.3.1 0 .2-.1.2-.2l.2-1.2.5-.2-.2 1.3c0 .1.1.2.2.3.1 0 .2-.1.2-.2l.3-1.6.7-.3-.4 2c0 .1 0 .2.1.2.1.1.1.1.2.1l2-.4-.3.6-1.5.3c-.1 0-.2.1-.2.3 0 .1.1.2.3.2l1.3-.2-.2.5-1.2.2c-.1 0-.2.1-.2.3 0 .1.1.2.3.2l.9-.2-.2.5-.7.1c-.1 0-.2.1-.2.3 0 .1.1.2.3.2l.4-.1-.2.5c0 .1 0 .3.1.3h.1c.1 0 .2-.1.2-.1l.2-.4.2.2c0 .1.1.1.2.1h.1c.1-.1.1-.2.1-.3l-.3-.5.2-.5.4.6c0 .1.1.1.2.1h.1c.1-.1.1-.2.1-.3l-.6-.9.3-.6.8 1.1c0 .1.1.1.2.1h.1c.1-.1.1-.2.1-.3l-1-1.4.3-.7 1 1.6c0 .1.1.1.2.1s.2 0 .2-.1l1-1.6.3.7-1 1.4c-.1.1 0 .3.1.3h.1c.1 0 .1 0 .2-.1l.8-1.1.3.6-.6.9c-.1.1 0 .3.1.3h.1c.1 0 .1 0 .2-.1l.4-.6.2.5-.3.5c-.1.1 0 .3.1.3h.1c.1 0 .1 0 .2-.1l.2-.2.2.4c0 .1.1.1.2.1h.1c.1 0 .2-.2.1-.3l-.2-.5.4.1c.1 0 .2-.1.3-.2 0-.1-.1-.2-.2-.3l-.7-.1-.2-.5.9.2c.1 0 .2-.1.3-.2 0-.1-.1-.2-.2-.3l-1.2-.2-.2-.5 1.3.2c.1 0 .2-.1.3-.2 0-.1-.1-.2-.2-.3l-1.5-.3-.3-.6 2 .4c.1 0 .1 0 .2-.1 0-.1.1-.1.1-.2l-.4-2 .7.3.3 1.6c0 .1.1.2.2.2s.2-.1.2-.3l-.2-1.3.5.2.2 1.2c0 .1.1.2.2.2s.2-.1.2-.3l-.2-.9.5.2.1.7c0 .1.1.2.2.2s.2-.1.2-.3l-.1-.4.5.2c.1 0 .3 0 .3-.1.4-.1.3-.3.2-.3zm-4.4-3.8 1.6 1-1.6 1-1.3-.5.2-.4v-.2l-.2-.4 1.3-.5zm-1.6 1-.1.3-.2.4-.1.3-.3.1-.4.2-.3.1-.3-.1-.4-.2-.3-.1-.1-.3-.2-.4-.1-.3.1-.3.2-.4.1-.3.3-.1.4-.2.3-.1.3.1.4.2.3.1.1.3.2.4.1.3zm1.9-3.5-.3 1.9-1.4.6-.2-.4c0-.1-.1-.1-.1-.1l-.4-.2.6-1.4 1.8-.4zm-3.5-1.3 1 1.6-.5 1.3-.4-.2h-.2l-.4.2-.5-1.3 1-1.6zm-3.4 1.3 1.9.3.6 1.4-.4.2c-.1 0-.1.1-.1.1l-.2.4-1.4-.6-.4-1.8zm-1.3 3.5 1.6-1 1.3.5-.2.4v.2l.2.4-1.3.5-1.6-1zm1.3 3.4.3-1.9 1.4-.6.2.4c0 .1.1.1.1.1l.4.2-.6 1.4-1.8.4zm3.4 1.3-1-1.6.5-1.3.4.2h.2l.4-.2.5 1.3-1 1.6zm3.5-1.3-1.9-.3-.6-1.4.4-.2c.1 0 .1-.1.1-.1l.2-.4 1.4.6.4 1.8zM496.5 229.7l-1-.4.5-.4c.3-.2.3-.5.2-.8-.2-.3-.5-.3-.8-.1l-1.2.8-1.3-.5 1.6-1.1c.3-.2.3-.5.2-.8-.2-.3-.5-.3-.8-.2l-2.2 1.5-1.5-.6 2.7-1.8c.3-.2.3-.5.1-.8-.2-.3-.5-.3-.8-.1l-3.3 2.3-1.6-.6 3.9-2.5c.2-.1.2-.3.2-.5s-.1-.4-.2-.5l-3.9-2.5 1.6-.7 3.4 2.3c.1.1.2.1.3.1.2 0 .4-.1.5-.2.2-.3.1-.6-.1-.8l-2.7-1.8 1.5-.6 2.2 1.5c.1.1.2.1.3.1.2 0 .4-.1.5-.2.2-.3.1-.6-.2-.8l-1.6-1 1.3-.5 1.2.8c.1.1.2.1.3.1.2 0 .4-.1.5-.2.2-.3.1-.6-.2-.8l-.5-.4 1-.4c.3-.1.4-.4.3-.7-.1-.3-.4-.4-.7-.3l-1.2.5.2-1c.1-.3-.2-.6-.5-.6s-.6.2-.6.5l-.3 1.7-1.3.5.4-2.2c.1-.3-.2-.6-.5-.6-.3-.1-.6.2-.6.5l-.5 2.9-1.3.5.5-3c.1-.3-.2-.6-.5-.6s-.6.2-.6.5l-.6 3.7-1.5.6.9-4.7c0-.2 0-.4-.2-.5-.1-.1-.3-.2-.5-.2l-4.7.8.6-1.5 3.7-.6c.3-.1.5-.3.5-.6-.1-.3-.3-.5-.6-.5l-3 .5.5-1.3 2.9-.5c.3-.1.5-.3.5-.6-.1-.3-.3-.5-.6-.5l-2.2.4.5-1.3 1.7-.3c.3-.1.5-.3.5-.6-.1-.3-.3-.5-.6-.5l-1 .2.5-1.2c.1-.3 0-.6-.3-.7-.3-.1-.6 0-.7.3l-.4 1-.4-.5c-.2-.3-.5-.3-.8-.2-.3.2-.3.5-.1.8l.8 1.2-.5 1.3-1.1-1.6c-.2-.3-.5-.3-.8-.1-.3.2-.3.5-.1.8l1.5 2.2-.6 1.5-1.8-2.7c-.2-.3-.5-.3-.8-.2-.3.2-.3.5-.2.8l2.3 3.3-.6 1.6-2.5-3.9c-.2-.3-.7-.3-.9 0l-2.5 3.9-.6-1.6 2.3-3.3c.2-.3.1-.6-.1-.8-.3-.2-.6-.1-.8.2l-1.8 2.7-.6-1.5 1.5-2.2c.2-.3.1-.6-.2-.8-.3-.2-.6-.1-.8.1l-1.1 1.6-.5-1.3.8-1.2c.2-.3.1-.6-.2-.8-.3-.2-.6-.1-.8.2l-.4.5-.4-1c-.1-.3-.4-.4-.7-.3-.3.1-.4.4-.3.7l.5 1.2-1-.2c-.3 0-.6.2-.6.5-.1.3.2.6.5.6l1.7.3.5 1.3-2.2-.4c-.3 0-.6.2-.6.5-.1.3.2.6.5.6l2.9.5.5 1.3-3-.5c-.3 0-.6.2-.6.5-.1.3.2.6.5.6l3.7.6.6 1.5-4.7-.8c-.2 0-.4 0-.5.2-.1.1-.2.3-.2.5l.8 4.7-1.5-.6-.6-3.7c0-.3-.3-.5-.6-.5-.3.1-.5.3-.5.6l.5 3-1.3-.5-.5-2.9c-.1-.3-.3-.5-.6-.5s-.5.3-.5.6l.4 2.2-1.3-.5-.3-1.7c-.1-.3-.3-.5-.6-.5-.3.1-.5.3-.5.6l.2 1-1.2-.5c-.3-.1-.6 0-.7.3-.1.3 0 .6.3.7l1 .4-.5.4c-.3.2-.3.5-.2.8.1.2.3.2.5.2.1 0 .2 0 .3-.1l1.2-.8 1.3.5-1.6 1c-.3.2-.3.5-.2.8.1.2.3.2.5.2.1 0 .2 0 .3-.1l2.2-1.5 1.5.6-2.7 1.8c-.3.2-.3.5-.1.8.1.2.3.2.5.2.1 0 .2 0 .3-.1l3.4-2.3 1.6.7-3.9 2.5c-.2.1-.2.3-.2.5s.1.4.2.5l3.9 2.5-1.6.6-3.3-2.3c-.3-.2-.6-.1-.8.1-.2.3-.1.6.1.8l2.7 1.8-1.5.6-2.2-1.5c-.3-.2-.6-.1-.8.2-.2.3-.1.6.2.8l1.6 1.1-1.3.5-1.2-.8c-.3-.2-.6-.1-.8.1-.2.3-.1.6.2.8l.5.4-1 .4c-.3.1-.4.4-.3.7.1.3.4.4.7.3l1.2-.5-.2 1c-.1.3.2.6.5.6h.1c.3 0 .5-.2.5-.5l.3-1.7 1.3-.5-.4 2.2c-.1.3.2.6.5.6h.1c.3 0 .5-.2.6-.5l.5-2.9 1.3-.5-.5 3c-.1.3.2.6.5.6h.1c.3 0 .5-.2.5-.5l.6-3.7 1.6-.6-.9 4.7c0 .2 0 .4.2.5.1.1.3.2.5.2l4.7-.9-.6 1.5-3.7.6c-.3.1-.5.3-.5.6s.3.5.6.5l3-.5-.5 1.3-2.9.5c-.3.1-.5.3-.5.6.1.3.3.5.6.5l2.2-.4-.5 1.3-1.7.3c-.3.1-.5.3-.5.6.1.3.3.5.6.5l1-.2-.5 1.2c-.1.3 0 .6.3.7h.2c.2 0 .4-.1.5-.3l.4-1 .4.5c.1.2.3.2.5.2.1 0 .2 0 .3-.1.3-.2.3-.5.2-.8l-.8-1.2.5-1.3 1 1.5c.1.2.3.2.5.2.1 0 .2 0 .3-.1.3-.2.3-.5.2-.8l-1.5-2.2.6-1.5 1.8 2.7c.1.2.3.2.5.2.1 0 .2 0 .3-.1.3-.2.3-.5.1-.8l-2.3-3.3.6-1.6 2.5 3.9c.1.2.3.2.5.2s.4-.1.5-.2l2.5-3.9.6 1.6-2.3 3.3c-.2.3-.1.6.2.8.1.1.2.1.3.1.2 0 .4-.1.5-.2l1.8-2.7.6 1.5-1.5 2.2c-.2.3-.1.6.1.8.1.1.2.1.3.1.2 0 .4-.1.5-.2l1-1.5.5 1.3-.8 1.2c-.2.3-.1.6.1.8.1.1.2.1.3.1.2 0 .4-.1.5-.2l.4-.5.4 1c.1.2.3.3.5.3h.2c.3-.1.4-.4.3-.7l-.5-1.2 1 .2c.3.1.6-.2.6-.5.1-.3-.2-.6-.5-.6l-1.7-.3-.5-1.3 2.2.4c.3.1.6-.2.6-.5.1-.3-.2-.6-.5-.6l-2.9-.5-.5-1.3 3 .5c.3.1.6-.2.6-.5.1-.3-.2-.6-.5-.6l-3.7-.6-.6-1.5 4.7.9c.2 0 .4 0 .5-.2.1-.1.2-.3.2-.5l-.9-4.7 1.6.6.6 3.7c0 .3.3.5.5.5h.1c.3-.1.5-.3.5-.6l-.5-3 1.3.5.5 2.9c0 .3.3.5.5.5h.1c.3-.1.5-.3.5-.6l-.4-2.2 1.3.5.3 1.7c0 .3.3.5.6.5h.1c.3-.1.5-.3.5-.6l-.2-1 1.2.5c.3.1.6 0 .7-.3-.3-.3-.5-.6-.7-.7zm-10.5-9.1 3.8 2.4-3.8 2.5-3.1-1.2.4-1v-.4l-.4-1.1 3.1-1.2zm-3.8 2.4-.3.8-.4 1-.3.8-.8.3-1 .4-.8.3-.8-.3-1-.4-.8-.3-.3-.8-.4-1-.3-.8.3-.8.4-1 .3-.8.8-.3 1-.4.8-.3.8.3 1 .4.8.3.3.8.4 1 .3.8zm4.4-8.2-.8 4.6-3.3 1.3-.4-1.1c-.1-.2-.2-.3-.3-.3l-1.1-.4 1.3-3.3 4.6-.8zm-8.2-3.1 2.5 3.8-1.2 3.1-1.1-.4h-.4l-1.1.4-1.2-3.1 2.5-3.8zm-8.2 3.1 4.6.8 1.3 3.3-1.1.4c-.2 0-.3.2-.3.3l-.4 1.1-3.3-1.3-.8-4.6zm-3.1 8.2 3.8-2.4 3 1.2-.4 1.1v.4l.4 1-3.1 1.2-3.7-2.5zm3.1 8.2.8-4.6 3.3-1.3.4 1.1c.1.1.2.3.3.3l1.1.4-1.3 3.3-4.6.8zm8.2 3.1-2.5-3.8 1.2-3.1 1 .4h.4l1-.4 1.2 3.1-2.3 3.8zm8.2-3.1-4.6-.8-1.3-3.3 1.1-.4c.2 0 .3-.2.3-.3l.4-1.1 3.3 1.3.8 4.6zM149.2 327.5l-.5-.2.3-.2c.1-.1.2-.3.1-.4-.1-.1-.3-.2-.4-.1l-.6.4-.7-.3.8-.6c.1-.1.2-.3.1-.4-.1-.1-.3-.2-.4-.1l-1.2.8-.8-.3 1.4-1c.1-.1.2-.3.1-.4-.1-.1-.3-.2-.4-.1l-1.7 1.2-.9-.3 2-1.3c.1 0 .1-.1.1-.2s0-.2-.1-.2l-2-1.3.8-.4 1.8 1.2s.1.1.2.1.2 0 .2-.1c.1-.1.1-.3-.1-.4l-1.4-1 .8-.3 1.1.8c.1 0 .1.1.2.1s.2 0 .2-.1c.1-.1.1-.3-.1-.4l-.8-.6.7-.3.6.4h.2c.1 0 .2 0 .2-.1.1-.1.1-.3-.1-.4l-.3-.2.5-.2c.2-.1.2-.2.2-.4-.1-.2-.2-.2-.4-.2l-.6.3.1-.5c0-.2-.1-.3-.2-.3-.2 0-.3.1-.3.2l-.2.9-.7.3.2-1.1c0-.2-.1-.3-.2-.3-.2 0-.3.1-.3.2l-.3 1.5-.7.3.3-1.6c0-.2-.1-.3-.2-.3-.2 0-.3.1-.3.2l-.3 1.9-.8.3.4-2.5c0-.1 0-.2-.1-.3-.1-.1-.2-.1-.3-.1l-2.5.4.3-.8 1.9-.3c.2 0 .3-.2.2-.3 0-.2-.2-.3-.3-.2l-1.6.3.3-.7 1.5-.3c.2 0 .3-.2.2-.3 0-.2-.2-.3-.3-.2l-1.2.2.3-.7.9-.2c.2 0 .3-.2.2-.3 0-.2-.2-.3-.3-.2l-.5.1.3-.6c.1-.2 0-.3-.2-.4-.1-.1-.3 0-.4.2l-.2.5-.2-.3c-.1-.1-.3-.2-.4-.1-.1.1-.2.3-.1.4l.4.6-.3.7-.6-.8c-.1-.1-.3-.2-.4-.1-.1.1-.2.3-.1.4l.8 1.1-.3.8-1-1.4c-.1-.1-.3-.2-.4-.1-.1.1-.2.3-.1.4l1.2 1.8-.3.8-1.3-2c-.1-.2-.4-.2-.5 0l-1.3 2-.3-.8 1.2-1.8c.1-.1.1-.3-.1-.4-.1-.1-.3-.1-.4.1l-1 1.4-.3-.8.8-1.1c.1-.1.1-.3-.1-.4-.1-.1-.3-.1-.4.1l-.6.8-.3-.7.4-.6c.1-.1.1-.3-.1-.4-.1-.1-.3-.1-.4.1l-.2.3-.2-.5c-.1-.2-.2-.2-.4-.2-.2.1-.2.2-.2.4l.3.6-.5-.1c-.2 0-.3.1-.3.2 0 .2.1.3.2.3l.9.2.3.7-1.2-.2c-.2 0-.3.1-.3.2 0 .2.1.3.2.3l1.5.3.3.7-1.6-.3c-.2 0-.3.1-.3.2 0 .2.1.3.2.3l1.9.3.3.8-2.5-.4c-.1 0-.2 0-.3.1-.1.1-.1.2-.1.3l.4 2.5-.8-.3-.3-1.9c0-.2-.2-.3-.3-.2-.2 0-.3.2-.2.3l.3 1.6-.7-.3-.3-1.5c0-.2-.2-.3-.3-.2-.2 0-.3.2-.2.3l.2 1.1-.7-.3-.2-.9c0-.2-.2-.3-.3-.2-.2 0-.3.2-.2.3l.1.5-.6-.3c-.1-.1-.3 0-.4.2-.1.2 0 .3.2.4l.5.2-.3.2c-.1.1-.2.3-.1.4.1.1.1.1.2.1h.2l.6-.4.7.3-.8.6c-.1.1-.2.3-.1.4.1.1.2.1.2.1.1 0 .1 0 .2-.1l1.1-.8.8.3-1.4 1c-.1.1-.2.3-.1.4.1.1.1.1.2.1s.1 0 .2-.1l1.8-1.2.8.4-2 1.3c-.1.1-.1.2-.1.2 0 .1 0 .2.1.2l2 1.3-.9.3-1.7-1.2c-.1-.1-.3-.1-.4.1-.1.1-.1.3.1.4l1.4 1-.8.3-1.1-.8c-.1-.1-.3-.1-.4.1-.1.1-.1.3.1.4l.8.6-.7.3-.6-.4c-.1-.1-.3-.1-.4.1-.1.1-.1.3.1.4l.3.2-.5.2c-.2.1-.2.2-.2.4.1.2.2.2.4.2l.7-.3-.1.5c0 .2.1.3.2.3s.3-.1.3-.2l.2-.9.7-.3-.2 1.2c0 .2.1.3.2.3s.3-.1.3-.2l.3-1.5.7-.3-.3 1.6c0 .2.1.3.2.3s.3-.1.3-.2l.3-1.9.8-.3-.5 2.5c0 .1 0 .2.1.3.1.1.2.1.3.1l2.5-.4-.3.8-1.9.3c-.2 0-.3.2-.2.3 0 .2.2.3.3.2l1.6-.3-.3.7-1.5.3c-.2 0-.3.2-.2.3 0 .2.2.3.3.2l1.1-.2-.3.7-.9.2c-.2 0-.3.2-.2.3 0 .2.2.3.3.2l.5-.1-.3.6c-.1.2 0 .3.2.4h.1c.1 0 .2-.1.3-.2l.2-.5.2.3c.1.1.2.1.2.1.1 0 .1 0 .2-.1s.2-.3.1-.4l-.4-.6.3-.7.5.8c.1.1.1.1.2.1s.1 0 .2-.1.2-.3.1-.4l-.8-1.1.3-.8 1 1.4c.1.1.1.1.2.1s.1 0 .2-.1.2-.3.1-.4l-1.2-1.8.3-.8 1.3 2c.1.1.2.1.2.1.1 0 .2 0 .2-.1l1.3-2 .3.8-1.2 1.8c-.1.1-.1.3.1.4.1 0 .1.1.2.1s.2 0 .2-.1l1-1.4.3.8-.8 1.1c-.1.1-.1.3.1.4.1 0 .1.1.2.1s.2 0 .2-.1l.5-.8.3.7-.4.6c-.1.1-.1.3.1.4.1 0 .1.1.2.1s.2 0 .2-.1l.2-.3.2.5c0 .1.2.2.3.2h.1c.2-.1.2-.2.2-.4l-.3-.6.5.1c.2 0 .3-.1.3-.2 0-.2-.1-.3-.2-.3l-.9-.2-.3-.7 1.1.2c.2 0 .3-.1.3-.2 0-.2-.1-.3-.2-.3l-1.5-.3-.3-.7 1.6.3c.2 0 .3-.1.3-.2 0-.2-.1-.3-.2-.3l-1.9-.3-.3-.8 2.5.4c.1 0 .2 0 .3-.1.1-.1.1-.2.1-.3l-.5-2.5.8.3.3 1.9c0 .1.1.2.3.2h.1c.2 0 .3-.2.2-.3l-.3-1.6.7.3.3 1.5c0 .1.1.2.3.2h.1c.2 0 .3-.2.2-.3l-.2-1.2.7.3.2.9c0 .1.1.2.3.2h.1c.2 0 .3-.2.2-.3l-.1-.5.6.3c.1.1.3 0 .4-.2.4-.1.4-.3.2-.4zm-5.5-4.7 2 1.3-2 1.3-1.6-.6.2-.6v-.2l-.2-.6 1.6-.6zm-2 1.2-.2.4-.2.5-.2.4-.4.2-.6.2-.4.2-.4-.2-.5-.2-.4-.2-.2-.4-.2-.5-.2-.4.2-.4.2-.5.2-.4.4-.2.5-.2.4-.2.4.2.6.2.4.2.2.4.2.5.2.4zm2.4-4.3-.4 2.4-1.7.7-.2-.6c0-.1-.1-.1-.2-.2l-.6-.2.7-1.7 2.4-.4zm-4.3-1.6 1.3 2-.6 1.6-.6-.2h-.2l-.6.2-.6-1.6 1.3-2zm-4.3 1.6 2.4.4.7 1.7-.6.2c-.1 0-.1.1-.2.2l-.2.6-1.7-.7-.4-2.4zm-1.7 4.3 2-1.3 1.6.6-.2.6v.2l.2.6-1.6.6-2-1.3zm1.7 4.3.4-2.4 1.7-.7.2.6c0 .1.1.1.2.2l.6.2-.7 1.7-2.4.4zm4.3 1.7-1.3-2 .6-1.6.5.2h.2l.5-.2.6 1.6-1.1 2zm4.3-1.7-2.4-.4-.7-1.7.6-.2c.1 0 .1-.1.2-.2l.2-.6 1.7.7.4 2.4zM128 136.8l-1-.4.6-.4c.3-.2.3-.5.2-.8-.2-.3-.5-.3-.8-.2l-1.2.8-1.3-.5 1.6-1.1c.3-.2.3-.5.2-.8-.2-.3-.5-.3-.8-.2l-2.2 1.5-1.5-.6 2.7-1.9c.3-.2.3-.5.2-.8-.2-.3-.5-.3-.8-.2l-3.4 2.3-1.7-.7 3.9-2.5c.2-.1.2-.3.2-.5s-.1-.4-.2-.5l-3.9-2.5 1.6-.7 3.4 2.3c.1.1.2.1.3.1.2 0 .4-.1.5-.2.2-.3.1-.6-.2-.8l-2.7-1.9 1.6-.6 2.2 1.5c.1.1.2.1.3.1.2 0 .4-.1.5-.3.2-.3.1-.6-.2-.8l-1.6-1.1 1.3-.5 1.2.8c.1.1.2.1.3.1.2 0 .4-.1.5-.2.2-.3.1-.6-.2-.8l-.5-.4 1-.4c.3-.1.4-.5.3-.7-.1-.3-.5-.4-.7-.3l-1.2.5.2-1c.1-.3-.2-.6-.5-.7-.3 0-.6.2-.7.5l-.3 1.7-1.3.5.4-2.2c.1-.3-.2-.6-.5-.7-.3-.1-.6.2-.7.5l-.5 2.9-1.3.5.5-3c.1-.3-.2-.6-.5-.7-.3-.1-.6.2-.7.5l-.6 3.7-1.6.6.9-4.8c0-.2 0-.4-.2-.5-.1-.1-.3-.2-.5-.2l-4.8.9.6-1.6 3.7-.6c.3-.1.5-.3.5-.7-.1-.3-.4-.5-.7-.5l-3.1.5.5-1.3 2.9-.5c.3-.1.5-.3.5-.7-.1-.3-.4-.5-.7-.5l-2 .9.5-1.3 1.7-.3c.3-.1.5-.3.5-.7-.1-.3-.3-.5-.7-.5l-1 .2.5-1.2c.1-.3 0-.6-.3-.7-.3-.1-.6 0-.7.3l-.4 1-.4-.5c-.2-.3-.5-.3-.8-.2-.3.2-.3.5-.2.8l.8 1.2-.5 1.3-1.1-1.6c-.2-.3-.5-.3-.8-.2-.3.2-.3.5-.2.8l1.5 2.2-.6 1.5-1.9-2.7c-.2-.3-.5-.3-.8-.2-.3.2-.3.5-.2.8l2.3 3.4-.7 1.6-2.5-3.9c-.2-.3-.7-.3-1 0l-2.5 3.9-.7-1.6 2.3-3.4c.2-.3.1-.6-.2-.8-.3-.2-.6-.1-.8.2l-1.9 2.7-.6-1.5 1.5-2.2c.2-.3.1-.6-.2-.8-.3-.2-.6-.1-.8.2l-1.1 1.6-.5-1.3.8-1.2c.2-.3.1-.6-.2-.8-.3-.2-.6-.1-.8.2l-.4.5-.4-1c-.1-.3-.5-.4-.7-.3-.3.1-.4.5-.3.7l.5 1.2-1-.2c-.3 0-.6.2-.7.5-.1.3.2.6.5.7l1.7.3.5 1.3-2.2-.4c-.3 0-.6.2-.7.5-.1.3.2.6.5.7l2.9.5.5 1.3-3.1-.5c-.3 0-.6.2-.7.5-.1.3.2.6.5.7l3.7.6.6 1.6-4.8-.9c-.2 0-.4 0-.5.2-.1.1-.2.3-.2.5l.9 4.8-1.6-.6-.6-3.7c-.1-.3-.3-.5-.7-.5-.3.1-.5.3-.5.7l.5 3-1.3-.5-.5-2.9c-.1-.3-.3-.5-.7-.5-.3.1-.5.3-.5.7l.4 2.2-1.3-.5-.3-1.7c-.1-.3-.3-.5-.7-.5-.3.1-.5.3-.5.7l.2 1-1.2-.5c-.3-.1-.6 0-.7.3-.1.3 0 .6.3.7l1 .4-.5.4c-.3.2-.3.5-.2.8.1.2.3.2.5.2.1 0 .2 0 .3-.1l1.2-.8 1.3.5-1.6 1.1c-.3.2-.3.5-.2.8.1.2.3.3.5.3.1 0 .2 0 .3-.1l2.2-1.5 1.6.6-2.7 1.9c-.3.2-.3.5-.2.8.1.2.3.2.5.2.1 0 .2 0 .3-.1l3.4-2.3 1.6.7-3.9 2.5c-.2.1-.3.3-.3.5s.1.4.3.5l3.9 2.5-1.7.7-3.4-2.3c-.3-.2-.6-.1-.8.2-.2.3-.1.6.2.8l2.7 1.9-1.5.6-2.2-1.5c-.3-.2-.6-.1-.8.2-.2.3-.1.6.2.8l1.6 1.1-1.3.5-1.2-.8c-.3-.2-.6-.1-.8.2-.2.3-.1.6.2.8l.6.4-1 .4c-.3.1-.4.5-.3.7.1.3.5.5.7.3l1.3-.5-.2 1c-.1.3.2.6.5.7h.1c.3 0 .5-.2.6-.5l.3-1.7 1.3-.5-.4 2.2c-.1.3.2.6.5.7h.1c.3 0 .5-.2.6-.5l.5-2.9 1.3-.5-.5 3.1c-.1.3.2.6.5.7h.1c.3 0 .5-.2.6-.5l.6-3.7 1.6-.6-.9 4.8c0 .2 0 .4.2.5.1.1.3.2.5.2l4.8-.9-.6 1.6-3.7.6c-.3.1-.5.3-.5.7.1.3.3.5.7.5l3-.5-.5 1.3-2.9.5c-.3.1-.5.3-.5.7.1.3.3.5.7.5l2.2-.4-.5 1.3-1.7.3c-.3.1-.5.3-.5.7.1.3.4.5.7.5l1-.2-.5 1.2c-.1.3 0 .6.3.7h.2c.2 0 .4-.1.5-.3l.4-1.1.4.5c.1.2.3.2.5.2.1 0 .2 0 .3-.1.3-.2.3-.5.2-.8l-.8-1.2.5-1.3 1.1 1.6c.1.2.3.2.5.2.1 0 .2 0 .3-.1.3-.2.3-.5.2-.8l-1.5-2.2.6-1.6 1.9 2.7c.1.2.3.3.5.3.1 0 .2 0 .3-.1.3-.2.3-.5.2-.8l-2.3-3.4.7-1.6 2.5 3.9c.1.2.3.2.5.2s.4-.1.5-.2l2.5-3.9.7 1.6-2.3 3.4c-.2.3-.1.6.2.8.1.1.2.1.3.1.2 0 .4-.1.5-.3l1.9-2.7.6 1.6-1.5 2.2c-.2.3-.1.6.2.8.1.1.2.1.3.1.2 0 .4-.1.5-.2l1.1-1.6.5 1.3-.8 1.2c-.2.3-.1.6.2.8.1.1.2.1.3.1.2 0 .4-.1.5-.2l.4-.5.4 1.1c.1.2.3.3.5.3h.2c.3-.1.4-.4.3-.7l-.5-1.2 1 .2c.3.1.6-.2.7-.5.1-.3-.2-.6-.5-.7l-1.7-.3-.5-1.3 2.2.4c.3.1.6-.2.7-.5.1-.3-.2-.6-.5-.7l-2.9-.5-.5-1.3 3 .5c.3.1.6-.2.7-.5.1-.3-.2-.6-.5-.7l-3.7-.6-.6-1.6 4.8.9c.2 0 .4 0 .5-.2.1-.1.2-.3.2-.5l-.9-4.8 1.6.6.6 3.7c0 .3.3.5.6.5h.1c.3-.1.5-.3.5-.7l-.5-3.1 1.3.5.5 2.9c0 .3.3.5.6.5h.1c.3-.1.5-.3.5-.7l-.4-2.2 1.3.5.3 1.7c0 .3.3.5.6.5h.1c.3-.1.5-.3.5-.7l-.2-1 1.3.5c.3.1.6 0 .7-.3-.3-.7-.4-1.1-.7-1.2zm-10.7-9.2 3.8 2.5-3.8 2.5-3.1-1.2.4-1.1v-.4l-.4-1.1 3.1-1.2zm-3.8 2.4-.3.8-.4 1.1-.3.8-.8.3-1.1.4-.8.3-.8-.3-1.1-.4-.8-.3-.3-.8-.4-1.1-.3-.8.3-.8.4-1.1.3-.8.8-.3 1.1-.4.8-.3.8.3 1.1.4.8.3.3.8.4 1.1.3.8zm4.5-8.3-.8 4.7-3.4 1.3-.4-1.1c-.1-.2-.2-.3-.3-.3l-1.1-.4 1.4-3.4 4.6-.8zm-8.3-3.1 2.5 3.8-1.2 3.1-1.1-.4h-.4l-1.1.4-1.2-3.1 2.5-3.8zm-8.3 3.1 4.6.8 1.4 3.4-1.1.4c-.2 0-.3.2-.3.3l-.4 1.1-3.4-1.3-.8-4.7zm-3.1 8.3 3.9-2.5 3.1 1.2-.4 1.1v.4l.4 1.1-3.1 1.2-3.9-2.5zm3.1 8.3.8-4.7 3.4-1.3.4 1.1c.1.1.2.3.3.3l1.1.4-1.3 3.4-4.7.8zm8.3 3.2-2.5-3.8 1.2-3.1 1 .4h.4l1-.4 1.2 3.1-2.3 3.8zm8.3-3.2-4.7-.8-1.3-3.4 1.1-.4c.2 0 .3-.2.3-.3l.4-1.1 3.4 1.3.8 4.7zM325.8 238.1l-1.2-.5.7-.4c.3-.2.4-.6.2-.9-.2-.3-.6-.4-.9-.2l-1.6.9-1.6-.6 1.9-1.3c.3-.2.4-.6.2-.9-.2-.3-.6-.4-.9-.2l-2.6 1.8-1.8-.8 3.2-2.2c.3-.2.4-.6.2-.9-.2-.3-.6-.4-.9-.2l-4 2.7-2-.8 4.7-3c.2-.1.3-.3.3-.6 0-.2-.1-.4-.3-.6l-4.7-3 1.9-.8 4 2.7c.1.1.2.1.4.1s.4-.1.6-.3c.2-.3.1-.7-.2-.9l-3.3-2.2 1.8-.7 2.6 1.8c.1.1.2.1.4.1s.4-.1.6-.3c.2-.3.1-.7-.2-.9l-1.9-1.3 1.6-.6 1.4.9c.1.1.2.1.4.1s.4-.1.6-.3c.2-.3.1-.7-.2-.9l-.6-.4 1.2-.5c.3-.1.5-.5.4-.9-.1-.3-.5-.5-.9-.4l-1.5.6.2-1.2c.1-.4-.2-.7-.5-.8-.4-.1-.7.2-.8.5l-.3 2-1.6.6.4-2.6c.1-.4-.2-.7-.5-.8-.4-.1-.7.2-.8.5l-.6 3.4-1.5.6.6-3.6c.1-.4-.2-.7-.5-.8-.4-.1-.7.2-.8.5l-.8 4.4-1.8.7 1-5.6c0-.2-.1-.4-.2-.6-.2-.2-.4-.2-.6-.2l-5.7 1 .8-1.8 4.4-.8c.4-.1.6-.4.5-.8-.1-.4-.4-.6-.8-.5l-3.6.6.6-1.5 3.4-.6c.4-.1.6-.4.5-.8-.1-.4-.4-.6-.8-.5l-2.6.4.6-1.5 2-.3c.4-.1.6-.4.5-.8-.1-.4-.4-.6-.8-.5l-1.2.2.6-1.4c.1-.3 0-.7-.4-.9-.3-.1-.7 0-.9.4l-.5 1.2-.4-.6c-.2-.3-.6-.4-.9-.2-.3.2-.4.6-.2.9l1 1.4-.6 1.5-1.3-1.9c-.2-.3-.6-.4-.9-.2-.3.2-.4.6-.2.9l1.8 2.6-.8 1.8-2.2-3.2c-.2-.3-.6-.4-.9-.2-.3.2-.4.6-.2.9l2.7 4-.8 1.9-3-4.6c-.2-.4-.9-.4-1.1 0l-3 4.6-.8-1.9 2.7-4c.2-.3.1-.7-.2-.9-.3-.2-.7-.1-.9.2l-2.2 3.2-.8-1.8 1.8-2.6c.2-.3.1-.7-.2-.9-.3-.2-.7-.1-.9.2l-1.3 1.9-.6-1.5 1-1.4c.2-.3.1-.7-.2-.9-.3-.2-.7-.1-.9.2l-.4.6-.5-1.2c-.1-.3-.5-.5-.9-.4-.3.1-.5.5-.4.9l.6 1.4-1.2-.2c-.4-.1-.7.2-.8.5-.1.4.2.7.5.8l2 .3.6 1.5-2.6-.4c-.4-.1-.7.2-.8.5-.1.4.2.7.5.8l3.4.6.6 1.5-3.6-.6c-.4-.1-.7.2-.8.5-.1.4.2.7.5.8l4.4.8.7 1.8-5.7-1c-.2-.1-.4 0-.6.2-.1.2-.2.4-.2.6l1 5.6-1.8-.7-.7-4.4c-.1-.4-.4-.6-.8-.5-.4.1-.6.4-.5.8l.6 3.6-1.5-.6-.6-3.4c-.1-.4-.4-.6-.8-.5s-.6.4-.5.8l.4 2.6-1.6-.6-.3-2c-.1-.4-.4-.6-.8-.5-.4.1-.6.4-.5.8l.2 1.2-1.5-.6c-.3-.1-.7 0-.9.4-.1.4 0 .8.4.9l1.2.5-.6.4c-.3.2-.4.6-.2.9.1.2.3.3.6.3.1 0 .3 0 .4-.1l1.4-.9 1.6.6-1.9 1.3c-.3.2-.4.6-.2.9.1.2.3.3.6.3.1 0 .3 0 .4-.1l2.6-1.8 1.8.7-3.3 2.2c-.3.2-.4.6-.2.9.1.2.3.3.6.3.1 0 .3 0 .4-.1l4-2.7 1.9.8-4.7 3c-.2.1-.3.3-.3.6 0 .2.1.5.3.6l4.7 3-2 .8-4-2.7c-.3-.2-.7-.1-.9.2-.2.3-.1.7.2.9l3.2 2.2-1.8.8-2.6-1.8c-.3-.2-.7-.1-.9.2-.2.3-.1.7.2.9l1.9 1.3-1.6.6-1.4-.9c-.3-.2-.7-.1-.9.2-.2.3-.1.7.2.9l.7.4-1.2.5c-.4.1-.5.5-.4.9.1.3.5.5.9.4l1.5-.6-.2 1.2c-.1.4.2.7.5.8h.1c.3 0 .6-.2.7-.6l.3-2 1.6-.6-.4 2.6c-.1.4.2.7.5.8h.1c.3 0 .6-.2.7-.6l.6-3.4 1.5-.6-.6 3.6c-.1.4.2.7.5.8h.1c.3 0 .6-.2.7-.6l.8-4.4 1.9-.7-1 5.7c0 .2.1.4.2.6.2.2.4.2.6.2l5.6-1-.7 1.8-4.4.8c-.4.1-.6.4-.5.8.1.4.4.6.8.5l3.6-.6-.6 1.5-3.4.6c-.4.1-.6.4-.5.8.1.4.4.6.8.5l2.6-.4-.6 1.5-2 .3c-.4.1-.6.4-.5.8.1.4.4.6.8.5l1.2-.2-.6 1.5c-.1.3 0 .7.4.9.1.1.2.1.2.1.3 0 .5-.2.6-.4l.5-1.3.4.6c.1.2.3.3.6.3.1 0 .3 0 .4-.1.3-.2.4-.6.2-.9l-1-1.4.6-1.5 1.2 1.8c.1.2.3.3.6.3.1 0 .3 0 .4-.1.3-.2.4-.6.2-.9l-1.8-2.6.7-1.8 2.2 3.2c.1.2.3.3.6.3.1 0 .3 0 .4-.1.3-.2.4-.6.2-.9l-2.7-4 .8-1.9 3 4.6c.1.2.3.3.6.3s.4-.1.6-.3l3-4.6.8 1.9-2.7 4c-.2.3-.1.7.2.9.1.1.2.1.4.1s.4-.1.6-.3l2.2-3.2.7 1.8-1.8 2.6c-.2.3-.1.7.2.9.1.1.2.1.4.1s.4-.1.6-.3l1.2-1.8.6 1.5-1 1.4c-.2.3-.1.7.2.9.1.1.2.1.4.1s.4-.1.6-.3l.4-.6.5 1.3c.1.2.3.4.6.4.1 0 .2 0 .2-.1.3-.1.5-.5.4-.9l-.6-1.5 1.2.2c.4.1.7-.2.8-.5.1-.4-.2-.7-.5-.8l-2-.3-.6-1.5 2.6.4c.4.1.7-.2.8-.5.1-.4-.2-.7-.5-.8l-3.4-.6-.6-1.5 3.6.6c.4.1.7-.2.8-.5.1-.4-.2-.7-.5-.8l-4.4-.8-.7-1.8 5.6 1c.2 0 .4 0 .6-.2.1-.2.2-.4.2-.6l-1-5.7 1.9.7.8 4.4c.1.3.3.6.7.6h.1c.4-.1.6-.4.5-.8l-.6-3.6 1.5.6.6 3.4c.1.3.3.6.7.6h.1c.4-.1.6-.4.5-.8l-.4-2.6 1.6.6.3 2c.1.3.3.6.7.6h.1c.4-.1.6-.4.5-.8l-.2-1.2 1.5.6c.3.1.7 0 .9-.4-.4-.3-.6-.7-.9-.9zm-12.6-10.9 4.6 2.9-4.6 2.9-3.7-1.4.5-1.3c.1-.1.1-.3 0-.5l-.5-1.3 3.7-1.3zm-4.5 2.9-.4 1-.5 1.3-.4 1-1 .4-1.3.5-1 .4-1-.4-1.3-.5-1-.4-.4-1-.5-1.3-.4-1 .4-1 .5-1.3.4-1 1-.4 1.3-.5 1-.4 1 .4 1.3.5 1 .4.4 1 .5 1.3.4 1zm5.3-9.8-1 5.5-4 1.6-.5-1.3c-.1-.2-.2-.3-.4-.4l-1.3-.5 1.6-4 5.6-.9zm-9.8-3.7 3 4.6-1.4 3.7-1.3-.5c-.2-.1-.3-.1-.5 0l-1.3.5-1.4-3.7 2.9-4.6zm-9.9 3.7 5.5 1 1.6 4-1.3.5c-.2.1-.3.2-.4.4l-.5 1.3-4-1.6-.9-5.6zm-3.7 9.8 4.6-2.9 3.6 1.4-.5 1.3c-.1.2-.1.3 0 .5l.5 1.3-3.7 1.4-4.5-3zm3.7 9.9 1-5.5 4-1.6.5 1.3c.1.2.2.3.4.4l1.3.5-1.6 4-5.6.9zm9.9 3.7-3-4.6 1.5-3.7 1.2.5c.1 0 .2.1.2.1s.2 0 .2-.1l1.2-.5 1.5 3.7-2.8 4.6zm9.8-3.7-5.5-1-1.6-4 1.3-.5c.2-.1.3-.2.4-.4l.5-1.3 4 1.6.9 5.6zM207.9 68.4l-1.5-.6.8-.5c.4-.2.5-.7.2-1.1-.2-.4-.7-.5-1.1-.2l-1.6 1.1-1.8-.7 2.2-1.5c.4-.2.5-.7.2-1.1-.2-.4-.7-.5-1.1-.2l-3.1 2.1-2.2-.9 3.8-2.6c.4-.2.5-.7.2-1.1-.2-.4-.7-.5-1.1-.2l-4.7 3.2-2.3-.9 5.5-3.6c.2-.1.3-.4.3-.7 0-.3-.1-.5-.3-.7l-5.5-3.5 2.3-1 4.8 3.2c.1.1.3.1.4.1.3 0 .5-.1.7-.3.2-.4.2-.9-.2-1.1L199 53l2.2-.9 3.1 2.1c.1.1.3.1.4.1.3 0 .5-.1.7-.4.2-.4.2-.9-.2-1.1l-2.2-1.5 1.8-.7 1.6 1.1c.1.1.3.1.4.1.3 0 .5-.1.7-.3.2-.4.1-.9-.2-1.1l-.8-.5 1.5-.6c.4-.2.6-.6.4-1-.2-.4-.6-.6-1-.4l-1.7.7.2-1.4c.1-.4-.2-.8-.6-.9-.4-.1-.8.2-.9.6l-.4 2.4-1.8.7.5-3.1c.1-.4-.2-.8-.6-.9-.4-.1-.8.2-.9.6l-.7 4.1-1.8.7.7-4.3c.1-.4-.2-.8-.6-.9-.4-.1-.8.2-.9.7l-.9 5.2-2.2.9 1.2-6.7c0-.3-.1-.5-.2-.7-.2-.2-.4-.3-.7-.2l-6.7 1.2.9-2.2 5.2-.9c.4-.1.7-.5.6-.9-.1-.4-.5-.7-.9-.6l-4.3.7.7-1.8 4.1-.7c.4-.1.7-.5.6-.9-.1-.4-.5-.7-.9-.6l-3.1.5.7-1.8 2.4-.4c.4-.1.7-.5.6-.9-.1-.4-.5-.7-.9-.6l-1.4.2.7-1.7c.2-.4 0-.9-.4-1-.4-.2-.9 0-1 .4l-.6 1.5-.5-.8c-.2-.4-.7-.5-1.1-.2-.4.2-.5.7-.2 1.1l1.1 1.7-.7 1.8-1.5-2.2c-.2-.4-.7-.5-1.1-.2-.4.2-.5.7-.2 1.1l2.1 3.1-.9 2.2-2.6-3.8c-.2-.4-.7-.5-1.1-.2-.4.2-.5.7-.2 1.1l3.2 4.7-.9 2.3L183 41c-.3-.4-1-.4-1.3 0l-3.6 5.5-.9-2.3 3.2-4.7c.2-.4.2-.9-.2-1.1-.4-.2-.9-.2-1.1.2l-2.6 3.8-.9-2.2 2.1-3.1c.2-.4.1-.9-.2-1.1-.4-.2-.9-.1-1.1.2l-1.5 2.2-.7-1.8 1.1-1.7c.2-.4.1-.9-.2-1.1-.4-.2-.9-.2-1.1.2l-.5.8-.6-1.5c-.2-.4-.6-.6-1-.4-.4.2-.6.6-.4 1l.7 1.7-1.4-.2c-.4-.1-.8.2-.9.6-.1.4.2.8.6.9l2.4.4.7 1.8-3.1-.5c-.4-.1-.8.2-.9.6-.1.4.2.8.6.9l4.1.7.7 1.8-4.3-.7c-.4-.1-.8.2-.9.6-.1.4.2.8.6.9l5.2.9.9 2.2-6.7-1.2c-.3-.1-.5 0-.7.2-.2.2-.3.4-.2.7l1.2 6.7-2.2-.9-.9-5c-.1-.4-.5-.7-.9-.7-.4.1-.7.5-.6.9l.7 4.3-1.8-.7-.7-4.1c-.1-.4-.5-.7-.9-.6-.4.1-.7.5-.6.9l.5 3.1-1.8-.7-.4-2.4c-.1-.4-.5-.7-.9-.6-.4.1-.7.5-.7.9l.2 1.4-1.7-.7c-.4-.2-.9 0-1 .4-.2.4 0 .9.4 1l1.5.6-.8.5c-.4.2-.5.7-.2 1.1.2.2.4.3.7.3.2 0 .3 0 .4-.1l1.6-1.1 1.8.7-2.2 1.5c-.4.2-.5.7-.2 1.1.2.2.4.4.7.4.2 0 .3 0 .4-.1l3.1-2.1 2.2.9-3.8 2.6c-.4.2-.5.7-.2 1.1.2.2.4.3.7.3.2 0 .3 0 .4-.1l4.8-3.2 2.3 1-5.5 3.5c-.2.2-.3.4-.3.7 0 .3.1.5.3.7l5.5 3.6-2.3.9L163 61c-.4-.2-.9-.2-1.1.2-.2.4-.2.9.2 1.1l3.8 2.6-2.2.9-3.1-2.1c-.4-.2-.9-.2-1.1.2-.2.4-.2.9.2 1.1l2.2 1.5-1.8.7-1.6-1.1c-.4-.2-.9-.2-1.1.2-.2.4-.2.9.2 1.1l.8.5-1.5.6c-.4.2-.6.6-.4 1 .2.4.6.6 1 .4l1.8-.7-.2 1.4c-.1.4.2.8.7.9h.1c.4 0 .7-.3.8-.7l.4-2.4 1.8-.7-.5 3.1c-.1.4.2.8.6.9h.1c.4 0 .7-.3.8-.7l.7-4.1 1.8-.7-.7 4.3c-.1.4.2.8.6.9h.1c.4 0 .7-.3.8-.7l.9-5.3 2.2-.9-1.2 6.7c0 .3.1.5.2.7.2.2.4.3.7.2l6.7-1.2-.9 2.2-5.2.9c-.4.1-.7.5-.6.9.1.4.5.7.9.6l4.3-.7-.7 1.8-4.1.7c-.4.1-.7.5-.6.9.1.4.5.7.9.7l3.1-.5-.7 1.8-2.4.4c-.4.1-.7.5-.6.9.1.4.5.7.9.6l1.4-.2-.7 1.7c-.2.4 0 .9.4 1 .1.1.2.1.3.1.3 0 .6-.2.7-.5l.6-1.5.5.8c.2.2.4.3.7.3.2 0 .3 0 .4-.1.4-.2.5-.7.2-1.1l-1.1-1.7.8-1.8 1.5 2.2c.2.2.4.3.7.3.2 0 .3 0 .4-.1.4-.2.5-.7.2-1.1l-2.1-3.1.9-2.2 2.6 3.8c.2.2.4.3.7.3.2 0 .3 0 .4-.1.4-.2.5-.7.2-1.1l-3.2-4.7.9-2.3 3.6 5.5c.2.2.4.3.7.3.3 0 .5-.1.7-.3L187 71l.9 2.3-3.2 4.7c-.2.4-.1.9.2 1.1.1.1.3.1.4.1.3 0 .5-.1.7-.3l2.6-3.8.9 2.2-2.1 3.1c-.2.4-.1.9.2 1.1.1.1.3.1.4.1.3 0 .5-.1.7-.3l1.5-2.2.8 1.8-1.1 1.7c-.2.4-.2.9.2 1.1.1.1.3.1.4.1.3 0 .5-.1.7-.3l.5-.8.6 1.5c.1.3.4.5.7.5.1 0 .2 0 .3-.1.4-.2.6-.6.4-1l-.7-1.7 1.4.2c.4.1.8-.2.9-.6.1-.4-.2-.8-.6-.9l-2.4-.4-.7-1.8 3.1.5c.4.1.8-.2.9-.7.1-.4-.2-.8-.6-.9l-4.1-.7-.7-1.8 4.3.7c.4.1.8-.2.9-.6.1-.4-.2-.8-.6-.9l-5.2-.9-.9-2.2 6.7 1.2c.3 0 .5 0 .7-.2.2-.2.3-.4.2-.7l-1.2-6.7 2.2.9.9 5.3c.1.4.4.7.8.7h.1c.4-.1.7-.5.6-.9l-.7-4.3 1.8.7.7 4.1c.1.4.4.7.8.7h.1c.4-.1.7-.5.6-.9l-.5-3.1 1.8.7.4 2.4c.1.4.4.7.8.7h.1c.4-.1.7-.5.6-.9l-.2-1.4 1.8.7c.4.2.9 0 1-.4-.3-.4-.5-.9-.9-1.1zM193 55.5l5.4 3.5-5.4 3.5-4.3-1.7.6-1.5c.1-.2.1-.4 0-.6l-.6-1.5 4.3-1.7zm-5.4 3.5-.4 1.2-.6 1.5-.4 1.2-1.2.4-1.5.6-1.2.4-1.2-.4-1.5-.6-1.2-.4-.4-1.2-.6-1.5-.4-1.2.4-1.2.6-1.5.4-1.2 1.2-.4 1.5-.6 1.2-.4 1.2.4 1.5.6 1.2.4.4 1.2.6 1.5.4 1.2zm6.4-11.7-1.2 6.5-4.7 1.9-.6-1.5c-.1-.2-.3-.4-.5-.4l-1.5-.6 1.9-4.7 6.6-1.2zm-11.7-4.4 3.5 5.4-1.7 4.3-1.5-.6c-.2-.1-.4-.1-.6 0l-1.5.6-1.7-4.3 3.5-5.4zm-11.6 4.4 6.5 1.2 1.9 4.7-1.5.6c-.2.1-.4.2-.5.4l-.6 1.5-4.7-1.9-1.1-6.5zM166.3 59l5.4-3.5 4.3 1.7-.6 1.5c-.1.2-.1.4 0 .6l.6 1.5-4.3 1.7-5.4-3.5zm4.4 11.6 1.2-6.5 4.7-1.9.6 1.5c.1.2.3.4.5.4l1.5.6-1.9 4.7-6.6 1.2zm11.6 4.4-3.5-5.4 1.7-4.3 1.5.6c.1 0 .2.1.3.1.1 0 .2 0 .3-.1l1.5-.6 1.7 4.3-3.5 5.4zm11.7-4.4-6.5-1.2-1.9-4.7 1.5-.6c.2-.1.4-.3.5-.4l.6-1.5 4.7 1.9 1.1 6.5zM290.1 41.1l-.5-.2.3-.2c.1-.1.1-.2.1-.4-.1-.1-.2-.1-.4-.1l-.5.4-.6-.2.7-.5c.1-.1.1-.2.1-.4-.1-.1-.2-.1-.4-.1l-1 .7-.7-.3 1.2-.8c.1-.1.1-.2.1-.4-.1-.1-.2-.1-.4-.1l-1.5 1-.8-.3 1.8-1.2c.1 0 .1-.1.1-.2s0-.2-.1-.2l-1.8-1.1.7-.3 1.6 1.1h.1c.1 0 .2 0 .2-.1.1-.1 0-.3-.1-.4l-1.3-.9.7-.3 1 .7h.1c.1 0 .2 0 .2-.1.1-.1.1-.3-.1-.4l-.7-.5.6-.2.5.4h.1c.1 0 .2 0 .2-.1.1-.1 0-.3-.1-.4l-.3-.2.5-.2c.1-.1.2-.2.1-.3-.1-.1-.2-.2-.3-.1l-.6.2.1-.5c0-.1-.1-.3-.2-.3s-.3.1-.3.2l-.1.8-.6.2.2-1c0-.1-.1-.3-.2-.3s-.3.1-.3.2l-.2 1.3-.6.2.2-1.4c0-.1-.1-.3-.2-.3s-.3.1-.3.2l-.3 1.7-.7.3.4-2.2c0-.1 0-.2-.1-.2-.1-.1-.1-.1-.2-.1l-2.2.4.3-.7 1.7-.3c.1 0 .2-.2.2-.3 0-.1-.2-.2-.3-.2l-1.4.2.2-.6 1.3-.2c.1 0 .2-.2.2-.3 0-.1-.2-.2-.3-.2l-1 .2.2-.6.8-.1c.1 0 .2-.2.2-.3 0-.1-.2-.2-.3-.2l-.5.1.2-.6c.1-.1 0-.3-.1-.3-.1-.1-.3 0-.3.1l-.2.5-.2-.2c-.1-.1-.2-.1-.4-.1-.1.1-.2.2-.1.4l.4.5-.2.6-.5-.7c-.1-.1-.2-.1-.4-.1-.1.1-.1.2-.1.4l.7 1-.3.7-.8-1.2c-.1-.1-.2-.2-.4-.1-.1.1-.1.2-.1.4l1.1 1.5-.3.7-1.2-1.8c-.1-.1-.3-.1-.4 0l-1.2 1.8-.3-.7 1-1.5c.1-.1 0-.3-.1-.4-.1-.1-.3 0-.4.1l-.8 1.2-.3-.7.7-1c.1-.1 0-.3-.1-.4-.1-.1-.3 0-.4.1l-.5.7-.2-.6.4-.5c.1-.1 0-.3-.1-.4-.1-.1-.3 0-.4.1l-.2.2-.2-.5c-.1-.1-.2-.2-.3-.1-.1.1-.2.2-.1.3l.2.6-.5-.1c-.1 0-.3.1-.3.2s.1.3.2.3l.8.1.2.6-1-.2c-.1 0-.3.1-.3.2s.1.3.2.3l1.3.2.2.6-1.4-.2c-.1 0-.3.1-.3.2s.1.3.2.3l1.7.3.3.7-2.2-.4c-.1 0-.2 0-.2.1-.1.1-.1.1-.1.2l.4 2.2-.7-.3-.3-1.7c0-.1-.2-.2-.3-.2-.1 0-.2.2-.2.3l.2 1.4-.6-.2-.2-1.3c0-.1-.2-.2-.3-.2-.1 0-.2.2-.2.3l.2 1-.6-.2-.1-.8c0-.1-.2-.2-.3-.2-.1 0-.2.2-.2.3l.1.5-.6-.2c-.1-.1-.3 0-.3.1-.1.1 0 .3.1.3l.5.2-.3.2c-.1.1-.1.2-.1.4 0 .1.1.1.2.1h.1l.5-.4.6.2-.7.5c-.1.1-.1.2-.1.4 0 .1.1.1.2.1h.1l1-.7.7.3-1.3.9c-.1.1-.1.2-.1.4.1.1.1.1.2.1h.1l1.6-1.1.7.3-1.8 1.1c-.1.1-.1.1-.1.2s0 .2.1.2l1.8 1.2-.8.3-1.5-1c-.1-.1-.3 0-.4.1-.1.1 0 .3.1.4l1.2.8-.7.3-1-.7c-.1-.1-.3 0-.4.1-.1.1 0 .3.1.4l.7.5-.6.2-.5-.4c-.1-.1-.3 0-.4.1-.1.1 0 .3.1.4l.3.2-.5.2c-.1.1-.2.2-.1.3.1.1.2.2.3.1l.6-.2-.1.5c0 .1.1.3.2.3s.2-.1.3-.2l.1-.8.6-.2-.2 1c0 .1.1.3.2.3s.2-.1.3-.2l.2-1.3.6-.2-.2 1.4c0 .1.1.3.2.3s.2-.1.3-.2l.3-1.7.7-.3-.4 2.2c0 .1 0 .2.1.2.1.1.1.1.2.1l2.2-.4-.3.7-1.7.3c-.1 0-.2.2-.2.3 0 .1.2.2.3.2l1.4-.2-.2.6-1.3.2c-.1 0-.2.2-.2.3 0 .1.2.2.3.2l1-.2-.2.6-.8.1c-.1 0-.2.2-.2.3 0 .1.2.2.3.2l.5-.1-.2.6c-.1.1 0 .3.1.3h.1c.1 0 .2-.1.2-.2l.2-.5.2.2c.1.1.1.1.2.1h.1c.1-.1.1-.2.1-.4l-.4-.5.2-.6.5.7c0 .1.1.1.2.1h.1c.1-.1.1-.2.1-.4l-.7-1 .3-.7.9 1.3c0 .1.1.1.2.1h.1c.1-.1.1-.2.1-.4l-1-1.5.3-.7 1.2 1.8c.1.1.1.1.2.1s.2 0 .2-.1l1.2-1.8.3.7-1 1.5c-.1.1 0 .3.1.4h.1c.1 0 .2 0 .2-.1l.8-1.3.3.7-.7 1c-.1.1 0 .3.1.4h.1c.1 0 .2 0 .2-.1l.5-.7.2.6-.4.5c-.1.1 0 .3.1.4h.1c.1 0 .2 0 .2-.1l.2-.2.2.5c0 .1.1.2.2.2h.1c.1 0 .2-.2.1-.3l-.2-.6.5.1c.1 0 .3-.1.3-.2s-.1-.3-.2-.3l-.8-.1-.2-.6 1 .2c.1 0 .3-.1.3-.2s-.1-.3-.2-.3l-1.3-.2-.2-.6 1.4.2c.1 0 .3-.1.3-.2s-.1-.3-.2-.3l-1.7-.3-.3-.7 2.2.4c.1 0 .2 0 .2-.1.1-.1.1-.1.1-.2l-.4-2.2.7.3.3 1.7c0 .1.1.2.3.2.1 0 .2-.2.2-.3l-.2-1.4.6.2.2 1.3c0 .1.1.2.3.2.1 0 .2-.2.2-.3l-.2-1 .6.2.1.8c0 .1.1.2.3.2.1 0 .2-.2.2-.3l-.1-.5.6.2c.1.1.3 0 .3-.1 1.3-.1 1.3-.3 1.1-.3zm-4.8-4.2L287 38l-1.8 1.1-1.4-.6.2-.5v-.2l-.2-.5 1.5-.4zm-1.8 1.1-.1.4-.2.5-.1.4-.4.1-.5.2-.4.1-.4-.1-.5-.2-.4-.1-.1-.4-.2-.5-.1-.4.1-.4.2-.5.1-.4.4-.1.5-.2.4-.1.4.1.5.2.4.1.1.4.2.5.1.4zm2.1-3.8-.4 2.1-1.5.6-.2-.5c0-.1-.1-.1-.2-.1l-.5-.2.6-1.5 2.2-.4zm-3.8-1.4 1.1 1.8-.6 1.4-.5-.2h-.2l-.5.2-.6-1.4 1.3-1.8zm-3.8 1.4 2.1.4.6 1.5-.5.2c-.1 0-.1.1-.2.1l-.2.5-1.5-.6-.3-2.1zm-1.4 3.8 1.8-1.1 1.4.6-.2.5v.2l.2.5-1.4.6-1.8-1.3zm1.4 3.8.4-2.1 1.5-.6.2.5c0 .1.1.1.2.1l.5.2-.6 1.5-2.2.4zm3.8 1.4-1.1-1.8.6-1.4.5.2h.2l.5-.2.6 1.4-1.3 1.8zm3.8-1.4-2.1-.4-.6-1.5.5-.2c.1 0 .1-.1.2-.1l.2-.5 1.5.6.3 2.1zM86.3 251.6l-1-.4.5-.4c.2-.2.3-.5.1-.7-.2-.2-.5-.3-.7-.1l-1.1.7-1.2-.5 1.5-1c.2-.2.3-.5.1-.7-.2-.2-.5-.3-.7-.1l-2.1 1.4-1.4-.6 2.5-1.7c.2-.2.3-.5.1-.7-.2-.2-.5-.3-.7-.1l-3.1 2.1-1.5-.6 3.7-2.4c.1-.1.2-.3.2-.4 0-.2-.1-.3-.2-.4l-3.7-2.3 1.5-.6 3.1 2.1c.1.1.2.1.3.1.2 0 .3-.1.4-.2.2-.2.1-.6-.1-.7l-2.5-1.7 1.4-.6 2.1 1.4c.1.1.2.1.3.1.2 0 .3-.1.4-.2.2-.2.1-.6-.1-.7l-1.5-1 1.2-.5 1.1.7c.1.1.2.1.3.1.2 0 .3-.1.4-.2.2-.2.1-.6-.1-.7l-.5-.3 1-.4c.3-.1.4-.4.3-.7-.1-.3-.4-.4-.7-.3l-1.2.5.2-.9c0-.3-.1-.6-.4-.6-.3 0-.6.1-.6.4l-.3 1.6-1.2.5.3-2c0-.3-.1-.6-.4-.6-.3 0-.6.1-.6.4l-.5 2.7-1.2.5.5-2.8c0-.3-.1-.6-.4-.6-.3 0-.6.1-.6.4l-.6 3.5-1.4.6.8-4.4c0-.2 0-.3-.1-.5-.1-.1-.3-.2-.5-.1l-4.4.8.6-1.4 3.5-.6c.3 0 .5-.3.4-.6 0-.3-.3-.5-.6-.4l-2.8.5.5-1.2 2.7-.5c.3 0 .5-.3.4-.6 0-.3-.3-.5-.6-.4l-2.1.4.5-1.2 1.6-.3c.3 0 .5-.3.4-.6 0-.3-.3-.5-.6-.4l-1 .2.5-1.1c.1-.3 0-.6-.3-.7-.3-.1-.6 0-.7.3l-.4 1-.3-.5c-.2-.2-.5-.3-.7-.1-.2.2-.3.5-.1.7l.7 1.1-.5 1.2-1-1.5c-.2-.2-.5-.3-.7-.1-.2.2-.3.5-.1.7l1.4 2.1-.6 1.4-1.7-2.5c-.2-.2-.5-.3-.7-.1-.2.2-.3.5-.1.7l2.1 3.1-.6 1.5-2.3-3.6c-.2-.3-.7-.3-.9 0l-2.4 3.6-.6-1.5 2.1-3.1c.2-.2.1-.6-.1-.7-.2-.2-.6-.1-.7.1l-1.7 2.5-.6-1.4 1.4-2.1c.2-.2.1-.6-.1-.7-.2-.2-.6-.1-.7.1l-1 1.5-.5-1.2.7-1.1c.2-.2.1-.6-.1-.7-.2-.2-.6-.1-.7.1l-.3.5-.4-1c-.1-.3-.4-.4-.7-.3-.3.1-.4.4-.3.7l.5 1.1-1-.2c-.3 0-.6.1-.6.4 0 .3.1.6.4.6l1.6.3.5 1.2-2.1-.4c-.3 0-.6.1-.6.4 0 .3.1.6.4.6l2.7.5.5 1.2-2.8-.5c-.3 0-.6.1-.6.4 0 .3.1.6.4.6l3.5.6.6 1.4-4.4-.8c-.2 0-.3 0-.5.1-.1.1-.2.3-.1.5l.8 4.4-1.4-.6-.6-3.5c0-.3-.3-.5-.6-.4-.3 0-.5.3-.4.6l.5 2.8-1.2-.5-.5-2.7c-.1-.3-.3-.5-.6-.4-.3.1-.5.3-.4.6l.4 2-1.2-.5-.3-1.6c0-.3-.3-.5-.6-.4-.3 0-.5.3-.4.6l.2.9-1.2-.5c-.3-.1-.6 0-.7.3-.1.3 0 .6.3.7l1 .4-.5.3c-.2.2-.3.5-.1.7.1.1.3.2.4.2.1 0 .2 0 .3-.1l1.1-.7 1.2.5-1.5 1c-.2.2-.3.5-.1.7.1.1.3.2.4.2.1 0 .2 0 .3-.1l2-1.4 1.4.6-2.5 1.7c-.2.2-.3.5-.1.7.1.1.3.2.4.2.1 0 .2 0 .3-.1l3.1-2.1 1.5.6-3.7 2.3c-.1.1-.2.3-.2.4 0 .2.1.4.2.4l3.7 2.4-1.5.6-3.1-2.1c-.2-.2-.6-.1-.7.1-.2.2-.1.6.1.7l2.5 1.7-1.4.6-2.1-1.4c-.2-.2-.6-.1-.7.1-.2.2-.1.6.1.7l1.5 1-1.2.5-1.1-.7c-.2-.2-.6-.1-.7.1-.2.2-.1.6.1.7l.5.4-1 .4c-.3.1-.4.4-.3.7.1.3.4.4.7.3l1.2-.5-.2.9c0 .3.1.6.4.6h.1c.3 0 .5-.2.5-.4l.3-1.6 1.2-.5-.4 2.1c0 .3.1.6.4.6h.1c.3 0 .5-.2.5-.4l.5-2.7 1.2-.5-.5 2.8c0 .3.1.6.4.6h.1c.3 0 .5-.2.5-.4l.6-3.5 1.5-.6-.8 4.4c0 .2 0 .3.1.5.1.1.3.2.5.1l4.4-.8-.6 1.4-3.5.6c-.3 0-.5.3-.4.6 0 .3.3.5.6.4l2.8-.5-.5 1.2-2.7.5c-.3 0-.5.3-.4.6 0 .3.3.5.6.4l2.1-.4-.5 1.2-1.6.3c-.3 0-.5.3-.4.6 0 .3.3.5.6.4l1-.2-.5 1.2c-.1.3 0 .6.3.7h.2c.2 0 .4-.1.5-.3l.4-1 .3.5c.1.2.3.2.4.2.1 0 .2 0 .3-.1.2-.2.3-.5.1-.7l-.7-1.1.5-1.2 1 1.4c.1.1.3.2.4.2.1 0 .2 0 .3-.1.2-.2.3-.5.1-.7l-1.4-2 .6-1.4 1.7 2.5c.1.2.3.2.4.2.1 0 .2 0 .3-.1.2-.2.3-.5.1-.7l-2.1-3.1.6-1.5 2.4 3.6c.1.1.3.2.4.2.2 0 .3-.1.4-.2l2.3-3.6.6 1.5-2.1 3.1c-.2.2-.1.6.1.7.1.1.2.1.3.1.2 0 .3-.1.4-.2l1.7-2.5.6 1.4-1.4 2c-.2.2-.1.6.1.7.1.1.2.1.3.1.2 0 .3-.1.4-.2l1-1.4.5 1.2-.7 1.1c-.2.2-.1.6.1.7.1.1.2.1.3.1.2 0 .3-.1.4-.2l.3-.5.4 1c.1.2.3.3.5.3h.2c.3-.1.4-.4.3-.7l-.5-1.2 1 .2c.3.1.6-.1.6-.4 0-.3-.1-.6-.4-.6l-1.6-.3-.5-1.2 2.1.4c.3.1.6-.1.6-.4 0-.3-.1-.6-.4-.6l-2.7-.5-.5-1.2 2.8.5c.3.1.6-.1.6-.4 0-.3-.1-.6-.4-.6l-3.5-.6-.6-1.4 4.4.8c.2 0 .3 0 .5-.1.1-.1.2-.3.1-.5l-.8-4.4 1.5.6.6 3.5c0 .3.3.4.5.4h.1c.3 0 .5-.3.4-.6l-.5-2.8 1.2.5.5 2.7c0 .3.3.4.5.4h.1c.3 0 .5-.3.4-.6l-.4-2.1 1.2.5.3 1.6c0 .3.3.4.5.4h.1c.3 0 .5-.3.4-.6l-.2-.9 1.2.5c.3.1.6 0 .7-.3.2-.2 0-.5-.2-.7zm-9.9-8.5 3.6 2.3-3.6 2.3-2.9-1.1.4-1v-.4l-.4-1 2.9-1.1zm-3.5 2.3-.3.8-.4 1-.3.8-.8.3-1 .4-.8.3-.8-.3-1-.4-.8-.3-.3-.8-.4-1-.3-.8.3-.8.4-1 .3-.8.8-.3 1-.4.8-.3.8.3 1 .4.8.3.3.8.4 1 .3.8zm4.2-7.7-.8 4.3-3.1 1.2-.4-1c-.1-.1-.2-.3-.3-.3l-1-.4 1.3-3.1 4.3-.7zm-7.7-2.9 2.3 3.6-1.1 2.9-1-.4h-.4l-1 .4-1.1-2.9 2.3-3.6zm-7.7 2.9 4.3.8 1.3 3.1-1 .4c-.1 0-.3.1-.3.3l-.4 1-3.1-1.2-.8-4.4zm-3 7.7 3.6-2.3 2.9 1.1-.4 1v.4l.4 1-2.9 1.1-3.6-2.3zm3 7.7.8-4.3 3.1-1.2.4 1c.1.1.2.3.3.3l1 .4-1.2 3.1-4.4.7zm7.7 2.9-2.3-3.6 1.2-2.9 1 .4h.4l1-.4 1.2 2.9-2.5 3.6zm7.7-2.9-4.3-.8-1.2-3.1 1-.4c.1 0 .3-.2.3-.3l.4-1 3.1 1.2.7 4.4zM557.5 110.7l-1.2-.5.6-.4c.3-.2.4-.6.2-.9-.2-.3-.6-.4-.9-.2l-1.4.9-1.5-.6 1.8-1.2c.3-.2.4-.6.2-.9-.2-.3-.6-.4-.9-.2l-2.6 1.7-1.8-.8 3.2-2.2c.3-.2.4-.6.2-.9-.2-.3-.6-.4-.9-.2l-3.9 2.7-1.9-.8 4.6-3c.2-.1.3-.3.3-.6 0-.2-.1-.4-.3-.6l-4.6-2.9 1.9-.8 4 2.7c.1.1.2.1.4.1s.4-.1.5-.3c.2-.3.1-.7-.2-.9L550 98l1.8-.7 2.6 1.7c.1.1.2.1.4.1s.4-.1.5-.3c.2-.3.1-.7-.2-.9l-1.8-1.2 1.5-.6 1.4.9c.1.1.2.1.4.1s.4-.1.5-.3c.2-.3.1-.7-.2-.9l-.6-.4 1.2-.5c.3-.1.5-.5.4-.9-.1-.3-.5-.5-.8-.4l-1.4.6.2-1.2c.1-.4-.2-.7-.5-.8-.3-.1-.7.2-.8.5l-.3 2-1.5.6.4-2.6c.1-.4-.2-.7-.5-.8-.3-.1-.7.2-.8.5l-.6 3.4-1.5.6.6-3.5c.1-.4-.2-.7-.5-.8-.3-.1-.7.2-.8.5l-.7 4.3-1.8.7 1-5.5c0-.2-.1-.4-.2-.6-.2-.2-.4-.2-.6-.2l-5.6 1 .7-1.8 4.3-.7c.4-.1.6-.4.5-.8s-.4-.6-.8-.5l-3.5.6.6-1.5 3.4-.6c.4-.1.6-.4.5-.8-.1-.4-.4-.6-.8-.5l-2.6.4.6-1.5 2-.3c.4-.1.6-.4.5-.8-.1-.4-.4-.6-.8-.5l-1.2.2.6-1.4c.1-.3 0-.7-.4-.9-.3-.1-.7 0-.8.4l-.5 1.2-.4-.6c-.2-.3-.6-.4-.9-.2-.3.2-.4.6-.2.9l.9 1.4-.6 1.5-1.3-1.8c-.2-.3-.6-.4-.9-.2-.3.2-.4.6-.2.9l1.7 2.6-.7 1.8-2.2-3.2c-.2-.3-.6-.4-.9-.2-.3.2-.4.6-.2.9l2.7 3.9-.8 1.9-2.9-4.6c-.2-.4-.9-.4-1.1 0l-3 4.6-.8-1.9 2.7-3.9c.2-.3.1-.7-.2-.9-.3-.2-.7-.1-.9.2l-2.2 3.2-.7-1.8 1.7-2.6c.2-.3.1-.7-.2-.9-.3-.2-.7-.1-.9.2l-1.3 1.8-.6-1.5.9-1.4c.2-.3.1-.7-.2-.9-.3-.2-.7-.1-.9.2l-.4.6-.5-1.2c-.1-.3-.5-.5-.8-.4-.3.1-.5.5-.4.9l.6 1.4-1.2-.2c-.3-.1-.7.2-.8.5-.1.4.2.7.5.8l2 .3.6 1.5-2.6-.4c-.4-.1-.7.2-.8.5-.1.4.2.7.5.8l3.4.6.6 1.5-3.5-.6c-.4-.1-.7.2-.8.5-.1.4.2.7.5.8l4.3.7.7 1.8-5.6-1c-.2-.1-.4 0-.6.2-.1.2-.2.4-.2.6l1 5.5-1.8-.7-.7-4.3c-.1-.4-.4-.6-.8-.5-.4.1-.6.4-.5.8l.6 3.5-1.5-.6-.6-3.4c-.1-.4-.4-.6-.8-.5-.4.1-.6.4-.5.8l.4 2.6-1.5-.6-.3-2c-.1-.4-.4-.6-.8-.5-.4.1-.6.4-.5.8l.2 1.2-1.4-.6c-.3-.1-.7 0-.8.4-.1.3 0 .7.4.9l1.2.5-.6.4c-.3.2-.4.6-.2.9.1.2.3.3.5.3.1 0 .3 0 .4-.1l1.4-.9 1.5.6-1.8 1.2c-.3.2-.4.6-.2.9.1.2.3.3.5.3.1 0 .3 0 .4-.1l2.6-1.7 1.8.7-3.2 2.2c-.3.2-.4.6-.2.9.1.2.3.3.5.3.1 0 .3 0 .4-.1l3.9-2.7 1.9.8-4.6 2.9c-.2.1-.3.3-.3.6 0 .2.1.4.3.6l4.6 3-1.9.8-3.9-2.7c-.3-.2-.7-.1-.9.2-.2.3-.1.7.2.9l3.2 2.2-1.8.8-2.6-1.7c-.3-.2-.7-.1-.9.2-.2.3-.1.7.2.9l1.8 1.2-1.5.6-1.4-.9c-.3-.2-.7-.1-.9.2-.2.3-.1.7.2.9l.6.4-1.2.5c-.3.1-.5.5-.4.8.1.3.5.5.8.4l1.5-.6-.2 1.2c-.1.4.2.7.5.8h.1c.3 0 .6-.2.6-.5l.3-2 1.5-.6-.4 2.6c-.1.4.2.7.5.8h.1c.3 0 .6-.2.6-.5l.6-3.4 1.5-.6-.6 3.6c-.1.4.2.7.5.8h.1c.3 0 .6-.2.6-.5l.7-4.4 1.8-.7-1 5.6c0 .2.1.4.2.6.2.2.4.2.6.2l5.5-1-.7 1.8-4.3.7c-.4.1-.6.4-.5.8.1.4.4.6.8.5l3.5-.6-.6 1.5-3.4.6c-.4.1-.6.4-.5.8.1.4.4.6.8.5l2.6-.4-.6 1.5-2 .3c-.4.1-.6.4-.5.8.1.4.4.6.8.5l1.2-.2-.6 1.4c-.1.3 0 .7.4.8.1.1.2.1.2.1.3 0 .5-.2.6-.4l.5-1.2.4.6c.1.2.3.3.5.3.1 0 .3 0 .4-.1.3-.2.4-.6.2-.9l-.9-1.4.6-1.5 1.2 1.8c.1.2.3.3.5.3.1 0 .3 0 .4-.1.3-.2.4-.6.2-.9l-1.7-2.6.7-1.8 2.2 3.2c.1.2.3.3.5.3.1 0 .3 0 .4-.1.3-.2.4-.6.2-.9l-2-4.6.8-1.9 3 4.6c.1.2.3.3.6.3.2 0 .4-.1.6-.3l2.9-4.6.8 1.9-2.7 3.9c-.2.3-.1.7.2.9.1.1.2.1.4.1s.4-.1.5-.3l2.2-3.2.7 1.8-1.7 2.6c-.2.3-.1.7.2.9.1.1.2.1.4.1s.4-.1.5-.3l1.2-1.8.6 1.5-.9 1.4c-.2.3-.1.7.2.9.1.1.2.1.4.1s.4-.1.5-.3l.4-.6.5 1.2c.1.2.3.4.6.4.1 0 .2 0 .2-.1.3-.1.5-.5.4-.8l-.6-1.4 1.2.2c.4.1.7-.2.8-.5.1-.4-.2-.7-.5-.8l-2-.3-.6-1.5 2.6.4c.4.1.7-.2.8-.5.1-.4-.2-.7-.5-.8l-3.4-.6-.6-1.5 3.5.6c.4.1.7-.2.8-.5.1-.4-.2-.7-.5-.8l-4.3-.7-.7-1.8 5.5 1c.2 0 .4 0 .6-.2.1-.2.2-.4.2-.6l-1-5.6 1.8.7.7 4.4c.1.3.3.5.6.5h.1c.4-.1.6-.4.5-.8l-.6-3.6 1.5.6.6 3.4c.1.3.3.5.6.5h.1c.4-.1.6-.4.5-.8l-.4-2.6 1.5.6.3 2c.1.3.3.5.6.5h.1c.4-.1.6-.4.5-.8l-.2-1.2 1.5.6c.3.1.7 0 .8-.4.1.1 0-.3-.4-.4zm-12.4-10.8 4.5 2.9-4.5 2.9-3.6-1.4.5-1.2c.1-.1.1-.3 0-.5l-.5-1.2 3.6-1.5zm-4.4 2.9-.4 1-.5 1.2-.4 1-1 .4-1.2.5-1 .4-1-.4-1.2-.5-1-.4-.4-1-.5-1.2-.4-1 .4-1 .5-1.2.4-1 1-.4 1.2-.5 1-.4 1 .4 1.2.5 1 .4.4 1 .5 1.2.4 1zm5.3-9.7-1 5.4-3.9 1.6-.5-1.2c-.1-.2-.2-.3-.4-.4L539 98l1.6-3.9 5.4-1zm-9.7-3.6 2.9 4.5-1.4 3.6-1.2-.5c-.2-.1-.3-.1-.5 0l-1.2.5-1.4-3.6 2.8-4.5zm-9.7 3.6 5.4 1 1.6 3.9-1.2.5c-.2.1-.3.2-.4.4l-.5 1.2-3.9-1.6-1-5.4zm-3.6 9.7 4.5-2.9 3.6 1.4-.5 1.2c-.1.2-.1.3 0 .5l.5 1.2-3.6 1.4-4.5-2.8zm3.6 9.7 1-5.4 3.9-1.6.5 1.3c.1.2.2.3.4.4l1.2.5-1.6 3.9-5.4.9zm9.7 3.6-2.9-4.5 1.4-3.6 1.2.5c.1 0 .2.1.2.1.1 0 .2 0 .2-.1l1.2-.5 1.4 3.6-2.7 4.5zm9.7-3.6-5.4-1-1.6-3.9 1.2-.5c.2-.1.3-.2.4-.4l.5-1.3 3.9 1.6 1 5.5zM189.6 215.2l-3.1-1.2 2.7-1.5c.4-.2.5-.7.3-1-.2-.4-.7-.5-1-.3l-3.8 2.1-2.3-.9 2.8-1.6c.4-.2.5-.7.3-1-.2-.4-.7-.5-1-.3l-3.9 2.2-7.7-2.9 7.7-2.9 3.9 2.2c.1.1.2.1.4.1.3 0 .5-.1.7-.4.2-.4.1-.8-.3-1l-2.8-1.6 2.3-.9 3.8 2.1c.1.1.2.1.4.1.3 0 .5-.1.7-.4.2-.4.1-.8-.3-1l-2.7-1.5 3.1-1.2c.4-.1.6-.6.4-1-.1-.4-.6-.6-1-.4l-3.2 1.2.9-3.3c.1-.4-.1-.8-.5-.9-.4-.1-.8.1-.9.5l-1.2 4.4-2.2.8.9-3.2c.1-.4-.1-.8-.5-.9-.4-.1-.8.1-.9.5l-1.2 4.3-8.1 3.1 3.1-8.1 4.3-1.2c.4-.1.6-.5.5-.9-.1-.4-.5-.6-.9-.5l-3.2.9.8-2.2 4.4-1.2c.4-.1.6-.5.5-.9-.1-.4-.5-.7-.9-.5l-3.3.9 1.2-3.2c.2-.4 0-.8-.4-1-.4-.2-.8 0-1 .4l-1.2 3.1-1.5-2.7c-.2-.4-.7-.5-1-.3-.4.2-.5.7-.3 1l2.1 3.8-.9 2.3-1.6-2.8c-.2-.4-.7-.5-1-.3-.4.2-.5.7-.3 1l2.2 3.9-2.9 7.7-2.9-7.7 2.2-3.9c.2-.4.1-.8-.3-1-.4-.2-.8-.1-1 .3l-2 2.6-.9-2.3 2.1-3.8c.2-.4.1-.8-.3-1-.4-.2-.8-.1-1 .3l-1.5 2.7-1.2-3.1c-.1-.4-.6-.6-1-.4-.4.2-.6.6-.4 1l1.2 3.2-3.3-.9c-.4-.1-.8.1-.9.5-.1.4.1.8.5.9l4.4 1.2.8 2.2-3.2-.9c-.4-.1-.8.1-.9.5-.1.4.1.8.5.9l4.3 1.2 3.1 8.1-8.1-3.1-1.2-4.3c-.1-.4-.5-.7-.9-.5-.4.1-.6.5-.5.9l.9 3.2-2.2-.8-1.2-4.4c-.1-.4-.5-.7-.9-.5-.4.1-.6.5-.5.9l.9 3.3-3.2-1.2c-.4-.1-.8 0-1 .4-.2.4 0 .8.4 1l3.1 1.2-2.7 1.5c-.4.2-.5.7-.3 1 .1.3.4.4.7.4.1 0 .3 0 .4-.1l3.8-2.1 2.3.9-2.8 1.6c-.4.2-.5.7-.3 1 .1.2.4.4.7.4.1 0 .3 0 .4-.1l3.9-2.2 7.7 2.9-7.7 2.9-3.9-2.2c-.4-.2-.8-.1-1 .3-.2.4-.1.8.3 1l2.8 1.6-2.3.9-3.8-2.1c-.4-.2-.8-.1-1 .3-.2.4-.1.8.3 1l2.7 1.5-3.1 1.2c-.4.2-.6.6-.4 1 .1.3.4.5.7.5.1 0 .2 0 .3-.1l3.2-1.2-.9 3.3c-.1.4.1.8.5.9h.2c.3 0 .6-.2.7-.6l1.2-4.4 2.2-.8-.9 3.2c-.1.4.1.8.5.9h.2c.3 0 .6-.2.7-.6l1.2-4.3 8.1-3.1-3.1 8.1-4.3 1.2c-.4.1-.6.5-.5.9.1.4.5.6.9.5l3.2-.9-.8 2.2-4.4 1.2c-.4.1-.6.5-.5.9.1.4.5.6.9.5l3.3-.9-1.2 3.2c-.2.4 0 .8.4 1 .4.2.8 0 1-.4l1.2-3.1 1.5 2.7c.1.3.4.4.7.4.1 0 .3 0 .4-.1.4-.2.5-.7.3-1l-2.1-3.8.9-2.3 1.6 2.8c.1.3.4.4.7.4.1 0 .3 0 .4-.1.4-.2.5-.7.3-1l-2.2-3.9 2.9-7.7 2.9 7.7-2.2 3.9c-.2.4-.1.8.3 1 .1.1.2.1.4.1.3 0 .5-.1.7-.4l1.6-2.8.9 2.3-2.1 3.8c-.2.4-.1.8.3 1 .1.1.2.1.4.1.3 0 .5-.1.7-.4l1.5-2.7 1.2 3.1c.1.3.4.5.7.5h.3c.4-.2.6-.6.4-1l-1.2-3.2 3.3.9c.4.1.8-.1.9-.5.1-.4-.1-.8-.5-.9l-4.4-1.2-.8-2.2 3.2.9c.4.1.8-.1.9-.5.1-.4-.1-.8-.5-.9l-4.3-1.2-3.1-8.1 8.1 3.1 1.2 4.3c.1.3.4.6.7.6h.2c.4-.1.6-.5.5-.9l-.9-3.2 2.2.8 1.2 4.4c.1.3.4.6.7.6h.2c.4-.1.6-.5.5-.9l-.9-3.3 3.2 1.2c.1 0 .2.1.3.1.3 0 .6-.2.7-.5-.2-.3-.4-.7-.8-.9zM57.2 59.7l-2.4-.9 2.1-1.2c.3-.2.4-.5.2-.8-.2-.3-.5-.4-.8-.2l-3 1.6-1.8-.7 2.2-1.2c.3-.2.4-.5.2-.8-.2-.3-.5-.4-.8-.2l-3 1.7-6-2.3 6-2.3 3 1.7c.1.1.2.1.3.1.2 0 .4-.1.5-.3.2-.3.1-.6-.2-.8l-2.2-1.2 1.8-.7 3 1.7c.1.1.2.1.3.1.2 0 .4-.1.5-.3.2-.3.1-.7-.2-.8l-2.1-1.2 2.4-.9c.3-.1.5-.5.3-.8-.1-.3-.5-.5-.8-.3l-2.5 1L55 47c.1-.3-.1-.6-.4-.7-.3-.1-.6.1-.7.4l-1 3.4-1.7.7.7-2.5c.1-.3-.1-.6-.4-.7-.3-.1-.6.1-.7.4l-.9 3.3-6.3 2.4 2.4-6.3 3.3-.9c.3-.1.5-.4.4-.7-.1-.3-.4-.5-.7-.4l-2.6.6.7-1.7 3.4-1c.3-.1.5-.4.4-.7-.1-.3-.4-.5-.7-.4l-2.6.7 1-2.5c.1-.3 0-.7-.3-.8-.3-.1-.7 0-.8.3l-.9 2.4-1.2-2.1c-.2-.3-.5-.4-.8-.2-.3.2-.4.5-.2.8l1.7 3-.7 1.8-1.2-2.2c-.2-.3-.5-.4-.8-.2-.4.2-.5.5-.4.8l1.7 3-2.3 6-2.3-6 1.7-3c.2-.3.1-.6-.2-.8-.3-.2-.6-.1-.8.2l-1.2 2.2-.7-1.8 1.6-3c.2-.3.1-.6-.2-.8-.3-.2-.7-.1-.8.2l-1.2 2.1-.8-2.3c-.1-.3-.5-.5-.8-.3-.3.1-.5.5-.3.8l1 2.5-2.6-.7c-.3-.1-.6.1-.7.4-.1.3.1.6.4.7l3.4 1 .7 1.7-2.6-.8c-.3-.1-.6.1-.7.4-.1.3.1.6.4.7l3.3.9 2.4 6.3-6.3-2.4-.9-3.2c-.1-.3-.4-.5-.7-.4-.3.1-.5.4-.4.7l.7 2.5-1.8-.7-1-3.4c-.1-.3-.4-.5-.7-.4-.3.1-.5.4-.4.7l.7 2.6-2.5-1c-.3-.1-.7 0-.8.3-.1.3 0 .7.3.8l2.4.9-2 1.2c-.3.2-.4.5-.2.8.1.2.3.3.5.3.1 0 .2 0 .3-.1l3-1.7 1.8.7-2.2 1.2c-.3.2-.4.5-.2.8.1.2.3.3.5.3.1 0 .2 0 .3-.1l3-1.7 6 2.3-6 2.3-3-1.7c-.3-.2-.7-.1-.8.2-.2.3-.1.6.2.8l2.2 1.2-1.8.7-3-1.6c-.3-.2-.6-.1-.8.2-.2.3-.1.6.2.8l2.1 1.2-2.4.9c-.3.1-.5.5-.3.8.1.2.3.4.6.4h.2l2.5-1-.7 2.6c-.1.3.1.6.4.7h.2c.3 0 .5-.2.6-.4l1-3.4 1.7-.7-.9 2.6c-.1.3.1.6.4.7h.2c.3 0 .5-.2.6-.4l.9-3.3 6.3-2.4-2.4 6.3-3.3.9c-.3.1-.5.4-.4.7.1.3.4.5.7.4l2.5-.7-.7 1.7-3.4 1c-.3.1-.5.4-.4.7.1.3.4.5.7.4l2.6-.7-1 2.5c-.1.3 0 .7.3.8.3.1.7 0 .8-.3l.9-2.4 1.2 2.1c.1.2.3.3.5.3.1 0 .2 0 .3-.1.3-.2.4-.5.2-.8l-1.6-3 .7-1.7 1.2 2.2c.1.2.3.3.5.3.1 0 .2 0 .3-.1.3-.2.4-.5.2-.8l-1.7-3 2.3-6 2.3 6-1.7 3c-.2.3-.1.6.2.8.1.1.2.1.3.1.2 0 .4-.1.5-.3l1.2-2.2.7 1.7-1.7 3c-.2.3-.1.6.2.8.1 0 .2.1.3.1.2 0 .4-.1.5-.3l1.2-2.1.9 2.4c.1.2.3.4.6.4h.2c.3-.1.5-.5.3-.8l-1-2.5 2.6.7c.3.1.6-.1.7-.4.1-.3-.1-.6-.4-.7l-3.4-1-.7-1.7 2.5.7c.3.1.6-.1.7-.4.1-.3-.1-.6-.4-.7l-3.3-.9-2.4-6.3 6.3 2.4.9 3.3c.1.3.3.4.6.4h.2c.3-.1.5-.4.4-.7l-.7-2.5 1.7.7 1 3.4c.1.3.3.4.6.4h.2c.3-.1.5-.4.4-.7l-.7-2.6 2.5 1h.2c.2 0 .5-.1.6-.4.2-.4 0-.8-.3-.9zM581.1 254.2l-3.2-1.2 2.7-1.5c.4-.2.5-.7.3-1.1-.2-.4-.7-.5-1.1-.3l-3.9 2.2-2.3-.9 2.8-1.6c.4-.2.5-.7.3-1.1-.2-.4-.7-.5-1.1-.3l-4 2.2-7.9-3 7.9-3 4 2.2c.1.1.3.1.4.1.3 0 .5-.1.7-.4.2-.4.1-.9-.3-1.1l-2.8-1.6 2.3-.9 3.9 2.2c.1.1.3.1.4.1.3 0 .5-.1.7-.4.2-.4.1-.9-.3-1.1l-2.7-1.5 3.2-1.2c.4-.2.6-.6.4-1-.2-.4-.6-.6-1-.4l-3.3 1.2.9-3.4c.1-.4-.1-.8-.5-1-.4-.1-.8.1-1 .5l-1.3 4.5-2.2.9.9-3.3c.1-.4-.1-.8-.5-1-.4-.1-.8.1-1 .5l-1.2 4.4-8.3 3.1 3.1-8.3 4.4-1.2c.4-.1.7-.5.5-1-.1-.4-.5-.7-1-.5l-3.3.9.9-2.2 4.5-1.3c.4-.1.7-.5.5-1-.1-.4-.5-.7-1-.5l-3.4.9 1.2-3.3c.2-.4 0-.9-.4-1-.4-.2-.9 0-1 .4l-1.2 3.2-1.5-2.7c-.2-.4-.7-.5-1.1-.3-.4.2-.5.7-.3 1.1l2.2 3.9-.9 2.3-1.6-2.8c-.2-.4-.7-.5-1.1-.3-.4.2-.5.7-.3 1.1l2.2 4-3 7.9-3-7.9 2.2-4c.2-.4.1-.8-.3-1.1-.4-.2-.9-.1-1.1.3l-1.6 2.8-.9-2.3 2.2-3.9c.2-.4.1-.9-.3-1.1-.4-.2-.9-.1-1.1.3l-1.5 2.7-1.2-3.2c-.2-.4-.6-.6-1-.4-.4.2-.6.6-.5 1l1.2 3.3-3.4-.9c-.4-.1-.8.1-1 .5-.1.4.1.8.5 1l4.5 1.3.9 2.2-3.3-.9c-.4-.1-.8.1-1 .5-.1.4.1.8.5 1l4.4 1.2 3.1 8.3-8.3-3.1-1.2-4.4c-.1-.4-.5-.7-1-.5-.4.1-.7.5-.5 1l.9 3.3-2.2-.9-1.3-4.5c-.1-.4-.5-.7-1-.5-.4.1-.7.5-.5 1l.9 3.4-3.3-1.2c-.4-.2-.9 0-1 .4-.2.4 0 .9.5 1l3.2 1.2-2.7 1.5c-.4.2-.5.7-.3 1.1.1.3.4.4.7.4.1 0 .3 0 .4-.1l3.9-2.2 2.3.9-2.8 1.6c-.4.2-.5.7-.3 1.1.1.3.4.4.7.4.1 0 .3 0 .4-.1l4-2.2 7.9 3-7.9 3-4-2.2c-.4-.2-.9-.1-1.1.3-.2.4-.1.9.3 1.1l2.8 1.6-2.3.9-3.9-2.2c-.4-.2-.9-.1-1.1.3-.2.4-.1.9.3 1.1l2.7 1.5-3.2 1.2c-.4.2-.6.6-.5 1 .1.3.4.5.7.5.1 0 .2 0 .3-.1l3.3-1.2-.9 3.4c-.1.4.1.8.5 1h.2c.3 0 .7-.2.7-.6l1.3-4.5 2.2-.9-.9 3.3c-.1.4.1.8.5 1h.2c.3 0 .7-.2.7-.6l1.2-4.4 8.3-3.1-3.1 8.3-4.4 1.2c-.4.1-.7.5-.5 1 .1.4.5.7 1 .5l3.3-.9-.9 2.3-4.5 1.3c-.4.1-.7.5-.5 1 .1.4.5.7 1 .5l3.4-.9-1.2 3.3c-.2.4 0 .9.5 1 .4.2.9 0 1-.5l1.2-3.2 1.5 2.7c.1.3.4.4.7.4.1 0 .3 0 .4-.1.4-.2.5-.7.3-1.1l-2.2-3.9.9-2.3 1.6 2.8c.1.3.4.4.7.4.1 0 .3 0 .4-.1.4-.2.5-.7.3-1.1l-2.2-4 3-7.9 3 7.9-2.2 4c-.2.4-.1.8.3 1.1.1.1.3.1.4.1.3 0 .5-.1.7-.4l1.6-2.8.9 2.3-2.2 3.9c-.2.4-.1.9.3 1.1.1.1.3.1.4.1.3 0 .5-.1.7-.4l1.5-2.7 1.2 3.2c.1.3.4.5.7.5h.3c.4-.2.6-.6.4-1l-1.2-3.3 3.4.9c.4.1.8-.1 1-.5.1-.4-.1-.8-.5-1l-4.5-1.3-.9-2.3 3.3.9c.4.1.8-.1 1-.5.1-.4-.1-.8-.5-1l-4.4-1.2-3.1-8.3 8.3 3.1 1.2 4.4c.1.3.4.6.8.6h.2c.4-.1.7-.5.5-1l-.9-3.3 2.2.9 1.3 4.5c.1.3.4.6.8.6h.2c.4-.1.7-.5.5-1l-.9-3.4 3.3 1.2c.1 0 .2.1.3.1.3 0 .6-.2.7-.5.4-.4.2-.8-.2-1zM218 281.4l-2.7-1 2.3-1.3c.3-.2.4-.6.3-.9-.2-.3-.6-.4-.9-.3l-3.3 1.8-1.9-.7 2.4-1.3c.3-.2.4-.6.3-.9-.2-.3-.6-.4-.9-.3l-3.4 1.9-6.6-2.5 6.6-2.5 3.4 1.9c.1.1.2.1.3.1.2 0 .5-.1.6-.3.2-.3.1-.7-.3-.9l-2.4-1.3 1.9-.7 3.3 1.8c.1.1.2.1.3.1.2 0 .5-.1.6-.3.2-.3.1-.7-.3-.9l-2.3-1.3 2.7-1c.3-.1.5-.5.4-.8-.1-.3-.5-.5-.9-.4l-2.8 1.1.8-2.9c.1-.3-.1-.7-.5-.8-.4-.1-.7.1-.8.5l-1.1 3.8-1.9.7.8-2.8c.1-.4-.1-.7-.5-.8-.4-.1-.7.1-.8.5l-1 3.7-7 2.7 2.7-7 3.7-1c.3-.1.6-.5.5-.8-.1-.4-.5-.6-.8-.5l-2.8.8.7-1.9 3.8-1.1c.3-.1.6-.5.5-.8-.1-.3-.5-.6-.8-.5l-2.8.8 1.1-2.8c.1-.3 0-.7-.4-.8-.3-.1-.7 0-.8.4l-1 2.7-1.3-2.3c-.2-.3-.6-.4-.9-.3-.3.2-.4.6-.3.9l1.8 3.3-.7 1.9-1.3-2.4c-.2-.3-.6-.4-.9-.3-.3.2-.4.6-.3.9l1.9 3.4-2.5 6.6-2.5-6.6 1.9-3.4c.2-.3.1-.7-.3-.9-.3-.2-.7-.1-.9.3l-1.3 2.4-.7-1.9 1.8-3.3c.2-.3.1-.7-.3-.9-.3-.2-.7-.1-.9.3l-1.3 2.3-1-2.7c-.1-.3-.5-.5-.8-.4-.3.1-.5.5-.4.8l1.1 2.8-2.8-.8c-.4-.1-.7.1-.8.5-.1.3.1.7.5.8l3.8 1.1.7 1.9-2.8-.8c-.4-.1-.7.1-.8.5-.1.3.1.7.5.8l3.7 1 2.7 7-7-2.7-1-3.7c-.1-.3-.5-.6-.8-.5-.3.1-.6.5-.5.8l.8 2.8-1.9-.7-1.1-3.8c-.1-.3-.5-.6-.8-.5-.3.1-.6.5-.5.8l.8 2.9-2.8-1.1c-.3-.1-.7 0-.8.4-.1.3 0 .7.4.8l2.7 1-2.3 1.3c-.3.2-.4.6-.3.9.1.2.3.3.6.3.1 0 .2 0 .3-.1l3.3-1.8 1.9.7-2.4 1.3c-.3.2-.4.6-.3.9.1.2.3.3.6.3.1 0 .2 0 .3-.1l3.4-1.9 6.6 2.5-6.6 2.5-3.4-1.9c-.3-.2-.7-.1-.9.3-.2.3-.1.7.3.9l2.4 1.3-1.9.7-3.3-1.8c-.3-.2-.7-.1-.9.3-.2.3-.1.7.3.9l2.3 1.3-2.7 1c-.3.1-.5.5-.4.8.1.3.3.4.6.4h.2l2.8-1.1-.8 2.8c-.1.3.1.7.5.8h.2c.3 0 .6-.2.6-.5l1.1-3.8 1.9-.7-.8 2.8c-.1.4.1.7.5.8h.2c.3 0 .6-.2.6-.5l1-3.7 7-2.7-2.7 7-3.7 1c-.3.1-.6.5-.5.8.1.3.4.6.8.5l2.8-.8-.7 1.9-3.8 1.1c-.3.1-.6.5-.5.8.1.3.4.5.8.5l2.8-.8-1.1 2.8c-.1.3 0 .7.4.8.3.1.7 0 .8-.4l1-2.7 1.3 2.3c.1.2.3.3.6.3.1 0 .2 0 .3-.1.3-.2.4-.6.3-.9l-1.8-3.3.7-1.9 1.3 2.4c.1.2.3.3.6.3.1 0 .2 0 .3-.1.3-.2.4-.6.3-.9l-1.9-3.4 2.5-6.6 2.5 6.6-1.9 3.4c-.2.3-.1.7.3.9.1.1.2.1.3.1.2 0 .5-.1.6-.3l1.3-2.4.7 1.9-1.8 3.3c-.2.3-.1.7.3.9.1.1.2.1.3.1.2 0 .5-.1.6-.3l1.3-2.3 1 2.7c.1.3.3.4.6.4h.2c.3-.1.5-.5.4-.8l-1.1-2.8 2.8.8c.4.1.7-.1.8-.5.1-.3-.1-.7-.5-.8l-3.8-1.1-.7-1.9 2.8.8c.4.1.7-.1.8-.5.1-.3-.1-.7-.5-.8l-3.7-1-2.7-7 7 2.7 1 3.7c.1.3.3.5.6.5h.2c.3-.1.6-.5.5-.8l-.8-2.8 1.9.7 1.1 3.8c.1.3.3.5.6.5h.2c.3-.1.6-.5.5-.8l-.8-2.8 2.8 1.1h.2c.3 0 .5-.2.6-.4.2-.3 0-.7-.3-.8zM386.6 166.2l-1.4-.5 1.2-.7c.2-.1.2-.3.1-.5s-.3-.2-.5-.1l-1.7.9-1-.4 1.2-.7c.2-.1.2-.3.1-.5s-.3-.2-.5-.1l-1.7 1-3.4-1.3 3.4-1.3 1.7 1h.2c.1 0 .2-.1.3-.2.1-.2 0-.4-.1-.5l-1.2-.7 1-.4 1.7.9h.2c.1 0 .2-.1.3-.2.1-.2 0-.4-.1-.5l-1.2-.7 1.4-.5c.2-.1.3-.3.2-.4-.1-.2-.3-.3-.4-.2l-1.4.5.4-1.5c0-.2-.1-.4-.2-.4-.2 0-.4.1-.4.2l-.5 1.9-1 .4.4-1.4c.1-.2-.1-.4-.2-.4-.2 0-.4.1-.4.2l-.5 1.9-3.6 1.4 1.4-3.6 1.9-.5c.2-.1.3-.2.2-.4 0-.2-.2-.3-.4-.2l-1.4.4.4-1 1.9-.5c.2-.1.3-.2.2-.4 0-.2-.2-.3-.4-.2l-1.5.4.5-1.4c.1-.2 0-.4-.2-.4-.2-.1-.4 0-.4.2l-.5 1.4-.7-1.2c-.1-.2-.3-.2-.5-.1s-.2.3-.1.5l.9 1.7-.4 1-.7-1.2c-.1-.2-.3-.2-.5-.1s-.2.3-.1.5l1 1.7-1.3 3.4-1.3-3.4 1-1.7c.1-.2 0-.4-.1-.5-.2-.1-.4 0-.5.1l-.7 1.2-.4-1 .9-1.7c.1-.2 0-.4-.1-.5-.2-.1-.4 0-.5.1l-.7 1.2-.5-1.4c-.1-.2-.3-.3-.4-.2-.2.1-.3.3-.2.4l.5 1.4-1.5-.4c-.2-.1-.4.1-.4.2 0 .2.1.4.2.4l1.9.5.4 1-1.4-.4c-.2 0-.4.1-.4.2 0 .2.1.4.2.4l1.9.5 1.4 3.6-3.6-1.4-.5-1.9c0-.2-.2-.3-.4-.2-.2.1-.3.2-.2.4l.4 1.4-1-.4-.5-1.9c0-.2-.2-.3-.4-.2-.2.1-.3.2-.2.4l.4 1.5-1.4-.5c-.2-.1-.4 0-.4.2-.1.2 0 .4.2.4l1.4.5-1.2.7c-.2.1-.2.3-.1.5.1.1.2.2.3.2h.2l1.7-.9 1 .4-1.2.7c-.2.1-.2.3-.1.5.1.1.2.2.3.2h.2l1.7-1 3.4 1.3-3.4 1.3-1.7-1c-.2-.1-.4 0-.5.1-.1.2 0 .4.1.5l1.2.7-1 .4-1.7-.9c-.2-.1-.4 0-.5.1-.1.2 0 .4.1.5l1.2.7-1.4.5c-.2.1-.3.3-.2.4.1.1.2.2.3.2h.1l1.4-.5-.4 1.5c-.1.2.1.4.2.4h.1c.1 0 .3-.1.3-.2l.5-1.9 1-.4-.3 1.3c0 .2.1.4.2.4h.1c.1 0 .3-.1.3-.2l.5-1.9 3.6-1.4-1.4 3.6-1.9.5c-.2.1-.3.2-.2.4 0 .2.2.3.4.2l1.4-.4-.4 1-1.9.5c-.2.1-.3.2-.2.4 0 .2.2.3.4.2l1.5-.4-.5 1.4c-.1.2 0 .4.2.4.2.1.4 0 .4-.2l.5-1.4.7 1.2c.1.1.2.2.3.2h.2c.2-.1.2-.3.1-.5l-.9-1.7.4-1 .7 1.2c.1.1.2.2.3.2h.2c.2-.1.2-.3.1-.5l-1-1.7 1.3-3.4 1.3 3.4-1 1.7c-.1.2 0 .4.1.5h.2c.1 0 .2-.1.3-.2l.7-1.2.4 1-.9 1.7c-.1.2 0 .4.1.5h.2c.1 0 .2-.1.3-.2l.7-1.2.5 1.4c.1.1.2.2.3.2h.1c.2-.1.3-.3.2-.4l-.5-1.4 1.5.4c.2.1.4-.1.4-.2.1-.2-.1-.4-.2-.4l-1.9-.5-.4-1 1.4.4c.2.1.4-.1.4-.2 0-.2-.1-.4-.2-.4l-1.9-.5-1.4-3.6 3.6 1.4.5 1.9c0 .1.2.2.3.2h.1c.2-.1.3-.2.2-.4l-.4-1.4 1 .4.5 1.9c0 .1.2.2.3.2h.1c.2 0 .3-.2.2-.4l-.4-1.5 1.4.5h.1c.1 0 .3-.1.3-.2 0 0-.1-.2-.3-.3zM325.9 111.6l-1.6-.6 1.4-.8c.2-.1.3-.4.2-.5-.1-.2-.4-.3-.5-.2l-2 1.1-1.2-.5 1.5-.8c.2-.1.3-.4.2-.5-.1-.2-.4-.3-.5-.2l-2.1 1.1-4.1-1.6 4.1-1.6 2.1 1.1c.1 0 .1.1.2.1s.3-.1.4-.2c.1-.2 0-.4-.2-.5l-1.5-.8 1.2-.5 2 1.1c.1 0 .1.1.2.1s.3-.1.4-.2c.1-.2 0-.4-.2-.5l-1.4-.8 1.6-.6c.2-.1.3-.3.2-.5-.1-.2-.3-.3-.5-.2l-1.7.6.5-1.7c.1-.2-.1-.4-.3-.5-.2-.1-.4.1-.5.3l-.7 2.3-1.2.4.5-1.7c.1-.2-.1-.4-.3-.5-.2-.1-.4.1-.5.3l-.6 2.3-4.3 1.6 1.6-4.3 2.3-.6c.2-.1.3-.3.3-.5-.1-.2-.3-.3-.5-.3l-1.7.5.4-1.2 2.3-.7c.2-.1.3-.3.3-.5-.1-.2-.3-.3-.5-.3l-1.7.5.6-1.7c.1-.2 0-.4-.2-.5-.2-.1-.4 0-.5.2l-.6 1.6-.8-1.4c-.1-.2-.4-.3-.6-.2-.2.1-.3.4-.2.5l1.1 2-.5 1.2-.8-1.5c-.1-.2-.4-.3-.5-.2-.2.1-.3.4-.2.5l1.1 2.1-1.6 4.1-1.6-4.1 1.1-2.1c.1-.2 0-.4-.2-.5-.2-.1-.4 0-.5.2l-.6 1.7-.5-1.2 1.1-2c.1-.2 0-.4-.2-.5-.2-.1-.4 0-.5.2l-.8 1.4-.6-1.6c-.1-.2-.3-.3-.5-.2-.2.1-.3.3-.2.5l.6 1.7-1.8-.5c-.2-.1-.4.1-.5.3-.1.2.1.4.3.5l2.3.7.4 1.2-1.7-.5c-.2-.1-.4.1-.5.3-.1.2.1.4.3.5l2.3.6 1.6 4.3-4.3-1.6-.6-2.3c-.1-.2-.3-.3-.5-.3-.2.1-.3.3-.3.5l.5 1.7-1.2-.4-.7-2.3c-.1-.2-.3-.3-.5-.3-.2.1-.3.3-.3.5l.5 1.7-1.7-.6c-.2-.1-.4 0-.5.2-.1.2 0 .4.2.5l1.6.6-1.4.8c-.2.1-.3.4-.2.5.1.1.2.2.4.2.1 0 .1 0 .2-.1l2-1.1 1.2.5-1.5.8c-.2.1-.3.4-.2.5.1.1.2.2.4.2.1 0 .1 0 .2-.1l2.1-1.1 4.1 1.6-4.1 1.6-2.1-1.1c-.2-.1-.4 0-.5.2-.1.2 0 .4.2.5l1.5.8-1.2.5-2-1.1c-.2-.1-.4 0-.5.2-.1.2 0 .4.2.5l1.4.8-1.6.6c-.2.1-.3.3-.2.5.1.2.2.3.4.3h.1l1.7-.6-.5 1.7c-.1.2.1.4.3.5h.1c.2 0 .3-.1.4-.3l.7-2.3 1.2-.4-.5 1.7c-.1.2.1.4.3.5h.1c.2 0 .3-.1.4-.3l.6-2.3 4.3-1.6-1.6 4.3-2.3.6c-.2.1-.3.3-.3.5.1.2.3.3.5.3l1.7-.5-.4 1.2-2.3.6c-.2.1-.3.3-.3.5.1.2.3.3.5.3l1.8-.5-.6 1.7c-.1.2 0 .4.2.5.2.1.4 0 .5-.2l.6-1.6.8 1.4c.1.1.2.2.4.2.1 0 .1 0 .2-.1.2-.1.3-.4.2-.5l-1.1-2 .5-1.2.8 1.5c.1.1.2.2.4.2.1 0 .1 0 .2-.1.2-.1.3-.4.2-.5l-1.1-2.1 1.6-4.1 1.6 4.1-1.1 2.1c-.1.2 0 .4.2.5.1 0 .1.1.2.1s.3-.1.4-.2l.8-1.5.5 1.2-1.1 2c-.1.2 0 .4.2.5.1 0 .1.1.2.1s.3-.1.4-.2l.8-1.4.6 1.6c.1.2.2.3.4.3h.1c.2-.1.3-.3.2-.5l-.6-1.7 1.7.5c.2.1.4-.1.5-.3.1-.2-.1-.4-.3-.5l-2.3-.6-.4-1.2 1.7.5c.2.1.4-.1.5-.3.1-.2-.1-.4-.3-.5l-2.3-.6-1.6-4.3 4.3 1.6.6 2.3c0 .2.2.3.4.3h.1c.2-.1.3-.3.3-.5l-.5-1.7 1.2.4.7 2.3c0 .2.2.3.4.3h.1c.2-.1.3-.3.3-.5l-.5-1.7 1.7.6h.1c.2 0 .3-.1.4-.3-.8-.5-.9-.7-1.1-.8zM419.2 274.1l-2.5-.9 2.1-1.2c.3-.2.4-.5.2-.8-.2-.3-.5-.4-.8-.2l-3 1.7-1.8-.7 2.2-1.2c.3-.2.4-.5.2-.8-.2-.3-.5-.4-.8-.2l-3.1 1.7-6.1-2.3 6.1-2.3 3.1 1.7c.1.1.2.1.3.1.2 0 .4-.1.5-.3.2-.3.1-.7-.2-.8l-2.2-1.2 1.8-.7 3 1.7c.1.1.2.1.3.1.2 0 .4-.1.5-.3.2-.3.1-.7-.2-.8l-2.1-1.2 2.5-.9c.3-.1.5-.5.3-.8-.1-.3-.5-.5-.8-.4l-2.6 1 .7-2.6c.1-.3-.1-.7-.4-.7-.3-.1-.7.1-.7.4l-1 3.5-1.7.7.7-2.5c.1-.3-.1-.7-.4-.8-.3-.1-.7.1-.7.4l-1 3.4-6.4 2.5 2.5-6.4 3.4-1c.3-.1.5-.4.4-.7-.1-.3-.4-.5-.7-.4l-2.5.7.7-1.8 3.5-1c.3-.1.5-.4.4-.7-.1-.3-.4-.5-.7-.4l-2.6.7 1-2.6c.1-.3 0-.7-.4-.8-.3-.1-.7 0-.8.4l-.9 2.5-1.2-2.1c-.2-.3-.5-.4-.8-.2-.3.2-.4.5-.2.8l1.7 3-.7 1.8-1.2-2.2c-.2-.3-.5-.4-.8-.2-.3.2-.4.5-.2.8l1.7 3.1-2.3 6.1-2.3-6.1 1.7-3.1c.2-.3.1-.7-.2-.8-.3-.2-.7-.1-.8.2l-1.2 2.2-.7-1.8 1.7-3c.2-.3.1-.7-.2-.8-.3-.2-.7-.1-.8.2l-1.2 2.1-.9-2.5c-.1-.3-.5-.5-.8-.4-.3.1-.5.5-.4.8l1 2.6-2.6-.7c-.3-.1-.7.1-.7.4-.1.3.1.7.4.7l3.5 1 .7 1.8-2.5-.7c-.3-.1-.7.1-.7.4-.1.3.1.7.4.7l3.4 1 2.5 6.4-6.4-2.5-1-3.4c-.1-.3-.4-.5-.7-.4-.3.1-.5.4-.4.8l.7 2.5-1.8-.7-1-3.5c-.1-.3-.4-.5-.7-.4-.3.1-.5.4-.4.7l.7 2.6-2.6-1c-.3-.1-.7 0-.8.4-.1.3 0 .7.4.8l2.5.9-2.1 1.2c-.3.2-.4.5-.2.8.1.2.3.3.5.3.1 0 .2 0 .3-.1l3-1.7 1.8.7-2.2 1.2c-.3.2-.4.5-.2.8.1.2.3.3.5.3.1 0 .2 0 .3-.1l3.1-1.7 6.1 2.3-6.1 2.3-3.1-1.7c-.3-.2-.7-.1-.8.2-.2.3-.1.7.2.8l2.2 1.2-1.8.7-3-1.7c-.3-.2-.7-.1-.8.2-.2.3-.1.7.2.8l2.1 1.2-2.5.9c-.3.1-.5.5-.4.8.1.2.3.4.6.4h.2l2.6-1-.7 2.6c-.1.3.1.7.4.7h.2c.3 0 .5-.2.6-.4l1-3.5 1.8-.7-.7 2.5c-.1.3.1.7.4.7h.2c.3 0 .5-.2.6-.4l1-3.4 6.4-2.4-2.5 6.4-3.4 1c-.3.1-.5.4-.4.7.1.3.4.5.7.4l2.5-.7-.7 1.7-3.5 1c-.3.1-.5.4-.4.7.1.3.4.5.7.4l2.6-.7-1 2.6c-.1.3 0 .7.4.8.3.1.7 0 .8-.4l.9-2.5 1.2 2.1c.1.2.3.3.5.3.1 0 .2 0 .3-.1.3-.2.4-.5.2-.8l-1.7-3 .7-1.8 1.2 2.2c.1.2.3.3.5.3.1 0 .2 0 .3-.1.3-.2.4-.5.2-.8l-1.7-3.1 2.3-6.1 2.3 6.1-1.7 3.1c-.2.3-.1.7.2.8.1.1.2.1.3.1.2 0 .4-.1.5-.3l1.2-2.2.7 1.8-1.7 3c-.2.3-.1.7.2.8.1.1.2.1.3.1.2 0 .4-.1.5-.3l1.2-2.1.9 2.5c.1.2.3.4.6.4h.2c.3-.1.5-.5.4-.8l-1-2.6 2.6.7c.3.1.7-.1.7-.4.1-.3-.1-.7-.4-.7l-3.5-1-.7-1.7 2.5.7c.3.1.7-.1.7-.4.1-.3-.1-.7-.4-.7l-3.4-1-2.5-6.4 6.4 2.4 1 3.4c.1.3.3.4.6.4h.2c.3-.1.5-.4.4-.7l-.7-2.5 1.7.7 1 3.5c.1.3.3.4.6.4h.2c.3-.1.5-.4.4-.7l-.7-2.6 2.6 1h.2c.2 0 .5-.2.6-.4-.2-.3-.4-.7-.7-.8zM573.2 39.6l-1.4-.5 1.2-.7c.2-.1.2-.3.1-.5s-.3-.2-.5-.1l-1.7 1-1-.4 1.3-.7c.2-.1.2-.3.1-.5s-.3-.2-.5-.1l-1.8 1-3.5-1.3 3.5-1.3 1.8 1h.2c.1 0 .2-.1.3-.2.1-.2 0-.4-.1-.5l-1.3-.7 1-.4 1.7 1h.2c.1 0 .2-.1.3-.2.1-.2 0-.4-.1-.5l-1.2-.7 1.4-.5c.2-.1.3-.3.2-.4-.1-.2-.3-.3-.4-.2l-1.5.6.4-1.5c.1-.2-.1-.4-.2-.4-.2 0-.4.1-.4.2l-.6 2-1 .4.4-1.5c.1-.2-.1-.4-.2-.4-.2 0-.4.1-.4.2l-.5 2-3.7 1.4 1.4-3.7 2-.5c.2-.1.3-.2.2-.4-.1-.2-.2-.3-.4-.2l-1.5.4.4-1 2-.6c.2-.1.3-.2.2-.4-.1-.2-.2-.3-.4-.2l-1.5.4.6-1.5c.1-.2 0-.4-.2-.4-.2-.1-.4 0-.4.2l-.5 1.4-.7-1.2c-.1-.2-.3-.2-.5-.1s-.2.3-.1.5l1 1.7-.4 1-.7-1.3c-.1-.2-.3-.2-.5-.1s-.2.3-.1.5l1 1.8-1.3 3.5-1.3-3.5 1-1.8c.1-.2 0-.4-.1-.5s-.4 0-.5.1l-.7 1.3-.4-1 1-1.7c.1-.2 0-.4-.1-.5-.2-.1-.4 0-.5.1l-.7 1.2-.5-1.4c-.1-.2-.3-.3-.4-.2-.2.1-.3.3-.2.4l.6 1.5-1.5-.4c-.2-.1-.4.1-.4.2-.1.2.1.4.2.4l2 .6.4 1-1.5-.4c-.2-.1-.4.1-.4.2-.1.2.1.4.2.4l2 .5 1.4 3.7-3.7-1.4-.5-2c-.1-.2-.2-.3-.4-.2-.2.1-.3.2-.2.4l.4 1.5-1-.4-.6-2c-.1-.2-.2-.3-.4-.2-.2.1-.3.2-.2.4l.4 1.5-1.5-.6c-.2-.1-.4 0-.4.2-.1.2 0 .4.2.4l1.4.5-1.2.7c-.2.1-.2.3-.1.5.1.1.2.2.3.2h.2l1.7-1 1 .4-1.3.7c-.2.1-.2.3-.1.5.1.1.2.2.3.2h.2l1.8-1 3.5 1.3-3.5 1.3-1.8-1c-.2-.1-.4 0-.5.1-.1.2 0 .4.1.5l1.3.7-1 .4-1.7-1c-.2-.1-.4 0-.5.1-.1.2 0 .4.1.5l1.2.7-1.4.5c-.2.1-.3.3-.2.4.1.1.2.2.3.2h.1l1.5-.6-.4 1.5c-.1.2.1.4.2.4h.1c.2 0 .3-.1.3-.3l.6-2 1-.4-.4 1.5c-.1.2.1.4.2.4h.1c.2 0 .3-.1.3-.3l.5-2 3.7-1.4-1.4 3.7-2 .5c-.2 0-.3.2-.2.4.1.2.2.3.4.2l1.5-.4-.4 1-2 .6c-.2.1-.3.2-.2.4.1.2.2.3.4.2l1.5-.4L561 45c-.1.2 0 .4.2.4.2.1.4 0 .4-.2l.5-1.4.7 1.2c.1.1.2.2.3.2h.2c.2-.1.2-.3.1-.5l-1-1.7.4-1 .7 1.3c.1.1.2.2.3.2h.2c.2-.1.2-.3.1-.5l-1-1.8 1.3-3.5 1.3 3.5-1 1.8c-.1.2 0 .4.1.5h.2c.1 0 .2-.1.3-.2l.7-1.3.4 1-1 1.7c-.1.2 0 .4.1.5h.2c.1 0 .2-.1.3-.2l.7-1.2.5 1.4c.1.1.2.2.3.2h.1c.2-.1.3-.3.2-.4l-.6-1.5 1.5.4c.2.1.4-.1.4-.2.1-.2-.1-.4-.2-.4l-2-.6-.4-1 1.5.4c.2.1.4-.1.4-.2.1-.2-.1-.4-.2-.4l-2-.5-1.4-3.7 3.7 1.4.5 2c0 .2.2.3.3.3h.1c.2-.1.3-.2.2-.4l-.4-1.5 1 .4.6 2c0 .2.2.3.3.3h.1c.2 0 .3-.2.2-.4l-.4-1.5 1.5.6h.1c.1 0 .3-.1.3-.2.6-.4.5-.6.3-.7zM431.3 49l-1.5-.6 1.3-.7c.2-.1.2-.3.1-.5s-.3-.2-.5-.1l-1.8 1-1.1-.4 1.4-.8c.2-.1.2-.3.1-.5s-.3-.2-.5-.1l-1.9 1.1-3.7-1.4 3.7-1.4 1.9 1.1h.2c.1 0 .3-.1.3-.2.1-.2 0-.4-.1-.5l-1.4-.8 1.1-.4 1.8 1h.2c.1 0 .3-.1.3-.2.1-.2 0-.4-.1-.5l-1.3-.7 1.5-.6c.2-.1.3-.3.2-.5-.1-.2-.3-.3-.5-.2l-1.6.6.6-1.7c.1-.2-.1-.4-.3-.5-.2-.1-.4.1-.5.3l-.6 2.1-1.1.4.4-1.6c.1-.2-.1-.4-.3-.5-.2-.1-.4.1-.5.3l-.6 2.1-3.9 1.5 1.5-3.9 2.1-.6c.2-.1.3-.3.3-.5-.1-.2-.3-.3-.5-.3l-1.6.4.4-1.1 2.1-.6c.2-.1.3-.3.3-.5-.1-.2-.3-.3-.5-.3l-1.6.4.6-1.6c.1-.2 0-.4-.2-.5-.2-.1-.4 0-.5.2l-.6 1.5-.7-1.3c-.1-.2-.3-.2-.5-.1s-.2.3-.1.5l1 1.8-.4 1.1-.8-1.4c-.1-.2-.3-.2-.5-.1s-.2.3-.1.5l1.1 1.9-1.4 3.7-1.4-3.7 1.1-1.9c.1-.2 0-.4-.1-.5-.2-.1-.4 0-.5.1l-.8 1.4-.4-1.1 1-1.8c.1-.2 0-.4-.1-.5-.2-.1-.4 0-.5.1l-.7 1.3-.6-1.5c-.1-.2-.3-.3-.5-.2-.2.1-.3.3-.2.5l.6 1.6-1.6-.4c-.2-.1-.4.1-.5.3-.1.2.1.4.3.5l2.1.6.4 1.1-1.6-.4c-.2-.1-.4.1-.5.3-.1.2.1.4.3.5l2.1.6 1.5 3.9-3.9-1.5-.6-2.1c-.1-.2-.3-.3-.5-.3-.2.1-.3.3-.3.5l.4 1.6-1.1-.4-.6-2.1c-.1-.2-.3-.3-.5-.3-.2.1-.3.3-.3.5l.5 1.6-1.6-.6c-.2-.1-.4 0-.5.2-.1.2 0 .4.2.5l1.5.6-1.3.7c-.2.1-.2.3-.1.5.1.1.2.2.3.2h.2l1.8-1 1.1.4-1.4.8c-.2.1-.2.3-.1.5.1.1.2.2.3.2h.2l1.9-1.1 3.7 1.4-3.7 1.4-1.9-1.1c-.2-.1-.4 0-.5.1-.1.2 0 .4.1.5l1.4.8-1.1.4-1.8-1c-.2-.1-.4 0-.5.1-.1.2 0 .4.1.5l1.3.7-1.5.6c-.2.1-.3.3-.2.5.1.1.2.2.3.2h.1l1.6-.6-.5 1.6c-.1.2.1.4.3.5h.1c.2 0 .3-.1.4-.3l.6-2.1 1.1-.4-.4 1.6c-.1.2.1.4.3.5h.1c.2 0 .3-.1.4-.3l.6-2.1 3.9-1.5-1.5 3.9-2.1.6c-.2.1-.3.3-.3.5.1.2.3.3.5.3l1.6-.4-.4 1.1-2.1.6c-.2.1-.3.3-.3.5.1.2.3.3.5.3l1.6-.5-.6 1.6c-.1.2 0 .4.2.5.2.1.4 0 .5-.2l.6-1.5.7 1.3c.1.1.2.2.3.2h.2c.2-.1.2-.3.1-.5l-1-1.8.4-1.1.8 1.3c.1.1.2.2.3.2h.2c.2-.1.2-.3.1-.5l-1.1-1.9 1.4-3.7 1.4 3.7-1.1 1.9c-.1.2 0 .4.1.5h.2c.1 0 .3-.1.3-.2l.8-1.3.4 1.1-1 1.8c-.1.2 0 .4.1.5h.2c.1 0 .3-.1.3-.2l.7-1.3.6 1.5c.1.1.2.2.3.2h.1c.2-.1.3-.3.2-.5l-.6-1.6 1.6.5c.2.1.4-.1.5-.3.1-.2-.1-.4-.3-.5l-2.1-.6-.4-1.1 1.6.4c.2.1.4-.1.5-.3.1-.2-.1-.4-.3-.5l-2.1-.6-1.5-3.9 3.9 1.5.6 2.1c0 .2.2.3.4.3h.1c.2-.1.3-.3.3-.5l-.4-1.6 1.1.4.6 2.1c0 .2.2.3.4.3h.1c.2-.1.3-.3.3-.5l-.5-1.6 1.6.6h.1c.2 0 .3-.1.3-.2.3-.2.2-.4 0-.4zM39.9 161.2l-1.3-.5 1.2-.6c.2-.1.2-.3.1-.4-.1-.2-.3-.2-.5-.1l-1.6.9-1-.4 1.2-.7c.2-.1.2-.3.1-.5s-.3-.2-.5-.1l-1.7.9-3.3-1.3 3.3-1.3 1.7.9h.2c.1 0 .2-.1.3-.2.1-.2 0-.4-.1-.4l-1.2-.7 1-.4 1.6.9h.2c.1 0 .2-.1.3-.2.1-.2 0-.4-.1-.4l-1.2-.6 1.3-.5c.2-.1.3-.3.2-.4-.1-.2-.3-.3-.4-.2l-1.4.5.4-1.4c0-.2-.1-.4-.2-.4-.2 0-.4.1-.4.2l-.5 1.9-1 .4.4-1.4c0-.2-.1-.4-.2-.4-.2 0-.4.1-.4.2l-.5 1.9-3.5 1.3 1.3-3.5 1.9-.5c.2 0 .3-.2.2-.4 0-.2-.2-.3-.4-.2l-1.4.4.4-1 1.9-.5c.2 0 .3-.2.2-.4 0-.2-.2-.3-.4-.2l-1.4.4.5-1.4c.1-.2 0-.4-.2-.4-.2-.1-.4 0-.4.2l-.5 1.3-.6-1.2c-.1-.2-.3-.2-.5-.1s-.2.3-.1.4l.9 1.6-.4 1-.7-1.2c-.1-.2-.3-.2-.5-.1s-.2.3-.1.4l.9 1.7-1.3 3.3-1.3-3.3.9-1.7c.1-.2 0-.4-.1-.4-.2-.1-.4 0-.5.1l-.7 1.2-.4-1 .9-1.6c.1-.2 0-.4-.1-.4-.2-.1-.4 0-.5.1l-.6 1.2-.5-1.3c-.1-.2-.3-.3-.4-.2-.2.1-.3.3-.2.4l.5 1.4-1.4-.4c-.2 0-.4.1-.4.2 0 .2.1.4.2.4l1.9.5.4 1-1.4-.4c-.2 0-.4.1-.4.2 0 .2.1.4.2.4l1.9.5 1.3 3.5-3.5-1.3-.5-1.9c0-.2-.2-.3-.4-.2-.2 0-.3.2-.2.4l.4 1.4-1-.4-.5-1.9c0-.2-.2-.3-.4-.2-.2 0-.3.2-.2.4l.4 1.4-1.4-.5c-.2-.1-.4 0-.4.2-.1.2 0 .4.2.4l1.3.5-1.2.6c-.2.1-.2.3-.1.4.1.1.2.2.3.2h.2l1.6-.9 1 .4-1.2.7c-.2.1-.2.3-.1.4.1.1.2.2.3.2h.2l1.7-.9 3.3 1.3-3.3 1.3-1.7-.9c-.2-.1-.4 0-.5.1-.1.2 0 .4.1.5l1.2.7-1 .4-1.6-.9c-.2-.1-.4 0-.5.1-.1.2 0 .4.1.4l1.2.6-1.3.5c-.2.1-.3.3-.2.4 0 .1.2.2.3.2h.1l1.4-.5-.4 1.4c0 .2.1.4.2.4h.1c.1 0 .3-.1.3-.2l.5-1.9 1-.4-.4 1.4c0 .2.1.4.2.4h.1c.1 0 .3-.1.3-.2l.5-1.9L31 159l-1.3 3.5-1.9.5c-.2 0-.3.2-.2.4 0 .2.2.3.4.2l1.4-.4-.4 1-1.9.5c-.2.1-.3.2-.2.4 0 .2.2.3.4.2l1.4-.4-.5 1.4c-.1.2 0 .4.2.4.2.1.4 0 .4-.2l.5-1.3.6 1.2c.1.1.2.2.3.2h.2c.2-.1.2-.3.1-.5l-.9-1.6.4-1 .7 1.2c.1.1.2.2.3.2h.2c.2-.1.2-.3.1-.5l-.9-1.7 1.3-3.3 1.3 3.3-.9 1.7c-.1.2 0 .4.1.5h.2c.1 0 .2-.1.3-.2l.7-1.2.4 1-.9 1.6c-.1.2 0 .4.1.5h.2c.1 0 .2-.1.3-.2l.6-1.2.5 1.3c.1.1.2.2.3.2h.1c.2-.1.3-.3.2-.4l-.5-1.4 1.4.4c.2.1.4-.1.4-.2 0-.2-.1-.4-.2-.4l-1.9-.5-.4-1 1.4.4c.2.1.4-.1.4-.2 0-.2-.1-.4-.2-.4l-1.9-.5-1.3-3.5 3.5 1.3.5 1.9c0 .1.2.2.3.2h.1c.2-.1.3-.2.2-.4l-.4-1.4 1 .4.5 1.9c0 .1.2.2.3.2h.1c.2 0 .3-.2.2-.4l-.4-1.4 1.4.5h.1c.1 0 .3-.1.3-.2.1-.2 0-.4-.2-.4zM476.4 141.5l-3-1.1 2.6-1.4c.3-.2.5-.6.3-1s-.6-.5-1-.3l-3.6 2-2.1-.8 2.6-1.5c.3-.2.5-.6.3-1-.2-.3-.6-.5-1-.3l-3.7 2.1-7.3-2.8 7.3-2.8 3.7 2.1c.1.1.2.1.4.1.3 0 .5-.1.6-.4.2-.4.1-.8-.3-1l-2.6-1.5 2.1-.8 3.6 2c.1.1.2.1.4.1.3 0 .5-.1.6-.4.2-.4.1-.8-.3-1l-2.6-1.4 3-1.1c.4-.1.6-.6.4-.9-.1-.4-.6-.6-.9-.4l-3.1 1.2.9-3.2c.1-.4-.1-.8-.5-.9-.4-.1-.8.1-.9.5l-1.2 4.2-2.1.8.9-3.1c.1-.4-.1-.8-.5-.9-.4-.1-.8.1-.9.5l-1.1 4.1-7.7 2.9 2.9-7.7 4.1-1.1c.4-.1.6-.5.5-.9-.1-.4-.5-.6-.9-.5l-3.1.9.8-2.1 4.2-1.2c.4-.1.6-.5.5-.9-.1-.4-.5-.6-.9-.5l-3.2.9 1.2-3.1c.1-.4 0-.8-.4-.9-.4-.1-.8 0-.9.4l-1.1 3-1.4-2.6c-.2-.3-.6-.5-1-.3-.3.2-.5.6-.3 1l2 3.6-.8 2.1-1.5-2.6c-.2-.4-.6-.5-1-.3-.3.2-.5.6-.3 1l2.1 3.7-2.8 7.3-2.8-7.3 2.1-3.7c.2-.4.1-.8-.3-1-.4-.2-.8-.1-1 .3l-1.5 2.6-.8-2.1 2-3.6c.2-.3.1-.8-.3-1-.3-.2-.8-.1-1 .3l-1.4 2.6-1.1-3c-.1-.4-.6-.6-.9-.4-.4.1-.6.6-.4.9l1.2 3.1-3.2-1c-.4-.1-.8.1-.9.5-.1.4.1.8.5.9l4.2 1.2.8 2.1-3.1-.9c-.4-.1-.8.1-.9.5-.1.4.1.8.5.9l4.1 1.1 2.9 7.7-7.7-2.9-1.1-4.1c-.1-.4-.5-.6-.9-.5-.4.1-.6.5-.5.9l.9 3.1-2.1-.8-1.2-4.2c-.1-.4-.5-.6-.9-.5-.4.1-.6.5-.5.9l.9 3.2-3.1-1.2c-.4-.1-.8 0-.9.4-.1.4 0 .8.4.9l3 1.1-2.6 1.4c-.3.2-.5.6-.3 1 .1.2.4.4.6.4.1 0 .2 0 .4-.1l3.6-2 2.1.8-2.6 1.5c-.3.2-.5.6-.3 1 .1.2.4.4.6.4.1 0 .2 0 .4-.1l3.7-2.1 7.3 2.8-7.3 2.8-3.7-2.1c-.4-.2-.8-.1-1 .3-.2.3-.1.8.3 1l2.6 1.5-2.1.8-3.6-2c-.3-.2-.8-.1-1 .3-.2.3-.1.8.3 1l2.6 1.4-3 1.1c-.4.1-.6.6-.4.9.1.3.4.5.7.5h.3l3.1-1.2-.9 3.2c-.1.4.1.8.5.9h.2c.3 0 .6-.2.7-.5l1.2-4.2 2.1-.8-.9 3.1c-.1.4.1.8.5.9h.2c.3 0 .6-.2.7-.5l1.1-4.1 7.7-2.9-2.9 7.7-4.1 1.1c-.4.1-.6.5-.5.9.1.4.5.6.9.5l3.1-.9-.8 2.1-4.2 1.2c-.4.1-.6.5-.5.9.1.4.5.6.9.5l3.2-.9-1.2 3.1c-.1.4 0 .8.4.9.4.1.8 0 .9-.4l1.1-3 1.4 2.6c.1.2.4.4.6.4.1 0 .2 0 .4-.1.3-.2.5-.6.3-1l-2-3.6.8-2.1 1.5 2.6c.1.2.4.4.6.4.1 0 .2 0 .4-.1.3-.2.5-.6.3-1l-2.1-3.7 2.8-7.3 2.8 7.3-2.1 3.7c-.2.4-.1.8.3 1 .1.1.2.1.4.1.3 0 .5-.1.6-.4l1.5-2.6.8 2.1-2 3.6c-.2.4-.1.8.3 1 .1.1.2.1.4.1.3 0 .5-.1.6-.4l1.4-2.6 1.1 3c.1.3.4.5.7.5h.3c.4-.1.6-.6.4-.9l-1.2-3.1 3.2.9c.4.1.8-.1.9-.5.1-.4-.1-.8-.5-.9l-4.2-1.2-.8-2.1 3.1.9c.4.1.8-.1.9-.5.1-.4-.1-.8-.5-.9l-4.1-1.1-2.9-7.7 7.7 2.9 1.1 4.1c.1.3.4.5.7.5h.2c.4-.1.6-.5.5-.9l-.9-3.1 2.1.8 1.2 4.2c.1.3.4.5.7.5h.2c.4-.1.6-.5.5-.9l-.9-3.2 3.1 1.2h.3c.3 0 .6-.2.7-.5-.1-.4-.3-.8-.7-.9zM511.4 339.8l-2.7-1 2.3-1.3c.3-.2.4-.6.3-.9-.2-.3-.6-.4-.9-.3l-3.3 1.8-1.9-.7 2.4-1.3c.3-.2.4-.6.3-.9-.2-.3-.6-.4-.9-.3l-3.4 1.9-6.7-2.5 6.7-2.5 3.4 1.9c.1.1.2.1.3.1.2 0 .5-.1.6-.3.2-.3.1-.7-.3-.9l-2.4-1.3 1.9-.7 3.3 1.8c.1.1.2.1.3.1.2 0 .5-.1.6-.3.2-.3.1-.7-.3-.9l-2.3-1.3 2.7-1c.3-.1.5-.5.4-.9-.1-.3-.5-.5-.8-.4l-2.8 1.1.8-2.9c.1-.3-.1-.7-.5-.8-.4-.1-.7.1-.8.5l-1.1 3.8-1.9.7.8-2.8c.1-.4-.1-.7-.5-.8-.4-.1-.7.1-.8.5l-1 3.7-7 2.7 2.7-7 3.7-1c.3-.1.6-.5.5-.8-.1-.3-.5-.6-.8-.5l-2.8.8.7-1.9 3.8-1.1c.4-.1.6-.5.5-.8-.1-.4-.5-.6-.8-.5l-2.9.8 1.1-2.8c.1-.3 0-.7-.4-.8-.3-.1-.7 0-.8.4l-1 2.7-1.3-2.3c-.2-.3-.6-.4-.9-.3-.3.2-.4.6-.3.9l1.8 3.3-.7 1.9-1.3-2.4c-.2-.3-.6-.4-.9-.3-.3.2-.4.6-.3.9l1.9 3.4-2.5 6.7-2.5-6.7 1.9-3.4c.2-.3.1-.7-.3-.9-.3-.2-.7-.1-.9.3l-1.3 2.4-.7-1.9 1.8-3.3c.2-.3.1-.7-.3-.9-.3-.2-.7-.1-.9.3l-1.3 2.3-1-2.7c-.1-.3-.5-.5-.9-.4-.3.1-.5.5-.4.8l1.1 2.8-2.9-.8c-.4-.1-.7.1-.8.5-.1.3.1.7.5.8l3.8 1.1.7 1.9-2.8-.8c-.4-.1-.7.1-.8.5-.1.4.1.7.5.8l3.7 1 2.7 7-7-2.7-1-3.7c-.1-.4-.5-.6-.8-.5-.4.1-.6.5-.5.8l.8 2.8-1.9-.7-1.1-3.8c-.1-.3-.5-.6-.8-.5-.3.1-.6.5-.5.8l.8 2.9-2.8-1.1c-.3-.1-.7 0-.8.4-.1.3 0 .7.4.9l2.7 1-2.3 1.3c-.3.2-.4.6-.3.9.1.2.3.3.6.3.1 0 .2 0 .3-.1l3.3-1.8 1.9.7-2.4 1.3c-.3.2-.4.6-.3.9.1.2.3.3.6.3.1 0 .2 0 .3-.1l3.4-1.9 6.7 2.5-6.7 2.5-3.4-1.9c-.3-.2-.7-.1-.9.3-.2.3-.1.7.3.9l2.4 1.3-1.9.7-3.3-1.8c-.3-.2-.7-.1-.9.3-.2.3-.1.7.3.9l2.3 1.3-2.7 1c-.3.1-.5.5-.4.9.1.3.3.4.6.4h.2l2.8-1.1-.8 2.9c-.1.4.1.7.5.8h.2c.3 0 .6-.2.6-.5l1.1-3.8 1.9-.7-.8 2.8c-.1.4.1.7.5.8h.2c.3 0 .6-.2.6-.5l1-3.7 7-2.7-2.7 7-3.7 1c-.4.1-.6.5-.5.8.1.3.5.6.8.5l2.8-.8-.7 1.9-3.8 1.1c-.4.1-.6.5-.5.8.1.3.5.6.8.5l2.9-.8-1.1 2.8c-.1.3 0 .7.4.9.3.1.7 0 .9-.4l1-2.7 1.3 2.3c.1.2.3.3.6.3.1 0 .2 0 .3-.1.3-.2.4-.6.3-.9l-1.8-3.3.7-1.9 1.3 2.4c.1.2.3.3.6.3.1 0 .2 0 .3-.1.3-.2.4-.6.3-.9l-1.9-3.4 2.5-6.7 2.5 6.7-1.9 3.4c-.2.3-.1.7.3.9.1.1.2.1.3.1.2 0 .5-.1.6-.3l1.3-2.4.7 1.9-1.8 3.3c-.2.3-.1.7.3.9.1.1.2.1.3.1.2 0 .5-.1.6-.3l1.3-2.3 1 2.7c.1.3.4.4.6.4h.2c.3-.1.5-.5.4-.9l-1.1-2.8 2.9.8c.4.1.7-.1.8-.5.1-.3-.1-.7-.5-.8l-3.8-1.1-.7-1.9 2.8.8c.4.1.7-.1.8-.5.1-.3-.1-.7-.5-.8l-3.7-1-2.7-7 7 2.7 1 3.7c.1.3.3.5.6.5h.2c.4-.1.6-.5.5-.8l-.8-2.8 1.9.7 1.1 3.8c.1.3.3.5.6.5h.2c.3-.1.6-.5.5-.8l-.8-2.9 2.8 1.1h.2c.3 0 .5-.2.6-.4.1-.3 0-.7-.4-.9z"/>
  </g>
</svg>
