<svg version="1.1" id="Layer_1" xmlns="http://www.w3.org/2000/svg" x="0" y="0" viewBox="0 0 80 40" xml:space="preserve">
  <style>
    .st0{fill:#ac8039}
  </style>
  <path class="st0" d="M26.5 20.7c2.6 1.9 4.7 4.2 6.7 6.7 1.7 2.1 3 4.5 3.8 7.1.3 1.1.5 2.3.5 3.4-.1 2-1.4 2.7-3.1 1.6-.9-.6-1.7-1.3-2.3-2.1-1.1-1.5-2.1-3-2.9-4.7-1.4-2.9-2.7-5.9-4-8.9-.6-1.4-1.3-2.8-2.4-4-2-.2-4-.3-6.2 0 .6.6 1.1 1 1.6 1.5 2.1 2.1 3.7 4.6 4.5 7.5.3 1.2.2 2.4.2 3.7 0 .8-.5 1.5-1.5 1.6-.9-.2-1.4-.7-1.8-1.4-.5-.9-1.1-1.8-1.5-2.8-.8-2-1.5-4-2.4-6-.6-1.4-1.3-2.7-1.9-4.1-4.7-.3-9.2.4-13.8 0 .1-.4.3-.7.6-.8.4-.2.8-.2 1.2-.2l8.4-.3c1.2 0 2.4-.1 3.6-.1.4-.6.7-1.2 1-1.8 1.2-2.4 2.3-4.9 3.5-7.3.7-1.3 1.6-2.6 2.5-3.8.8-1 1.9-1.5 3.1-1.6 1-.1 1.7.5 1.8 1.5 0 .8 0 1.6-.3 2.3-.6 1.4-1.3 2.8-2.2 3.9-1.7 2-3.5 3.8-5.3 5.7-.3.3-.6.6-.9 1 2.3.2 4.3.3 6.4.4.5-1 .9-1.9 1.3-2.7 1.3-2.7 2.4-5.6 3.8-8.2.9-1.8 2.1-3.4 3.4-5 .9-1.2 2.1-2 3.6-2.5 1.8-.6 2.9.2 3 2.1.1 1.3-.2 2.6-.7 3.9-.8 2-2 3.7-3.4 5.3-2 2.4-4.5 4.3-7.1 6.1-.4.3-.9.6-1.3 1 0 .1 0 .2.1.3 3.5.3 7 .6 10.5 1 .5-.8 1-1.4 1.4-2.1.7-1.3 1.3-2.6 2-3.9 1.1-2 2.2-4 3.5-5.9 1.4-2.1 3.3-3.9 5.6-5.2.6-.3 1.2-.6 1.8-.7 1.2-.3 2.1.3 2.1 1.6 0 .6-.1 1.2-.3 1.8-.7 2.5-2.1 4.6-3.7 6.5-2.4 2.9-5.4 5.2-8.7 7.1-.4.2-.8.5-1.2.8 0 .1.1.2.1.3 3.1.3 6.2.7 9.3 1 1.1-1.3 2.2-2.6 3.1-3.8 1.8-2.4 3.6-4.8 5.4-7.1.7-.9 1.6-1.8 2.5-2.6.5-.5 1.2-.8 1.9-1 1.7-.5 3.1.6 3 2.4 0 .5-.1 1.1-.4 1.6-.8 1.4-1.6 2.8-2.6 4-2.1 2.5-4.8 4.4-7.7 5.9-.5.3-1 .6-1.7 1 .5.2.8.3 1.1.4 1.5.2 3.1.5 4.6.6.6 0 1.4-.2 1.9-.5.7-.4 1.4-.9 2.1-1.4 2.8-2 5.9-3.6 9.2-4.5 1.3-.4 2.6-.6 3.9-.3.7.2 1.4.5 1.7 1.3.2.9-.2 1.6-.8 2-1.3.9-2.7 1.7-4.1 2.6-.3.2-.7.3-1.3.7 1.7.2 3 .3 4.4.5 1.6.2 3.2.7 4.6 1.7.6.5 1 1.1.8 1.9-.2.9-1 1.1-1.7 1.2-1.2.1-2.4.1-3.5-.1-1.7-.2-3.3-.6-5-.9.3.5.7.8 1.1 1 1.6 1.1 2.8 2.5 3.6 4.3.3.7.6 1.5.7 2.3.2 1.2-.5 1.9-1.7 1.6-.7-.1-1.4-.4-2-.9-.9-.7-1.8-1.5-2.6-2.2-3.3-3-6.6-6-9.9-8.9-.3-.3-.8-.6-1.2-.6-1.7-.3-3.4-.5-5-.7h-.7c2 1.5 4 2.9 5.9 4.5 1.7 1.4 3.1 3.2 4 5.2.7 1.4.9 2.8.5 4.3-.4 1.2-1.3 1.7-2.5 1.3-.7-.3-1.4-.6-1.9-1.1-.8-.8-1.6-1.6-2.2-2.6-1.3-2-2.5-4.1-3.8-6.2-1-1.7-2.1-3.3-3.2-5-.5-.7-1.2-1.1-2.1-1.1-2.1-.2-4.1-.4-6.2-.6h-1.4c.5.5.9.8 1.2 1.1 2.9 2.6 5.6 5.3 7.5 8.7.7 1.3 1.4 2.7 1.8 4.1.3 1 .3 2.1.2 3.1-.1 1.1-.8 1.6-1.9 1.4-.5-.1-1-.2-1.4-.5-.9-.8-1.8-1.6-2.5-2.5-1.6-2-2.7-4.3-3.7-6.6s-2-4.5-3.1-6.8c-.4-.9-1-1.6-1.4-2.4-3.3-.2-6.4-.4-9.9-.7.2.1.3.2.4.3zm8.6-19.2c-1 .7-2 1.4-2.7 2.3-1.1 1.4-2.1 3-2.9 4.6-1.3 2.5-2.4 5-3.6 7.6-.1.3-.2.6-.3 1 .3-.1.4 0 .5-.1 3-2.1 6-4.4 8.3-7.4 1.1-1.5 2.2-3 2.7-4.8.3-1.2.6-2.4-.2-3.7-.7.1-1.4.2-1.8.5zm-8.5 22.8c1.2 2.7 2.4 5.5 3.6 8.2.9 2 2 3.8 3.6 5.3.6.6 1.2 1.1 2.3 1.2.2-.5.5-.9.4-1.4-.1-.9-.1-2-.5-2.8-.8-1.8-1.6-3.7-2.7-5.4-1.9-2.9-4.3-5.3-6.9-7.6-.3-.3-.6-.4-1-.7-.1 0-.1.1-.2.1.5 1.2.9 2.1 1.4 3.1zM49.4 3.6c-1.7 1-3.1 2.4-4.4 3.9-2.5 3.1-4 6.6-5.7 10.1 0 .1 0 .2.1.4.9-.6 1.9-1.2 2.8-1.8 3-2 5.7-4.5 7.7-7.6.7-1.1 1.3-2.4 1.8-3.7.4-.8.3-1.2-.2-2.3-.8.4-1.5.6-2.1 1zm-.5 32.6c-.2-1.1-.6-2.1-1.1-3.1-2.3-4.4-5.6-7.9-9.3-11-.1-.1-.2-.1-.5-.2.1.4.2.6.3.8 1 2.3 2 4.5 3 6.8 1.1 2.5 2.3 5 4 7.2.8 1 1.7 1.9 3.1 2.1.8-.9.7-1.8.5-2.6zm9.8-20.8c1.7-1.2 3-2.8 4-4.7.3-.6.6-1.3.6-1.9.1-1-.8-1.7-1.7-1.2-.9.5-1.8 1.1-2.5 1.9-1.7 2-3.3 4.1-4.9 6.1-1.3 1.7-2.7 3.3-4.1 5-.1.1-.2.3-.3.4l.3.3c2.9-1.9 5.8-3.8 8.6-5.9zm3 19c-.1-.6-.3-1.2-.6-1.7-2.3-4.2-6-6.8-9.9-9.2-.1.2-.2.3-.2.4 1.7 3 3.4 6.1 5.2 9C57 34 57.9 35 58.8 36c.6.6 1.3 1.1 2.3.9.8-.7.7-1.6.6-2.5zm9.2-1c.5.5 1.1.9 1.8 1.3.4.3 1 .3 1.4.4.6-.7.4-1.4.2-2-.7-2-2-3.6-3.7-4.8-2.3-1.6-4.8-2.8-7.4-3.8l-2.4-.9c0 .1-.1.2-.1.3 3.7 2.8 6.8 6.3 10.2 9.5zm2.9-16.9c-.6 0-1.3.1-1.9.3-4 1.1-7.6 3.2-10.9 5.6 4.3-.5 8.8-.5 12.6-3.1 1.3-.8 1.5-1 2-2-.4-.7-1.1-.8-1.8-.8zM22.3 5.8c-.7.7-1.5 1.4-1.9 2.3-1.5 2.8-2.8 5.6-4.4 8.7.4-.2.6-.2.7-.3 2.2-2 4.4-4 6.1-6.5.7-1 1.2-2.1 1.6-3.2.2-.5.1-1.1.1-1.7-1-.3-1.7.1-2.2.7zm54.5 20.9c.8.1 1.6 0 2.4-.5 0-.9-.7-1.3-1.3-1.6-1.3-.5-2.7-.9-4.1-1.1-2.8-.5-5.5-.3-8.3 0-.1 0-.2.1-.7.3 4.1 1.2 7.9 2.6 12 2.9zM22 30.5c-.3-2.4-1.4-4.4-2.9-6.3-.9-1.2-2-2.3-3.2-3.6.1 3 4 11.7 5.5 12.6.8-.9.7-1.8.6-2.7z"/>
  <path class="st0" d="M38.2 21.2c-.6 0-.9-.1-1.3-.1v.3c.5.8 1 1.6 1.5 2.3 1.7 2.5 3.3 4.9 5.2 7.7-.8-1.6-1.4-2.9-2-4.3.1-.1.2-.1.3-.2 1.4 2.1 2.9 4.1 4.3 6.2-2.1-4.4-4.9-8.3-8-11.9zM34.2 4.7c-1.8 2.6-3.3 5-5.1 7.3-1.7 2.3-3.6 4.4-5.3 6.7 2.5-1.1 6.7-5.3 7.8-7.8-.6.6-1.2 1.3-1.8 1.9 1.4-2.7 3.3-5 4.4-8.1zM58.3 11.5c-3.1 4-6.4 7.8-10.7 10.6.1.1.1.2.2.3.6-.2 1.4-.3 1.9-.7 3-2.1 5.8-4.4 8.3-7.2.2-.3.4-.6.5-1L56.7 15c-.1 0-.1-.1-.2-.1.7-1.1 1.4-2.1 2.1-3.2-.1-.1-.2-.1-.3-.2zM43.4 13.1c1.1-1.7 2.2-3.4 3.2-5.2-.1 0-.1-.1-.2-.1-3 3.7-5.9 7.4-9.1 11.3 2.4-.7 8.7-7.1 9.7-9.5-1.2 1.3-2.3 2.5-3.4 3.7 0-.1-.1-.2-.2-.2zM50 23.2c2.1 3 4.3 5.9 6.4 8.9.1 0 .1-.1.2-.1l-2.4-3.9c.1-.1.2-.1.3-.2 1.9 2.1 3.8 4.2 5.2 6.7 0-2.2-6.3-9.6-9.7-11.4zM24.2 20.7c2.2 3.2 4.3 6.1 6.4 9.1-.3-.7-.6-1.4-.9-2l.2-.2c.4.5.9 1 1.3 1.6.4.6.8 1.1 1.1 1.7.4.6.7 1.3 1.2 2-.5-3-6-10.3-9.3-12.2zM20.2 29.5c-.5-1.1-.9-2.2-1.4-3.4.3 0 .5.1.8.1-1.3-2.2-2.6-4.3-4.6-5.9.2 1.1.9 2 1.5 3s1.2 2.1 1.7 3.1c.6 1 1.1 2.1 1.7 3.1h.3zM62.9 23.8c4.4.5 8.7 1.1 13.4 1.7-2.1-1.1-12-2.4-13.4-1.7zM59.3 23c4.2-.5 7.9-2.3 11.5-4.4-3.8 1.4-7.7 2.7-11.5 4.1v.3zM60.9 23.6c3.1 2.4 6.7 4.1 9.5 7.1-1.2-2.2-6.4-6.1-9.5-7.1zM15.7 17.3c2.2-2.2 4.1-4.7 5.8-7.3l-.2-.2c-1.9 2.4-3.9 4.8-5.8 7.2.1.1.1.2.2.3z"/>
</svg>
