<svg version="1.1" id="Layer_1" xmlns="http://www.w3.org/2000/svg" x="0" y="0" viewBox="0 0 80 40" xml:space="preserve">
  <style>
    .st0{fill:#ac8039}
  </style>
  <path class="st0" d="M54.1 20.1c-3.5.2-6.6.5-9.9.7-.5.8-1 1.5-1.4 2.4-1.1 2.2-2.1 4.5-3.1 6.8s-2.1 4.6-3.7 6.6c-.7.9-1.6 1.7-2.5 2.5-.4.3-.9.5-1.4.5-1.1.2-1.8-.3-1.9-1.4-.1-1-.1-2.1.2-3.1.4-1.4 1.1-2.8 1.8-4.1 1.9-3.4 4.6-6.2 7.5-8.7.3-.3.7-.6 1.2-1.1h-1.4c-2.1.2-4.1.5-6.2.6-.9.1-1.6.4-2.1 1.1-1.1 1.7-2.2 3.3-3.2 5-1.3 2.1-2.5 4.2-3.8 6.2-.6.9-1.4 1.8-2.2 2.6-.5.5-1.2.8-1.9 1.1-1.2.4-2.1-.1-2.5-1.3-.5-1.5-.2-2.9.5-4.3 1-2 2.3-3.8 4-5.2 1.9-1.6 3.9-3 5.9-4.5-.2 0-.4-.1-.7 0-1.7.2-3.4.4-5 .7-.4.1-.8.3-1.2.6-3.3 3-6.6 6-9.9 8.9-.9.8-1.7 1.6-2.6 2.2-.6.4-1.3.7-2 .9-1.2.2-1.9-.4-1.7-1.6.1-.8.4-1.6.7-2.3.8-1.7 2.1-3.1 3.6-4.3.4-.3.8-.6 1.1-1-1.7.3-3.3.7-5 .9-1.2.2-2.4.1-3.5.1-.8-.2-1.5-.4-1.8-1.3-.2-.8.3-1.4.8-1.9 1.3-1.1 2.9-1.5 4.6-1.7 1.3-.2 2.7-.3 4.4-.5-.6-.3-1-.5-1.3-.7-1.4-.8-2.7-1.7-4.1-2.6-.7-.5-1.1-1.2-.8-2 .2-.8.9-1.1 1.7-1.3 1.3-.4 2.7-.1 3.9.3 3.3 1 6.4 2.6 9.2 4.5.7.5 1.3 1 2.1 1.4.6.3 1.3.5 1.9.5 1.5-.1 3.1-.4 4.6-.6.3 0 .6-.2 1.1-.4-.7-.4-1.2-.7-1.7-1-2.9-1.5-5.6-3.4-7.7-5.9-1-1.2-1.8-2.6-2.6-4-.3-.4-.4-1-.4-1.6-.1-1.7 1.4-2.9 3-2.4.7.2 1.4.6 1.9 1 .9.8 1.7 1.6 2.5 2.6 1.9 2.3 3.6 4.7 5.4 7.1 1 1.3 2 2.5 3.1 3.8 3.1-.3 6.2-.7 9.3-1 0-.1.1-.2.1-.3-.4-.3-.8-.5-1.2-.8-3.2-2-6.2-4.2-8.7-7.1-1.6-2-3.1-4-3.7-6.5-.1-.6-.3-1.2-.3-1.8 0-1.3.8-1.9 2.1-1.6.6.2 1.2.4 1.8.7 2.3 1.2 4.2 3 5.6 5.2 1.3 1.9 2.4 3.9 3.5 5.9.7 1.3 1.3 2.6 2 3.9.4.7.9 1.4 1.4 2.1 3.5-.3 7-.6 10.5-1 0-.1 0-.2.1-.3-.4-.3-.8-.7-1.3-1-2.6-1.8-5-3.7-7.1-6.1-1.4-1.6-2.6-3.3-3.4-5.3-.5-1.3-.8-2.6-.7-3.9.1-1.9 1.2-2.6 3-2.1 1.4.5 2.7 1.3 3.6 2.5 1.2 1.6 2.4 3.2 3.4 5 1.4 2.7 2.6 5.5 3.8 8.2.4.9.8 1.7 1.3 2.7 2.1-.1 4.2-.3 6.4-.4-.3-.3-.7-.6-.9-1-1.8-1.9-3.7-3.7-5.3-5.7-.9-1.1-1.6-2.6-2.2-3.9-.3-.7-.3-1.5-.3-2.3 0-1 .8-1.6 1.8-1.5 1.2.1 2.3.6 3.1 1.6.9 1.2 1.8 2.4 2.5 3.8 1.2 2.4 2.3 4.9 3.5 7.3.3.6.7 1.2 1 1.8 1.3 0 2.4.1 3.6.1l8.4.3c.4 0 .8.1 1.2.2.3.1.4.4.6.8-4.6.4-9.1-.3-13.8 0-.6 1.3-1.3 2.7-1.9 4.1-.8 2-1.5 4-2.4 6-.4 1-.9 1.9-1.5 2.8-.4.7-.9 1.3-1.8 1.4-.9-.1-1.4-.7-1.5-1.6-.1-1.2-.1-2.5.2-3.7.7-2.9 2.4-5.4 4.5-7.5.4-.4.9-.9 1.6-1.5-2.2-.2-4.2-.1-6.2 0-1 1.2-1.7 2.6-2.4 4-1.3 3-2.6 6-4 8.9-.8 1.6-1.8 3.2-2.9 4.7-.6.8-1.5 1.5-2.3 2.1-1.7 1.1-3 .4-3.1-1.6 0-1.1.2-2.3.5-3.4.8-2.6 2.1-5 3.8-7.1 2-2.5 4.1-4.8 6.7-6.7 0 .3.1.2.5-.2zM43.2 1c-.9 1.3-.6 2.5-.2 3.7.5 1.8 1.5 3.3 2.7 4.8 2.3 3 5.3 5.2 8.3 7.4.1.1.2.1.5.1-.1-.4-.2-.7-.3-1-1.2-2.5-2.3-5.1-3.6-7.6-.8-1.6-1.8-3.2-2.9-4.6C47 2.9 46 2.2 45 1.5c-.5-.3-1.2-.4-1.8-.5zm11.5 20.4c-.1 0-.1-.1-.2-.1-.3.2-.7.4-1 .7-2.6 2.2-5 4.7-6.9 7.6-1.1 1.7-1.9 3.5-2.7 5.4-.4.9-.4 1.9-.5 2.8 0 .4.3.9.4 1.4 1.1-.1 1.7-.6 2.3-1.2 1.6-1.5 2.7-3.4 3.6-5.3 1.3-2.7 2.4-5.4 3.6-8.2.6-1.2 1-2.1 1.4-3.1zM28.6 2.6c-.5 1.1-.6 1.6-.2 2.4.5 1.3 1.1 2.5 1.8 3.7 2 3.1 4.6 5.5 7.7 7.6.9.6 1.8 1.2 2.8 1.8.1-.2.1-.3.1-.4-1.8-3.6-3.4-7.2-5.8-10.2-1.2-1.5-2.7-2.9-4.4-3.9-.6-.4-1.3-.6-2-1zm3 36.1c1.4-.2 2.3-1.1 3.1-2.1 1.7-2.2 2.9-4.6 4-7.2 1-2.3 2-4.5 3-6.8.1-.2.2-.5.3-.8-.3.1-.4.1-.5.2-3.7 3.2-7.1 6.7-9.3 11-.5 1-.8 2-1.1 3.1-.2.9-.3 1.8.5 2.6zm-1.7-17.4.3-.3c-.1-.1-.2-.3-.3-.4-1.4-1.7-2.7-3.3-4.1-5-1.6-2-3.2-4.1-4.9-6.1-.7-.8-1.6-1.4-2.5-1.9-.9-.5-1.8.2-1.7 1.2.1.7.3 1.3.6 1.9 1 1.9 2.3 3.5 4 4.7 2.8 2.1 5.7 4 8.6 5.9zm-11 15.6c1 .2 1.7-.3 2.3-.9.9-1 1.8-2 2.5-3.1 1.8-3 3.5-6 5.2-9 0 0-.1-.1-.2-.4-3.9 2.4-7.7 5-9.9 9.2-.3.5-.5 1.1-.6 1.7 0 .9-.1 1.8.7 2.5zm.5-12.9c0-.1-.1-.2-.1-.3l-2.4.9c-2.6 1-5.1 2.2-7.4 3.8-1.7 1.2-3.1 2.8-3.7 4.8-.2.6-.4 1.2.2 2 .4-.1 1-.2 1.4-.4.6-.4 1.2-.8 1.8-1.3 3.3-3.3 6.4-6.8 10.2-9.5zm-15-6.7c.5 1 .7 1.2 2 2 3.8 2.5 8.3 2.5 12.6 3.1-3.4-2.4-6.9-4.5-10.9-5.6-.6-.2-1.3-.2-1.9-.3-.7 0-1.4.1-1.8.8zm51-12.2c0 .6-.1 1.2.1 1.7.5 1.1 1 2.2 1.7 3.2 1.7 2.5 3.8 4.5 6.1 6.5.1.1.3.1.7.3-1.5-3.1-2.9-6-4.4-8.7-.5-.9-1.2-1.6-1.9-2.3-.5-.6-1.2-1-2.3-.7zM15.2 23.8c-.4-.2-.5-.3-.7-.3-2.8-.2-5.6-.4-8.3 0-1.4.2-2.7.6-4.1 1.1-.6.2-1.3.7-1.3 1.6.7.6 1.5.6 2.4.5 4.1-.3 7.9-1.7 12-2.9zm43.4 9.3c1.5-.9 5.4-9.6 5.5-12.6-1.2 1.3-2.3 2.4-3.2 3.6-1.4 1.9-2.5 3.9-2.9 6.3-.1 1-.2 1.9.6 2.7z"/>
  <path class="st0" d="M41.8 21.2c.6 0 .9-.1 1.3-.1v.3c-.5.8-1 1.6-1.5 2.3-1.7 2.5-3.3 4.9-5.2 7.7.8-1.6 1.4-2.9 2-4.3-.1-.1-.2-.1-.3-.2-1.4 2.1-2.9 4.1-4.3 6.2 2.1-4.4 4.9-8.3 8-11.9zM45.8 4.7c1.8 2.6 3.3 5 5.1 7.3 1.7 2.3 3.6 4.4 5.3 6.7-2.5-1.1-6.7-5.3-7.8-7.8.6.6 1.2 1.3 1.8 1.9-1.4-2.7-3.3-5-4.4-8.1zM21.7 11.5c3.1 4 6.4 7.8 10.7 10.6-.1.1-.1.2-.2.3-.6-.2-1.4-.3-1.9-.7-3-2.1-5.8-4.4-8.3-7.2-.2-.3-.4-.6-.5-1l1.8 1.5c.1 0 .1-.1.2-.1-.7-1.1-1.4-2.1-2.1-3.2.1-.1.2-.1.3-.2zM36.6 13.1c-1.1-1.7-2.2-3.4-3.2-5.2.1 0 .1-.1.2-.1 3 3.7 5.9 7.4 9.1 11.3-2.4-.7-8.7-7.1-9.7-9.5 1.2 1.3 2.3 2.5 3.4 3.7 0-.1.1-.2.2-.2zM30 23.2c-2.1 3-4.3 5.9-6.4 8.9-.1 0-.1-.1-.2-.1l2.4-3.9c-.1-.1-.2-.1-.3-.2-1.9 2.1-3.8 4.2-5.2 6.7 0-2.2 6.3-9.6 9.7-11.4zM55.8 20.7c-2.2 3.2-4.3 6.1-6.4 9.1.3-.7.6-1.4.9-2l-.2-.2c-.4.5-.9 1-1.3 1.6-.4.6-.8 1.1-1.1 1.7-.4.6-.7 1.3-1.2 2 .5-3 6-10.3 9.3-12.2zM59.8 29.5c.5-1.1.9-2.2 1.4-3.4-.3 0-.5.1-.8.1 1.3-2.2 2.6-4.3 4.6-5.9-.2 1.1-.9 2-1.5 3s-1.2 2.1-1.7 3.1c-.6 1-1.1 2.1-1.7 3.1h-.3zM17.1 23.8c-4.4.5-8.7 1.1-13.4 1.7 2.1-1.1 12-2.4 13.4-1.7zM20.7 23c-4.2-.5-7.9-2.3-11.5-4.4 3.8 1.4 7.7 2.7 11.5 4.1v.3zM19.1 23.6c-3.1 2.4-6.7 4.1-9.5 7.1 1.2-2.2 6.4-6.1 9.5-7.1zM64.3 17.3c-2.2-2.2-4.1-4.7-5.8-7.3l.2-.2c1.9 2.4 3.9 4.8 5.8 7.2-.1.1-.1.2-.2.3z"/>
</svg>
